<?xml version="1.0" encoding="utf-8"?>
<!-- Generator: Adobe Illustrator 21.0.0, SVG Export Plug-In . SVG Version: 6.00 Build 0)  -->
<svg version="1.1" id="Layer_1" xmlns="http://www.w3.org/2000/svg" xmlns:xlink="http://www.w3.org/1999/xlink" x="0px" y="0px"
	 viewBox="0 0 261 16" style="enable-background:new 0 0 261 16;" xml:space="preserve">
<style type="text/css">
	.st0{fill:#5A6772;}
</style>
<g>
	<path class="st0" d="M11.4,7l1.4-6.8H9.3l0.1,1c-0.7-1-6.5-2.3-7.6,2.5c0,0-1.2,5.6-1.6,7.1c-0.7,3,1.4,5.3,4.7,5.3
		c5,0,5.5-3.6,5.9-6.2H7.4l-0.4,1.8c-0.2,0.9-0.8,1.4-1.7,1.3c-0.9-0.1-1.3-0.8-1.1-1.7L5.6,5c0.2-0.9,0.8-1.3,1.7-1.3
		s1.3,0.4,1.2,1L8,7H11.4z"/>
	<path class="st0" d="M20.7,0c-2.2,0-4.4,0.5-5.3,2.8c-0.5,1.5-1.7,5.8-1.9,6.7c-1.1,4.5,1.3,5.9,3.8,6.3c2.4,0.4,5.5-0.4,6.5-4.2
		c0.8-3.1,1.5-7.2,1.5-7.2C26,2,23.5,0,20.7,0z M21.6,5.4c-0.3,1.1-1.1,5.1-1.3,5.8c-0.2,0.7-0.5,1.7-2,1.6c-1.2-0.1-1.4-1-1.1-2
		l1.4-5.9c0.3-1,0.9-1.4,1.7-1.3C21.4,3.6,21.9,4.3,21.6,5.4z"/>
	<path class="st0" d="M36.7,0.2c-3.1,0-8.1,0-8.1,0L28.1,3c0.5,0,1.1,0.1,0.8,1.9l-1.5,7.2c-0.1,0.1-0.2,0.2-0.3,0.3
		c-0.3,0.2-0.7,0.3-1.2,0.3l-0.7,3h7.4l0.5-3c-0.3,0-0.8-0.1-0.9-0.1c-0.4-0.2-0.5-0.5-0.4-1l0.7-2.9c0.3-0.9,2.5-0.9,2.3,0.4
		c0,0.4-0.9,5.4-0.9,5.4c-0.1,0.4,0,0.6,0.2,0.8c0.2,0.2,0.6,0.3,1.1,0.3H39l0.5-2.9c-0.9,0-1.2-0.2-0.9-1.1
		c0.1-0.4,0.2-0.9,0.3-1.3c0.1-0.4,0.6-2.1-1.2-2.8c2-1.1,2.7-2.7,2.7-4C40.3,2.3,39.8,0.2,36.7,0.2z M35.5,5.7
		c-0.1,0.4-0.2,0.7-0.6,0.7c-0.4,0-2,0-2,0s0-0.2,0.5-2.4C33.6,3.1,34.2,3,34.6,3c0.9,0,1.2,0.4,1.1,1.2C35.6,4.8,35.6,5.2,35.5,5.7
		z"/>
	<path class="st0" d="M53.1,0.2c-3.1,0-8.1,0-8.1,0L44.4,3C45,3,45.6,3.1,45.3,5l-1.5,7.2c-0.1,0.1-0.2,0.2-0.3,0.3
		c-0.3,0.2-0.7,0.3-1.2,0.3l-0.7,3h7.4l0.5-3c-0.3,0-0.8-0.1-0.9-0.1c-0.4-0.2-0.5-0.5-0.4-1l0.7-2.9c0.3-0.9,2.5-0.9,2.3,0.4
		c0,0.4-0.9,5.4-0.9,5.4c-0.1,0.4,0,0.6,0.2,0.8c0.2,0.2,0.6,0.3,1.1,0.3h3.8l0.5-2.9c-0.9,0-1.2-0.2-0.9-1.1
		c0.1-0.4,0.2-0.9,0.3-1.3c0.1-0.4,0.6-2.1-1.2-2.8c2-1.1,2.7-2.7,2.7-4C56.6,2.3,56.2,0.2,53.1,0.2z M51.9,5.7
		c-0.1,0.4-0.2,0.7-0.6,0.7s-2,0-2,0s0-0.2,0.5-2.4C50,3.1,50.6,3,51,3c0.9,0,1.2,0.4,1.1,1.2C52,4.8,51.9,5.2,51.9,5.7z"/>
	<path class="st0" d="M93.4,0.2c-3.1,0-8.1,0-8.1,0L84.7,3c0.5,0,1.1,0.1,0.8,1.9L84,12.1c-0.1,0.1-0.2,0.2-0.3,0.3
		c-0.3,0.2-0.7,0.3-1.2,0.3l-0.7,3h7.4l0.5-3c-0.3,0-0.8-0.1-0.9-0.1c-0.4-0.2-0.5-0.5-0.4-1l0.7-2.9c0.3-0.9,2.5-0.9,2.3,0.4
		c0,0.4-0.9,5.4-0.9,5.4c-0.1,0.4,0,0.6,0.2,0.8c0.2,0.2,0.6,0.3,1.1,0.3h3.8l0.5-2.9c-0.9,0-1.2-0.2-0.9-1.1
		c0.1-0.4,0.2-0.9,0.3-1.3c0.1-0.4,0.6-2.1-1.2-2.8c2-1.1,2.7-2.7,2.7-4C96.9,2.3,96.5,0.2,93.4,0.2z M92.1,5.7
		c-0.1,0.4-0.2,0.7-0.6,0.7c-0.4,0-2,0-2,0s0-0.2,0.5-2.4C90.3,3.1,90.8,3,91.3,3c0.9,0,1.2,0.4,1.1,1.2C92.3,4.8,92.2,5.2,92.1,5.7
		z"/>
	<path class="st0" d="M241.9,0.2c-3.1,0-8.1,0-8.1,0L233.3,3c0.5,0,1.1,0.1,0.8,1.9l-1.5,7.2c-0.1,0.1-0.2,0.2-0.3,0.3
		c-0.3,0.2-0.7,0.3-1.2,0.3l-0.7,3h7.4l0.5-3c-0.3,0-0.8-0.1-0.9-0.1c-0.4-0.2-0.5-0.5-0.4-1l0.7-2.9c0.3-0.9,2.5-0.9,2.3,0.4
		c0,0.4-0.9,5.4-0.9,5.4c-0.1,0.4,0,0.6,0.2,0.8c0.2,0.2,0.6,0.3,1.1,0.3h3.8l0.5-2.9c-0.9,0-1.2-0.2-0.9-1.1
		c0.1-0.4,0.2-0.9,0.3-1.3c0.1-0.4,0.6-2.1-1.2-2.8c2-1.1,2.7-2.7,2.7-4C245.4,2.3,245,0.2,241.9,0.2z M240.7,5.7
		c-0.1,0.4-0.2,0.7-0.6,0.7c-0.4,0-2,0-2,0s0-0.2,0.5-2.4c0.2-0.8,0.8-0.9,1.2-0.9c0.9,0,1.2,0.4,1.1,1.2
		C240.8,4.8,240.7,5.2,240.7,5.7z"/>
	<path class="st0" d="M63.9,11.6c-0.2,0.8,0.2,1.3,1.2,1.3l-0.4,2.8h-7l0.6-2.8c0.9,0,1.4-0.1,1.7-1.5l1.5-7.1
		c0.1-0.5,0-1.2-0.4-1.4c-0.1,0-0.3-0.1-0.7-0.1l0.4-2.6h6.9l-0.5,2.6c-0.6,0-1.4,0.1-1.7,0.9L63.9,11.6"/>
	<path class="st0" d="M131.1,0.2c-0.5,0-1,0-1.5,0.1h-4.8l-0.4,2.6c0.3,0,0.6,0,0.7,0.1c0.4,0.2,0.5,0.9,0.4,1.4l-1.5,7.1
		c-0.3,1.4-0.8,1.5-1.7,1.5l-0.6,2.8h7l0,0c2.7,0,4.9-0.4,5.9-3.8c0.7-3.1,1.4-7.2,1.4-7.2C136.3,2.2,134.2,0.2,131.1,0.2z M132,5.4
		c-0.2,1.1-0.8,5.1-1.1,5.8c-0.5,1.6-0.6,1.7-3.4,1.6c0,0,1.8-9.2,1.8-9.2c0.5,0,0.6,0,1.4,0.1C131.8,3.6,132.2,4.3,132,5.4z"/>
	<path class="st0" d="M77.9,9.8h2.6l-1.3,5.9H67.5l0.7-2.8c0.7,0,1.5-0.2,1.7-1.1l1.4-7.5c0.3-1.2-0.5-1.4-1-1.4l0.4-2.7h11.7
		l-1,5.4H79c0-0.1,0-0.5,0-0.8c0-0.6-0.2-1-0.4-1.3C78.3,3,77.7,3,77.3,3c-0.9,0-1.9,0.4-2.1,1.6C75,5.1,75,5.1,74.9,5.6
		c-0.1,0.8-0.4,1.6,0.4,1.7c0.2,0,0.8-0.1,0.8-0.4c0.1-0.5,0.2-1,0.3-1.9h1.3l-1.2,6.2h-1.2c0,0,0.3-1.5,0.3-1.7
		c0.1-0.5-0.3-0.7-0.6-0.7c-0.5,0-0.8,0.2-0.9,0.9c-0.1,0.3-0.2,0.9-0.2,1.5c-0.1,0.5-0.1,1.4,0.2,1.7c0.3,0.4,0.7,0.5,1.2,0.5
		c0.8,0,1.3-0.3,1.7-0.8C77.3,12.2,77.6,11,77.9,9.8"/>
	<path class="st0" d="M108.1,9.8h2.6l-1.3,5.9H97.7l0.7-2.8c0.7,0,1.5-0.2,1.7-1.1l1.4-7.5c0.3-1.2-0.5-1.4-1-1.4l0.4-2.7h11.7
		l-1,5.4h-2.4c0-0.1,0-0.5,0-0.8c0-0.6-0.2-1-0.4-1.3C108.5,3,108,3,107.5,3c-0.9,0-1.9,0.4-2.1,1.6c-0.1,0.5-0.1,0.6-0.2,1.1
		c-0.1,0.8-0.4,1.6,0.4,1.7c0.2,0,0.8-0.1,0.8-0.4c0.1-0.5,0.2-1,0.3-1.9h1.3l-1.2,6.2h-1.2c0,0,0.3-1.5,0.3-1.7
		c0.1-0.5-0.3-0.7-0.6-0.7c-0.5,0-0.8,0.2-0.9,0.9c-0.1,0.3-0.2,0.9-0.2,1.5c-0.1,0.5-0.1,1.4,0.2,1.7c0.3,0.4,0.7,0.5,1.2,0.5
		c0.8,0,1.3-0.3,1.7-0.8C107.5,12.2,107.8,11,108.1,9.8"/>
	<path class="st0" d="M146.1,9.8h2.6l-1.3,5.9h-11.6l0.7-2.8c0.7,0,1.5-0.2,1.7-1.1l1.4-7.5c0.3-1.2-0.5-1.4-1-1.4l0.4-2.7h11.7
		l-1,5.4h-2.4c0-0.1,0-0.5,0-0.8c0-0.6-0.2-1-0.4-1.3C146.6,3,146,3,145.5,3c-0.9,0-1.9,0.4-2.1,1.6c-0.1,0.5-0.1,0.6-0.2,1.1
		c-0.1,0.8-0.4,1.6,0.4,1.7c0.2,0,0.8-0.1,0.8-0.4c0.1-0.5,0.2-1,0.3-1.9h1.3l-1.2,6.2h-1.2c0,0,0.3-1.5,0.3-1.7
		c0.1-0.5-0.3-0.7-0.6-0.7c-0.5,0-0.8,0.2-0.9,0.9c-0.1,0.3-0.2,0.9-0.2,1.5c-0.1,0.5-0.1,1.4,0.2,1.7c0.3,0.4,0.7,0.5,1.2,0.5
		c0.8,0,1.3-0.3,1.7-0.8C145.6,12.2,145.9,11,146.1,9.8"/>
	<path class="st0" d="M226.7,9.8h2.6l-1.3,5.9h-11.6l0.7-2.8c0.7,0,1.5-0.2,1.7-1.1l1.4-7.5c0.3-1.2-0.5-1.4-1-1.4l0.4-2.7h11.7
		l-1,5.4h-2.4c0-0.1,0-0.5,0-0.8c0-0.6-0.2-1-0.4-1.3C227.1,3,226.6,3,226.1,3c-0.9,0-1.9,0.4-2.1,1.6c-0.1,0.5-0.1,0.6-0.2,1.1
		c-0.1,0.8-0.4,1.6,0.4,1.7c0.2,0,0.8-0.1,0.8-0.4c0.1-0.5,0.2-1,0.3-1.9h1.3l-1.2,6.2h-1.2c0,0,0.3-1.5,0.3-1.7
		c0.1-0.5-0.3-0.7-0.6-0.7c-0.5,0-0.8,0.2-0.9,0.9c-0.1,0.3-0.2,0.9-0.2,1.5c-0.1,0.5-0.1,1.4,0.2,1.7c0.3,0.4,0.7,0.5,1.2,0.5
		c0.8,0,1.3-0.3,1.7-0.8C226.1,12.2,226.4,11,226.7,9.8"/>
	<path class="st0" d="M153.2,0.2l-0.4,2.7c0.5,0,1.3,0.2,1,1.4l-1.4,7.5c-0.2,0.8-1,1.1-1.7,1.1l-0.7,2.8h11.6l1.3-5.9h-2.6
		c-0.3,1.2-0.6,2.4-0.8,2.8c-0.4,0.5-0.9,0.8-1.7,0.8c-0.5,0-0.9-0.2-1.2-0.5c-0.3-0.4-0.3-1.3-0.2-1.7c0.1-0.6,0.2-1.2,0.2-1.5
		l0.7-4c0.1-0.5,0.1-0.6,0.2-1.1c0.2-1.2,0.8-1.7,1.7-1.6l0.5-2.7"/>
	<path class="st0" d="M166.6,0.2l-0.4,2.7c0.5,0,1.3,0.2,1,1.4l-1.4,7.5c-0.2,0.8-1,1.1-1.7,1.1l-0.7,2.8h11.6l1.3-5.9h-2.6
		c-0.3,1.2-0.6,2.4-0.8,2.8c-0.4,0.5-0.9,0.8-1.7,0.8c-0.5,0-0.9-0.2-1.2-0.5c-0.3-0.4-0.3-1.3-0.2-1.7c0.1-0.6,0.2-1.2,0.2-1.5
		l0.7-4c0.1-0.5,0.1-0.6,0.2-1.1c0.2-1.2,0.8-1.7,1.7-1.6l0.5-2.7"/>
	<path class="st0" d="M190.3,12l-3-11.8h-3.1l-5,11.9c-0.4,0.8-1.2,0.7-1.6,0.7l-0.6,2.8h6.3l0.5-2.8c0,0-1.3,0-1.3,0
		c-0.1-0.1-0.3-0.3-0.2-0.7c0.1-0.4,0.4-1.1,0.4-1.1l3.6,0c0,0,0.2,0.7,0.3,1.3c0.1,0.4-0.1,0.5-0.4,0.5h-1.3l-0.5,2.8h7.4l0.5-2.8
		C192.1,12.9,190.5,13,190.3,12z M183.2,9.5l1.5-3.6l1.1,3.6H183.2z"/>
	<path class="st0" d="M259.1,12l-3-11.8h-3.1l-5,11.9c-0.4,0.8-1.2,0.7-1.6,0.7l-0.6,2.8h6.3l0.5-2.8c0,0-1.3,0-1.3,0
		c-0.1-0.1-0.3-0.3-0.2-0.7c0.1-0.4,0.4-1.1,0.4-1.1l3.6,0c0,0,0.2,0.7,0.3,1.3c0.1,0.4-0.1,0.5-0.4,0.5h-1.3l-0.5,2.8h7.4l0.5-2.8
		C260.8,12.9,259.2,13,259.1,12z M252,9.5l1.5-3.6l1.1,3.6H252z"/>
	<path class="st0" d="M213.4,0.2h2.9l-1.2,5.4h-2.5V3.4c0,0-0.4-1.5-1.9-1.5S209,3.1,209,3.5c0,0.4,0.2,1.5,2.3,2.4
		c2.2,1,4.7,2.4,4.5,5.2s-2.5,4.8-5.9,4.8c0,0-2.3,0-3.3-1.1c-0.2,0.5-0.4,0.9-0.4,0.9h-3l1.4-6.1h2.7c0,0-0.2,1.7,0.6,2.9
		c0.8,1.2,2.1,1.1,2.1,1.1s1.6,0,1.6-1.8s-3.8-2.6-5.1-4.2c-1.3-1.5-1.3-2.6-1.3-3.2c0-0.6,0.2-2.2,1.8-3.4c1.6-1.2,2.5-1,3.2-1
		c1.9,0,3.1,1,3.1,1L213.4,0.2z"/>
</g>
</svg>
