<?xml version="1.0" encoding="utf-8"?>
<!-- Generator: Adobe Illustrator 21.0.0, SVG Export Plug-In . SVG Version: 6.00 Build 0)  -->
<svg version="1.1" id="Layer_1" xmlns="http://www.w3.org/2000/svg" xmlns:xlink="http://www.w3.org/1999/xlink" x="0px" y="0px"
	 viewBox="0 0 122 21.8" style="enable-background:new 0 0 122 21.8;" xml:space="preserve">
<style type="text/css">
	.st0{fill:#5A6772;}
</style>
<g>
	<path class="st0" d="M58.4,18.1l3.7-4.7l-1.9-1.1V8.5l5-3.8c2.6,1.4,4.2-0.2,4.2-0.2v0.3l-3.4,4.4l1.8,1v5.3l-4.5,3
		c-2.3-2-4.8,0-4.8,0L58.4,18.1L58.4,18.1L58.4,18.1z M63.9,10.9l3.5-4.5c-1.1,1.4-4.5,0.5-4.5,0.5v3.4L63.9,10.9L63.9,10.9
		L63.9,10.9z M60.3,16.4c0,0,2.4-1.1,4.6,0V12l-0.8-0.5L60.3,16.4L60.3,16.4z"/>
	<path class="st0" d="M75,4.5l2,1.9c0,0,0.7-0.5,0.7-0.6l0.4,0.5L77,7.2v8.2l0.7,0.8l0.6-0.5l0.4,0.4l-2.5,2.4l-1.9-2l-3.4,2.2
		c-0.4-0.2-2.4-1.6-2.4-3.8c0-5.1,5.4-3.7,5.4-3.7l-4.2-4.1c-0.2-0.3-0.4-0.6-0.4-1c0-0.8,0.7-1.4,1.5-1.4s1.5,0.6,1.5,1.4
		c0,0.3-0.1,0.5-0.2,0.7C72,6.9,74.1,6.9,75,4.5L75,4.5L75,4.5z M74.2,10.8V6.6c-1.1,0.9-2.5,1.1-3.2,1.1L74.2,10.8L74.2,10.8
		L74.2,10.8z M73.1,16.8l1.1-0.7v-4c0,0-2.7-0.4-2.7,1.9C71.5,14.8,71.9,15.8,73.1,16.8L73.1,16.8z"/>
	<path class="st0" d="M25.4,10c0-1.9,2.7-1.9,2.7-1.9V4.7L33.4,0l2.3,2.2c0,0,2.4-2.2,2.4-2.2l2.4,2.3l0.6-0.5l0.4,0.4l-1,0.9v12.1
		l1,1l0.6-0.5l0.4,0.4l-2.5,2.4l-1.8-1.9l-0.7,0.6L37,16.8l0.7-0.6V3.4l-0.9-0.8c0,0,0,14,0,14s0.1,0.1,0.1,0.1l-2,1.9l-1.8-1.9
		l-0.7,0.6l-0.4-0.4l0.8-0.7V11H32v4.2c0,0,0.2,3.5-3.7,3.5c-1.5,0-1.2-0.2-1.9-0.2c0,0-1.6,0-1.6,1.1c0,0.5,0.2,0.6,0.3,0.7
		c0,0-2.3,0.3-2.3-2.3c0-2.5,3.2-2.4,3.3-2.4c0.5,0,1.6,0.2,2.7,0.6c0,0,0.6,0.2,1.4,0.2c1.3,0,1.4-0.7,1.4-1.2V2.2l-0.6,0.5
		c0,0,0,8.5,0,10c0,2.6-3.2,2.3-3.2,2.3c0.5-0.4,0.4-0.8,0.4-0.8V11h-1.1c-1.2,0-1.7,0.6-1.7,0.6L25.4,10L25.4,10L25.4,10z M32,2.5
		v5.6h0.9V3.4L32,2.5L32,2.5L32,2.5z M35.7,2.7v5.4h0.6V2.2L35.7,2.7L35.7,2.7L35.7,2.7z M35.7,11v4.3l0.6,0.6v-5H35.7L35.7,11
		L35.7,11z M25.3,3.3c0.8,0.1,2.1,0.1,2.1,0.1c1.4,0,2.2-0.6,2.9-1.4c0.7-0.8,0.4-2,0.4-2c-0.6,1-3.1,0.6-3.1,0.6
		c-1.2-0.3-2.3-0.3-2.3-0.3c-1.7,0-2.6,1.2-2.6,2.4c0,2,1.6,2.2,1.6,2.2C23.5,3.2,25.3,3.3,25.3,3.3L25.3,3.3z"/>
	<path class="st0" d="M46.3,11.9v3.2l1,1l0.6-0.5l0.4,0.4l-2.5,2.4l-1.8-1.9l-0.7,0.6l-0.4-0.4l0.7-0.6V7.8l5.1-3.4l2.5,3.7
		L46.3,11.9L46.3,11.9L46.3,11.9z M48.6,9.4l-2-3l-0.3,0.2v4.6L48.6,9.4L48.6,9.4z"/>
	<path class="st0" d="M49.8,18.1l3.7-4.7l-1.9-1.1V8.5l5-3.8c2.6,1.4,4.2-0.2,4.2-0.2v0.3l-3.4,4.4l1.8,1v5.3l-4.5,3
		c-2.3-2-4.8,0-4.8,0L49.8,18.1L49.8,18.1L49.8,18.1z M55.3,10.9l3.5-4.5c-1.1,1.4-4.5,0.5-4.5,0.5v3.4L55.3,10.9L55.3,10.9
		L55.3,10.9z M51.8,16.4c0,0,2.4-1.1,4.6,0V12l-0.8-0.5L51.8,16.4L51.8,16.4z"/>
	<path class="st0" d="M9.8,0.1c0,0,0.2,3.2-3.4,3.2C4.9,3.4,4.7,3,3.8,3C3,3,2.9,3.4,2.9,3.6S3,4,3.2,4.3c0,0-2-0.3-2-2.3
		c0-1.4,1.3-1.8,3-1.8c0.7,0,1.3,0.2,1.9,0.3c0.6,0.2,1.6,0.4,2.1,0.4C8.7,0.8,9.3,0.7,9.8,0.1L9.8,0.1L9.8,0.1z M3.2,11.6
		c0,0,0.5-0.6,1.7-0.6h0.7v4.8c0,0,0,0.3,0.6,0.3s2.2-0.9,2.2-2.4s0-8.2,0-8.2s-0.1-1.3,1-1.9c0,0-3.8-0.3-3.8,3.4v0.9
		c0,0-2.3,0-2.3,1.9L3.2,11.6L3.2,11.6L3.2,11.6z M13.9,0.7c0,0-4.1-0.9-4.1,3.9v12.5c0,0,0,1.6-1.6,1.6c0,0-1.1,0.1-2.9-1.6
		c0,0-1.6-1.8-2.8-1.8C1.2,15.2,0,16,0,17.4c0,1.4,1,2.7,2.1,2.7c0,0-0.4-0.3-0.4-0.8c0-0.5,0.6-0.8,1.4-0.8c0.8,0,1.4,0.2,2.7,0.6
		c1.3,0.4,2.4,0.5,2.7,0.5s4-0.1,4-3.7c0-3.6,0-13,0-13S12.4,1.2,13.9,0.7L13.9,0.7z"/>
	<polygon class="st0" points="14.7,4 16.9,2 16.9,15.2 17.9,16.3 18.5,15.8 18.8,16.2 16.2,18.5 14.4,16.6 13.8,17.2 13.4,16.8 
		14.1,16.2 14.1,3.7 	"/>
	<path class="st0" d="M86.8,6.5l-2.1-2.1l-5.1,3.4v8.4L79,16.9l0.4,0.4l0.7-0.6l1.8,1.9l2.3-2.2c0,0,0.1,0.7,1.9,1.4
		c0.9,0.3,1.3,1,1.3,1.4c0,0.4-0.3,0.9-1.1,0.9c-1.2,0-2.6-1-4-1c-1.4,0-2.4,0.8-2.4,2.8c0,0,1.4-0.8,3.3-0.2
		c0.3,0.1,0.6,0.1,0.6,0.1c0,0-0.3-1.3,1-1.1c1.3,0.2,3.8,0.6,3.8-2c0-0.4-0.1-0.7-0.5-1.1c-0.3-0.4-1.3-1-1.3-2.2s0-8.2,0-8.2
		l1.1-1l-0.4-0.4L86.8,6.5L86.8,6.5L86.8,6.5z M84.2,7.8v7.8l-0.7,0.6l-1-1V6.6l0.3-0.2L84.2,7.8L84.2,7.8z"/>
	<path class="st0" d="M109.9,6.8v8.3l1,1l0.6-0.5l0.4,0.4l-2.5,2.4l-1.8-1.9l-0.7,0.6l-0.4-0.4l0.7-0.7V7.6L105.4,6l2.3-1.6l1.9,1.9
		l2.1-1.9c0,0,1.2,2.3,3.8,0.1C115.6,4.5,114.7,8.5,109.9,6.8L109.9,6.8z"/>
	<path class="st0" d="M113.8,7.9c0,0,2.7-0.7,4.5-3.5l2.4,2.3l1-0.8l0.3,0.4l-0.9,0.8v7.6c0,0-2.3,0.4-5.1,3.8l-1.8-1.9l-0.7,0.6
		l-0.4-0.4l0.7-0.6L113.8,7.9L113.8,7.9L113.8,7.9z M116.8,6.8L116.6,7v8.2l1,1l0.8-0.6V8.3L116.8,6.8L116.8,6.8z"/>
	<path class="st0" d="M96.2,6.5l-2.1-2.1l-5.1,3.4v8.4l-0.7,0.7l0.4,0.4l0.7-0.6l1.8,1.9l2.3-2.2c0,0,0.1,0.7,1.9,1.4
		c0.9,0.3,1.3,1,1.3,1.4c0,0.4-0.3,0.9-1.1,0.9c-1.2,0-2.6-1-4-1c-1.4,0-2.4,0.8-2.4,2.8c0,0,1.4-0.8,3.3-0.2
		c0.3,0.1,0.6,0.1,0.6,0.1c0,0-0.3-1.3,1-1.1c1.3,0.2,3.8,0.6,3.8-2c0-0.4-0.1-0.7-0.5-1.1c-0.3-0.4-1.3-1-1.3-2.2s0-8.2,0-8.2
		l1.1-1L97,5.8L96.2,6.5L96.2,6.5L96.2,6.5z M93.6,7.8v7.8l-0.7,0.6l-1-1V6.6l0.3-0.2L93.6,7.8L93.6,7.8z"/>
	<path class="st0" d="M101.4,11.9v3.2l1,1l0.6-0.5l0.4,0.4l-2.5,2.4L99,16.6l-0.7,0.6L98,16.8l0.7-0.6V7.8l5.1-3.4l2.5,3.7
		L101.4,11.9L101.4,11.9L101.4,11.9z M103.7,9.4l-2-3l-0.3,0.2v4.6L103.7,9.4L103.7,9.4z"/>
</g>
</svg>
