<?xml version="1.0" encoding="utf-8"?>
<!-- Generator: Adobe Illustrator 21.0.0, SVG Export Plug-In . SVG Version: 6.00 Build 0)  -->
<svg version="1.1" id="Livello_1" xmlns="http://www.w3.org/2000/svg" xmlns:xlink="http://www.w3.org/1999/xlink" x="0px" y="0px"
	 viewBox="0 0 122.1 32.8" style="enable-background:new 0 0 122.1 32.8;" xml:space="preserve">
<style type="text/css">
	.st0{fill-rule:evenodd;clip-rule:evenodd;fill:#5A6772;}
	
		.st1{fill-rule:evenodd;clip-rule:evenodd;fill:#FFFFFF;stroke:#5A6772;stroke-width:0.1643;stroke-linecap:round;stroke-linejoin:round;stroke-miterlimit:2.6131;}
	
		.st2{fill-rule:evenodd;clip-rule:evenodd;fill:#FFFFFF;stroke:#3A3636;stroke-width:0.1643;stroke-linecap:round;stroke-linejoin:round;stroke-miterlimit:2.6131;}
	
		.st3{fill-rule:evenodd;clip-rule:evenodd;fill:#5A6772;stroke:#5A6772;stroke-width:0.1643;stroke-linecap:round;stroke-linejoin:round;stroke-miterlimit:2.6131;}
	.st4{fill-rule:evenodd;clip-rule:evenodd;fill:#FFFFFF;}
	
		.st5{fill-rule:evenodd;clip-rule:evenodd;fill:#FFFFFF;stroke:#5A6772;stroke-width:0.3295;stroke-linecap:round;stroke-linejoin:round;stroke-miterlimit:2.6131;}
	.st6{fill-rule:evenodd;clip-rule:evenodd;fill:#3A3636;}
	.st7{fill:#5A6772;}
</style>
<path class="st0" d="M32.4,0.4c0.2,0.2,0.3,0.4,0.3,0.6v6.4c0,0.5-0.4,0.9-0.9,0.9h-6.4c-0.2,0-0.5-0.1-0.6-0.3L25.9,7
	c0.1,0.1,0.3,0.2,0.4,0.2H31c0.3,0,0.6-0.3,0.6-0.6V1.9c0-0.2-0.1-0.3-0.2-0.4L32.4,0.4L32.4,0.4z"/>
<path class="st1" d="M24.8,8.1c-0.2-0.2-0.3-0.4-0.3-0.6V1.1c0-0.5,0.4-0.9,0.9-0.9h6.4c0.2,0,0.5,0.1,0.6,0.3l-1.1,1.1
	c-0.1-0.1-0.3-0.2-0.4-0.2h-4.7c-0.3,0-0.6,0.3-0.6,0.6v4.7c0,0.2,0.1,0.3,0.2,0.4L24.8,8.1L24.8,8.1z"/>
<path class="st1" d="M26.3,1.3H31c0.3,0,0.6,0.3,0.6,0.6v4.7c0,0.3-0.3,0.6-0.6,0.6h-4.7c-0.3,0-0.6-0.3-0.6-0.6V1.9
	C25.7,1.6,26,1.3,26.3,1.3L26.3,1.3z"/>
<path class="st0" d="M32.4,8.6c0.2,0.2,0.3,0.4,0.3,0.6v6.4c0,0.5-0.4,0.9-0.9,0.9h-6.4c-0.2,0-0.5-0.1-0.6-0.3l1.1-1.1
	c0.1,0.1,0.3,0.2,0.4,0.2H31c0.3,0,0.6-0.3,0.6-0.6v-4.7c0-0.2-0.1-0.3-0.2-0.4L32.4,8.6L32.4,8.6z"/>
<path class="st1" d="M24.8,16.2c-0.2-0.2-0.3-0.4-0.3-0.6V9.2c0-0.5,0.4-0.9,0.9-0.9h6.4c0.2,0,0.5,0.1,0.6,0.3l-1.1,1.1
	c-0.1-0.1-0.3-0.2-0.4-0.2h-4.7c-0.3,0-0.6,0.3-0.6,0.6v4.7c0,0.2,0.1,0.3,0.2,0.4L24.8,16.2L24.8,16.2z"/>
<path class="st1" d="M26.3,9.5H31c0.3,0,0.6,0.3,0.6,0.6v4.7c0,0.3-0.3,0.6-0.6,0.6h-4.7c-0.3,0-0.6-0.3-0.6-0.6v-4.7
	C25.7,9.8,26,9.5,26.3,9.5L26.3,9.5z"/>
<path class="st0" d="M32.4,16.7c0.2,0.2,0.3,0.4,0.3,0.6v6.4c0,0.5-0.4,0.9-0.9,0.9h-6.4c-0.2,0-0.5-0.1-0.6-0.3l1.1-1.1
	c0.1,0.1,0.3,0.2,0.4,0.2H31c0.3,0,0.6-0.3,0.6-0.6v-4.7c0-0.2-0.1-0.3-0.2-0.4L32.4,16.7L32.4,16.7z"/>
<path class="st1" d="M24.8,24.4c-0.2-0.2-0.3-0.4-0.3-0.6v-6.4c0-0.5,0.4-0.9,0.9-0.9h6.4c0.2,0,0.5,0.1,0.6,0.3l-1.1,1.1
	c-0.1-0.1-0.3-0.2-0.4-0.2h-4.7c-0.3,0-0.6,0.3-0.6,0.6v4.7c0,0.2,0.1,0.3,0.2,0.4L24.8,24.4L24.8,24.4z"/>
<path class="st1" d="M26.3,17.7H31c0.3,0,0.6,0.3,0.6,0.6v4.7c0,0.3-0.3,0.6-0.6,0.6h-4.7c-0.3,0-0.6-0.3-0.6-0.6v-4.7
	C25.7,17.9,26,17.7,26.3,17.7L26.3,17.7z"/>
<path class="st2" d="M26.3,25.8H31c0.3,0,0.6,0.3,0.6,0.6V31c0,0.3-0.3,0.6-0.6,0.6l-5.2-5.2C25.7,26.1,26,25.8,26.3,25.8L26.3,25.8
	z"/>
<path class="st3" d="M24.3,0.4c0.2,0.2,0.3,0.4,0.3,0.6v6.4c0,0.5-0.4,0.9-0.9,0.9h-6.4c-0.2,0-0.5-0.1-0.6-0.3L17.7,7
	c0.1,0.1,0.3,0.2,0.4,0.2h4.7c0.3,0,0.6-0.3,0.6-0.6V1.9c0-0.2-0.1-0.3-0.2-0.4L24.3,0.4L24.3,0.4z"/>
<path class="st1" d="M16.6,8.1c-0.2-0.2-0.3-0.4-0.3-0.6V1.1c0-0.5,0.4-0.9,0.9-0.9h6.4c0.2,0,0.5,0.1,0.6,0.3l-1.1,1.1
	c-0.1-0.1-0.3-0.2-0.4-0.2h-4.7c-0.3,0-0.6,0.3-0.6,0.6v4.7c0,0.2,0.1,0.3,0.2,0.4L16.6,8.1L16.6,8.1z"/>
<path class="st1" d="M18.1,1.3h4.7c0.3,0,0.6,0.3,0.6,0.6v4.7c0,0.3-0.3,0.6-0.6,0.6h-4.7c-0.3,0-0.6-0.3-0.6-0.6V1.9
	C17.6,1.6,17.8,1.3,18.1,1.3L18.1,1.3z"/>
<path class="st0" d="M16.1,0.4c0.2,0.2,0.3,0.4,0.3,0.6v6.4c0,0.5-0.4,0.9-0.9,0.9H9.1c-0.2,0-0.5-0.1-0.6-0.3L9.6,7
	C9.7,7.1,9.8,7.2,10,7.2h4.7c0.3,0,0.6-0.3,0.6-0.6V1.9c0-0.2-0.1-0.3-0.2-0.4L16.1,0.4L16.1,0.4z"/>
<path class="st1" d="M8.5,8.1C8.3,7.9,8.2,7.7,8.2,7.5V1.1c0-0.5,0.4-0.9,0.9-0.9h6.4c0.2,0,0.5,0.1,0.6,0.3l-1.1,1.1
	c-0.1-0.1-0.3-0.2-0.4-0.2H10c-0.3,0-0.6,0.3-0.6,0.6v4.7c0,0.2,0.1,0.3,0.2,0.4L8.5,8.1L8.5,8.1z"/>
<path class="st1" d="M10,1.3h4.7c0.3,0,0.6,0.3,0.6,0.6v4.7c0,0.3-0.3,0.6-0.6,0.6H10c-0.3,0-0.6-0.3-0.6-0.6V1.9
	C9.4,1.6,9.7,1.3,10,1.3L10,1.3z"/>
<path class="st3" d="M24.3,8.6c0.2,0.2,0.3,0.4,0.3,0.6v6.4c0,0.5-0.4,0.9-0.9,0.9h-6.4c-0.2,0-0.5-0.1-0.6-0.3l1.1-1.1
	c0.1,0.1,0.3,0.2,0.4,0.2h4.7c0.3,0,0.6-0.3,0.6-0.6v-4.7c0-0.2-0.1-0.3-0.2-0.4L24.3,8.6L24.3,8.6z"/>
<path class="st1" d="M16.6,16.2c-0.2-0.2-0.3-0.4-0.3-0.6V9.2c0-0.5,0.4-0.9,0.9-0.9h6.4c0.2,0,0.5,0.1,0.6,0.3l-1.1,1.1
	c-0.1-0.1-0.3-0.2-0.4-0.2h-4.7c-0.3,0-0.6,0.3-0.6,0.6v4.7c0,0.2,0.1,0.3,0.2,0.4L16.6,16.2L16.6,16.2z"/>
<path class="st1" d="M18.1,9.5h4.7c0.3,0,0.6,0.3,0.6,0.6v4.7c0,0.3-0.3,0.6-0.6,0.6h-4.7c-0.3,0-0.6-0.3-0.6-0.6v-4.7
	C17.6,9.8,17.8,9.5,18.1,9.5L18.1,9.5z"/>
<path class="st3" d="M24.3,16.7c0.2,0.2,0.3,0.4,0.3,0.6v6.4c0,0.5-0.4,0.9-0.9,0.9h-6.4c-0.2,0-0.5-0.1-0.6-0.3l1.1-1.1
	c0.1,0.1,0.3,0.2,0.4,0.2h4.7c0.3,0,0.6-0.3,0.6-0.6v-4.7c0-0.2-0.1-0.3-0.2-0.4L24.3,16.7L24.3,16.7z"/>
<path class="st1" d="M16.6,24.4c-0.2-0.2-0.3-0.4-0.3-0.6v-6.4c0-0.5,0.4-0.9,0.9-0.9h6.4c0.2,0,0.5,0.1,0.6,0.3l-1.1,1.1
	c-0.1-0.1-0.3-0.2-0.4-0.2h-4.7c-0.3,0-0.6,0.3-0.6,0.6v4.7c0,0.2,0.1,0.3,0.2,0.4L16.6,24.4L16.6,24.4z"/>
<path class="st1" d="M18.1,17.7h4.7c0.3,0,0.6,0.3,0.6,0.6v4.7c0,0.3-0.3,0.6-0.6,0.6h-4.7c-0.3,0-0.6-0.3-0.6-0.6v-4.7
	C17.6,17.9,17.8,17.7,18.1,17.7L18.1,17.7z"/>
<path class="st0" d="M16.1,8.6c0.2,0.2,0.3,0.4,0.3,0.6v6.4c0,0.5-0.4,0.9-0.9,0.9H9.1c-0.2,0-0.5-0.1-0.6-0.3l1.1-1.1
	c0.1,0.1,0.3,0.2,0.4,0.2h4.7c0.3,0,0.6-0.3,0.6-0.6v-4.7c0-0.2-0.1-0.3-0.2-0.4L16.1,8.6L16.1,8.6z"/>
<path class="st1" d="M8.5,16.2c-0.2-0.2-0.3-0.4-0.3-0.6V9.2c0-0.5,0.4-0.9,0.9-0.9h6.4c0.2,0,0.5,0.1,0.6,0.3l-1.1,1.1
	c-0.1-0.1-0.3-0.2-0.4-0.2H10c-0.3,0-0.6,0.3-0.6,0.6v4.7c0,0.2,0.1,0.3,0.2,0.4L8.5,16.2L8.5,16.2z"/>
<path class="st1" d="M10,9.5h4.7c0.3,0,0.6,0.3,0.6,0.6v4.7c0,0.3-0.3,0.6-0.6,0.6H10c-0.3,0-0.6-0.3-0.6-0.6v-4.7
	C9.4,9.8,9.7,9.5,10,9.5L10,9.5z"/>
<path class="st1" d="M24.7,25c0.2-0.2,0.4-0.4,0.7-0.4h6.4c0.2,0,0.5,0.1,0.6,0.3L31.4,26c-0.1-0.1-0.3-0.2-0.4-0.2h-4.7
	c-0.2,0-0.4,0.1-0.5,0.3L24.7,25L24.7,25z"/>
<path class="st0" d="M31.4,31.5c0.1-0.1,0.2-0.3,0.2-0.4v-4.7c0-0.2-0.1-0.3-0.2-0.4l1.1-1.1c0.2,0.2,0.3,0.4,0.3,0.6v7.3
	C32.1,32.2,31.5,31.6,31.4,31.5L31.4,31.5z"/>
<path class="st1" d="M7.1,6.6V1.9c0-0.3-0.3-0.6-0.6-0.6H1.8c-0.3,0-0.6,0.3-0.6,0.6l5.2,5.2C6.8,7.2,7.1,6.9,7.1,6.6L7.1,6.6z"/>
<path class="st0" d="M7.8,8.2C8.1,8,8.2,7.8,8.2,7.5V1.1c0-0.2-0.1-0.5-0.3-0.6L6.9,1.5C7,1.6,7.1,1.8,7.1,1.9v4.7
	C7.1,6.8,7,7,6.8,7.1L7.8,8.2L7.8,8.2z"/>
<path class="st1" d="M1.4,1.5c0.1-0.1,0.3-0.2,0.4-0.2h4.7c0.2,0,0.3,0.1,0.4,0.2L8,0.4C7.8,0.3,7.6,0.2,7.4,0.2l-7.3,0
	C0.7,0.8,1.3,1.4,1.4,1.5L1.4,1.5z"/>
<path class="st0" d="M16.4,16.5L0.1,0.2C1.3,5.3,2,10.7,2,16.3c0,5.6-0.7,11.3-1.9,16.5c5.2-1.2,10.9-1.9,16.5-1.9
	c5.6,0,11,0.7,16.1,1.9L16.4,16.5L16.4,16.5z"/>
<path class="st4" d="M16,16.9L0.8,1.7C3,6.5,4,10.2,5,15.6c0.7,3.6,1.1,7.5,1.2,11c3.5,0.1,7.4,0.5,11,1.2c5.4,1.1,9.1,2,14,4.2
	L16,16.9L16,16.9z"/>
<path class="st4" d="M2.1,30.8c0.7-4.6,1-9.7,0.7-14.6C2.5,10.6,2.6,8.8,1.2,3.6c1.8,5.1,2.2,6.7,3,12.2c0.6,4,0.8,8.2,0.7,12.1
	c3.9-0.1,8.1,0.1,12.1,0.7c5.5,0.8,7.2,1.2,12.2,3c-5.2-1.4-7-1.3-12.5-1.6C11.8,29.8,6.8,30,2.1,30.8L2.1,30.8z"/>
<path class="st0" d="M41.6,7.4c-0.6,0-1.1-0.1-1.1-0.8V1.2c0-0.8,0.5-0.8,1.1-0.8V0.2h-3.9v0.3c0.5,0,1,0.1,1,0.8v5.4
	c0,0.7-0.4,0.7-1,0.8v0.3h3.9V7.4L41.6,7.4z"/>
<path class="st0" d="M60.8,7.4c-0.4,0-0.5-0.3-0.5-0.7V0.2h-1.9v0.3c0.5,0,0.5,0.5,0.5,0.6v5.7c0,0.3-0.1,0.7-0.5,0.7v0.3h2.4V7.4
	L60.8,7.4z"/>
<path class="st0" d="M52.7,2.4V0h-0.3c-0.1,0.2-0.1,0.4-0.4,0.4c-0.3,0-0.8-0.4-1.7-0.4c-2.1,0-2.5,1.5-2.5,2.2c0,0.5,0,1.5,1.9,2.4
	l0.7,0.4c0.7,0.3,1.2,0.6,1.2,1.4c0,0.1-0.1,1.2-1.4,1.2c-1.4,0-2.1-1.3-2.3-2.4h-0.3v2.7h0.3c0-0.2,0.1-0.4,0.3-0.4
	c0.3,0,0.8,0.4,1.9,0.4c2,0,2.8-1.3,2.8-2.3c0-1.2-0.8-1.9-1.2-2l-1.6-0.8c-0.9-0.5-1.1-0.7-1.1-1.3c0-0.7,0.6-1.1,1.2-1.1
	c1.3,0,2,1.3,2.2,2.1H52.7L52.7,2.4z"/>
<path class="st0" d="M44.5,7.4c-0.4,0-0.5-0.3-0.5-0.7V0.2h-2.1v0.3c0.5,0,0.6,0.5,0.6,0.6v5.7c0,0.3-0.1,0.7-0.6,0.7v0.3h2.7V7.4
	L44.5,7.4z"/>
<path class="st0" d="M62.4,4.6c0-1.5,0.3-1.8,0.7-1.8c0.4,0,0.5,0.3,0.5,0.5c0.1,0.3,0.1,0.9,0.1,1.3H62.4L62.4,4.6z M64.8,6.3
	c-0.2,0.3-0.5,0.7-1.1,0.7c-1,0-1.2-1.1-1.2-2.1H65c0-0.6-0.2-2.5-1.9-2.5c-1.2,0-2.1,1-2.1,2.7c0,1.9,1,2.7,2,2.7
	c0.8,0,1.4-0.4,2-1.4L64.8,6.3L64.8,6.3z"/>
<path class="st0" d="M55,5.2c0-1.3,0.1-2.4,0.8-2.4c0.6,0,0.8,0.7,0.8,2.4c0,1.4-0.1,2.4-0.8,2.4C55,7.5,55,6.4,55,5.2L55,5.2z
	 M53.5,5.2c0,1.4,0.9,2.7,2.3,2.7c1.4,0,2.3-1.2,2.3-2.7c0-1.5-0.9-2.7-2.3-2.7C54.4,2.4,53.5,3.7,53.5,5.2L53.5,5.2z"/>
<path class="st0" d="M43.7,23.4c-1.3-0.3-5.6-2.7-5.6-7.2C38,13.1,39.5,9,43.4,9c5.6,0,8.8,3.8,8.8,10.3c0,2.2-0.7,4.2-1.9,5.8
	l1.9,1.7v6H40.5L37.7,30V29C41.5,29,43.7,23.4,43.7,23.4L43.7,23.4z"/>
<path class="st5" d="M48.4,24h0.9v6H37.7v-1.3c3.5-2,5.7-4.9,6.2-8.4c0.5-3.8,0.8-9.6-1.8-9.7c-2.1,0-2.8,3-2.2,4
	c1.5-2.1,4.2-1.9,3.7,2.5c-0.5,4.9-5.5,3.5-5.6-1.1C38,13.1,39.5,9,43.4,9c4.1,0,6,3.3,6,7.5c-0.1,3.9-2.2,7-5.3,8.8h3.1
	C47.8,25.3,48.4,24.7,48.4,24L48.4,24z"/>
<polygon class="st0" points="63.4,9 66.3,11.8 66.3,24.3 68.8,26.8 68.8,28.1 65.9,28.1 65.9,28.7 68.8,31.5 68.8,32.8 59,32.8 
	56.2,30 56.2,29 58.7,29 58.7,28.1 54.7,28.1 51.8,25.3 63.4,9 "/>
<path class="st5" d="M65.3,28.7h0.6V30h-9.7v-1.3h0.6c1,0,1.9-0.8,1.9-1.9l0-1.6h-6.9V24c2-2.4,2.9-3.9,4.2-6.6
	c1.5-3.1,2.1-5,2.7-8.4c0.9,0.2,1.4,0.3,2.3,0.3c1,0,1.5-0.1,2.4-0.3V24h2.5v1.3h-2.5v1.6C63.4,27.9,64.3,28.7,65.3,28.7L65.3,28.7z
	"/>
<path class="st0" d="M53.1,24c2-2.4,2.9-3.9,4.2-6.6c0.6-1.3,1-2.4,1.4-3.4v10H53.1L53.1,24z"/>
<path class="st0" d="M87.5,22.2c0,6.1-3.1,10.7-6.9,10.7c-3.4,0-6.8-4.6-7.2-5.1c-1.4-2-2.2-4.9-2.2-8.1c0-6.1,3.1-11,6.9-11
	C85.2,8.7,87.5,16.6,87.5,22.2L87.5,22.2z"/>
<path class="st5" d="M71.3,19.6c0-6.1,3.1-11,6.9-11c3.8,0,6.9,4.9,6.9,11c0,6.1-3.1,11-6.9,11C74.4,30.6,71.3,25.7,71.3,19.6
	L71.3,19.6z"/>
<path class="st0" d="M78.2,10L78.2,10c0.9,0,1.6,0.7,1.6,1.6v16.1c0,0.9-0.7,1.6-1.6,1.6c-0.9,0-1.6-0.7-1.6-1.6V11.6
	C76.6,10.7,77.3,10,78.2,10L78.2,10z"/>
<path class="st0" d="M104.5,29.7l1.9,1.9v1.3h-5.3l-2.5-2.5l0,2.5h-8.5L87.3,30V29h2.8V13l-2.8-2.8V9h10.7c3.8,0,6.9,2.5,6.9,6.9
	c0,2.3-1.1,4.5-3.1,5.3c1.3,0.3,2.8,1.9,2.8,3.1L104.5,29.7L104.5,29.7z"/>
<path class="st5" d="M101.7,22.8l0,4.1c0,1,0.8,1.9,1.9,1.9V30h-3.5c-1.7,0-3.1-1.4-3.1-3.1l0-4.7c0-1-0.8-1.9-1.9-1.9h-1.3l0,6.6
	c0,1,0.8,1.9,1.9,1.9V30h-8.5v-1.3c1,0,1.9-0.8,1.9-1.9V12.1c0-1-0.8-1.9-1.9-1.9V9h10.7c2.2,0,4.1,2.6,4.1,5.3
	c0,2.3-1.1,4.5-3.1,5.3C100.1,19.9,101.7,21.5,101.7,22.8L101.7,22.8z"/>
<path class="st0" d="M95.1,10.2h-1.3V19h1.3c1,0,1.9-0.8,1.9-1.9v-5C97,11.1,96.1,10.2,95.1,10.2L95.1,10.2z"/>
<path class="st6" d="M118.9,26.5l-3.4-3.5v5L118.9,26.5L118.9,26.5z M106.1,30V29l2.8,0V13l-2.8-2.8V9h13.2l2.8,2.8v6.3h-1.3
	l-2.8-2.8c0,0,0-2.2-2.5-2.2v3.4h1.3l2.8,2.8l0,5c0,0,2.5,2.5,2.5,2.5l0,6h-13.2L106.1,30L106.1,30z"/>
<path class="st7" d="M118.9,26.5l-3.4-3.5v5L118.9,26.5L118.9,26.5z M106.1,30V29l2.8,0V13l-2.8-2.8V9h13.2l2.8,2.8v6.3h-1.3
	l-2.8-2.8c0,0,0-2.2-2.5-2.2v3.4h1.3l2.8,2.8l0,5c0,0,2.5,2.5,2.5,2.5l0,6h-13.2L106.1,30L106.1,30z"/>
<path class="st5" d="M115.5,17.7v-1.3h1.3v6.3h-1.3v-1.3c0-0.7-0.6-1.3-1.3-1.3h-1.6v8.5h0.6c2.6,0,4.7-2.1,4.7-4.7c0,0,1.3,0,1.3,0
	l0,6h-13.2v-1.3c1,0,1.9-0.8,1.9-1.9V12.1c0-1-0.8-1.9-1.9-1.9V9h13.2v6.3H118v-0.3c0-2.6-2.1-4.7-4.7-4.7h-0.6V19h1.6
	C114.9,19,115.5,18.4,115.5,17.7L115.5,17.7z"/>
</svg>
