<?xml version="1.0" encoding="utf-8"?>
<!-- Generator: Adobe Illustrator 21.0.0, SVG Export Plug-In . SVG Version: 6.00 Build 0)  -->
<svg version="1.1" id="Livello_1" xmlns="http://www.w3.org/2000/svg" xmlns:xlink="http://www.w3.org/1999/xlink" x="0px" y="0px"
	 viewBox="0 0 139.4 16" style="enable-background:new 0 0 139.4 16;" xml:space="preserve">
<style type="text/css">
	.st0{fill-rule:evenodd;clip-rule:evenodd;fill:#5A6772;}
</style>
<path class="st0" d="M77.1,10.7c-0.7,0-1.5,0-2.2,0c-0.3,0.9-0.7,1.7-0.6,2.6c0.5,0.3,1.3,0.2,1.9,0.3c0,0.6,0,1.3,0,1.9
	c-2.2,0-4.4,0.1-6.6,0.1c0-0.7,0-1.3,0-2c0.9-0.1,1.5,0,2-0.9c2.6-7.8,2.6-7.8,4.1-12.1c0.5,0,0.9,0,1.4,0c1.1,0,2.1,0,3.2,0
	c2.6,7.8,2.6,7.8,3.9,12c0.7,1.1,0.9,1,2.3,1.1c0,0.6,0,1.3,0,2c-0.8,0-1.6,0-2.4,0c-5.1-0.1-5.1-0.1-6.1-0.2c0-0.6,0.1-1.3,0.1-1.9
	c1.2-0.1,1.2-0.1,1.7-0.2c0.5-0.5-0.3-2.2-0.4-2.8C78.6,10.6,77.8,10.6,77.1,10.7L77.1,10.7z M48.2,16c-1.5-0.3-1.5-0.3-2.7-0.6
	c-1.1-0.6-1.1-0.6-1.4-0.6c-0.2,0.3-0.4,0.7-0.6,1c-0.6,0-1.2,0-1.8,0.1c0-2,0-4,0-6c0.7,0,1.4,0,2,0c0.6,3,3.4,4.5,6.3,3.7
	c1.6-0.9,1.7-2.3,0-3.2c-4.2-1-9.1-1.4-8.4-6.7c1.2-3.8,5.8-4.1,9.1-3.2c0.5,0.3,1.1,0.5,1.6,0.8c0.1-0.3,0.3-0.6,0.5-0.9
	c0.6,0,1.3,0,1.9,0c0,1.8,0,3.6,0,5.5c-0.7,0-1.4-0.1-2.1-0.1c-0.8-3.1-3.6-4.4-6.5-3c-0.8,1-0.6,1.8,0.4,2.4
	c4.1,1.2,9.3,1.2,8.9,6.7C54.4,15.4,51.4,15.8,48.2,16L48.2,16z M88,15.7c-0.3,0-0.6,0-0.8-0.1c0-0.7,0-1.3,0-2
	c0.9,0,1.6,0.1,2.1-0.7c0-3.2,0.1-6.3,0.1-9.5c-0.3-1.4-0.7-1.1-2.1-1.2c0-0.6,0-1.3,0-1.9c2.6,0,5.3,0,8,0c0.9,3.1,1.7,6.2,2.6,9.3
	c0,0,0.1,0,0.2,0c0.9-3.1,1.8-6.2,2.8-9.2c2.6,0,5.3,0,8,0c0,0.6,0,1.3,0,2c-0.8,0-1.7-0.2-2.2,0.5c-0.1,1.7-0.1,1.7-0.1,9.8
	c0,0.2,0.1,0.4,0.1,0.6c0.7,0.3,1.3,0.3,2,0.4c0,0.6,0,1.3,0,2c-2.7,0-5.3,0-7.9,0c0-0.7,0-1.3,0-1.9c0.8,0,1.4,0,1.8-0.7
	c0-3.3,0-6.6,0-9.9c-1.3,4.2-2.5,8.4-3.8,12.6c-1.1,0-2.1,0-3.2,0.1c-1.1-4.2-2.3-8.4-3.4-12.6c0,0-0.1,0-0.1,0c0,3.3,0,6.7,0,10
	c0.3,0.7,1,0.6,1.8,0.6c0,0.7,0,1.3,0,2C91.8,15.7,89.9,15.7,88,15.7L88,15.7z M60,15.6c-0.4,0-0.8,0-1.1-0.1c0-0.6,0.1-1.3,0.1-1.9
	c0.7,0,2,0.1,2.3-0.6c0-3.5,0-7,0-10.5c-2.4,0-3.1,1.3-3.2,3.6c-0.7,0-1.4,0-2,0C56,4.2,56,2.4,56,0.5c4.9,0,9.9,0,14.9,0.1
	c0,1.9,0,3.7,0,5.6c-0.7,0-1.4,0-2,0.1c-0.1-1.8-0.4-2.9-2-3.6c-0.4-0.1-0.8-0.1-1.2-0.1c0,10.3,0,10.3,0.1,10.6
	c0.5,0.5,1.6,0.4,2.3,0.5c0,0.6,0,1.3,0,2C65.4,15.6,62.7,15.6,60,15.6L60,15.6z M1.2,15.5c-0.4,0-0.8,0-1.1-0.1c0-0.7,0-1.3,0-2
	c1,0,1.8,0.2,2.1-0.7c0-9.4,0-9.4-0.1-10C1.7,2,0.8,2.2,0,2.2c0-0.7,0-1.4,0-2c3,0,6,0,9,0c0,0.6,0,1.4,0,2c-1.6,0-2.3-0.4-2.4,1.3
	c0,3.3,0,6.6,0.1,9.9c1.7,0,3.5,0.2,4.8-0.9c0.6-1.1,0.8-2.1,1-3.3c0.6,0,1.3,0,2,0c0,2.1,0,4.1,0.1,6.2
	C10.1,15.5,5.6,15.5,1.2,15.5L1.2,15.5z M26.3,15.5c-0.6,0-1.3,0-1.9-0.1c0-0.7,0-1.3,0-2c0.6,0,1.4,0,1.9-0.3
	c0-0.9-0.3-1.7-0.6-2.6c-1.1,0-1.5-0.1-2.3-0.1c-0.5,0-1.1,0-2.2,0c-0.3,0.8-0.7,1.8-0.6,2.6c0.5,0.4,1.4,0.3,2,0.3c0,0.6,0,1.3,0,2
	c-2.3,0-4.5,0-6.8,0c0-0.7,0-1.3,0-2c1.8,0,1.9-0.5,2.6-2.1c1.2-3.7,2.4-7.3,3.6-11c0.5,0,1,0,1.4,0c1.1,0,2.1,0,3.2,0
	c1.3,4.1,2.6,8.2,3.9,12.2c0.5,1,1.1,0.9,2.1,0.9c0,0.6,0,1.3,0,1.9C30.6,15.5,28.4,15.5,26.3,15.5L26.3,15.5z M23.5,8.7
	c0.5,0,1.1,0,1.7,0c-1-2.8-1-2.8-1.5-4.7c0,0-0.1,0-0.1,0c0,0,0,0-0.1,0c-0.5,1.5-1.1,3.1-1.6,4.6C22.4,8.7,22.9,8.7,23.5,8.7
	L23.5,8.7z M133.3,0.8c3.9,12.1,3.9,12.1,4.1,12.4c0.6,0.6,1.1,0.5,2,0.6c0,0.6,0,1.3,0.1,2c-2.8,0-5.6,0-8.4,0c0-0.7,0-1.4,0-2
	c0.7,0,1.4,0.1,2-0.3c0-0.8-0.4-1.7-0.7-2.5c-0.7,0-1.5,0-2.2,0c-0.8,0-1.5,0-2.2,0c-0.8,2.5-1.3,2.7,1.3,2.8c0,0.6,0,1.3,0,2
	c-2.2,0-4.4,0-6.7,0.1c0-0.7,0-1.4,0-2c0.6,0,1.3,0,1.8-0.3l4.5-12.6H133.3L133.3,0.8z M131.6,9l-1.5-4.6v0v0v0v0v0v0v0v0v0v0v0v0v0
	v0L128.5,9H131.6L131.6,9z M118.9,0.7c1.2,0,1.8,0.1,2.9,0.1c2.8,0.8,3.8,1.8,3.8,4.8c-0.9,3.3-3.8,3.6-6.7,3.5c-0.7,0-1.4,0-2.1,0
	c0,1.2-0.3,3.3,0.1,4.5c0.7,0.1,1.3,0.2,2,0.2c0.1,0,0.2,0,0.3,0c0,0.6,0,1.2,0,1.8c-0.1,0-0.2,0-0.4,0c-1.8,0-3.6,0.1-5.5,0.1
	c-3-0.1-3-0.1-3.2-0.1c0-0.7,0-1.4,0-2c0.9,0,1.8,0.2,2.1-0.7c0-3.3,0-6.6,0-9.8c-0.3-0.9-1.4-0.7-2.1-0.7c0-0.7,0-1.3,0-2
	C115.3,0.6,117.5,0.7,118.9,0.7L118.9,0.7z M118.9,7.2c0.2,0,0.3,0,0.5,0c1.7-0.6,1.8-1.3,1.8-3c-0.4-1.2-1.2-1.5-2.2-1.6
	c-0.7-0.1-1.5,0-2.2,0c0,1.5,0,3.1,0.1,4.6C117.5,7.3,118.2,7.2,118.9,7.2L118.9,7.2z M77.1,4C77,4,77,3.9,77.1,4
	c-0.6,1.5-1.1,3.1-1.6,4.7c0.5,0,1.1,0,1.6,0c0.4,0,0.9,0,1.3,0c0.1,0,0.2,0,0.3,0C78.3,7.3,77.8,5.1,77.1,4L77.1,4z"/>
</svg>
