<svg xmlns="http://www.w3.org/2000/svg" viewBox="2020.639 1557 307.266 183.171">
  <defs>
    <style>
      .cls-1, .cls-9 {
        fill: #004b9b;
      }

      .cls-11, .cls-2 {
        fill: #92c9f7;
      }

      .cls-3 {
        fill: #013872;
      }

      .cls-4 {
        fill: #034f8c;
      }

      .cls-5 {
        fill: #06c;
      }

      .cls-10, .cls-6 {
        fill: #fff;
      }

      .cls-7 {
        fill: #eee;
      }

      .cls-8 {
        fill: #a3d8fc;
      }

      .cls-10, .cls-11, .cls-8, .cls-9 {
        fill-rule: evenodd;
      }

      .cls-12 {
        fill: #0686d3;
      }
    </style>
  </defs>
  <g id="Group_147" data-name="Group 147" transform="translate(1801)">
    <g id="Group_88" data-name="Group 88" transform="translate(229.213 1610.864)">
      <path id="XMLID_22_" class="cls-1" d="M0,102.161V3.731A3.742,3.742,0,0,1,3.731,0h161.6a3.742,3.742,0,0,1,3.731,3.731v98.43a3.742,3.742,0,0,1-3.731,3.731H3.731A3.742,3.742,0,0,1,0,102.161Z"/>
      <rect id="XMLID_21_" class="cls-2" width="87.549" height="154.579" transform="translate(161.785 4.812) rotate(90)"/>
      <rect id="XMLID_20_" class="cls-3" width="54.158" height="6.467" transform="translate(57.454 105.892)"/>
      <path id="XMLID_19_" class="cls-1" d="M136.9,180.8H82.431L66.7,191h85.994Z" transform="translate(-25.226 -68.379)"/>
      <g id="XMLID_1_" transform="translate(60.602 6.914)">
        <rect id="XMLID_18_" class="cls-4" width="101.166" height="9.887"/>
        <rect id="XMLID_17_" class="cls-5" width="101.166" height="17.721" transform="translate(0 9.887)"/>
        <ellipse id="XMLID_16_" class="cls-6" cx="3.793" cy="3.793" rx="3.793" ry="3.793" transform="translate(20.395 1.119)"/>
        <rect id="XMLID_15_" class="cls-6" width="29.287" height="1.43" transform="translate(32.955 4.974)"/>
        <rect id="XMLID_14_" class="cls-6" width="45.702" height="2.86" transform="translate(32.955 13.617)"/>
        <rect id="XMLID_13_" class="cls-6" width="45.702" height="2.86" transform="translate(32.955 18.778)"/>
        <rect id="XMLID_12_" class="cls-6" width="101.166" height="55.589" transform="translate(0 27.794)"/>
        <rect id="XMLID_11_" class="cls-7" width="19.4" height="2.114" transform="translate(8.581 34.634)"/>
        <rect id="XMLID_10_" class="cls-7" width="51.609" height="11.255" transform="translate(32.955 35.131)"/>
        <rect id="XMLID_9_" class="cls-7" width="51.609" height="33.826" transform="translate(32.955 49.557)"/>
        <rect id="XMLID_8_" class="cls-7" width="19.4" height="2.114" transform="translate(8.581 38.676)"/>
        <rect id="XMLID_7_" class="cls-7" width="19.4" height="2.114" transform="translate(8.581 41.909)"/>
        <rect id="XMLID_6_" class="cls-7" width="19.4" height="2.114" transform="translate(8.581 45.889)"/>
        <rect id="XMLID_5_" class="cls-7" width="19.4" height="2.114" transform="translate(8.581 53.101)"/>
        <rect id="XMLID_4_" class="cls-7" width="19.4" height="2.114" transform="translate(8.581 57.143)"/>
        <rect id="XMLID_3_" class="cls-7" width="19.4" height="2.114" transform="translate(8.581 60.376)"/>
        <rect id="XMLID_2_" class="cls-7" width="19.4" height="2.114" transform="translate(8.581 64.356)"/>
      </g>
    </g>
    <g id="Group_90" data-name="Group 90" transform="translate(380.752 1603.944)">
      <g id="XMLID_12_2" data-name="XMLID_12_" transform="translate(48.292 59.262)">
        <g id="XMLID_13_2" data-name="XMLID_13_">
          <path id="XMLID_25_" class="cls-8" d="M147.918,125.433,115.53,148.767,83.2,125.433,115.53,102.1Z" transform="translate(-83.2 -102.1)"/>
          <rect id="XMLID_24_" class="cls-4" width="47.015" height="57.405" transform="translate(8.881 4.121)"/>
          <g id="XMLID_16_2" data-name="XMLID_16_" transform="translate(16.078 11.957)">
            <rect id="XMLID_23_" class="cls-6" width="13.408" height="2.728" transform="translate(0.116)"/>
            <rect id="XMLID_22_2" data-name="XMLID_22_" class="cls-6" width="32.62" height="2.728" transform="translate(0 5.282)"/>
            <rect id="XMLID_21_2" data-name="XMLID_21_" class="cls-6" width="32.62" height="2.728" transform="translate(0 10.274)"/>
            <rect id="XMLID_20_2" data-name="XMLID_20_" class="cls-6" width="32.62" height="2.728" transform="translate(0 15.323)"/>
            <rect id="XMLID_19_2" data-name="XMLID_19_" class="cls-6" width="32.62" height="2.728" transform="translate(0 20.373)"/>
            <rect id="XMLID_18_2" data-name="XMLID_18_" class="cls-6" width="32.62" height="2.728" transform="translate(0 25.423)"/>
            <rect id="XMLID_17_2" data-name="XMLID_17_" class="cls-6" width="32.62" height="2.728" transform="translate(0 30.473)"/>
          </g>
          <path id="XMLID_15_2" data-name="XMLID_15_" class="cls-9" d="M83.2,180.492h64.718V142.3L115.53,165.633,83.2,142.3Z" transform="translate(-83.2 -118.967)"/>
          <g id="XMLID_14_2" data-name="XMLID_14_" transform="translate(0 42.43)">
            <path id="Path_27" data-name="Path 27" class="cls-10" d="M85.5,194.184,110.749,175.9H122.3l25.249,18.284Z" transform="translate(-84.165 -175.494)"/>
            <g id="Group_89" data-name="Group 89">
              <path id="Path_28" data-name="Path 28" class="cls-5" d="M121.16,176.071l24.088,17.413H85.812L109.9,176.071h11.26m-11.493-.871L83.2,194.3h64.66l-26.468-19.1Z" transform="translate(-83.2 -175.2)"/>
            </g>
          </g>
        </g>
      </g>
      <g id="XMLID_9_2" data-name="XMLID_9_" transform="translate(84.163 8.416)">
        <path id="Union_11" data-name="Union 11" class="cls-3" d="M35.615,46.406a40.916,40.916,0,0,1-4.62.26c-17.065,0-31-10.448-31-23.333C0,10.506,13.931,0,31,0s31,10.506,31,23.334c0,9.482-7.611,17.695-18.474,21.334l2.686,15.7Z"/>
      </g>
      <g id="XMLID_4_2" data-name="XMLID_4_" transform="translate(0 49.337)">
        <path id="XMLID_8_2" data-name="XMLID_8_" class="cls-9" d="M9.113,85H35a9.128,9.128,0,0,1,9.113,9.113v68.665A9.128,9.128,0,0,1,35,171.891H9.113A9.128,9.128,0,0,1,0,162.778V94.113A9.166,9.166,0,0,1,9.113,85Z" transform="translate(0 -85)"/>
        <path id="XMLID_7_2" data-name="XMLID_7_" class="cls-11" d="M6.816,97.6H42.861a.125.125,0,0,1,.116.116l.058,71.335a.125.125,0,0,1-.116.116H6.874a.125.125,0,0,1-.116-.116L6.7,97.716A.125.125,0,0,1,6.816,97.6Z" transform="translate(-2.811 -90.287)"/>
        <path id="XMLID_6_2" data-name="XMLID_6_" class="cls-10" d="M25.938,88.7h13.35a.644.644,0,0,1,.638.638h0a.644.644,0,0,1-.638.638H25.938a.644.644,0,0,1-.638-.638h0A.686.686,0,0,1,25.938,88.7Z" transform="translate(-10.615 -86.552)"/>
        <ellipse id="XMLID_5_2" data-name="XMLID_5_" class="cls-6" cx="2.206" cy="2.206" rx="2.206" ry="2.206" transform="translate(19.909 80.564)"/>
      </g>
      <g id="XMLID_1_2" data-name="XMLID_1_" transform="translate(38.018)">
        <path id="Union_9" data-name="Union 9" class="cls-1" d="M18.467,44.666C7.609,41.025,0,32.813,0,23.334,0,10.506,13.931,0,31,0S61.99,10.506,61.99,23.334,48.06,46.667,31,46.667a40.9,40.9,0,0,1-4.62-.26L15.788,60.365Z"/>
      </g>
    </g>
    <path id="Union_10" data-name="Union 10" class="cls-1" d="M15.187,36.732C6.257,33.738,0,26.984,0,19.189,0,8.64,11.456,0,25.49,0S50.979,8.64,50.979,19.189,39.523,38.377,25.49,38.377a33.644,33.644,0,0,1-3.8-.214L12.984,49.642Z" transform="translate(293.441 1557)"/>
    <path id="Union_12" data-name="Union 12" class="cls-12" d="M39.492,51.457a45.367,45.367,0,0,1-5.123.289C15.447,51.746,0,40.161,0,25.873,0,11.649,15.447,0,34.369,0S68.738,11.649,68.738,25.873c0,10.514-8.44,19.621-20.485,23.656l2.978,17.405Z" transform="translate(219.639 1557)"/>
  </g>
</svg>
