<?xml version="1.0" encoding="utf-8"?>
<!-- Generator: Adobe Illustrator 19.0.0, SVG Export Plug-In . SVG Version: 6.00 Build 0)  -->
<svg version="1.1" id="Livello_1" xmlns="http://www.w3.org/2000/svg" xmlns:xlink="http://www.w3.org/1999/xlink" x="0px" y="0px"
	 viewBox="0 0 100 60" style="enable-background:new 0 0 100 60;" xml:space="preserve">
<style type="text/css">
	.st0{fill:#FFFFFF;}
	.st1{fill:#0066CC;}
	.st2{fill:#FEC44F;}
</style>
<path id="XMLID_7_" class="st0" d="M25.7,60c-0.2-1.9-0.6-6.2-0.5-7.8c0.1-2.9,0.6-4.8,1.9-4.4c7.7,2.1,11.7,0.9,11.9-0.7
	c0.2-1.7,0.3-11.2,0.3-11.2s3.6,1.4,4.4-0.3c0.4-0.8-1.6-5.4-2.7-10.8c-0.7-3.4,0.7-8-1-11.9c-1.6-0.1-3.8-0.6-5.6-0.7
	c-4.7-0.1-10.7,1.4-11.3,5.8c-1.1,7.8-5.4,8.6-7.4,10.1c0,0-1.9-3.4-4.6-2.2c-3.1,1.4,0.5,9.9,0.5,9.9l-4.3,7.7c0,0,0,0,0,0
	c0.1,0.6-1.9,16.5-2.2,16.7L25.7,60z"/>
<path id="XMLID_6_" class="st1" d="M11.7,35.6c0,0-3.6-8.5-0.5-9.9c2.7-1.2,4.6,2.2,4.6,2.2c2-1.5,5.4,0.6,18.8-14.6
	c1.2-1.3,3.9-0.8,5.5-0.6c2.7,0.2,3.8-0.5-2.2-6C28.6-1.9,12.2,1.4,5.5,6.4s-6.1,16.7-4.6,23.1c1.5,6.4,6.4,13.5,6.5,13.7
	c0,0,0,0,0,0L11.7,35.6z"/>
<path id="XMLID_59_" class="st0" d="M74.1,60c1.2-4.8,1.9-16.1-2.4-14.7c-6.9,2.2-9.6,2.9-9.8,1.3c-0.2-1.6-1.2-10.3-1.2-10.3
	s-2.9-0.5-3.4-1.2c-0.4-0.7,1.8-3.4,1.8-9.3c0-1.3-0.3-2.9-0.5-4.5c-0.2-2.6,0.6-5.3,0.6-5.3c1.4-3.5,4.7-4.1,7.3-3.9
	c2.2,3.7,9.1,14.2,15.1,13.8c0.1,0,0.2,0.1,0.4,0.2c0,0,4.5-3.8,4.9,1.8c0.4,5.6-3,4.9-3,4.9s-1.5,14.7-7.9,20.6
	c0.2-0.1,0.4-0.7,0.5-0.8c2.8-1.2,5.6-2.4,8.3-2.9c-0.1,3.4,1.4,8.2,1.9,10.4C86.8,60,74.1,60,74.1,60z"/>
<path id="XMLID_4_" class="st2" d="M91.8,6c-2.9-2.9-7-4.2-11-4.1c-10.6-4.6-22,3.5-23.6,9.4c-1.8,6.9,1.5,11,1.5,11
	c-0.1-0.3-0.1-0.7-0.1-1c-0.2-2.6,0.6-5.3,0.6-5.3c1.4-3.5,4.7-4.1,7.3-3.9c2.2,3.7,9.1,14.2,15.1,13.8c0.1,0,0.2,0.1,0.4,0.2
	c0,0,4.5-3.8,4.9,1.8c0.4,5.6-3,4.9-3,4.9s-1.5,14.7-7.9,20.6c0.2-0.1,0.4-0.2,0.5-0.2c2.8-1.2,5.6-1.9,8.3-2.4
	c4-0.8,8-1.2,12.3-2.9c0.1-2.2,1.2-7.6,1.4-9.2C99.8,32.1,103.2,17.1,91.8,6z"/>
<circle id="XMLID_3_" class="st1" cx="64.2" cy="22.3" r="1.1"/>
<circle id="XMLID_2_" class="st1" cx="37.2" cy="23.4" r="1.1"/>
</svg>
