<?xml version="1.0" encoding="utf-8"?>
<!-- Generator: Adobe Illustrator 19.0.0, SVG Export Plug-In . SVG Version: 6.00 Build 0)  -->
<svg version="1.1" id="Livello_1" xmlns="http://www.w3.org/2000/svg" xmlns:xlink="http://www.w3.org/1999/xlink" x="0px" y="0px"
	 viewBox="0 0 100 60" style="enable-background:new 0 0 100 60;" xml:space="preserve">
<style type="text/css">
	.st0{fill:#FFFFFF;}
	.st1{fill-rule:evenodd;clip-rule:evenodd;fill:#C5D0D9;}
	.st2{fill-rule:evenodd;clip-rule:evenodd;fill:#FFFFFF;}
	.st3{fill:#0066CC;}
	.st4{fill:#FFFFFF;stroke:#0066CC;stroke-width:0;stroke-linecap:round;stroke-linejoin:round;}
	.st5{fill:#13B8AD;}
	.st6{fill:#FF9700;}
	.st7{fill:#4A8EC6;}
</style>
<g id="XMLID_66_">
	<path id="XMLID_42_" class="st0" d="M65.4,39.5V8.2c0-0.8-0.6-1.4-1.4-1.4H47.2c-0.8,0-1.4,0.6-1.4,1.4v31.4c0,0.8,0.6,1.4,1.4,1.4
		H64C64.8,41,65.4,40.3,65.4,39.5z"/>
	<g id="XMLID_104_">
		<g id="XMLID_105_">
			<g id="XMLID_106_">
				<g id="XMLID_111_">
					<rect id="XMLID_41_" x="8" y="0" class="st1" width="67.1" height="44.4"/>
				</g>
				<rect id="XMLID_40_" x="10.2" y="1.9" class="st2" width="62.8" height="40.7"/>
				<g id="XMLID_107_">
					<rect id="XMLID_39_" x="22" y="53.2" class="st1" width="39.2" height="1.9"/>
					<rect id="XMLID_38_" x="29.4" y="44.4" class="st1" width="24.3" height="8.8"/>
				</g>
			</g>
		</g>
	</g>
	<g id="XMLID_73_">
		<g id="XMLID_100_">
			<path id="XMLID_101_" class="st3" d="M52.7,6.2h15.7c1.5,0,2.7,1.2,2.7,2.7v29.9c0,1.5-1.2,2.7-2.7,2.7H52.7
				c-1.5,0-2.7-1.2-2.7-2.7V8.9C50,7.4,51.2,6.2,52.7,6.2z M68.4,40.7c1,0,1.9-0.8,1.9-1.9V8.9c0-1-0.8-1.9-1.9-1.9H52.7
				c-1,0-1.9,0.8-1.9,1.9v29.9c0,1,0.8,1.9,1.9,1.9H68.4z"/>
		</g>
		<g id="XMLID_95_">
			<rect id="XMLID_35_" x="57.8" y="31.8" class="st0" width="5.5" height="6.3"/>
			<path id="XMLID_96_" class="st3" d="M57.7,31.7h5.7v6.5h-5.7V31.7z M63.2,31.9h-5.3V38h5.3V31.9z"/>
		</g>
		<g id="XMLID_90_">
			<polygon id="XMLID_32_" class="st0" points="59.5,34.9 60,34 61.1,34 61.6,34.9 61.1,35.9 60,35.9 			"/>
			<path id="XMLID_91_" class="st3" d="M60,34h1.1l0.6,1l-0.6,1H60l-0.6-1L60,34z M61,34.1h-1l-0.5,0.9l0.5,0.9h1l0.5-0.9L61,34.1z"
				/>
		</g>
		<g id="XMLID_87_">
			<polyline id="XMLID_29_" class="st0" points="60,35.9 59.3,36.4 57.9,36.4 			"/>
			<polygon id="XMLID_28_" class="st3" points="60,35.8 60,35.9 59.3,36.5 57.9,36.5 57.9,36.4 59.3,36.4 			"/>
		</g>
		<g id="XMLID_84_">
			<polyline id="XMLID_27_" class="st0" points="60,34 59.3,33.4 57.9,33.4 			"/>
			<polygon id="XMLID_26_" class="st3" points="57.9,33.4 59.3,33.4 60,34 60,34.1 59.3,33.5 57.9,33.5 			"/>
		</g>
		<g id="XMLID_81_">
			<polyline id="XMLID_25_" class="st0" points="61.1,35.9 61.8,36.4 63.2,36.4 			"/>
			<polygon id="XMLID_24_" class="st3" points="61.1,35.8 61.8,36.4 63.2,36.4 63.2,36.5 61.8,36.5 61.1,35.9 			"/>
		</g>
		<g id="XMLID_78_">
			<polyline id="XMLID_23_" class="st0" points="61.1,34 61.8,33.4 63.2,33.4 			"/>
			<polygon id="XMLID_22_" class="st3" points="61.8,33.4 63.2,33.4 63.2,33.5 61.8,33.5 61.1,34.1 61.1,34 			"/>
		</g>
		<g id="XMLID_75_">
			<line id="XMLID_21_" class="st3" x1="52.3" y1="38.1" x2="52.3" y2="10.2"/>
			<rect id="XMLID_20_" x="52.1" y="10.2" class="st3" width="0.4" height="27.9"/>
		</g>
		<path id="XMLID_19_" class="st3" d="M68.2,6.4c1.3,0,2.3,1,2.3,2.3v29.9c0,1.3-1,2.3-2.3,2.3V6.4z"/>
	</g>
	<g id="XMLID_61_">
		<g id="XMLID_67_">
			<path id="XMLID_18_" class="st0" d="M68.5,34.9l4.3-17.6c0.2-0.7,1-1.1,1.8-0.9l12.2,3c0.8,0.2,1.3,0.9,1.2,1.6l-4.3,17.6
				l0.4,0.1l-0.1,0.6l-15.9-3.9l0.1-0.6L68.5,34.9z"/>
			<path id="XMLID_17_" class="st0" d="M83.4,39.3l4.5-18.2c0.2-0.7-0.4-1.4-1.2-1.6l-12.2-3c-0.8-0.2-1.6,0.2-1.8,0.9l-4.5,18.4
				l-0.3-0.4l-0.4-0.1c0,0,0-0.1,0-0.1c0-0.1,0-0.3,0.1-0.4l0-0.1L72,17.2c0.3-1.1,1.5-1.8,2.8-1.5l12.2,3c1.3,0.3,2.1,1.5,1.8,2.6
				l-4.3,17.6l0,0.1c0,0.1-0.1,0.3-0.1,0.4c0,0,0,0.1,0,0.1l-0.4-0.1L83.4,39.3z"/>
			<path id="XMLID_16_" class="st0" d="M84.3,39.2c0,0.1-0.1,0.2-0.1,0.3c-1.5,3.5-5.7,5.3-9.8,4.2c-4.2-1-7-4.6-6.7-8.3
				c0-0.1,0-0.2,0-0.3L84.3,39.2z"/>
			<line id="XMLID_15_" class="st4" x1="67.9" y1="35.4" x2="67.5" y2="35.3"/>
			<line id="XMLID_14_" class="st4" x1="84.2" y1="39.4" x2="83.8" y2="39.3"/>
		</g>
		<g id="XMLID_62_">
			<polygon id="XMLID_13_" class="st0" points="80.1,7.7 89.1,10.2 87.1,18.8 78.2,16.3 			"/>
			<path id="XMLID_63_" class="st0" d="M77.2,17l10.6,2.9l2.3-10.5L79.5,6.6L77.2,17z M87.1,18.8l-8.9-2.4l1.9-8.6l8.9,2.4
				L87.1,18.8z"/>
		</g>
	</g>
	<g id="XMLID_45_">
		<g id="XMLID_55_">
			<path id="XMLID_10_" class="st0" d="M70.2,35.3l4.9-17.4c0.2-0.7,1-1,1.8-0.8L89,20.5c0.8,0.2,1.3,0.9,1.1,1.6l-4.9,17.4l0.4,0.1
				l-0.2,0.6l-15.7-4.4l0.2-0.6L70.2,35.3z"/>
			<path id="XMLID_9_" class="st5" d="M85,40.2l5.1-18c0.2-0.7-0.3-1.4-1.1-1.6l-12.1-3.4c-0.8-0.2-1.6,0.1-1.8,0.8L70,36.2
				l-0.3-0.4l-0.4-0.1c0,0,0-0.1,0-0.1c0-0.1,0-0.3,0.1-0.4l0-0.1l4.9-17.4c0.3-1.1,1.6-1.8,2.8-1.4l12.1,3.4c1.2,0.4,2,1.6,1.7,2.7
				L86,39.8l0,0.1c0,0.1-0.1,0.3-0.2,0.4c0,0,0,0,0,0.1l-0.4-0.1L85,40.2z"/>
			<path id="XMLID_8_" class="st5" d="M85.9,40.1c0,0.1-0.1,0.2-0.1,0.3c-1.6,3.4-5.8,5.1-10,3.9c-4.1-1.2-6.9-4.8-6.5-8.6
				c0-0.1,0-0.2,0-0.3L85.9,40.1z"/>
			<line id="XMLID_7_" class="st6" x1="69.7" y1="35.8" x2="69.3" y2="35.7"/>
			<line id="XMLID_6_" class="st6" x1="85.8" y1="40.3" x2="85.4" y2="40.2"/>
		</g>
		<g id="XMLID_46_">
			<g id="XMLID_51_">
				<path id="XMLID_52_" class="st3" d="M80.6,7.8l10.5,3l-2.6,9.4l-10.5-3L80.6,7.8z M90,11.3l-8.8-2.5L79,16.5l8.8,2.5L90,11.3z"
					/>
			</g>
			<g id="XMLID_49_">
				
					<rect id="XMLID_3_" x="85.8" y="13.5" transform="matrix(-0.9625 -0.2713 0.2713 -0.9625 166.5156 52.174)" class="st3" width="2.1" height="2.1"/>
			</g>
			<g id="XMLID_47_">
				
					<rect id="XMLID_2_" x="81.1" y="12.2" transform="matrix(-0.9625 -0.2713 0.2713 -0.9625 157.6134 48.2822)" class="st3" width="2.1" height="2.1"/>
			</g>
		</g>
	</g>
	<path id="XMLID_1_" class="st7" d="M50,20.7c-1.7-0.2-3.1,0.4-4.3,1.4c-1,0.9-1.9,1.9-2.8,2.8c-2.4,2.5-4.8,5.1-7.2,7.7
		c-0.2,0.3-0.5,0.6-0.7,0.8c-0.6,0.6-0.8,1.3-0.8,2.1c-0.1,2.2,0.2,4.3,0.4,6.5c0.3,2.6,0.7,5.1,0.9,7.7c0.1,2,0,4,0,5.9
		c0,0.6-0.1,3.4-0.1,4c0,0.2,0.1,0.3,0.3,0.3c0.1,0,0.2,0,0.3,0c4.7,0,9.4,0,14.1,0c0.5,0,0.5,0,0.5-0.6c0-0.6,0-3.4,0-4
		c0-0.1,0.1-0.3,0.2-0.3c1.1-0.5,1.7-1.4,2.3-2.3c0.8-1.4,1.3-2.9,1.8-4.4c0.3-1,0.7-1.9,1.5-2.6c1.9-2,3.8-4.1,5.7-6.2
		c0.6-0.6,1.3-1.1,1.9-1.7c0.3-0.3,0.6-0.6,0.8-0.9c0.3-0.5,0.2-0.9-0.3-1.2c-0.6-0.4-1.2-0.6-1.9-0.6c-1.8-0.1-3.5,0.3-5.1,1.1
		c-0.9,0.5-1.5,1.2-2.2,1.9c-0.9,1-1.9,1.9-3.2,2.5c-1.5,0.7-3,0.6-4.3-0.4c-1.3-1-1.9-2.4-1.6-4.1c0.2-1.6,0.9-3,1.8-4.3
		c0.6-0.8,1.3-1.7,2.1-2.3c0.1-0.1,0.1-6,0.1-8.8C50.1,20.8,50.1,20.7,50,20.7z"/>
</g>
</svg>
