<?xml version="1.0" encoding="utf-8"?>
<!-- Generator: Adobe Illustrator 23.0.1, SVG Export Plug-In . SVG Version: 6.00 Build 0)  -->
<svg version="1.1" id="Livello_1" xmlns="http://www.w3.org/2000/svg" xmlns:xlink="http://www.w3.org/1999/xlink" x="0px" y="0px"
	 viewBox="0 0 539.97 221.99" style="enable-background:new 0 0 539.97 221.99;" xml:space="preserve">
<style type="text/css">
	.st0{fill:#ED6C25;}
	.st1{fill-rule:evenodd;clip-rule:evenodd;fill:#26201F;}
	.st2{fill-rule:evenodd;clip-rule:evenodd;fill:none;stroke:#ED6C25;stroke-width:2;stroke-miterlimit:10;}
	.st3{fill:none;stroke:#ED6C25;stroke-width:2;stroke-miterlimit:10;}
</style>
<path class="st0" d="M95.38,49.1c8.84-14.42,24.4-24.39,42.57-25.34c28.63-1.5,53.16,19.94,55.73,48.24h-1.63
	c-6.11,0-11.06,4.95-11.06,11.06v28.54c-9.14,10.58-22.41,17.57-37.47,18.36c-11.49,0.6-22.32-2.5-31.34-8.24
	c-7.95-7.3-11.09,0.01-13.01,2.93c-8.41,12.81-22.61,21.58-39.08,22.45c-27.5,1.44-50.95-19.68-52.4-47.18
	c-1.44-27.5,19.68-50.95,47.18-52.39c8.51-0.45,16.64,1.27,23.85,4.67C82.95,54.2,93.32,52.45,95.38,49.1"/>
<path class="st1" d="M232.57,179.98l-2.38-6.5c-0.27-0.8-0.93-1.19-1.86-0.8c-2.52,0.93-5.17,1.46-8.22,1.46
	c-3.71,0-6.76-1.33-9.28-3.84c-2.52-2.52-3.85-5.57-3.85-9.28V87.17c0-1.06-0.4-1.46-1.45-1.46h-6.77c-0.93,0-1.46,0.4-1.46,1.46
	v73.85c0,6.36,2.25,11.8,6.63,16.17c4.51,4.37,9.81,6.63,16.18,6.63c3.58,0,7.56-0.66,11.54-1.99
	C232.57,181.44,232.83,180.77,232.57,179.98"/>
<path class="st1" d="M281.93,151.08v-14.15c0-6.59-2.26-12.25-7.03-17.01c-4.77-4.77-10.47-7.16-17.23-7.16
	c-6.63,0-12.33,2.39-17.1,7.03c-4.78,4.76-7.16,10.42-7.16,17.14v21.17c0,7.16,2.52,13.13,7.55,18.16
	c5.04,5.04,11.01,7.56,18.03,7.56c7.69,0,14.58-2.12,20.55-6.5c0.8-0.53,0.93-1.33,0.4-1.99l-3.98-5.7
	c-0.53-0.66-1.2-0.79-1.86-0.27c-4.51,3.18-9.54,4.77-15.11,4.77c-4.38,0-8.09-1.59-11.27-4.77c-3.05-3.04-4.64-6.76-4.64-11.27
	v-4.11c0-0.93,0.53-1.46,1.45-1.46h36.06C281.53,152.54,281.93,152.01,281.93,151.08 M272.24,141.41c0,0.92-0.4,1.45-1.33,1.45
	h-26.38c-0.92,0-1.45-0.53-1.45-1.45v-4.48c0-3.96,1.45-7.38,4.37-10.28c2.78-2.9,6.23-4.21,10.21-4.21c3.98,0,7.42,1.32,10.34,4.21
	c2.91,2.9,4.24,6.32,4.24,10.28V141.41z"/>
<path class="st1" d="M345.17,154.83v-16.66c0-7.01-2.52-12.96-7.56-17.99c-4.9-5.04-11.01-7.42-18.03-7.42
	c-5.83,0-11.14,1.86-16.04,5.7c-0.13,0.14-0.4,0.27-0.79,0.27c-0.93,0-1.46-0.53-1.46-1.46v-1.59c0-1.06-0.4-1.46-1.46-1.46h-4.38
	c-0.93,0-1.46,0.4-1.46,1.46v85c0,0.93,0.53,1.46,1.46,1.46h6.89c0.93,0,1.33-0.53,1.33-1.46v-23.21c0-0.93,0.53-1.33,1.46-1.33
	c0.53,0,0.8,0.13,1.06,0.27c3.98,2.65,8.49,3.98,13.39,3.98c7.03,0,13.13-2.52,18.03-7.56
	C342.65,167.79,345.17,161.84,345.17,154.83 M335.5,154.83c0,4.36-1.59,8.06-4.64,11.24c-3.05,3.04-6.89,4.62-11.27,4.62
	c-4.38,0-8.09-1.58-11.14-4.62c-3.18-3.17-4.77-6.88-4.77-11.24v-16.66c0-4.36,1.59-7.93,4.77-11.1c3.18-3.17,6.76-4.63,11.14-4.63
	c4.38,0,7.95,1.45,11.14,4.63c3.18,3.17,4.77,6.74,4.77,11.1V154.83z"/>
<path class="st2" d="M465.49,180.51V87.18c0-1.07-0.4-1.47-1.33-1.47h-6.89c-0.93,0-1.46,0.4-1.46,1.47v28.5
	c0,0.8-0.4,1.19-1.33,1.19c-0.53,0-0.8-0.14-1.06-0.27c-3.98-2.65-8.49-3.84-13.39-3.84c-7.03,0-13.13,2.39-18.03,7.43
	c-5.04,5.03-7.56,10.98-7.56,17.99v20.1c0,7.01,2.52,12.96,7.56,17.99c5.04,5.04,11,7.56,18.03,7.56c5.84,0,11.14-1.86,16.04-5.71
	c0.13-0.26,0.39-0.26,0.79-0.26c0.93,0,1.46,0.4,1.46,1.46v1.19c0,0.93,0.4,1.46,1.46,1.46h4.38
	C465.1,181.97,465.49,181.44,465.49,180.51 M455.82,158.28c0,4.36-1.46,8.07-4.64,11.24c-3.05,3.04-6.76,4.63-11.14,4.63
	c-4.38,0-8.22-1.58-11.27-4.63c-3.05-3.17-4.64-6.87-4.64-11.24v-20.1c0-4.36,1.59-8.06,4.64-11.11c3.05-3.17,6.89-4.63,11.27-4.63
	c4.24,0,7.95,1.46,11.14,4.63c3.18,3.05,4.64,6.75,4.64,11.11V158.28z"/>
<path class="st1" d="M526.42,180.51v-43.48c0-6.71-2.38-12.35-7.16-17.11c-4.77-4.77-10.47-7.16-17.23-7.16
	c-7.56,0-14.32,2.13-20.29,6.36c-0.93,0.53-0.93,1.19-0.4,1.99l3.98,5.52c0.4,0.79,1.06,0.92,1.86,0.4c4.51-3.15,9.54-4.6,14.85-4.6
	c4.11,0,7.55,1.32,10.34,4.2c2.91,2.88,4.37,6.3,4.37,10.39v1.72c0,1.06-0.4,1.19-1.33,0.66c-3.97-2.78-8.48-4.11-13.39-4.11
	c-6.76,0-12.47,2.39-17.24,7.16c-4.64,4.77-7.02,10.48-7.02,17.1c0,6.76,2.39,12.47,7.02,17.24c4.77,4.77,10.47,7.16,17.24,7.16
	c4.77,0,9.01-1.33,12.72-3.71c1.86-1.2,2.92-1.86,2.92-1.86c0.93,0,1.46,0.53,1.46,1.45v0.66c0,0.93,0.53,1.46,1.46,1.46h4.37
	C525.89,181.97,526.42,181.44,526.42,180.51 M516.74,159.56c0,4.11-1.46,7.42-4.37,10.34c-2.92,2.92-6.23,4.38-10.34,4.38
	c-4.11,0-7.43-1.46-10.34-4.38c-2.92-2.92-4.24-6.23-4.24-10.34c0-3.98,1.32-7.42,4.24-10.34c2.92-2.92,6.36-4.25,10.34-4.25
	c4.11,0,7.55,1.46,10.34,4.25C515.28,152.14,516.74,155.58,516.74,159.56"/>
<path class="st2" d="M399.92,131.76c0-5.56-1.96-10.31-5.91-13.88c-3.54-3.97-8.26-5.55-13.76-5.55c-5.12,0-9.85,1.58-13.39,5.55
	c-3.94,3.56-5.88,8.32-5.88,13.88c0,5.15,1.95,9.92,5.88,13.49c3.54,3.96,8.26,5.95,13.39,5.95c5.5,0,10.22-1.99,13.76-5.95
	C397.95,141.67,399.92,136.91,399.92,131.76"/>
<g>
	<path class="st3" d="M380.45,159c-13.39,0-24.24,10.85-24.24,24.24h48.48C404.69,169.85,393.83,159,380.45,159z"/>
</g>
</svg>
