<?xml version="1.0" encoding="utf-8"?>
<!-- Generator: Adobe Illustrator 19.0.0, SVG Export Plug-In . SVG Version: 6.00 Build 0)  -->
<svg version="1.1" id="Livello_1" xmlns="http://www.w3.org/2000/svg" xmlns:xlink="http://www.w3.org/1999/xlink" x="0px" y="0px"
	 viewBox="0 0 71.2 20" style="enable-background:new 0 0 71.2 20;" xml:space="preserve">
<style type="text/css">
	.st0{fill:#0047BB;}
	.st1{fill:#FFFFFF;}
	.st2{fill:#EDDB00;}
</style>
<g id="Logo_PosteID_abilitato_SPID_2_">
	<g id="XMLID_101_">
		<path id="XMLID_110_" class="st0" d="M54.8,7.3h-0.4l-2.7-4h0v4h-0.4V2.7h0.4l2.7,3.9h0V2.7h0.4V7.3z"/>
		<path id="XMLID_109_" class="st0" d="M59.1,2.7v3.1c0,0.5-0.2,0.9-0.5,1.2c-0.3,0.3-0.7,0.4-1.3,0.4c-0.5,0-0.9-0.1-1.2-0.4
			c-0.3-0.3-0.5-0.7-0.5-1.2V2.7H56v3.1c0,0.4,0.1,0.7,0.4,0.9C56.6,6.9,56.9,7,57.3,7c0.4,0,0.7-0.1,1-0.3c0.3-0.2,0.4-0.6,0.4-0.9
			V2.7H59.1z"/>
		<path id="XMLID_106_" class="st0" d="M63.4,5.3c0,0.6-0.2,1.1-0.5,1.5c-0.3,0.4-0.8,0.6-1.4,0.6c-0.6,0-1-0.2-1.4-0.6
			c-0.3-0.4-0.5-0.9-0.5-1.5V4.6c0-0.6,0.2-1.1,0.5-1.5c0.3-0.4,0.8-0.6,1.4-0.6c0.6,0,1,0.2,1.4,0.6c0.3,0.4,0.5,0.9,0.5,1.5V5.3z
			 M63,4.6c0-0.5-0.1-0.9-0.4-1.2c-0.3-0.3-0.6-0.5-1.1-0.5c-0.5,0-0.8,0.1-1.1,0.5C60.1,3.7,60,4.1,60,4.6v0.8
			c0,0.5,0.1,0.9,0.4,1.2C60.6,6.8,61,7,61.5,7c0.5,0,0.8-0.1,1.1-0.4C62.8,6.2,63,5.8,63,5.3L63,4.6L63,4.6z"/>
		<path id="XMLID_105_" class="st0" d="M65.3,6.5l0.1,0.3h0l0.1-0.3l1.5-3.8h0.4l-1.8,4.6h-0.4l-1.8-4.6h0.4L65.3,6.5z"/>
		<path id="XMLID_102_" class="st0" d="M71.2,5.3c0,0.6-0.2,1.1-0.5,1.5c-0.3,0.4-0.8,0.6-1.4,0.6s-1-0.2-1.4-0.6
			c-0.3-0.4-0.5-0.9-0.5-1.5V4.6c0-0.6,0.2-1.1,0.5-1.5c0.3-0.4,0.8-0.6,1.4-0.6c0.6,0,1,0.2,1.4,0.6s0.5,0.9,0.5,1.5V5.3z
			 M70.8,4.6c0-0.5-0.1-0.9-0.4-1.2c-0.3-0.3-0.6-0.5-1.1-0.5c-0.5,0-0.8,0.1-1.1,0.5c-0.3,0.3-0.4,0.7-0.4,1.2v0.8
			c0,0.5,0.1,0.9,0.4,1.2C68.5,6.8,68.8,7,69.3,7c0.5,0,0.8-0.1,1.1-0.4s0.4-0.7,0.4-1.2L70.8,4.6L70.8,4.6z"/>
	</g>
	<g id="XMLID_82_">
		<path id="XMLID_98_" class="st0" d="M53.1,10.8h-0.8l-0.1,0.5h-0.6l0.8-2.5h0.3l0,0l0,0H53l0.8,2.5h-0.6L53.1,10.8z M52.5,10.4H53
			l-0.2-0.8h0L52.5,10.4z"/>
		<path id="XMLID_94_" class="st0" d="M54.1,11.3V8.8h0.8c0.3,0,0.6,0.1,0.7,0.2c0.2,0.1,0.3,0.3,0.3,0.5c0,0.1,0,0.2-0.1,0.3
			c-0.1,0.1-0.1,0.2-0.3,0.2c0.1,0,0.3,0.1,0.3,0.2c0.1,0.1,0.1,0.2,0.1,0.3c0,0.2-0.1,0.4-0.3,0.5c-0.2,0.1-0.4,0.2-0.7,0.2H54.1z
			 M54.7,9.8h0.2c0.1,0,0.3,0,0.3-0.1c0.1,0,0.1-0.1,0.1-0.2c0-0.1,0-0.2-0.1-0.2c-0.1,0-0.2-0.1-0.3-0.1h-0.2L54.7,9.8L54.7,9.8z
			 M54.7,10.2v0.6h0.4c0.1,0,0.2,0,0.3-0.1c0.1,0,0.1-0.1,0.1-0.2c0-0.1,0-0.2-0.1-0.2c-0.1-0.1-0.1-0.1-0.3-0.1h0L54.7,10.2
			L54.7,10.2z"/>
		<path id="XMLID_93_" class="st0" d="M57,11.3h-0.6V8.8H57V11.3z"/>
		<path id="XMLID_92_" class="st0" d="M58.1,10.8h1.1v0.4h-1.7V8.8h0.6V10.8z"/>
		<path id="XMLID_91_" class="st0" d="M60.1,11.3h-0.6V8.8h0.6V11.3z"/>
		<path id="XMLID_90_" class="st0" d="M62.3,9.3h-0.7v2H61v-2h-0.7V8.8h1.9L62.3,9.3L62.3,9.3z"/>
		<path id="XMLID_87_" class="st0" d="M63.7,10.8H63l-0.1,0.5h-0.6L63,8.8h0.3l0,0l0,0h0.3l0.8,2.5h-0.6L63.7,10.8z M63.1,10.4h0.5
			l-0.2-0.8h0L63.1,10.4z"/>
		<path id="XMLID_86_" class="st0" d="M66.3,9.3h-0.7v2H65v-2h-0.7V8.8h1.9L66.3,9.3L66.3,9.3z"/>
		<path id="XMLID_83_" class="st0" d="M68.7,10.3c0,0.3-0.1,0.6-0.3,0.7c-0.2,0.2-0.5,0.3-0.8,0.3c-0.3,0-0.6-0.1-0.8-0.3
			c-0.2-0.2-0.3-0.4-0.3-0.7V9.8c0-0.3,0.1-0.6,0.3-0.7c0.2-0.2,0.5-0.3,0.8-0.3s0.6,0.1,0.8,0.3c0.2,0.2,0.3,0.4,0.3,0.7V10.3z
			 M68.1,9.8c0-0.2,0-0.3-0.1-0.4s-0.2-0.2-0.4-0.2s-0.3,0.1-0.4,0.2C67.1,9.5,67,9.6,67,9.8v0.4c0,0.2,0,0.3,0.1,0.4
			c0.1,0.1,0.2,0.2,0.4,0.2c0.1,0,0.3-0.1,0.4-0.2c0.1-0.1,0.1-0.3,0.1-0.4L68.1,9.8L68.1,9.8z"/>
	</g>
	<g id="Logo_Spid_Ufficiale_2_">
		<path id="XMLID_60_" class="st0" d="M55.4,14c-0.9-0.1-1.5-0.2-1.8-0.2s-0.6,0-0.7,0.1c-0.1,0.1-0.1,0.1-0.1,0.3
			c0,0.1,0.1,0.2,0.2,0.3c0.1,0,0.5,0.1,1,0.2c0.6,0.1,1,0.3,1.2,0.5c0.2,0.2,0.4,0.6,0.4,1.1c0,1.1-0.7,1.6-2.1,1.6
			c-0.5,0-1-0.1-1.7-0.2l-0.3-0.1l0-1.1c0.9,0.1,1.5,0.2,1.8,0.2c0.3,0,0.6,0,0.7-0.1c0.1-0.1,0.2-0.2,0.2-0.3
			c0-0.1-0.1-0.2-0.2-0.3s-0.5-0.1-1-0.2c-0.5-0.1-0.9-0.2-1.2-0.4c-0.3-0.2-0.4-0.6-0.4-1.1c0-0.5,0.2-0.9,0.6-1.2
			c0.4-0.3,0.9-0.4,1.5-0.4c0.4,0,1,0.1,1.7,0.2l0.3,0.1L55.4,14z"/>
		<path id="XMLID_78_" class="st0" d="M58.9,13.8c-0.3,0-0.5,0-0.8,0.1L58,14v2.6c0.3,0,0.6,0.1,0.8,0.1c0.4,0,0.7-0.1,0.8-0.3
			c0.1-0.2,0.2-0.6,0.2-1.2C59.8,14.3,59.5,13.8,58.9,13.8 M56.6,19.9v-7.1h1.4V13c0.4-0.3,0.9-0.4,1.2-0.4c0.7,0,1.2,0.2,1.6,0.6
			c0.3,0.4,0.5,1.1,0.5,2.1s-0.2,1.6-0.6,2c-0.4,0.4-1,0.6-1.8,0.6c-0.2,0-0.5,0-0.7-0.1l-0.1,0v2.1L56.6,19.9L56.6,19.9z"/>
		<path id="XMLID_75_" class="st0" d="M69.3,16.6l0.1,0v-2.6c-0.4-0.1-0.7-0.1-1-0.1c-0.6,0-0.9,0.5-0.9,1.4c0,0.5,0.1,0.9,0.2,1.1
			c0.1,0.2,0.3,0.3,0.6,0.3C68.7,16.7,69,16.6,69.3,16.6 M70.8,10.7v7h-1.4v-0.2c-0.5,0.2-0.9,0.3-1.3,0.3c-0.8,0-1.3-0.2-1.6-0.6
			c-0.3-0.4-0.4-1.1-0.4-2s0.2-1.6,0.5-2c0.4-0.4,0.9-0.6,1.6-0.6c0.2,0,0.5,0,0.9,0.1l0.2,0v-2H70.8z"/>
		<path id="XMLID_59_" class="st0" d="M63.7,15.7c-0.4,0-0.8-0.1-1.1-0.4c-0.3-0.3-0.4-0.6-0.4-1c0-0.4,0.1-0.8,0.4-1
			c0.3-0.3,0.6-0.4,1.1-0.4c0.4,0,0.8,0.1,1.1,0.4c0.3,0.3,0.4,0.6,0.4,1c0,0.4-0.1,0.7-0.4,1C64.4,15.5,64.1,15.7,63.7,15.7"/>
		<path id="XMLID_58_" class="st0" d="M62.2,17.7c0-0.4,0.1-0.8,0.4-1c0.3-0.3,0.6-0.4,1.1-0.4c0.4,0,0.8,0.1,1.1,0.4
			c0.3,0.3,0.4,0.6,0.4,1"/>
	</g>
	<g id="Logo_PosteID_ufficiale_2_">
		<rect id="XMLID_57_" x="0" y="0" class="st1" width="32.9" height="20"/>
		<rect id="XMLID_56_" x="29.9" y="0" class="st2" width="20" height="20"/>
		<g id="XMLID_41_">
			<path id="XMLID_68_" class="st0" d="M3.7,12.8V6.2h3c1.6,0,2.7,0.5,2.7,2.1s-1.1,2.1-2.7,2.1H5.5v2.4L3.7,12.8L3.7,12.8z
				 M6.4,9.2c0.7,0,1-0.4,1-0.8s-0.3-0.8-1-0.8H5.5v1.7L6.4,9.2z"/>
			<path id="XMLID_65_" class="st0" d="M14.8,10.5c0,1.7-1.2,2.4-2.7,2.4s-2.7-0.7-2.7-2.4s1.2-2.4,2.7-2.4S14.8,8.9,14.8,10.5
				 M12.1,12c0.7,0,0.9-0.8,0.9-1.4c0-0.6-0.1-1.4-0.9-1.4c-0.7,0-0.9,0.8-0.9,1.4C11.2,11.2,11.4,12,12.1,12"/>
			<path id="XMLID_55_" class="st0" d="M17.8,9.7c0-0.1,0-0.3-0.1-0.4c-0.1-0.1-0.2-0.2-0.5-0.2c-0.3,0-0.4,0.1-0.4,0.4
				c0,0.3,0.7,0.3,1.8,0.7c0.6,0.2,0.9,0.5,0.9,1.3c0,1.2-1.1,1.5-2.2,1.5c-1.1,0-2.2-0.2-2.2-1.6h1.6c0,0.1,0,0.3,0.1,0.4
				c0.1,0.1,0.2,0.2,0.4,0.2c0.3,0,0.6-0.1,0.6-0.4c0-0.8-2.7-0.3-2.7-2c0-1.1,1.2-1.4,2.1-1.4c1.1,0,2.1,0.3,2.2,1.6L17.8,9.7
				L17.8,9.7z"/>
			<path id="XMLID_54_" class="st0" d="M20.7,8.3V7.6l1.7-0.7v1.3h1v1.1h-1v1.8c0,0.1-0.1,0.7,0.3,0.7c0.2,0,0.5,0,0.7,0v1
				C23,13,22.7,13,22.5,13c-1.2,0-1.9-0.2-1.8-1.6V9.3h-0.9V8.3H20.7z"/>
			<path id="XMLID_42_" class="st0" d="M25.4,10.9c0,0.6,0.1,1.1,0.8,1.1c0.5,0,0.8-0.2,0.9-0.7h1.6c-0.1,0.6-0.4,1-0.9,1.3
				c-0.4,0.3-0.9,0.4-1.5,0.4c-1.8,0-2.6-0.8-2.6-2.6c0-1.5,1.1-2.3,2.5-2.3c1.9,0,2.5,1.1,2.5,2.8L25.4,10.9L25.4,10.9z M27.1,10
				c0-0.2-0.1-0.5-0.2-0.7S26.5,9,26.2,9c-0.6,0-0.7,0.5-0.8,1L27.1,10L27.1,10z"/>
		</g>
		<polygon id="XMLID_53_" class="st0" points="0,20 29.9,20 29.9,18.3 1.7,18.3 1.7,1.7 29.9,1.7 29.9,0 0,0 		"/>
		<g id="XMLID_35_">
			<path id="XMLID_39_" class="st0" d="M34.5,14.6V5h1.9v9.5L34.5,14.6z"/>
			<path id="XMLID_36_" class="st0" d="M44.6,13.7c-0.6,0.6-1.5,0.9-2.5,0.9h-3.4V5H42c1,0,1.9,0.3,2.5,0.9c1.1,1.1,1,2.4,1,3.8
				C45.5,11.2,45.6,12.6,44.6,13.7z M43.3,7.3c-0.3-0.4-0.7-0.6-1.4-0.6h-1.4v6.2h1.4c0.6,0,1.1-0.2,1.4-0.6
				c0.3-0.4,0.4-1.1,0.4-2.6S43.6,7.7,43.3,7.3z"/>
		</g>
	</g>
</g>
</svg>
