<?xml version="1.0" encoding="utf-8"?>
<!-- Generator: Adobe Illustrator 20.1.0, SVG Export Plug-In . SVG Version: 6.00 Build 0)  -->
<svg version="1.1" xmlns="http://www.w3.org/2000/svg" xmlns:xlink="http://www.w3.org/1999/xlink" x="0px" y="0px"
	 viewBox="0 0 200 50" style="enable-background:new 0 0 200 50;" xml:space="preserve">
<style type="text/css">
	.st0{fill:#0066CC;}
	.st1{fill:#895247;}
	.st2{fill:#FFFFFF;}
	.st3{fill-rule:evenodd;clip-rule:evenodd;fill:#F06E3E;}
	.st4{fill-rule:evenodd;clip-rule:evenodd;fill:#F26E3D;}
	.st5{fill:#841723;}
	.st6{fill-rule:evenodd;clip-rule:evenodd;fill:#FFFFFF;}
	.st7{fill:#891A1C;}
</style>
<g id="Forma">
</g>
<g id="rientro_x5F_forma">
</g>
<g id="Spid">
</g>
<g id="ID">
</g>
<g id="ContornoBianco">
</g>
<g id="Aruba">
	<g>
		<g id="XMLID_1_">
			<g>
				<path class="st0" d="M200,17.7V50h-31.8c0,0-5.3-0.3-9.6-3.6c-7.1-5.4-6.9-10.7-6.9-10.7V25.2V13.1V2.2h37.9
					c0,0,4.3,2.1,7.5,6.8C199.8,13.1,200,17.7,200,17.7z"/>
			</g>
		</g>
		<g>
			<path class="st1" d="M151.7,25.2"/>
		</g>
		<g>
			<path class="st1" d="M151.7,13.1"/>
		</g>
		<g>
			<path class="st2" d="M151.7,13.1v12.2c0,0,5.2-0.8,5.2-6.4C156.9,13.9,151.7,13.1,151.7,13.1z"/>
		</g>
		<g id="XMLID_85_">
			<path class="st2" d="M166.2,9.2C164.9,9.1,164,9,163.5,9c-0.5,0-0.9,0-1,0.1c-0.1,0.1-0.2,0.2-0.2,0.4c0,0.2,0.1,0.3,0.3,0.4
				c0.2,0.1,0.7,0.2,1.6,0.3c0.8,0.1,1.4,0.4,1.8,0.7c0.3,0.3,0.5,0.9,0.5,1.7c0,1.7-1,2.5-3.1,2.5c-0.7,0-1.5-0.1-2.5-0.3l-0.5-0.1
				l0.1-1.7c1.3,0.2,2.2,0.2,2.7,0.2c0.5,0,0.9,0,1-0.1c0.2-0.1,0.3-0.2,0.3-0.4c0-0.2-0.1-0.3-0.3-0.4c-0.2-0.1-0.7-0.2-1.5-0.3
				c-0.8-0.1-1.4-0.4-1.8-0.7c-0.4-0.3-0.6-0.9-0.6-1.7c0-0.8,0.3-1.4,0.8-1.9c0.6-0.4,1.3-0.6,2.2-0.6c0.6,0,1.4,0.1,2.5,0.3
				l0.5,0.1L166.2,9.2z"/>
		</g>
		<g id="XMLID_82_">
			<path class="st2" d="M171.4,9c-0.4,0-0.8,0.1-1.2,0.2L170,9.3v4.1c0.5,0.1,0.9,0.1,1.1,0.1c0.6,0,1-0.2,1.2-0.5
				c0.2-0.3,0.3-1,0.3-1.8C172.7,9.7,172.3,9,171.4,9 M167.9,18.3v-11h2.1v0.4c0.7-0.4,1.3-0.6,1.8-0.6c1.1,0,1.8,0.3,2.3,0.9
				c0.5,0.6,0.8,1.7,0.8,3.2s-0.3,2.6-0.8,3.1c-0.5,0.6-1.5,0.9-2.7,0.9c-0.3,0-0.7,0-1.1-0.1l-0.2,0v3.2L167.9,18.3L167.9,18.3z"/>
		</g>
		<g id="XMLID_79_">
			<path class="st2" d="M186.9,13.2l0.2,0V9c-0.6-0.1-1.1-0.2-1.5-0.2c-0.8,0-1.3,0.7-1.3,2.2c0,0.8,0.1,1.4,0.3,1.7
				c0.2,0.3,0.5,0.5,0.9,0.5C186,13.4,186.4,13.3,186.9,13.2 M189.2,4.2v10.9h-2.1v-0.3c-0.7,0.3-1.4,0.5-1.9,0.5
				c-1.1,0-1.9-0.3-2.4-1c-0.4-0.6-0.7-1.7-0.7-3.1c0-1.4,0.3-2.5,0.8-3.1c0.5-0.6,1.3-1,2.4-1c0.3,0,0.8,0.1,1.4,0.2l0.3,0.1V4.2
				H189.2z"/>
		</g>
		<g id="XMLID_78_">
			<path class="st2" d="M178.5,11.8c-0.7,0-1.2-0.2-1.6-0.6c-0.4-0.4-0.6-1-0.6-1.6c0-0.6,0.2-1.2,0.6-1.6c0.4-0.4,0.9-0.6,1.6-0.6
				c0.7,0,1.2,0.2,1.6,0.6c0.4,0.4,0.6,1,0.6,1.6c0,0.6-0.2,1.2-0.6,1.6C179.7,11.6,179.2,11.8,178.5,11.8"/>
		</g>
		<g id="XMLID_77_">
			<path class="st2" d="M176.3,14.9c0-0.6,0.2-1.2,0.6-1.6c0.4-0.4,0.9-0.6,1.6-0.6c0.7,0,1.2,0.2,1.6,0.6c0.4,0.4,0.6,1,0.6,1.6"/>
		</g>
		<g>
			<path class="st2" d="M161.9,45V18.6h5V45H161.9z"/>
			<path class="st2" d="M193.9,31.6c0.1,6.7-4,13.4-13.3,13.4c-3.3,0-7.2,0-10.4,0V18.6c3.3,0,7.2,0,10.4,0
				C189.7,18.6,193.8,25.1,193.9,31.6z M175.2,40.2h5.5c6,0,8.4-4.4,8.3-8.7c-0.1-4.1-2.5-8.2-8.3-8.2h-5.5V40.2z"/>
		</g>
		<g>
			<g>
				<path class="st3" d="M152,22.7c2.3-1,3.4-3.6,2-5.8c-1.3-1.7-3.1-1.8-5-1.7c-0.1-2.4,0-5-0.4-7.4c-0.5-2.9-3.1-4.6-5.8-3
					c-1.9,1.3-2.1,3.2-2.1,5.3c0,1.9,0.1,3.8,0.1,5.7c-2.8,0.2-6.3,0.3-6.9,3.7c-0.2,1.8,0.7,3.2,2.3,3.9c1.5,0.5,3.1,0.3,4.6,0.1
					c0.1,3.6,0.1,7.2,0.1,10.8c0,3.2-1,8.6,3.6,9.3c3.1,0.1,4.4-2.6,4.5-5.2c0-0.9,0-1.7,0-2.6c-0.2-4.2-0.1-8.5,0-12.7
					C150,23.2,151,23.1,152,22.7 M126.5,32.5c0.1,1.5,0.2,3,0.4,4.5c0.5,4,6.1,5.4,7.6,1.2c0.4-1.4,0.2-2.8,0.1-4.2
					c-0.3-4.4-0.7-8.9-1.3-13.3c-0.1-0.5-0.2-0.9-0.4-1.4c2.3-2.9,2-7.7-1.3-9.8c-0.8-0.5-1.8-0.7-2.8-0.8c-5.2-0.4-7.2,5.8-4.7,9.6
					c0.4,0.6,0.9,1.2,1.4,1.8c-0.3,1.1-0.2,2.4,0.1,3.4L126.5,32.5z M94.7,21.8c-1.5,1.4-2.5,4.4-3,6.4c-0.6,2.7-1,7.1,0.4,9.6
					c1.5,2.8,4,5.4,7.3,5.9c3.2,0.5,5.9,0.9,8.7-0.9c2.2,2.8,6.1,1.2,6.5-2.1c0,0,0-0.2,0-0.2c1.4,4.5,8.6,4.2,9.5-0.5
					c0.3-2.8-1.7-4.3-3.8-5.5l-1.1-0.1c-2,0.7-5.6,6.8-4.5,3.7c-0.7,2.2-0.1-4.6-0.1-6.9c0-3.4,1.1-15.7-5.9-13.1
					c-0.9,0.4-1.5,1-2,1.8c-1.1-0.3-2.2-0.6-3.3-0.7C100.7,18.7,96.8,19.9,94.7,21.8 M105.3,34.7c-0.3,0.4-0.6,0.8-1.1,1.1
					c-1.3,0.8-4.9-0.4-5-1.8c-0.1-2-0.3-4.5,1.2-6c1.1-1,2.7-0.8,4.1-0.7C106.7,29.2,107,32.4,105.3,34.7 M26,31.6
					c-0.6,0.6-0.2,5.2-0.1,6.4c0,0.9,0.1,1.8,0,2.7c-0.4,3.3-4.2,5.2-6.6,2.3c-4.3,2.7-11.9,1.2-14.7-3C4.4,39.6,4.2,39.3,4,39
					c-3.3-4.9-1.5-16,4.3-18.5c3-1.2,5.2-1.6,8.4-0.8c0.4,0.1,0.8,0.2,1.2,0.3c1-1.7,2.8-2.4,4.6-1.9c2.2,0.8,2.8,2.7,3,4.8l0.4-0.2
					c0.9-2.2,3-3.8,5.4-2.8c1.9-1.1,4.3-1.3,6.5-1.1c2.9,0.3,7.1,2.4,7.9,5.4c0.1,0.5,0.3-0.1,0.3-0.2c0.7-2.1,1.7-4.2,2.7-6.2
					c1.8-1.3,3.7-2.1,5.8-0.5c1,0.9,1.5,2.1,1.4,3.4c-0.1,2.4-6.5,11.9-0.2,11.8c2.7,0,3.2-1.9,3.3-4.2c0.1-3.4-4.2-6.9-0.3-9.8
					c2.1-1.4,4.7-1.1,6.2,1.1c1.2,1.8,1.9,4.1,2.3,6.2c0.6,0.3,0.5-3.1,0.6-3.7c0.1-5.3-0.1-10.8,0.4-16.1c0.6-5.5,7.8-4.4,7.8,0.7
					c-0.3,4.4-0.3,8.8-0.4,13.3c2.2-0.6,4.4-1.1,6.6-0.5c3.9,1.1,5.9,2.5,7.4,6.3c1.5,3.7,2.3,9.5,0,12.9c-1.6,2.3-3.5,4.3-6.3,5
					c-3.2,0.7-6.4,1-9.3-0.8c-1.9,2.3-5.3,1.7-6.3-1.1C67,39.8,68,32.6,67.2,32L67,32c-1.5,6.6-7.4,8.9-13.7,7.9
					c-3.2-0.6-6.3-2.9-7.6-5.9c-0.8-2-0.6-4.1-0.4-6.2c0.2-1-0.5,0-0.8,0.2c-2.4,2.2-5.1,0.6-7.1-1.2c-1.1-1-2.6-0.1-3.3,1
					c0.1,4.1,0.3,8.4,0,12.5l0,0.4c-0.5,4.6-6.6,4.5-7.5,0.5c-0.5-2.7-0.3-5.8-0.4-8.6C26.3,32.2,26.3,32,26,31.6 M76.6,34.6
					c1.8,2.7,4.2,1.4,6.3-0.1c0.2-2.1,0.4-4.8-1.2-6.4c-1.1-1-2.8-0.9-4.2-0.7C75.4,29.2,75.1,32.3,76.6,34.6 M16.6,34.6
					c-1.8,2.7-4.1,1.5-6.3-0.1c-0.2-2-0.4-4.8,1.2-6.4c1.1-1,2.8-0.8,4.2-0.7C17.8,29.2,18.1,32.4,16.6,34.6"/>
				<path class="st2" d="M22,46.6c-1.1,0-2.2-0.3-3.1-1c-1.5,0.6-3.2,0.9-4.9,0.9c-4.4,0-9.1-2-11.4-5.4c-0.1-0.2-0.3-0.4-0.4-0.6
					l-0.1-0.2c-1.1-1.7-1.8-3.9-2-6.5c-0.2-2.4,0.1-4.8,0.8-7.1c1.2-4.1,3.6-7.1,6.5-8.3l0,0c4-1.7,6.8-1.6,9.6-1
					c1.6-1.6,3.8-2.2,6.1-1.6l0.1,0l0.1,0c1.5,0.6,2.5,1.5,3.2,2.5c0.4-0.2,0.7-0.5,1.1-0.6c1.1-0.5,2.3-0.6,3.5-0.3
					c2.4-1.1,5-1.1,6.9-0.9l0,0c2.2,0.2,5,1.3,7.2,3.1c0.3-0.8,0.7-1.5,1.1-2.2c0.1-0.2,0.2-0.4,0.3-0.7l0.3-0.5l0.5-0.3
					c1.2-0.8,4.8-3.3,8.5-0.4l0.1,0.1l0.1,0.1c0.4,0.4,0.8,0.8,1.1,1.2c0.1-0.1,0.2-0.1,0.2-0.2l0.1-0.1c1.5-1,3.3-1.4,5-1.1
					c1.1,0.2,2.2,0.7,3.1,1.4c0-0.2,0-0.4,0-0.5c0-3.5,0-7,0.3-10.5l0,0c0.4-4.1,3.6-5.9,6.3-5.7c3,0.2,6.1,2.6,6,6.7l0,0.1
					c-0.2,3.4-0.3,6.8-0.3,10.2c1.6-0.2,3.2-0.3,4.9,0.2l0,0c3.6,1,6.3,2.4,8.2,6.1c0.5-1.2,1.3-2.3,2.2-3.2l0,0
					c2.5-2.3,7.1-3.8,10.5-3.3c0.7,0.1,1.4,0.2,2.2,0.4c0.5-0.5,1.2-1,1.9-1.3l0.1,0l0.1,0c2.7-1,4.6-0.3,5.7,0.5
					c1.7,1.2,2.7,3.4,3.1,6.7c0.3,2.4,0.3,4.8,0.2,6.6c0,0.6,0,1.1,0,1.4c0,0.5,0,1.3-0.1,2.1c0.5-0.5,1.1-0.8,1.7-1l0.5-0.2
					l2.1,0.3l0.4,0.2c0.7,0.4,1.8,1.1,2.8,2c0-0.1,0-0.2,0-0.4c0-0.5-0.1-1-0.1-1.4l0,0l-0.7-8.8c-0.3-1.1-0.4-2.2-0.3-3.2
					c-0.3-0.4-0.6-0.8-0.9-1.2c-1.8-2.8-1.9-6.6-0.2-9.5c1.5-2.5,4-3.8,7-3.6c1.3,0.1,2.6,0.5,3.7,1.1l0.1,0.1
					c2,1.2,3.3,3.2,3.7,5.5c0.1,0.4,0.1,0.7,0.1,1.1c0.5-0.1,1.1-0.2,1.6-0.3c0-1.2-0.1-2.4,0-3.6c0-1.9,0.1-5.2,3.1-7.2l0.1-0.1
					c1.8-1.1,3.9-1.2,5.7-0.4c1.9,0.9,3.2,2.7,3.6,5c0.3,1.8,0.3,3.7,0.4,5.5c1.5,0.2,3.2,0.8,4.6,2.6l0.1,0.1l0.1,0.1
					c1,1.6,1.3,3.4,0.7,5.1c-0.6,1.8-1.9,3.3-3.7,4l-0.1,0c-0.5,0.2-1.1,0.3-1.6,0.4c0,3.4-0.1,7,0,10.5c0,0.8,0.1,1.8,0,2.8
					c-0.1,1.9-0.7,3.6-1.6,4.9c-1.3,1.7-3.1,2.6-5.3,2.5l-0.1,0l-0.1,0c-2.6-0.3-4.5-1.9-5.3-4.5c-0.5-1.8-0.5-3.8-0.4-5.6
					c0-0.5,0-1,0-1.4c0-2.6-0.1-5.3-0.1-7.9c0-0.1,0-0.3,0-0.4c-0.7,0-1.4,0-2.2-0.2c0.2,2.5,0.4,5,0.6,7.4l0,0.4c0,0.2,0,0.4,0,0.5
					c0.1,1.4,0.3,2.9-0.3,4.5l0,0.1c-1,2.8-3.5,4.3-6.3,4c-1.6-0.2-3-0.9-4.1-2.1c-0.8,2.9-3.3,4.9-6.5,5c-1.8,0.1-3.4-0.4-4.7-1.3
					c-0.7,0.7-1.6,1.3-2.7,1.6c-1.6,0.4-3.3,0.2-4.7-0.7c-3,1.3-5.9,0.8-8.7,0.4l0,0c-3-0.5-5.8-2.4-7.9-5.4c-1.5,2-3.7,4.6-7.3,5.4
					l0,0c-3,0.6-6.3,1.1-9.5-0.3c-1.2,0.8-2.7,1.1-4.1,0.9c-2.2-0.3-3.9-1.8-4.7-3.9l0-0.1c-0.2-0.7-0.3-1.7-0.3-3
					c-3,2.5-7.3,3.5-12.2,2.7l0,0c-4-0.7-7.7-3.6-9.3-7.3l0,0c-0.5-1.2-0.7-2.3-0.8-3.5c-1.7,0.2-3.8-0.2-6.4-2.3c0,0.6,0,1.2,0,1.8
					c0.1,3.2,0.2,6.5,0,9.7l0,0l0,0.5c-0.4,3.1-2.7,5.3-5.7,5.5c-1.4,0.1-2.8-0.3-3.9-1.1c-0.2-0.2-0.4-0.3-0.6-0.5
					c-0.7,0.7-1.6,1.2-2.6,1.5C23.1,46.5,22.6,46.6,22,46.6z M19.8,39.8l1.3,1.6c0.6,0.7,1.1,0.6,1.3,0.5c0.5-0.1,1.1-0.7,1.2-1.6
					c0.1-0.8,0.1-1.6,0-2.4c0-0.2,0-0.5-0.1-0.9c-0.3-4.5-0.2-6.1,0.9-7.2l2.1-2l1.5,2.4c0.5,0.9,0.6,1.5,0.5,2.2l0,0.1
					c0,0.8,0,1.7,0.1,2.5c0,1.9,0.1,3.9,0.3,5.6c0.3,1.1,1.4,1.1,1.5,1.1c0.5,0,1.2-0.3,1.4-1.4l0-0.4c0.2-3,0.1-6.2,0-9.3
					c0-1-0.1-2-0.1-3.1l0-0.7l0.4-0.6c0.8-1.3,2.2-2.2,3.6-2.4c1.2-0.2,2.3,0.2,3.1,1c2.6,2.3,3.5,1.7,3.9,1.3c0,0,0,0,0-0.1
					c0.1-0.1,0.3-0.3,0.5-0.5c0.1-0.1,0.2-0.2,0.4-0.3c-0.1-0.2-0.2-0.4-0.3-0.7l0-0.1c-0.4-1.7-3.6-3.4-5.9-3.6
					c-2.1-0.2-3.9,0.1-5.1,0.8l-1,0.6l-1-0.4c-0.4-0.2-0.8-0.2-1.1,0c-0.5,0.2-1,0.8-1.3,1.6l-0.4,0.9l-4.2,1.7l-0.3-3
					c-0.2-2.1-0.8-2.6-1.4-2.8c-0.8-0.2-1.5,0.1-2,0.9L19,22.7l-1.8-0.5c-0.3-0.1-0.7-0.2-1.1-0.3c-2.5-0.6-4.3-0.4-6.9,0.7
					c-1.7,0.7-3.1,2.7-3.9,5.4c-1.1,3.5-0.8,7.6,0.6,9.7L6,38c0.2,0.2,0.3,0.4,0.5,0.7c1,1.5,3,2.7,5.4,3.1c2.4,0.5,4.7,0.2,6.2-0.8
					L19.8,39.8z M69.8,41c0.3,0.7,0.9,0.9,1.1,0.9c0.3,0,0.8,0,1.3-0.5l1.3-1.6l1.7,1.1c2,1.3,4.5,1.1,7.5,0.5
					c1.8-0.4,3.3-1.7,4.9-4.1c1.3-1.9,1.6-6.2-0.2-10.8c-1.2-2.9-2.4-4-5.9-4.9c-1.6-0.4-3.3-0.1-5.4,0.5l-3,0.8l0-4.2
					c0-4,0.1-8.1,0.3-12.2c0-1.5-1.1-1.9-1.7-2c-0.6,0-1.3,0.2-1.5,1.6c-0.3,3.3-0.3,6.8-0.3,10.1c0,1.9,0,3.9-0.1,5.8
					c0,0.1,0,0.1,0,0.2c0,2.7-0.1,4.5-1.5,5.3c-0.7,0.4-1.6,0.5-2.3,0.1l-1-0.5l-0.2-1.1c-0.4-2.1-1.1-4-2-5.3c-0.8-1.2-2.1-1-3-0.5
					c-0.8,0.6-1,0.9,0.1,3.4c0.6,1.3,1.2,2.9,1.2,4.6l0,0c0,1.3-0.2,2.8-1,4.1c-0.6,1-2,2.3-4.6,2.3l0,0c0,0,0,0,0,0
					c-2.5,0-3.7-1.1-4.3-2c-1.8-2.6-0.2-6.4,1.2-9.8c0.4-0.9,0.9-2.1,0.9-2.5c0-0.6-0.2-1.1-0.6-1.5c-0.5-0.3-0.9-0.6-2.5,0.3
					c0,0,0,0.1-0.1,0.1c-0.8,1.7-1.7,3.4-2.2,5.2l0,0c-0.2,0.8-0.6,1.3-1,1.6c0.3,0.4,0.5,1.1,0.3,1.9c-0.2,1.8-0.3,3.5,0.2,5
					c1,2.2,3.4,4.1,5.9,4.5c2.8,0.5,5.3,0.2,7.2-0.8c2-1,3.3-2.8,3.9-5.3l0.4-1.7l2.7-0.1l0.6,0.5c1.4,1,1.4,2.9,1.2,6.7
					C69.7,38.2,69.7,40.4,69.8,41z M108.6,39.7l1.3,1.6c0.4,0.5,0.8,0.6,1.3,0.5c0.5-0.1,1.1-0.7,1.2-1.5l0,0c0-0.2,0.1-0.4,0.1-0.6
					c-0.1-0.2-0.2-0.5-0.2-0.8c-0.1-0.2-0.1-0.5-0.2-0.8c0-0.3,0-0.7,0-1.2c0-0.8,0.1-1.9,0.1-2.9c0.1-1.2,0.1-2.4,0.1-3
					c0-0.4,0-1,0-1.6c0-1.7,0.1-3.9-0.2-6c-0.3-2.7-1-3.4-1.3-3.5c-0.3-0.2-0.9-0.1-1.3,0.1c-0.4,0.2-0.6,0.4-0.9,0.8l-0.9,1.6
					L106,22c-1.1-0.3-2.1-0.5-3-0.7c-2-0.3-5.2,0.7-6.7,2.1c-1,1-1.9,3.4-2.3,5.2c-0.6,2.6-0.8,6.3,0.1,8c1.4,2.6,3.5,4.4,5.6,4.7
					l0,0c3.3,0.5,5.1,0.7,7.1-0.6L108.6,39.7z M144.7,41.4C144.7,41.4,144.7,41.4,144.7,41.4c0.6,0,1-0.2,1.3-0.6
					c0.4-0.6,0.7-1.4,0.7-2.4c0-0.8,0-1.6,0-2.4c-0.1-3.6-0.1-7.3,0-10.8c0-0.7,0-1.3,0-2l0-2.2l2.2,0c0.9,0,1.6,0,2.2-0.3
					c0.6-0.2,1-0.7,1.1-1.2c0.1-0.4,0.1-0.8-0.2-1.2c-0.5-0.7-1.2-0.8-3-0.7l-2.4,0.1l-0.1-2.3c0-0.7,0-1.3,0-2c0-1.7,0-3.5-0.3-5.1
					c-0.1-0.8-0.5-1.4-1-1.6c-0.4-0.2-0.8-0.1-1.3,0.2c-0.8,0.5-1,1.3-1,3.4c0,1.6,0,3.2,0.1,4.7c0,0.3,0,0.6,0,0.8l0.1,2.2
					l-2.2,0.2c-0.2,0-0.4,0-0.6,0.1c-3.2,0.3-4,0.6-4.3,1.7c-0.1,0.7,0.2,1.1,0.8,1.4c0.9,0.3,2,0.2,3.2,0l2.8-0.3l0,2.5
					c0,1,0,1.9,0,2.8c0,2.6,0.1,5.3,0.1,8c0,0.5,0,1.1,0,1.6C143,40.3,143.4,41.2,144.7,41.4z M116.9,39.9c0.4,1.2,1.7,1.6,2.6,1.5
					c0.3,0,2-0.2,2.4-1.8c0.1-0.9-0.3-1.7-2.2-2.9c-0.6,0.6-1.5,1.7-2,2.2C117.4,39.2,117.1,39.5,116.9,39.9L116.9,39.9z
					 M116.8,38.9C116.8,38.9,116.8,38.9,116.8,38.9C116.8,38.9,116.8,38.9,116.8,38.9z M116.7,38.6l0.2,0.1c0-0.6-0.3-1.4-1.1-1.8
					c-1-0.5-2-0.2-2.4,0.2c0.1-0.1,0.5-0.5,0.7-0.8c-0.7,0.2-1.3,0.7-1.5,1.1l2.8,0.9l1.2,0L116.7,38.6z M128.8,32.3
					c0,0.5,0.1,1,0.1,1.5c0.1,1,0.1,2,0.3,2.9c0.1,1.1,1,1.7,1.7,1.8c0.7,0.1,1.2-0.3,1.5-1c0.2-0.7,0.1-1.7,0-2.7
					c0-0.2,0-0.4,0-0.6l0-0.4c-0.3-4.2-0.7-8.6-1.2-12.8c0-0.3-0.1-0.6-0.2-0.8l-0.5-1.2l0.8-1c0.8-1.1,1.2-2.6,0.9-4
					c-0.1-0.7-0.5-1.8-1.6-2.4c-0.5-0.3-1.2-0.5-1.8-0.5c-1.2-0.1-2.1,0.4-2.7,1.4c-0.8,1.4-0.8,3.3,0.1,4.7
					c0.3,0.5,0.7,0.9,1.1,1.4l0.9,1.1l-0.3,1.1c-0.2,0.6-0.1,1.4,0.1,2.1L128,23L128.8,32.3z M55.2,30.1c0.1,0,0.3,0,0.5,0
					c0.1,0,0.6,0,0.7-0.1c0.1-0.2,0.3-0.7,0.3-1.8c0-0.5-0.2-1.2-0.5-1.8c-0.3,0.7-0.5,1.4-0.7,2C55.2,29.4,55.2,29.9,55.2,30.1z
					 M14.1,38.5c-1.9,0-3.6-1-5.1-2.1l-0.8-0.6l-0.1-1c-0.2-2.2-0.5-5.9,1.8-8.2l0,0c1.9-1.8,4.5-1.5,6.1-1.3l0.6,0.1l0.5,0.4
					c3,2.4,3.6,6.8,1.5,10.1l0,0c-0.9,1.4-2.2,2.3-3.6,2.6C14.7,38.5,14.4,38.5,14.1,38.5z M12.6,33.3c1,0.6,1.5,0.7,1.6,0.7
					c0.1,0,0.3-0.2,0.6-0.6c0.7-1,0.7-2.6-0.1-3.7c-0.6-0.1-1.3-0.1-1.5,0.1C12.5,30.5,12.5,32,12.6,33.3z M79.2,38.5
					c-0.3,0-0.6,0-0.9-0.1c-1.4-0.3-2.6-1.1-3.6-2.5l0,0c-2.2-3.3-1.6-7.7,1.4-10.2l0.5-0.4l0.7-0.1c1.6-0.2,4.2-0.6,6.1,1.3l0,0
					c2.3,2.3,2,5.8,1.9,8.1l-0.1,1.1l-0.9,0.6C82.8,37.4,81.1,38.5,79.2,38.5z M78.5,33.4c0.2,0.4,0.4,0.5,0.5,0.5
					c0.1,0,0.6,0,1.6-0.7c0.1-1.4,0.1-2.8-0.6-3.5c-0.2-0.2-0.9-0.2-1.5-0.1C77.8,30.6,77.8,32.2,78.5,33.4z M103.1,38.3
					c-1.3,0-2.6-0.4-3.6-0.9c-2.1-1.1-2.5-2.5-2.5-3.3l0-0.2c-0.1-2.2-0.3-5.4,1.9-7.6c1.9-1.9,4.6-1.5,6-1.3l0.7,0.1l0.5,0.5
					c3,2.7,3.5,7.1,1.1,10.5l0,0c-0.3,0.5-0.9,1.2-1.8,1.7C104.7,38.1,103.9,38.3,103.1,38.3z M101.5,33.3c0.4,0.2,1.2,0.5,1.7,0.4
					c0.1-0.1,0.2-0.2,0.3-0.4c0.9-1.3,0.9-2.8,0-3.9c-0.6-0.1-1.2-0.1-1.4,0.1C101.3,30.2,101.4,31.9,101.5,33.3z M103.2,33.7
					C103.2,33.7,103.2,33.7,103.2,33.7S103.2,33.7,103.2,33.7z"/>
			</g>
		</g>
		<g>
			<g>
				<g>
					<path class="st4" d="M152,22.7c1.5-0.6,2.4-1.9,2.6-3.3v-0.8c-0.1-0.6-0.3-1.1-0.6-1.7c-1.3-1.7-3.1-1.8-5-1.7
						c-0.1-2.4,0-5-0.4-7.4c-0.5-2.9-3.1-4.6-5.8-3c-1.9,1.3-2.1,3.2-2.1,5.3c0,1.9,0.1,3.8,0.1,5.7c-2.4,0.2-5.3,0.3-6.5,2.4V22
						c0.4,0.7,1,1.2,1.9,1.5c1.5,0.5,3.1,0.3,4.6,0.1c0.1,3.6,0.1,7.2,0.1,10.8c0,3.2-1,8.6,3.6,9.3c3.1,0.1,4.4-2.6,4.5-5.2
						c0-0.9,0-1.7,0-2.6c-0.2-4.2-0.1-8.5,0-12.7C150,23.2,151,23.1,152,22.7 M134.3,38.7v-9c0.1,1.4,0.2,2.8,0.3,4.2
						c0.1,1.4,0.3,2.8-0.1,4.2C134.5,38.3,134.4,38.5,134.3,38.7 M134.3,16.4v-3.4C134.6,14.2,134.6,15.3,134.3,16.4 M134.3,18.4
						c-0.2,0.4-0.4,0.8-0.5,1.3c-0.1,0.9,0.1,1.7,0.5,2.4V18.4z M134.3,13.1v3.4c-0.2,1-0.7,2-1.3,2.8c0.2,0.5,0.3,0.9,0.4,1.4
						c0.4,3,0.7,6.1,0.9,9.1v9c-1.8,3.6-6.9,2.2-7.4-1.7c-0.2-1.5-0.3-3-0.4-4.5l-0.7-9c-0.3-1.1-0.4-2.3-0.1-3.4
						c-0.5-0.6-1-1.2-1.4-1.8c-0.2-0.3-0.4-0.7-0.6-1.1v-5.2c0.8-2,2.6-3.5,5.3-3.3c1,0.1,1.9,0.4,2.8,0.8
						C133.1,10.3,134,11.6,134.3,13.1 M123.7,41.3c0.2-0.4,0.4-0.8,0.5-1.3c0.1-1-0.1-1.9-0.5-2.6V41.3z M123.7,11.9v5.2
						C123,15.4,123.1,13.5,123.7,11.9 M123.7,37.3c-0.7-1.3-2-2.2-3.4-2.9l-1.1-0.1c-2,0.7-4,1.4-4.5,3.7c-0.1-2.3-0.1-4.6-0.1-6.9
						c0-3.4,1.1-15.7-5.9-13.1c-0.9,0.4-1.5,1-2,1.8c-1.1-0.3-2.2-0.6-3.3-0.7c-0.2,0-0.4,0-0.6-0.1v8.1c0.6,0,1.2,0.1,1.8,0.1
						c2.2,2,2.4,5.1,0.8,7.4c-0.3,0.4-0.6,0.8-1.1,1.1c-0.4,0.2-0.9,0.3-1.5,0.2v8c1.8,0.1,3.6-0.2,5.4-1.3c2.2,2.8,6.1,1.2,6.5-2.1
						c0,0,0-0.2,0-0.2c1.2,4.1,7.2,4.2,9,0.8V37.3z M102.7,19v8.1c-0.9,0-1.7,0.2-2.3,0.8c-1.5,1.5-1.3,4-1.2,6c0.1,1.1,2,2,3.5,2.1
						v8c-1.1-0.1-2.2-0.2-3.4-0.4c-3.2-0.5-5.8-3.2-7.3-5.9c-1.4-2.5-1-6.8-0.4-9.6c0.4-2,1.5-4.9,3-6.4
						C96.6,20,100.1,18.9,102.7,19 M79.4,44.2c1.3,0,2.6-0.3,3.9-0.5c2.8-0.7,4.7-2.7,6.3-5c2.3-3.4,1.4-9.3,0-12.9
						c-1.5-3.8-3.5-5.3-7.4-6.3c-0.9-0.2-1.8-0.3-2.8-0.2v8.1c0.9,0,1.7,0.2,2.4,0.8c1.6,1.6,1.4,4.3,1.2,6.4
						c-1.2,0.8-2.4,1.6-3.6,1.7V44.2z M79.4,19.2v8.1c-0.6,0-1.2,0.1-1.8,0.1c-2.2,1.8-2.4,4.9-0.9,7.2c0.8,1.2,1.8,1.6,2.7,1.6v8
						c-1.9,0.1-3.7-0.2-5.4-1.4c-1.9,2.3-5.3,1.7-6.3-1.1C67,39.8,68,32.6,67.2,32L67,32c-1.5,6.6-7.4,8.9-13.7,7.9
						c-3.2-0.6-6.3-2.9-7.6-5.9c-0.8-2-0.6-4.1-0.4-6.2c0.2-1-0.5,0-0.8,0.2c-2.4,2.2-5.1,0.6-7.1-1.2c-1.1-1-2.6-0.1-3.3,1
						c0.1,4.1,0.3,8.4,0,12.5l0,0.4c-0.5,4.6-6.6,4.5-7.5,0.5c-0.5-2.7-0.3-5.8-0.4-8.6c0-0.5,0-0.7-0.2-1.1
						c-0.6,0.6-0.2,5.2-0.1,6.4c0,0.9,0.1,1.8,0,2.7c-0.4,3.3-4.2,5.2-6.6,2.3c-1.5,1-3.4,1.4-5.4,1.4v-8.1c1,0.1,1.9-0.3,2.8-1.6
						c1.4-2.2,1.2-5.4-1-7.1c-0.6-0.1-1.2-0.2-1.8-0.1v-8c0.9,0,1.8,0.2,2.8,0.4c0.4,0.1,0.8,0.2,1.2,0.3c1-1.7,2.8-2.4,4.6-1.9
						c2.2,0.8,2.8,2.7,3,4.8l0.4-0.2c0.9-2.2,3-3.8,5.4-2.8c1.9-1.1,4.3-1.3,6.5-1.1c2.9,0.3,7.1,2.4,7.9,5.4
						c0.1,0.5,0.3-0.1,0.3-0.2c0.7-2.1,1.7-4.2,2.7-6.2c1.8-1.3,3.7-2.1,5.8-0.5c1,0.9,1.5,2.1,1.4,3.4c-0.1,2.4-6.5,11.9-0.2,11.8
						c2.7,0,3.2-1.9,3.3-4.2c0.1-3.4-4.2-6.9-0.3-9.8c2.1-1.4,4.7-1.1,6.2,1.1c1.2,1.8,1.9,4.1,2.3,6.2c0.6,0.3,0.5-3.1,0.6-3.7
						c0.1-5.3-0.1-10.8,0.4-16.1c0.6-5.5,7.8-4.4,7.8,0.7c-0.3,4.4-0.3,8.8-0.4,13.3C76.8,19.5,78.1,19.2,79.4,19.2 M13.9,19.3v8
						c-0.9,0-1.7,0.2-2.4,0.8c-1.6,1.6-1.4,4.3-1.2,6.4c1.2,0.8,2.4,1.6,3.5,1.7v8.1c-3.6,0-7.5-1.6-9.3-4.4C4.4,39.6,4.2,39.3,4,39
						c-1-1.5-1.5-3.5-1.6-5.7v-1.7c0.2-4.7,2.3-9.6,6-11.1C10.3,19.7,12,19.3,13.9,19.3"/>
				</g>
			</g>
			<g>
				<g>
					<path class="st3" d="M152,22.7c2.3-1,3.4-3.6,2-5.8c-1.3-1.7-3.1-1.8-5-1.7c-0.1-2.4,0.1-5-0.4-7.4c-0.5-2.9-3.1-4.6-5.8-3
						c-1.9,1.3-2.1,3.2-2.1,5.3c0,1.9,0.1,3.8,0.1,5.7c-2.8,0.2-6.3,0.3-6.9,3.7c-0.2,1.8,0.7,3.2,2.3,3.9c1.5,0.5,3.1,0.3,4.6,0.1
						c0.1,3.6,0.1,7.2,0.1,10.8c0,3.2-1,8.6,3.6,9.3c3.1,0.1,4.4-2.6,4.5-5.2c0-0.9,0-1.7,0-2.6c-0.2-4.2-0.1-8.5,0-12.7
						C150,23.2,151,23.1,152,22.7 M126.5,32.5c0.1,1.5,0.2,3,0.4,4.5c0.5,4,6.1,5.4,7.6,1.2c0.4-1.4,0.2-2.8,0.1-4.2
						c-0.3-4.4-0.7-8.9-1.3-13.3c-0.1-0.5-0.2-0.9-0.4-1.4c2.3-2.9,2-7.7-1.3-9.8c-0.8-0.5-1.8-0.7-2.8-0.8
						c-5.2-0.4-7.2,5.8-4.7,9.6c0.4,0.6,0.9,1.2,1.4,1.8c-0.3,1.1-0.2,2.4,0.1,3.4L126.5,32.5z M94.7,21.8c-1.5,1.4-2.5,4.4-3,6.4
						c-0.6,2.7-1,7.1,0.4,9.6c1.5,2.8,4,5.4,7.3,5.9c3.2,0.5,5.9,0.9,8.7-0.9c2.2,2.8,6.1,1.2,6.5-2.1c0,0,0-0.2,0-0.2
						c1.4,4.5,8.6,4.2,9.5-0.5c0.3-2.8-1.7-4.3-3.8-5.5l-1.1-0.1c-2,0.7-4,1.4-4.5,3.7c-0.1-2.3-0.1-4.6-0.1-6.9
						c0-3.4,1.1-15.7-5.9-13.1c-0.9,0.4-1.5,1-2,1.8c-1.1-0.3-2.2-0.6-3.3-0.7C100.7,18.7,96.8,19.9,94.7,21.8 M105.3,34.7
						c-0.3,0.4-0.6,0.8-1.1,1.1c-1.3,0.8-4.9-0.4-5-1.8c-0.1-2-0.3-4.5,1.2-6c1.1-1,2.7-0.8,4.1-0.7C106.7,29.2,107,32.4,105.3,34.7
						 M26,31.6c-0.6,0.6-0.2,5.2-0.1,6.4c0,0.9,0.1,1.8,0,2.7c-0.4,3.3-4.2,5.2-6.6,2.3c-4.3,2.7-11.9,1.2-14.7-3
						C4.4,39.6,4.2,39.3,4,39c-3.3-4.9-1.5-16,4.3-18.5c3-1.2,5.2-1.6,8.4-0.8c0.4,0.1,0.8,0.2,1.2,0.3c1-1.7,2.8-2.4,4.6-1.9
						c2.2,0.8,2.8,2.7,3,4.8l0.4-0.2c0.9-2.2,3-3.8,5.4-2.8c1.9-1.1,4.3-1.3,6.5-1.1c2.9,0.3,7.1,2.4,7.9,5.4
						c0.1,0.5,0.3-0.1,0.3-0.2c0.7-2.1,1.7-4.2,2.7-6.2c1.8-1.3,3.7-2.1,5.8-0.5c1,0.9,1.5,2.1,1.4,3.4c-0.1,2.4-6.5,11.9-0.2,11.8
						c2.7,0,3.2-1.9,3.3-4.2c0.1-3.4-4.2-6.9-0.3-9.8c2.1-1.4,4.7-1.1,6.2,1.1c1.2,1.8,1.9,4.1,2.3,6.2c0.6,0.3,0.5-3.1,0.6-3.7
						c0.1-5.3-0.1-10.8,0.4-16.1c0.6-5.5,7.8-4.4,7.8,0.7c-0.3,4.4-0.3,8.8-0.4,13.3c2.2-0.6,4.4-1.1,6.6-0.5
						c3.9,1.1,5.9,2.5,7.4,6.3c1.5,3.7,2.3,9.5,0,12.9c-1.6,2.3-3.5,4.3-6.3,5c-3.2,0.7-6.4,1-9.3-0.8c-1.9,2.3-5.3,1.7-6.3-1.1
						C67,39.8,68,32.6,67.2,32L67,32c-1.5,6.6-7.4,8.9-13.7,7.9c-3.2-0.6-6.3-2.9-7.6-5.9c-0.8-2-0.6-4.1-0.4-6.2
						c0.2-1-0.5,0-0.8,0.2c-2.4,2.2-5.1,0.6-7.1-1.2c-1.1-1-2.6-0.1-3.3,1c0.1,4.1,0.3,8.4,0,12.5l0,0.4c-0.5,4.6-6.6,4.5-7.5,0.5
						c-0.5-2.7-0.3-5.8-0.4-8.6C26.3,32.2,26.3,32,26,31.6 M76.6,34.6c1.8,2.7,4.2,1.4,6.3-0.1c0.2-2.1,0.4-4.8-1.2-6.4
						c-1.1-1-2.8-0.9-4.2-0.7C75.4,29.2,75.1,32.3,76.6,34.6 M16.6,34.6c-1.8,2.7-4.1,1.5-6.3-0.1c-0.2-2-0.4-4.8,1.2-6.4
						c1.1-1,2.8-0.8,4.2-0.7C17.8,29.2,18.1,32.4,16.6,34.6"/>
				</g>
			</g>
			<g>
				<g>
					<path class="st5" d="M22.1,44.4c-0.7,0-1.8-0.2-2.8-1.4c-1.4,0.9-3.2,1.4-5.3,1.4c-3.9,0-7.7-1.8-9.5-4.4
						c-0.1-0.2-0.3-0.4-0.4-0.7l-0.1-0.2C2.1,36.4,1.7,31.7,3,27.4c1-3.5,2.9-5.9,5.3-6.9c2.1-0.8,3.6-1.2,5.3-1.2
						c1,0,2,0.1,3.1,0.4c0.4,0.1,0.8,0.2,1.2,0.3c0.8-1.3,2-2.1,3.5-2.1c0.4,0,0.8,0.1,1.2,0.2c2.3,0.8,2.8,2.9,3,4.8l0.3-0.1
						c0.8-1.9,2.3-3.1,4-3.1c0.5,0,1,0.1,1.5,0.3c1.3-0.8,3-1.1,4.9-1.1c0.5,0,1,0,1.6,0.1c2.8,0.3,7.2,2.4,7.9,5.4
						c0,0.1,0,0.1,0.1,0.1c0,0,0.1-0.1,0.1-0.3l0-0.1c0.6-1.9,1.5-3.8,2.4-5.5c0.1-0.2,0.2-0.4,0.3-0.7c0,0,0,0,0,0
						c0.9-0.6,2.2-1.4,3.5-1.4c0.8,0,1.6,0.3,2.4,0.9c1,0.9,1.5,2.1,1.5,3.4c0,0.7-0.5,1.9-1.1,3.3c-1.1,2.7-2.5,6-1.5,7.6
						c0.4,0.6,1.2,0.9,2.3,0.9h0c2.6,0,3.1-1.6,3.2-4.2c0-1.2-0.5-2.4-1-3.6c-0.9-2.2-1.9-4.4,0.7-6.3c0.8-0.6,1.8-0.8,2.7-0.8
						c1.4,0,2.7,0.7,3.6,1.9c1.3,2,2,4.4,2.3,6.1c0,0,0,0,0,0c0.2,0,0.4-0.6,0.4-3.3c0-0.1,0-0.2,0-0.3c0.1-1.9,0.1-3.9,0.1-5.7
						c0-3.4,0-6.9,0.3-10.3c0.3-2.7,2.2-3.7,3.7-3.7c1.1,0,2.2,0.4,2.9,1.2c0.8,0.8,1.2,1.9,1.2,3.2c-0.3,4-0.3,8.1-0.3,12.1l0,1.1
						c1.3-0.4,2.9-0.7,4.4-0.7c0.8,0,1.5,0.1,2.2,0.3c4.1,1.1,6,2.7,7.4,6.3c1.6,3.9,2.2,9.7,0,13c-1.3,2-3.2,4.3-6.3,5
						c-1.2,0.3-2.8,0.6-4.4,0.6c-1.9,0-3.5-0.4-4.9-1.3c-0.7,0.9-1.8,1.4-2.9,1.4c-1.6,0-3-1-3.5-2.5c-0.3-0.9-0.2-3-0.2-5
						c0.1-2.2,0.1-4.4-0.3-4.7l-0.1,0c-1.2,5.2-5.2,8.1-10.9,8.1c-0.9,0-1.9-0.1-2.8-0.2c-3.3-0.6-6.3-3-7.6-5.9
						c-0.8-2-0.7-4-0.4-6.2c0-0.3,0-0.4,0-0.4c0,0,0,0,0,0c-0.1,0-0.4,0.3-0.5,0.5c-0.1,0.1-0.1,0.1-0.2,0.2
						c-0.8,0.7-1.6,1.1-2.6,1.1c-1.4,0-2.9-0.7-4.6-2.3c-0.3-0.3-0.6-0.4-1-0.4c-0.9,0-1.8,0.7-2.2,1.3c0,1,0,2,0.1,3
						c0.1,3.1,0.2,6.4,0,9.5l0,0.4c-0.3,2.4-2.1,3.5-3.8,3.5c-1.6,0-3.4-0.9-3.8-3c-0.3-1.9-0.4-4-0.4-6c0-0.8,0-1.7-0.1-2.5l0-0.1
						c0-0.4,0-0.5-0.2-0.9c-0.4,0.6-0.2,3.7-0.1,5.3c0,0.4,0,0.7,0.1,1c0,0.9,0.1,1.8,0,2.7C25.7,42.7,24,44.4,22.1,44.4z
						 M19.3,42.8C19.3,42.8,19.3,42.8,19.3,42.8c0.8,1,1.7,1.4,2.8,1.4c1.9,0,3.5-1.6,3.7-3.7c0.1-0.9,0.1-1.8,0-2.7
						c0-0.2,0-0.6-0.1-1c-0.1-1.8-0.3-4.9,0.2-5.4c0,0,0,0,0,0c0,0,0,0,0,0c0.2,0.4,0.2,0.6,0.2,1l0,0.1c0,0.8,0,1.7,0.1,2.5
						c0,2,0.1,4.1,0.4,6c0.4,2,2.1,2.9,3.7,2.9c1.6,0,3.4-1,3.7-3.4l0-0.4c0.2-3.1,0.1-6.3,0-9.5c0-1-0.1-2-0.1-3c0,0,0,0,0,0
						c0.4-0.7,1.3-1.4,2.3-1.4c0.4,0,0.8,0.1,1.1,0.4c1.7,1.5,3.2,2.2,4.5,2.2c0.9,0,1.8-0.4,2.5-1.1c0,0,0.1-0.1,0.2-0.2
						c0.2-0.3,0.4-0.5,0.6-0.5c0,0,0.1,0,0.1,0c0.1,0.1,0.1,0.2,0,0.5c-0.2,2.1-0.4,4.2,0.4,6.1c1.3,2.9,4.3,5.3,7.5,5.9
						c1,0.2,1.9,0.2,2.8,0.2c5.7,0,9.6-2.9,10.8-8.1c0,0,0,0,0.1,0l0.2,0c0,0,0,0,0,0c0.5,0.3,0.4,2.4,0.3,4.8c-0.1,2-0.1,4.1,0.1,5
						c0.6,1.5,1.9,2.5,3.4,2.5c1.1,0,2.1-0.5,2.8-1.4c0,0,0.1,0,0.1,0c1.4,0.9,3,1.3,4.9,1.3c1.6,0,3.1-0.3,4.3-0.6
						c3.1-0.7,4.9-3,6.3-5c2.2-3.3,1.5-9,0-12.9c-1.4-3.6-3.3-5.2-7.4-6.3c-0.7-0.2-1.4-0.3-2.1-0.3c-1.6,0-3.1,0.4-4.4,0.8
						c0,0,0,0-0.1,0c0,0,0,0,0,0l0-1.2c0-4,0.1-8.1,0.3-12.1c0-1.2-0.4-2.3-1.2-3.1c-0.8-0.8-1.8-1.2-2.9-1.2
						c-1.5,0-3.3,0.9-3.6,3.6c-0.3,3.4-0.3,6.9-0.3,10.3c0,1.9,0,3.8-0.1,5.7c0,0.1,0,0.2,0,0.3c0,2.4-0.2,3.5-0.6,3.5
						c0,0-0.1,0-0.1,0c0,0,0,0,0,0c-0.3-1.7-1-4.2-2.3-6.1c-0.8-1.2-2.1-1.9-3.5-1.9c-0.9,0-1.8,0.3-2.6,0.8
						c-2.5,1.8-1.6,3.9-0.7,6.1c0.5,1.2,1,2.4,1,3.6c-0.1,2.5-0.7,4.2-3.3,4.3h0c-1.2,0-2-0.3-2.4-1c-1.1-1.7,0.3-5,1.4-7.7
						c0.6-1.4,1.1-2.6,1.1-3.2c0-1.4-0.4-2.5-1.4-3.3c-0.7-0.6-1.5-0.8-2.3-0.8c-1.3,0-2.5,0.7-3.4,1.3c-0.1,0.2-0.2,0.4-0.3,0.7
						c-0.9,1.8-1.8,3.6-2.4,5.5l0,0c-0.1,0.2-0.1,0.4-0.2,0.4c-0.1,0-0.1-0.1-0.2-0.2c-0.7-3-5-5-7.8-5.3c-0.5-0.1-1.1-0.1-1.6-0.1
						c-1.9,0-3.6,0.4-4.9,1.1c0,0,0,0-0.1,0c-0.5-0.2-1-0.3-1.4-0.3c-1.6,0-3.2,1.2-3.9,3.1c0,0,0,0,0,0l-0.4,0.2c0,0,0,0-0.1,0
						c0,0,0,0,0,0c-0.2-2-0.7-3.9-2.9-4.7C22.1,18,21.7,18,21.4,18c-1.5,0-2.7,0.8-3.5,2.1c0,0,0,0-0.1,0c-0.4-0.1-0.8-0.2-1.2-0.3
						c-1.1-0.3-2.1-0.4-3.1-0.4c-1.6,0-3.2,0.4-5.2,1.2c-2.3,1-4.2,3.4-5.2,6.8C1.8,31.7,2.2,36.3,4,39l0.1,0.2
						c0.1,0.2,0.3,0.4,0.4,0.7c1.7,2.6,5.5,4.4,9.4,4.4C16,44.2,17.8,43.7,19.3,42.8C19.3,42.8,19.3,42.8,19.3,42.8z M110.9,44.2
						c-1.1,0-2-0.5-2.8-1.4c-1.4,0.9-2.9,1.3-4.7,1.3c-1.3,0-2.6-0.2-4-0.4c-4.1-0.6-6.5-4.4-7.3-5.9c-1.3-2.4-1-6.5-0.4-9.6
						c0.5-2.2,1.6-5,3-6.4c1.7-1.6,5-2.8,7.7-2.8c0.3,0,0.7,0,1,0.1c1,0.1,2.1,0.4,3.3,0.7c0.5-0.8,1.1-1.4,2-1.8
						c1.7-0.6,3.1-0.4,4,0.6c2.2,2.2,2,7.8,2,11.1c0,0.6,0,1.1,0,1.5l0,0.5c0,1.9,0.1,3.9,0.1,5.9c0.6-2,2.6-2.7,4.4-3.3l0,0
						c0,0,0,0,0,0l1.1,0.1c0,0,0,0,0,0c2.2,1.3,4.2,2.8,3.8,5.6c-0.5,2.6-2.8,3.8-4.9,3.8c-2.2,0-4-1.2-4.6-3
						C114.4,42.7,112.8,44.2,110.9,44.2z M108.1,42.7C108.1,42.7,108.2,42.7,108.1,42.7c0.8,0.9,1.7,1.4,2.8,1.4
						c1.9,0,3.5-1.5,3.7-3.5l0,0c0-0.2,0-0.2,0.1-0.2c0,0,0.1,0,0.1,0c0.6,1.9,2.4,3.2,4.6,3.2c2,0,4.3-1.1,4.8-3.7
						c0.3-2.7-1.6-4.2-3.8-5.5l-1.1-0.1l0,0c-2,0.7-4,1.4-4.4,3.6c0,0,0,0-0.1,0c0,0-0.1,0-0.1-0.1c-0.1-2.1-0.1-4.3-0.1-6.3l0-0.5
						c0-0.4,0-0.9,0-1.5c0.1-3.3,0.2-8.8-1.9-11c-0.6-0.6-1.3-0.9-2.1-0.9c-0.5,0-1.1,0.1-1.8,0.4c-0.9,0.4-1.5,1-2,1.8
						c0,0,0,0-0.1,0c-1.2-0.4-2.3-0.6-3.3-0.7c-0.3,0-0.6-0.1-1-0.1c-2.7,0-5.9,1.2-7.6,2.8c-1.4,1.4-2.5,4.2-3,6.3
						c-0.7,3-0.9,7.1,0.4,9.5c0.8,1.6,3.2,5.2,7.2,5.9c1.4,0.2,2.7,0.4,4,0.4C105.2,44,106.7,43.6,108.1,42.7
						C108.1,42.7,108.1,42.7,108.1,42.7z M144.7,43.8C144.7,43.8,144.7,43.8,144.7,43.8c-0.1,0-0.1,0-0.2,0c-4-0.5-3.8-4.6-3.7-7.8
						c0-0.5,0-1.1,0-1.5c0-2.7-0.1-5.4-0.1-8c0-0.9,0-1.8,0-2.8l-0.3,0c-0.7,0.1-1.4,0.1-2.1,0.1c-0.8,0-1.5-0.1-2.2-0.3
						c-1.7-0.7-2.6-2.2-2.3-4c0.6-3.2,3.7-3.5,6.4-3.7c0.2,0,0.4,0,0.5,0c0-0.3,0-0.5,0-0.8c-0.1-1.6-0.1-3.2-0.1-4.8
						c0-2.2,0.2-4.1,2.1-5.4c0.7-0.4,1.4-0.6,2.1-0.6c1.9,0,3.4,1.5,3.8,3.7c0.3,1.8,0.3,3.6,0.3,5.5c0,0.6,0,1.3,0,1.9
						c0.4,0,0.7,0,1,0c1.4,0,2.9,0.2,4,1.7c0.6,1,0.8,2.2,0.5,3.2c-0.4,1.2-1.3,2.1-2.5,2.6c-1,0.4-1.9,0.4-3,0.4c0,0.7,0,1.3,0,2
						c0,3.5-0.1,7.1,0,10.7c0,0.8,0.1,1.7,0,2.6C149,40.9,147.7,43.8,144.7,43.8z M140.7,23.6C140.8,23.6,140.8,23.6,140.7,23.6
						C140.8,23.6,140.8,23.6,140.7,23.6c0.1,1,0.1,1.9,0.1,2.9c0,2.6,0.1,5.3,0.1,8c0,0.5,0,1,0,1.5c-0.1,3.2-0.3,7.1,3.6,7.7
						c0.1,0,0.1,0,0.2,0c2.9,0,4.1-2.8,4.2-5.2c0-0.9,0-1.8,0-2.6c-0.1-3.6-0.1-7.2,0-10.7c0-0.7,0-1.3,0-2c0,0,0-0.1,0.1-0.1
						c1.1,0,2-0.1,3-0.4c1.2-0.5,2.1-1.4,2.4-2.6c0.3-1,0.2-2.2-0.5-3.1c-1.1-1.5-2.6-1.7-3.9-1.7c-0.3,0-0.6,0-1,0c0,0,0,0,0,0
						c0,0,0,0,0,0c0-0.6,0-1.3,0-1.9c0-1.8,0-3.7-0.3-5.4c-0.4-2.1-1.9-3.6-3.7-3.6c-0.7,0-1.4,0.2-2.1,0.6c-1.9,1.2-2,3.1-2.1,5.3
						c0,1.6,0,3.3,0.1,4.8c0,0.3,0,0.6,0,0.8c0,0,0,0.1-0.1,0.1c-0.2,0-0.4,0-0.6,0c-2.7,0.2-5.7,0.5-6.3,3.6
						c-0.2,1.7,0.6,3.1,2.3,3.8c0.6,0.2,1.3,0.3,2.1,0.3c0.7,0,1.4-0.1,2.1-0.1L140.7,23.6C140.7,23.6,140.7,23.6,140.7,23.6z
						 M131.1,40.8C131.1,40.8,131.1,40.8,131.1,40.8c-1.8,0-3.9-1.3-4.2-3.8c-0.1-1-0.2-2-0.3-3c0-0.5-0.1-1-0.1-1.5l-0.7-9
						c-0.4-1.1-0.4-2.4-0.1-3.4l-0.1-0.2c-0.4-0.5-0.8-1.1-1.2-1.6c-1.3-2-1.4-4.8-0.3-7c1-1.9,2.8-2.9,5-2.7c1,0.1,1.9,0.4,2.8,0.8
						c1.4,0.9,2.4,2.3,2.7,4c0.4,2-0.1,4.2-1.4,5.8c0.2,0.4,0.3,0.9,0.4,1.4c0.6,4.3,0.9,8.7,1.2,12.9l0,0.4c0,0.2,0,0.4,0,0.6
						c0.1,1.2,0.2,2.5-0.2,3.7C134,39.8,132.7,40.8,131.1,40.8z M128.5,8.6c-1.9,0-3.5,0.9-4.4,2.6c-1.1,2.1-1,4.9,0.3,6.8
						c0.4,0.6,0.8,1.1,1.2,1.6l0.2,0.2c0,0,0,0,0,0.1c-0.3,1-0.2,2.3,0.1,3.4c0,0,0,0,0,0l0.7,9c0,0.5,0.1,1,0.1,1.5
						c0.1,1,0.1,2,0.3,3c0.3,2.4,2.4,3.7,4.1,3.7c0,0,0,0,0,0c1.6,0,2.8-0.9,3.4-2.5c0.4-1.2,0.3-2.4,0.2-3.6c0-0.2,0-0.4,0-0.6
						l0-0.4c-0.3-4.2-0.7-8.6-1.2-12.9c-0.1-0.5-0.2-0.9-0.4-1.4c0,0,0,0,0-0.1c1.2-1.6,1.7-3.7,1.4-5.7c-0.3-1.7-1.3-3.1-2.6-4
						c-0.8-0.5-1.8-0.7-2.7-0.8C128.8,8.7,128.6,8.6,128.5,8.6z M14.1,36.3c-1.3,0-2.6-0.9-3.8-1.7c0,0,0,0,0,0
						c-0.2-1.9-0.4-4.8,1.2-6.4c0.6-0.6,1.4-0.8,2.5-0.8c0.6,0,1.1,0.1,1.7,0.1c0,0,0,0,0,0c2.1,1.7,2.5,4.8,1,7.2
						C16,35.7,15.1,36.3,14.1,36.3z M10.4,34.5c1.1,0.8,2.4,1.6,3.7,1.6c1,0,1.8-0.5,2.5-1.6c1.5-2.3,1.1-5.4-0.9-7
						c-0.6-0.1-1.1-0.1-1.7-0.1c-1.1,0-1.8,0.3-2.4,0.8C10,29.8,10.2,32.6,10.4,34.5z M79.2,36.2C79.2,36.2,79.2,36.2,79.2,36.2
						c-1,0-1.9-0.5-2.6-1.6c-1.6-2.4-1.2-5.5,0.9-7.3c0,0,0,0,0,0c0.6-0.1,1.2-0.1,1.7-0.1c1.1,0,1.9,0.3,2.5,0.8
						c1.6,1.6,1.4,4.4,1.2,6.4l0,0.1c0,0,0,0,0,0C81.8,35.4,80.5,36.2,79.2,36.2z M77.6,27.5c-2,1.7-2.4,4.8-0.9,7.1
						c0.7,1,1.5,1.5,2.5,1.5c1.2,0,2.6-0.8,3.7-1.7l0,0c0.2-2,0.4-4.7-1.2-6.3c-0.6-0.5-1.3-0.8-2.4-0.8
						C78.7,27.3,78.2,27.4,77.6,27.5z M103.1,36.1c-1.7,0-3.9-1-3.9-2.1l0-0.2c-0.1-2-0.3-4.4,1.2-5.9c0.6-0.6,1.4-0.8,2.4-0.8
						c0.6,0,1.2,0.1,1.7,0.1c0,0,0,0,0,0c2.2,1.9,2.5,5.1,0.8,7.5c-0.2,0.3-0.6,0.8-1.1,1.1C104,36,103.6,36.1,103.1,36.1z
						 M102.8,27.2c-1,0-1.8,0.3-2.4,0.8c-1.5,1.4-1.3,3.8-1.2,5.8l0,0.2c0.1,1.1,2.2,2,3.8,2c0.5,0,0.9-0.1,1.1-0.2
						c0.4-0.2,0.7-0.6,1.1-1.1c1.7-2.4,1.3-5.5-0.8-7.3C104,27.2,103.4,27.2,102.8,27.2z"/>
				</g>
			</g>
			<g>
				<g>
					<path class="st6" d="M143.2,22c0.1,5.5,0.3,11.1,0.1,16.6c0,1.1,0.2,2.8,1.6,2.8c2.3-0.1,1.8-4.5,1.8-5.8
						c-0.2-4.9,0-9.7,0-14.6c1.5-0.3,3.6,0.3,4.9-0.6c0.4-0.3,0.6-0.7,0.7-1.1c0.2-2.5-4.2-1.3-5.6-1.5c-0.3-3,0-6-0.4-9
						c-0.1-0.8-0.2-1.9-1.2-2.1c-2.3-0.3-2.1,2.7-2.1,4.2c0,2.4,0.1,4.8,0.2,7.3c-1.8,0.1-3.8,0.2-5.6,0.6c-1.6,0.4-2.2,2.5-0.1,2.8
						c1.8,0.2,3.7-0.4,5.5-0.3L143.2,22z"/>
				</g>
			</g>
			<g>
				<g>
					<path class="st7" d="M144.9,41.5C144.9,41.5,144.9,41.5,144.9,41.5c-1.1-0.1-1.7-1-1.7-2.9c0.1-4.2,0-8.5-0.1-12.6
						c0-1.3-0.1-2.7-0.1-4.1l0-0.7c-0.2,0-0.3,0-0.5,0c-0.7,0-1.4,0.1-2.1,0.2c-0.7,0.1-1.4,0.2-2.1,0.2c-0.3,0-0.5,0-0.8,0
						c-0.8-0.1-1.4-0.6-1.4-1.2c0-0.7,0.5-1.5,1.5-1.7c1.5-0.3,3.1-0.4,4.6-0.5c0.3,0,0.6,0,0.9-0.1c-0.1-2.3-0.2-4.8-0.2-7.2
						c0-0.1,0-0.2,0-0.3c0-1.1,0-2.7,0.7-3.5c0.3-0.3,0.8-0.5,1.4-0.4c1,0.2,1.1,1.4,1.2,2.1c0.2,1.6,0.2,3.1,0.2,4.7
						c0,1.4,0,2.8,0.2,4.3c0.3,0,0.8,0,1.3-0.1c0.5,0,1.1-0.1,1.7-0.1c1.1,0,1.8,0.2,2.2,0.6c0.2,0.3,0.4,0.6,0.3,1.1
						c-0.1,0.5-0.3,0.9-0.7,1.2c-0.7,0.5-1.6,0.6-2.5,0.6c-0.2,0-0.4,0-0.6,0c-0.2,0-0.4,0-0.6,0c-0.4,0-0.8,0-1.3,0.1
						c0,1.1,0,2.3,0,3.4c0,3.7-0.1,7.4,0,11.2c0,0.1,0,0.3,0,0.5C146.9,37.9,147.1,41.4,144.9,41.5
						C144.9,41.5,144.9,41.5,144.9,41.5z M142.6,21.2c0.2,0,0.4,0,0.6,0c0,0,0.1,0,0.1,0.1l0,0.7c0,1.4,0,2.7,0.1,4.1
						c0.1,4.1,0.2,8.4,0.1,12.6c0,1.8,0.5,2.7,1.6,2.8c2-0.1,1.8-3.6,1.8-5.3c0-0.2,0-0.3,0-0.5c-0.1-3.7-0.1-7.5,0-11.2
						c0-1.1,0-2.3,0-3.4c0,0,0-0.1,0-0.1c0.5-0.1,1-0.1,1.3-0.1c0.2,0,0.4,0,0.6,0c0.2,0,0.4,0,0.6,0c0.9,0,1.7-0.1,2.4-0.5
						c0.4-0.3,0.6-0.6,0.7-1.1c0-0.4-0.1-0.7-0.3-1c-0.4-0.4-1.1-0.6-2.1-0.6c-0.6,0-1.1,0-1.7,0.1c-0.6,0-1.1,0.1-1.4,0.1
						c0,0,0,0-0.1-0.1c-0.1-1.4-0.1-2.9-0.2-4.3c0-1.5,0-3.1-0.2-4.7c-0.1-0.7-0.2-1.8-1.1-2c-0.1,0-0.2,0-0.3,0
						c-0.4,0-0.8,0.1-1,0.4c-0.7,0.7-0.7,2.3-0.7,3.4c0,0.1,0,0.2,0,0.3c0,2.5,0.1,4.9,0.2,7.3c0,0,0,0.1-0.1,0.1
						c-0.3,0-0.7,0-1,0.1c-1.5,0.1-3.1,0.2-4.6,0.5c-0.9,0.2-1.4,0.9-1.4,1.6c0,0.6,0.5,1,1.3,1.1c0.2,0,0.5,0,0.8,0
						c0.7,0,1.4-0.1,2.1-0.2C141.2,21.3,141.9,21.2,142.6,21.2z"/>
				</g>
			</g>
			<g>
				<g>
					<path class="st6" d="M128.9,18.9c0.7,0,1.4-0.1,1.9-0.6c0.6-0.5,0.9-1.3,1.1-2.1c0.4-1.6,0-3.6-1.4-4.5c-0.5-0.3-1-0.4-1.6-0.5
						c0,0,0,0,0,0V14c0.1,0,0.3,0.1,0.3,0.2c0.3,0.5,0.3,1.1,0,1.6c-0.1,0.2-0.1,0.2-0.3,0.2h0V18.9z M127.3,18.5
						c0.2,0.1,0.5,0.2,0.7,0.3c0.3,0.1,0.6,0.1,0.9,0.1V16c0,0-0.1,0-0.1,0c-0.2-0.2-0.4-0.4-0.4-0.7c0-0.1,0-0.2,0-0.4
						c0-0.4-0.1-1,0.5-0.9c0,0,0.1,0,0.1,0v-2.8c-1.3-0.1-2.6,0.5-3.1,1.8c-0.2,0.6-0.3,1.3-0.3,2v0.2v0
						C125.6,16.5,126.6,17.5,127.3,18.5"/>
				</g>
			</g>
			<g>
				<g>
					<path class="st5" d="M129,18.9L129,18.9c-0.3,0-0.7,0-1-0.1c-0.3-0.1-0.5-0.2-0.7-0.3c0,0,0,0,0,0c-0.1-0.1-0.1-0.2-0.2-0.2
						c-0.7-0.9-1.5-1.9-1.6-3.1c0-0.9,0.1-1.6,0.3-2.2c0.4-1.2,1.5-1.9,2.8-1.9c0.1,0,0.3,0,0.4,0c0.6,0.1,1.1,0.2,1.6,0.5
						c1.5,0.9,1.9,3,1.5,4.6c-0.3,0.9-0.7,1.6-1.2,2.1C130.3,18.8,129.6,18.9,129,18.9z M127.4,18.4c0.2,0.1,0.5,0.2,0.7,0.2
						c0.3,0.1,0.6,0.1,1,0.1c0.7,0,1.3-0.2,1.8-0.6c0.5-0.5,0.9-1.2,1.1-2.1c0.4-1.5,0.1-3.5-1.4-4.5c-0.4-0.2-1-0.4-1.5-0.5
						c-0.1,0-0.3,0-0.4,0c-1.3,0-2.3,0.7-2.7,1.8c-0.2,0.6-0.3,1.3-0.3,2.2c0,1.2,0.8,2.1,1.5,3C127.2,18.3,127.3,18.4,127.4,18.4z
						 M129,16c-0.1,0-0.1,0-0.2,0c0,0,0,0,0,0l0,0c-0.2-0.2-0.4-0.4-0.4-0.7c0-0.1,0-0.2,0-0.4l0,0c0,0,0-0.1,0-0.1
						c0-0.3,0-0.6,0.2-0.7c0.1-0.1,0.2-0.1,0.4-0.1c0.2,0,0.4,0.1,0.5,0.2c0.3,0.4,0.3,1,0,1.6C129.3,16,129.2,16,129,16
						C129,16,129,16,129,16z M128.8,15.9c0,0,0.1,0,0.1,0c0.2,0,0.2,0,0.3-0.2c0.3-0.5,0.3-1.1,0-1.5c-0.1-0.1-0.2-0.1-0.4-0.2
						c-0.1,0-0.2,0-0.3,0.1c-0.1,0.1-0.1,0.4-0.1,0.7c0,0.1,0,0.1,0,0.1l0,0c0,0.1,0,0.2,0,0.3C128.5,15.5,128.7,15.7,128.8,15.9
						L128.8,15.9z"/>
				</g>
			</g>
			<g>
				<g>
					<path class="st6" d="M128.5,27.2c0.3,3.1,0.5,6.1,0.8,9.2c0.1,1,0.7,1.9,1.8,1.9c1.3-0.1,1.4-1.5,1.3-2.6c-0.2-4-0.7-8-1.1-12
						c-0.1-1-0.2-1.9-0.3-2.8c-0.2-1.1-0.8-1.9-2.1-1.5c-1.4,0.5-1.3,2.4-0.9,3.5L128.5,27.2z"/>
				</g>
			</g>
			<g>
				<g>
					<path class="st5" d="M131,38.4c-1.2,0-1.8-1.1-1.8-2c-0.2-2-0.3-4.1-0.5-6.1c-0.1-1-0.2-2.1-0.3-3.1l-0.4-4.3
						c-0.4-1-0.7-3,0.9-3.6c0.2-0.1,0.4-0.1,0.6-0.1c0.8,0,1.4,0.6,1.5,1.7c0.1,0.8,0.2,1.6,0.3,2.4l0,0.4c0.1,0.7,0.1,1.4,0.2,2.1
						c0.3,3.3,0.7,6.6,0.9,9.9C132.5,37,132.4,38.3,131,38.4C131.1,38.4,131,38.4,131,38.4z M129.6,19.4c-0.2,0-0.4,0-0.6,0.1
						c-1.4,0.5-1.2,2.3-0.8,3.4c0,0,0,0,0,0l0.4,4.3c0.1,1,0.2,2.1,0.3,3.1c0.2,2,0.3,4.1,0.5,6.1c0.1,0.9,0.6,1.9,1.8,1.9
						c1.2-0.1,1.3-1.3,1.3-2.5c-0.2-3.3-0.5-6.7-0.9-9.9c-0.1-0.7-0.1-1.4-0.2-2.1l0-0.4c-0.1-0.8-0.2-1.6-0.3-2.4
						C130.8,19.9,130.3,19.4,129.6,19.4z"/>
				</g>
			</g>
			<g>
				<g>
					<path class="st6" d="M116.9,39c0,0.3,0,0.5,0,0.8c0.1,1,1.1,1.4,2,1.6c0.8,0.1,1.5,0,2.1-0.5c0.5-0.4,0.8-0.8,0.8-1.4
						c0-0.5-0.2-1-0.6-1.4c-0.4-0.4-1-0.8-1.6-0.9c0,0-0.1,0-0.1,0l-0.1-0.4c-1,0.4-2.2,0.7-2.5,1.8C117,38.7,117,38.9,116.9,39"/>
				</g>
			</g>
			<g>
				<g>
					<path class="st5" d="M119.4,41.6L119.4,41.6c-0.2,0-0.4,0-0.5-0.1c-0.6-0.1-1.9-0.5-2-1.7c0-0.3,0-0.5,0-0.8
						c0-0.1,0-0.3,0.1-0.4c0.3-1,1.3-1.4,2.2-1.7c0.1,0,0.2-0.1,0.3-0.1c0,0,0,0,0.1,0c0,0,0,0,0,0l0.1,0.4c0,0,0,0,0,0l0,0
						c0.6,0.1,1.2,0.4,1.6,0.9c0.4,0.4,0.6,0.9,0.6,1.5c0,0.6-0.3,1.1-0.8,1.5C120.5,41.4,120,41.6,119.4,41.6z M119.5,36.9
						c-0.1,0-0.2,0.1-0.3,0.1c-0.9,0.3-1.9,0.7-2.1,1.6c0,0.1-0.1,0.3-0.1,0.4c0,0.3,0,0.5,0,0.8c0.1,1.1,1.4,1.5,1.9,1.6
						c0.7,0.1,1.4,0,2.1-0.5c0.5-0.4,0.8-0.8,0.8-1.4c0-0.5-0.2-1-0.6-1.4c-0.4-0.4-1-0.8-1.5-0.9l0,0c0,0-0.1,0-0.1,0
						c0,0,0,0-0.1,0L119.5,36.9z"/>
				</g>
			</g>
			<g>
				<g>
					<path class="st6" d="M112,24.2c-0.1-1.4-0.1-4.6-2.3-3.9c-1.3,0.5-1.2,2-1.1,3.1c-1.1-0.8-2.5-1.2-3.7-1.5
						c-0.8-0.2-1.4-0.3-2.1-0.3V25c0.6,0,1.2,0,1.9,0.1c0.6,0.1,1,0.2,1.5,0.6c2.1,1.9,3.1,5,2.5,7.7c-0.6,2.5-2.9,5.6-5.8,5.3v3.2
						c0.4,0,0.8,0,1.2,0c2.4-0.1,3.9-1.8,5.4-3.4c0,1.1-0.1,2.9,1.2,3.4c2.1,0.6,1.8-2.6,1.8-3.8C112.2,33.5,112.2,28.8,112,24.2
						 M102.7,21.6c-1-0.1-2,0.1-3.2,0.5c-0.8,0.3-1.5,0.5-2.2,0.9c-1.8,1-2.3,3-3,4.9c-0.2,0.7-0.4,1.3-0.5,2
						c-0.1,1.1-0.3,2.2-0.3,3.4v0.4c0,1.3,0.2,2.6,1,3.6c0.2,0.3,0.4,0.6,0.6,0.9c1.2,1.7,2.9,3,5,3.3c0.9,0.1,1.8,0.3,2.6,0.4v-3.2
						c0,0-0.1,0-0.1,0c-1.4-0.2-3-0.8-4.1-1.7c-0.8-0.6-1.4-0.8-1.6-1.8c-0.2-1.8-0.3-3.7,0.1-5.5c0.4-1.6,1.1-2.8,2.4-3.9
						c0.4-0.2,0.8-0.4,1.2-0.6c0.3-0.2,0.6-0.2,0.9-0.2c0.4,0,0.8,0,1.2,0V21.6z"/>
				</g>
			</g>
			<g>
				<g>
					<path class="st5" d="M111,42L111,42c-0.2,0-0.3,0-0.5-0.1c-1.2-0.5-1.2-2-1.2-3.1c0-0.1,0-0.1,0-0.2c-1.5,1.6-3,3.2-5.3,3.3
						c-1.1,0-2.3-0.1-3.4-0.3c-0.2,0-0.4-0.1-0.5-0.1c-2-0.3-3.8-1.5-5-3.3c-0.2-0.3-0.4-0.6-0.6-0.9c-1.3-1.9-1-4.5-0.7-6.8
						c0-0.2,0-0.4,0.1-0.6c0.1-0.8,0.2-1.4,0.5-2c0.1-0.2,0.1-0.4,0.2-0.6c0.6-1.7,1.2-3.4,2.8-4.4c0.6-0.4,1.4-0.6,2-0.9l0.2-0.1
						c0.9-0.3,1.8-0.5,2.7-0.5c0.8,0,1.5,0.1,2.6,0.4c1.3,0.3,2.6,0.7,3.6,1.4c-0.1-0.9-0.2-2.5,1.2-3c0.2-0.1,0.4-0.1,0.6-0.1
						c1.6,0,1.8,2.5,1.8,3.8c0,0.1,0,0.2,0,0.2c0.1,2.7,0.2,5.5,0.2,8.2c0,1.9,0,3.8,0.1,5.7c0,0.1,0,0.2,0,0.2
						c0,0.9,0.1,2.6-0.6,3.3C111.6,41.9,111.3,42,111,42z M109.4,38.4C109.4,38.4,109.4,38.4,109.4,38.4
						C109.4,38.4,109.4,38.5,109.4,38.4c0.1,0.2,0.1,0.3,0.1,0.4c0,1.1,0,2.5,1.1,3c0.2,0.1,0.3,0.1,0.5,0.1h0
						c0.3,0,0.5-0.1,0.7-0.3c0.6-0.7,0.6-2.3,0.5-3.3c0-0.1,0-0.2,0-0.2c-0.1-1.9-0.1-3.9-0.1-5.7c0-2.7-0.1-5.5-0.2-8.2
						c0-0.1,0-0.1,0-0.2c-0.1-1.3-0.2-3.7-1.7-3.7c-0.2,0-0.3,0-0.5,0.1c-1.2,0.5-1.2,1.8-1.1,3c0,0,0,0,0,0.1c0,0,0,0-0.1,0
						c-1-0.8-2.3-1.1-3.7-1.4c-1.1-0.3-1.8-0.4-2.6-0.4c-0.9,0-1.7,0.2-2.6,0.5l-0.2,0.1c-0.7,0.2-1.4,0.5-2,0.9
						c-1.6,0.9-2.2,2.6-2.8,4.3c-0.1,0.2-0.1,0.4-0.2,0.6c-0.2,0.6-0.4,1.3-0.4,2c0,0.2,0,0.4-0.1,0.6c-0.3,2.3-0.6,4.9,0.7,6.8
						c0.2,0.3,0.4,0.6,0.6,0.9c1.2,1.8,3,3,4.9,3.3c0.2,0,0.4,0.1,0.5,0.1c1.1,0.2,2.2,0.4,3.3,0.3c2.3-0.1,3.8-1.8,5.3-3.3
						L109.4,38.4C109.3,38.4,109.3,38.4,109.4,38.4z M103.1,38.7c-0.2,0-0.4,0-0.6,0c-1.6-0.3-3.1-0.9-4.2-1.7
						c-0.2-0.1-0.3-0.2-0.5-0.3c-0.6-0.4-1-0.7-1.1-1.5c-0.2-1.4-0.3-3.5,0.1-5.5c0.4-1.6,1.1-2.8,2.5-3.9c0,0,0,0,0,0
						c0.4-0.2,0.8-0.4,1.2-0.6c0.3-0.2,0.6-0.2,0.9-0.2c0.2,0,0.4,0,0.5,0c0.2,0,0.4,0,0.5,0c0.6,0,1.3,0,2,0.1
						c0.7,0.1,1.1,0.3,1.5,0.6c2.2,1.9,3.2,5,2.5,7.8C108,36,105.7,38.7,103.1,38.7z M99.4,25.9c-1.3,1-2.1,2.2-2.4,3.8
						c-0.4,1.9-0.3,4-0.1,5.5c0.1,0.8,0.5,1.1,1.1,1.4c0.2,0.1,0.3,0.2,0.5,0.3c1.1,0.8,2.5,1.4,4.1,1.7c0.2,0,0.4,0,0.6,0
						c2.5,0,4.7-2.7,5.4-5.2c0.6-2.7-0.3-5.8-2.5-7.7c-0.4-0.3-0.8-0.5-1.5-0.6c-0.7-0.1-1.4-0.1-2-0.1c-0.2,0-0.4,0-0.5,0
						c-0.2,0-0.4,0-0.5,0c-0.4,0-0.6,0-0.9,0.2C100.2,25.5,99.8,25.7,99.4,25.9z"/>
				</g>
			</g>
			<g>
				<g>
					<path class="st6" d="M79.2,21.7c1.8-0.1,3.6,0.5,5.3,1.3c1.5,0.8,2,1.9,2.6,3.4c0.5,1.2,0.9,2.3,1.1,3.5
						c0.1,1.1,0.3,2.2,0.3,3.4v0.4c0,1.3-0.2,2.6-1,3.6c-0.2,0.4-0.5,0.7-0.7,1.1c-1.2,1.8-3.1,2.8-5.2,3.2
						c-0.8,0.1-1.5,0.2-2.3,0.3v-3.2c0.3,0,0.6-0.1,0.8-0.1c1-0.3,2-0.5,2.8-1.1c1.3-0.8,2.1-1.2,2.3-2.7c0.2-2,0.2-4.1-0.4-6
						c-0.4-1.2-1.2-2.1-2.2-2.8c-0.5-0.2-1-0.6-1.5-0.7c-0.1,0-0.3-0.1-0.4-0.1c-0.5,0-1-0.1-1.4-0.1V21.7z M69.7,35.1
						c0.1-3.5,0.1-6.9,0.2-10.4c0.3-6,0-12.1,0.4-18.1c0.1-0.9,0.1-1.9,1.3-1.9c2.3,0.1,1.7,2.6,1.6,4.1c-0.2,5-0.3,10-0.2,14.9
						c1.4-1.3,3.8-1.8,5.6-2.1c0.2,0,0.4-0.1,0.6-0.1V25c-1.4,0-2.8,0.1-3.8,1.2c-1,1-1.6,2.4-2,3.7c-1.1,3.7,1.6,9.2,5.8,8.8v3.2
						c-0.3,0-0.7,0-1,0c-2.5,0-4.1-1.7-5.7-3.4c0,1.1,0.1,2.9-1.2,3.4c-2.1,0.6-1.8-2.6-1.8-3.7C69.6,37.2,69.6,36.2,69.7,35.1"/>
				</g>
			</g>
			<g>
				<g>
					<path class="st5" d="M70.8,42.1c-0.3,0-0.6-0.1-0.8-0.3c-0.7-0.7-0.6-2.4-0.6-3.3c0-0.1,0-0.2,0-0.3c0-1,0.1-2,0.1-3.1
						c0-1,0-1.9,0-2.9c0-2.5,0.1-5,0.2-7.6c0.1-2.7,0.1-5.4,0.2-8.1c0-3.3,0-6.7,0.3-10l0,0c0.1-0.9,0.2-1.9,1.3-1.9
						c0.6,0,1,0.2,1.3,0.5c0.6,0.7,0.5,1.8,0.4,2.9c0,0.3,0,0.5-0.1,0.7c-0.2,5-0.3,9.9-0.2,14.8c1.4-1.2,3.5-1.7,5.6-2
						c1.8-0.3,3.7,0.1,5.9,1.3c1.6,0.8,2,2,2.6,3.5l0,0.1c0.5,1.1,0.9,2.2,1,3.5c0,0.2,0,0.4,0.1,0.6c0.3,2.3,0.6,4.9-0.7,6.8
						l-0.3,0.5c-0.1,0.2-0.3,0.4-0.4,0.6c-1.2,1.7-3,2.8-5.3,3.2c-0.1,0-0.3,0-0.4,0.1c-0.9,0.1-1.9,0.3-2.8,0.3l-0.1,0
						c-2.5,0-4.1-1.7-5.7-3.3c0,0.1,0,0.1,0,0.2c0,1.1,0,2.6-1.2,3.1C71.2,42.1,71,42.1,70.8,42.1z M71.6,4.8
						c-1.1,0-1.2,0.9-1.2,1.8l0,0c-0.2,3.3-0.3,6.7-0.3,10c0,2.7,0,5.4-0.2,8.1c-0.1,2.5-0.1,5.1-0.2,7.6c0,1,0,1.9,0,2.9
						c0,1,0,2-0.1,3.1c0,0.1,0,0.2,0,0.3c0,0.9-0.1,2.6,0.5,3.2c0.3,0.3,0.7,0.4,1.2,0.2c1.1-0.5,1.1-1.9,1.1-3c0-0.1,0-0.2,0-0.4
						c0,0,0,0,0-0.1c0,0,0,0,0.1,0c1.5,1.7,3.1,3.4,5.7,3.4l0.1,0c0.9,0,1.9-0.1,2.8-0.3c0.1,0,0.3,0,0.4-0.1c2.2-0.3,4-1.4,5.2-3.1
						c0.1-0.2,0.3-0.4,0.4-0.6l0.3-0.5c1.3-1.9,1-4.5,0.7-6.8c0-0.2,0-0.4-0.1-0.6c-0.1-1.2-0.6-2.3-1-3.4l0-0.1
						c-0.6-1.5-1-2.6-2.6-3.4c-2.2-1.1-4.1-1.5-5.8-1.3c-2.1,0.3-4.2,0.8-5.6,2c0,0,0,0-0.1,0c0,0,0,0,0-0.1
						c-0.1-5,0.1-9.9,0.2-14.9c0-0.2,0-0.5,0.1-0.7c0.1-1,0.2-2.2-0.4-2.8C72.6,5,72.2,4.8,71.6,4.8z M78.9,38.8
						C78.9,38.8,78.9,38.8,78.9,38.8c-1.6,0-3-0.8-4.1-2.2c-1.4-1.9-2-4.6-1.4-6.7c0.5-1.6,1.2-2.8,2-3.7c1.1-1,2.4-1.2,3.6-1.2
						c0.5,0,1,0,1.5,0.1l0.2,0c0.1,0,0.3,0,0.4,0.1c0.3,0.1,0.6,0.3,0.9,0.4c0.2,0.1,0.4,0.2,0.6,0.3c0,0,0,0,0,0
						c1.1,0.9,1.8,1.8,2.2,2.9c0.7,2,0.6,4.2,0.4,6c-0.1,1.5-1,2-2.1,2.7l-0.2,0.1c-0.9,0.5-1.9,0.8-2.9,1.1
						C79.7,38.7,79.3,38.8,78.9,38.8z M79,25.1c-1.2,0-2.5,0.1-3.5,1.1c-0.9,0.8-1.5,2.1-2,3.6c-0.6,2.1,0,4.7,1.4,6.6
						c1.1,1.4,2.5,2.2,4,2.2c0,0,0,0,0,0c0.4,0,0.8-0.1,1.2-0.2c0.9-0.2,1.9-0.5,2.8-1.1l0.2-0.1c1.2-0.7,1.9-1.2,2-2.6
						c0.1-1.9,0.2-4-0.4-6c-0.4-1-1.1-1.9-2.1-2.8c-0.2-0.1-0.4-0.2-0.6-0.3c-0.3-0.2-0.6-0.3-0.9-0.4c-0.1,0-0.3-0.1-0.4-0.1
						l-0.2,0C79.9,25.1,79.4,25.1,79,25.1z"/>
				</g>
			</g>
			<g>
				<g>
					<path class="st6" d="M50.1,20.2c-0.8,1.7-1.7,3.5-2.1,5.3c-0.3,1.7-0.6,3.5-0.6,5.3c0,2.5,1.5,4.4,3.6,5.6
						c1.1,0.6,2.2,1.1,3.4,1.1c1.2,0,2.4,0,3.6,0c1.6-0.1,3-0.9,4.3-1.9c0.6-0.5,1.1-1.1,1.5-1.8c1.3-2.9,1.5-6.2,0.6-9.3
						c-0.4-1.3-0.9-2.8-1.7-4c-0.6-0.8-1.5-0.9-2.4-0.5c-1.8,0.8-0.6,2.6-0.1,3.9c0.5,1.1,0.9,2,1,3.2c0.1,1.2,0,2.5-0.3,3.7
						c-0.5,1.9-1.8,3.3-3.8,3.7c-1.8,0.4-3.6,0.2-5.1-1c-1.4-1.1-1.6-2.6-1.5-4.4c0-2.1,0.9-4.2,1.7-6.1c0.5-1.1,1.5-2.2,1-3.5
						c-0.5-1.2-1.6-1.1-2.6-0.5l-0.2,0.2C50.4,19.6,50.3,19.9,50.1,20.2"/>
				</g>
			</g>
			<g>
				<g>
					<path class="st5" d="M56.4,37.7C56.4,37.7,56.4,37.7,56.4,37.7c-0.3,0-0.6,0-0.9,0c-0.3,0-0.6,0-0.9,0c-1.3,0-2.5-0.6-3.5-1.1
						c-2.3-1.3-3.6-3.4-3.6-5.7c0-1.6,0.2-3.3,0.6-5.3c0.4-1.8,1.2-3.5,2-5.1l0.1-0.2c0.1-0.3,0.3-0.6,0.4-0.9c0,0,0,0,0,0l0.2-0.2
						c0.4-0.3,0.9-0.4,1.3-0.4c0.6,0,1.1,0.4,1.4,1c0.4,1-0.1,1.9-0.6,2.7c-0.2,0.3-0.3,0.6-0.5,0.9c-0.8,1.8-1.6,4-1.7,6.1
						c0,1.6,0.1,3.2,1.5,4.3c0.9,0.7,2.1,1.1,3.5,1.1c0.5,0,1-0.1,1.6-0.2c1.9-0.4,3.3-1.7,3.8-3.7c0.3-1.2,0.4-2.5,0.3-3.7
						c-0.1-1.2-0.5-2.1-1-3.1l0-0.1c-0.1-0.1-0.1-0.3-0.2-0.4c-0.4-0.9-0.9-1.8-0.6-2.6c0.1-0.4,0.4-0.7,0.9-0.9
						c0.4-0.2,0.7-0.2,1-0.2c0.6,0,1.1,0.3,1.4,0.7c0.8,1.1,1.3,2.5,1.7,4c0.9,3.1,0.7,6.5-0.6,9.3c-0.3,0.7-0.8,1.3-1.5,1.8
						c-1.5,1.2-2.9,1.8-4.3,1.9C57.7,37.6,57.1,37.7,56.4,37.7z M50.6,19.4c-0.1,0.3-0.3,0.6-0.4,0.9l-0.1,0.2
						c-0.8,1.6-1.6,3.3-2,5.1c-0.4,2-0.6,3.7-0.6,5.3c0,2.3,1.3,4.2,3.5,5.6c1,0.6,2.1,1.1,3.4,1.1c0.3,0,0.6,0,0.9,0
						c0.3,0,0.6,0,0.9,0h0c0.7,0,1.2,0,1.7,0c1.4-0.1,2.8-0.7,4.2-1.9c0.7-0.5,1.1-1.1,1.4-1.8c1.3-2.8,1.5-6.1,0.6-9.2
						c-0.4-1.5-0.9-2.9-1.7-3.9c-0.3-0.5-0.8-0.7-1.3-0.7c-0.3,0-0.6,0.1-1,0.2c-0.4,0.2-0.7,0.5-0.8,0.9c-0.3,0.8,0.2,1.7,0.6,2.5
						c0.1,0.1,0.1,0.3,0.2,0.4l0,0.1c0.5,1,0.9,1.9,1,3.1c0.1,1.3,0,2.6-0.3,3.7c-0.5,2-1.9,3.3-3.8,3.8c-0.5,0.1-1.1,0.2-1.6,0.2
						c-1.4,0-2.6-0.4-3.6-1.2c-1.5-1.2-1.6-2.8-1.6-4.4c0.1-2.1,0.9-4.3,1.7-6.1c0.1-0.3,0.3-0.6,0.5-0.9c0.5-0.8,0.9-1.6,0.6-2.6
						c-0.3-0.8-0.9-0.9-1.3-0.9c-0.4,0-0.8,0.1-1.2,0.4L50.6,19.4z"/>
				</g>
			</g>
			<g>
				<g>
					<path class="st6" d="M31.8,39.9c0.1-1.7,0-3.4,0-5c0-2.5,0.1-5.1-0.1-7.7c0-0.1,0.2-0.5,0.3-0.6c1.1-1.8,3.2-3,5.4-2.5
						c0.1,0,0.2,0,0.2,0.1c1.5,0.5,3.7,3.8,5.3,2c0.7-0.8,0.5-1.9-0.3-2.6c-1-0.7-1.9-1.6-3-2c-0.5-0.2-0.9-0.3-1.4-0.3
						c-2.4-0.4-5.1-0.2-6.9,1.7c-0.2-0.4-0.5-0.7-0.8-0.8c-1-0.4-1.7,0.3-2.3,1c0.2,5.1,0.4,10.3,0.6,15.4c0,1.1-0.1,4.1,1.8,3.6
						C31.7,41.9,31.8,40.9,31.8,39.9"/>
				</g>
			</g>
			<g>
				<g>
					<path class="st5" d="M30.3,42.3C30.3,42.3,30.3,42.3,30.3,42.3c-1.5,0-1.5-2.1-1.5-3.3c0-0.2,0-0.3,0-0.4
						c-0.2-4-0.3-8-0.5-11.9l-0.1-3.6c0,0,0,0,0,0c0.5-0.6,1-1.2,1.7-1.2c0.2,0,0.4,0,0.6,0.1c0.4,0.2,0.7,0.5,0.8,0.8
						c1.1-1.2,2.8-1.8,4.9-1.8c0.6,0,1.3,0.1,2,0.2c0.6,0.1,1,0.2,1.4,0.3c0.9,0.3,1.6,0.9,2.3,1.4c0.3,0.2,0.5,0.4,0.8,0.6
						c0.5,0.4,0.7,0.8,0.8,1.3c0.1,0.5-0.1,0.9-0.4,1.3c-0.3,0.4-0.7,0.5-1.1,0.5c-0.8,0-1.7-0.7-2.6-1.4c-0.6-0.5-1.2-1-1.7-1.1
						c-0.1,0-0.2,0-0.2-0.1c-0.3-0.1-0.6-0.1-1-0.1c-1.7,0-3.3,1-4.4,2.6c0,0,0,0.1-0.1,0.1c-0.1,0.1-0.2,0.4-0.2,0.5
						c0.1,1.7,0.1,3.4,0.1,5c0,0.9,0,1.8,0,2.7c0,0.5,0,1,0,1.5c0,1.2,0.1,2.4,0,3.6l0,0c-0.1,0.9-0.1,1.9-1.2,2.3
						C30.6,42.3,30.5,42.3,30.3,42.3z M28.3,23.1l0.1,3.5c0.2,3.9,0.3,7.9,0.5,11.9c0,0.1,0,0.3,0,0.4c0,1.2,0.1,3.2,1.4,3.2
						c0,0,0,0,0,0c0.1,0,0.2,0,0.4,0c1-0.3,1-1.3,1.1-2.2l0,0c0.1-1.2,0-2.4,0-3.6c0-0.5,0-1,0-1.5c0-0.9,0-1.8,0-2.7
						c0-1.7,0-3.4-0.1-5c0-0.1,0.1-0.3,0.3-0.5c0,0,0.1-0.1,0.1-0.1c1-1.6,2.7-2.6,4.5-2.6c0.3,0,0.7,0,1,0.1c0.1,0,0.2,0,0.2,0.1
						c0.5,0.2,1.1,0.6,1.7,1.1c0.8,0.7,1.7,1.4,2.5,1.4c0.4,0,0.7-0.2,1-0.5c0.3-0.4,0.4-0.8,0.4-1.2c-0.1-0.5-0.3-0.9-0.7-1.3
						c-0.3-0.2-0.5-0.4-0.8-0.6c-0.7-0.5-1.4-1.1-2.2-1.4c-0.4-0.1-0.8-0.2-1.4-0.3c-0.7-0.1-1.3-0.2-1.9-0.2
						c-2.1,0-3.7,0.6-4.9,1.8c0,0,0,0-0.1,0c0,0,0,0,0,0c-0.1-0.3-0.4-0.6-0.8-0.8c-0.2-0.1-0.4-0.1-0.6-0.1
						C29.2,22,28.7,22.6,28.3,23.1z"/>
				</g>
			</g>
			<g>
				<g>
					<path class="st6" d="M23.2,24.1c-0.1-1.4-0.2-4.4-2.3-3.8c-1.3,0.5-1.2,2-1.1,3.1c-1.4-1-3.5-1.5-5.2-1.7
						c-0.2,0-0.5-0.1-0.7-0.1V25c0.6,0,1.2,0,1.9,0.1c0.6,0.1,1,0.2,1.5,0.6c2.1,1.9,3.2,5.1,2.5,7.8c-0.7,2.5-3,5.4-5.8,5.1v3.2
						c0.4,0,0.8,0,1.2,0c2.4-0.1,3.9-1.8,5.4-3.4c0,1.1-0.1,2.9,1.2,3.4c2.1,0.7,1.8-2.7,1.8-3.8C23.4,33.4,23.5,28.7,23.2,24.1
						 M13.9,21.6c-1.1-0.1-2.1,0.1-3.2,0.5c-0.7,0.3-1.5,0.5-2.2,0.9c-1.8,1-2.4,3-3,4.9c-0.6,1.6-0.6,3.5-0.7,5.2
						c0,0.2,0,0.4,0,0.6v0.4c0,1,0.1,2,0.6,2.8c0.3,0.5,0.6,0.9,0.9,1.4c1.1,1.7,2.9,2.9,4.9,3.2c0.9,0.1,1.8,0.3,2.7,0.4v-3.2
						c-0.2,0-0.4-0.1-0.6-0.1c-1.2-0.3-2.5-0.6-3.4-1.4c-0.8-0.6-1.7-1-1.9-2c-0.2-1.7-0.2-3.6,0.1-5.2c0.3-1.7,1.1-3,2.5-4.1
						c0.4-0.2,0.8-0.4,1.2-0.6c0.3-0.2,0.6-0.2,0.9-0.2c0.4,0,0.8,0,1.2,0V21.6z"/>
				</g>
			</g>
			<g>
				<g>
					<path class="st5" d="M22.3,42C22.3,42,22.3,42,22.3,42c-0.2,0-0.3,0-0.5-0.1c-1.2-0.5-1.2-2-1.2-3.1c0-0.1,0-0.1,0-0.2
						c-1.5,1.6-3,3.2-5.4,3.3c-0.1,0-0.3,0-0.4,0c-1,0-2-0.2-3-0.3c-0.2,0-0.4-0.1-0.6-0.1c-1.9-0.3-3.7-1.5-4.9-3.3
						C6.2,38.1,6.1,38,6,37.8c-0.2-0.3-0.4-0.6-0.6-0.9c-0.7-1.1-0.7-2.4-0.6-3.8c0.1-1.7,0.1-3.6,0.7-5.2c0.1-0.2,0.1-0.4,0.2-0.5
						c0.6-1.7,1.2-3.4,2.9-4.4c0.6-0.4,1.3-0.6,2-0.9l0.2-0.1c1.1-0.4,1.9-0.5,2.8-0.5c0.4,0,0.8,0,1.2,0.1c1.7,0.3,3.7,0.7,5.1,1.7
						c-0.1-0.9-0.2-2.5,1.2-3c0.2-0.1,0.4-0.1,0.6-0.1c1.6,0,1.8,2.4,1.8,3.7l0,0.2c0.2,2.7,0.2,5.5,0.2,8.2c0,1.9,0,3.8,0.1,5.7
						c0,0.1,0,0.2,0,0.3c0,0.9,0.1,2.7-0.6,3.4C22.8,41.9,22.6,42,22.3,42z M20.6,38.4C20.6,38.4,20.6,38.4,20.6,38.4
						C20.6,38.4,20.6,38.4,20.6,38.4c0.1,0.2,0.1,0.3,0.1,0.4c0,1.1,0,2.5,1.1,3c0.2,0.1,0.3,0.1,0.5,0.1c0,0,0,0,0,0
						c0.3,0,0.5-0.1,0.7-0.3c0.6-0.7,0.6-2.4,0.5-3.3c0-0.1,0-0.2,0-0.3c-0.1-1.9-0.1-3.8-0.1-5.7c0-2.7-0.1-5.5-0.2-8.2l0-0.2
						c-0.1-1.3-0.2-3.6-1.7-3.6c-0.2,0-0.3,0-0.5,0.1c-1.2,0.4-1.2,1.7-1.1,3c0,0,0,0,0,0.1c0,0,0,0-0.1,0c-1.4-1-3.4-1.4-5.2-1.7
						c-0.4-0.1-0.8-0.1-1.2-0.1c-0.9,0-1.7,0.2-2.7,0.5l-0.2,0.1c-0.7,0.2-1.4,0.5-2,0.8c-1.6,0.9-2.2,2.6-2.8,4.3
						c-0.1,0.2-0.1,0.4-0.2,0.5c-0.6,1.6-0.6,3.5-0.7,5.2c0,1.4,0,2.7,0.6,3.7c0.2,0.3,0.4,0.6,0.6,0.9c0.1,0.1,0.2,0.3,0.3,0.4
						c1.2,1.7,2.9,2.9,4.8,3.2c0.2,0,0.4,0.1,0.6,0.1c1,0.2,2,0.3,3,0.3c0.1,0,0.3,0,0.4,0c2.3-0.1,3.8-1.7,5.3-3.3L20.6,38.4
						C20.5,38.4,20.6,38.4,20.6,38.4z M14.3,38.7c-0.3,0-0.7,0-1-0.1c-1.2-0.3-2.5-0.7-3.5-1.4c-0.2-0.1-0.4-0.3-0.5-0.4
						C8.7,36.4,8.1,36,8,35.2c-0.2-1.9-0.2-3.8,0.1-5.3c0.3-1.7,1.1-3,2.5-4.1c0,0,0,0,0,0c0.4-0.2,0.8-0.4,1.2-0.6
						c0.3-0.2,0.6-0.2,1-0.2c0.2,0,0.4,0,0.5,0c0.2,0,0.4,0,0.5,0c0.6,0,1.3,0,2,0.1c0.7,0.1,1.1,0.3,1.5,0.6c2.2,2,3.2,5.1,2.5,7.9
						C19.1,36.1,17,38.7,14.3,38.7z M10.6,25.9c-1.4,1.1-2.1,2.3-2.5,4c-0.3,1.5-0.3,3.3-0.1,5.2c0.1,0.8,0.7,1.2,1.3,1.6
						c0.2,0.1,0.4,0.2,0.6,0.4c0.9,0.7,2.2,1.1,3.4,1.4c0.3,0.1,0.6,0.1,1,0.1c2.6,0,4.7-2.6,5.4-5c0.7-2.7-0.3-5.9-2.4-7.8
						c-0.4-0.3-0.8-0.5-1.5-0.6c-0.7-0.1-1.3-0.1-2-0.1c-0.2,0-0.4,0-0.5,0c-0.2,0-0.4,0-0.5,0c-0.4,0-0.6,0-0.9,0.2
						C11.4,25.5,11,25.7,10.6,25.9z"/>
				</g>
			</g>
		</g>
	</g>
</g>
</svg>
