<?xml version="1.0" encoding="utf-8"?>
<!-- Generator: Adobe Illustrator 19.0.0, SVG Export Plug-In . SVG Version: 6.00 Build 0)  -->
<svg version="1.1" id="Livello_1" xmlns="http://www.w3.org/2000/svg" xmlns:xlink="http://www.w3.org/1999/xlink" x="0px" y="0px"
	 viewBox="0 0 112.4 20" style="enable-background:new 0 0 112.4 20;" xml:space="preserve">
<style type="text/css">
	.st0{fill:url(#XMLID_62_);}
	.st1{fill:url(#XMLID_65_);}
	.st2{fill:#1F63A7;}
	.st3{fill:#A6A8AC;}
</style>
<g id="XMLID_27_">
	<g id="XMLID_50_">
		
			<linearGradient id="XMLID_62_" gradientUnits="userSpaceOnUse" x1="88.3877" y1="-8.2342" x2="88.3877" y2="8.8192" gradientTransform="matrix(1 0 0 -1 0 20.3632)">
			<stop  offset="0" style="stop-color:#29AAE1"/>
			<stop  offset="1" style="stop-color:#176C98"/>
		</linearGradient>
		<path id="XMLID_52_" class="st0" d="M85.4,0h6.1v19.7h-6.1V0z"/>
		
			<linearGradient id="XMLID_65_" gradientUnits="userSpaceOnUse" x1="103.621" y1="-8.5913" x2="103.621" y2="8.7513" gradientTransform="matrix(1 0 0 -1 0 20.3632)">
			<stop  offset="0" style="stop-color:#29AAE1"/>
			<stop  offset="1" style="stop-color:#176C98"/>
		</linearGradient>
		<path id="XMLID_51_" class="st1" d="M103.9,0.1h-9.6v19.7h8.4c7,0,10.3-3.7,10.3-9.9C113,4.8,110.6,0.1,103.9,0.1z M105.9,14.2
			h-6.1c-0.6,0-1-0.6-1-1.2c0-1.7,1-3.2,2.4-3.8c-0.5-0.4-0.7-1.1-0.7-1.7c0-1.3,1.1-2.4,2.4-2.4c1.3,0,2.4,1.1,2.4,2.4
			c0,0.7-0.3,1.3-0.7,1.7c1.4,0.6,2.4,2.2,2.4,3.9C106.9,13.6,106.5,14.2,105.9,14.2z"/>
	</g>
	<g id="XMLID_28_">
		<path id="XMLID_49_" class="st2" d="M35.1,14.1c0,1,0,2,0,3c0,1.3-0.6,2.1-1.7,2.5c-1.7,0.6-3.5,0.6-5.2,0c-1-0.4-1.6-1.2-1.6-2.4
			c0-2.1,0-4.2,0-6.3c0-1.1,0.5-1.9,1.5-2.3c1.8-0.7,3.7-0.8,5.5,0c0.9,0.4,1.4,1.2,1.4,2.2C35.1,11.9,35.1,13,35.1,14.1L35.1,14.1z
			 M29,14c0,0.8,0,1.6,0,2.5c0,1.1,0.4,1.5,1.4,1.6c0.5,0,0.9,0,1.4-0.1c0.7-0.2,1-0.5,1-1.2c0-1.8,0-3.6,0-5.4
			c0-0.3-0.1-0.7-0.3-0.9c-0.6-0.6-2.5-0.7-3.1,0c-0.2,0.2-0.3,0.6-0.3,1C28.9,12.2,29,13.1,29,14L29,14z"/>
		<path id="XMLID_48_" class="st3" d="M55.9,16.7h1.9c0.3,0.9,0.1,1.7-0.7,2.3c-1.3,1-2.8,1.1-4.4,0.9c-0.9-0.1-1.7-0.3-2.4-1
			c-0.4-0.4-0.7-0.9-0.7-1.5c0-2.3,0-4.5,0-6.8c0-1.3,1-1.9,2-2.2c1.8-0.5,3.5-0.6,5.2,0.5c0.6,0.3,0.9,0.8,1,1.5
			c0,0.2,0.1,0.4,0.1,0.6c0.3,2.1-0.9,3.5-3,3.6c-0.5,0-1.1,0-1.6,0c-1,0-1.5,0.6-1.6,1.5c-0.1,1.2,0.3,1.9,1.3,2.1
			c0.5,0.1,1,0,1.5,0C55.3,18,55.7,17.5,55.9,16.7L55.9,16.7z M51.9,12.7c1,0,1.9-0.1,2.8-0.1c0.6-0.1,1-0.5,1-1
			c0.1-0.6-0.1-1.1-0.5-1.4c-0.9-0.6-2.6-0.3-3.3,0.5V12.7z"/>
		<path id="XMLID_47_" class="st3" d="M44.5,17.5c0.1-0.3,0.2-0.5,0.3-0.9h1.9c0.4,1.2,0.1,2.2-1.1,2.7c-2,0.9-4.1,1-6.1-0.2
			c-0.7-0.4-1-1-1-1.8c0-3.6,0-7.2,0-10.8c0-1.6,1-2.4,2.6-2.6c1-0.2,2.1-0.1,3.1,0c0.9,0.1,1.6,0.5,2.2,1.2
			c0.4,0.6,0.5,1.2,0.3,1.9h-2c-0.1-0.3-0.3-0.6-0.4-0.9c-0.9-0.7-1.9-0.7-2.9-0.4c-0.5,0.1-0.7,0.5-0.8,0.9c0,0.2,0,0.4,0,0.6v9.2
			c0,1.2,0.4,1.6,1.6,1.7C43.1,18.1,43.8,18.1,44.5,17.5L44.5,17.5z"/>
		<path id="XMLID_46_" class="st2" d="M7.9,19.8H5.6c0-0.3-0.1-0.6-0.1-0.9c0-2.6,0-5.3,0-7.9c0-1.2,0.5-2,1.6-2.4
			c1.8-0.7,3.6-0.7,5.4,0.1C13.5,9,14,9.7,14,10.7c0,2.9,0,5.8,0,8.7c0,0.1-0.1,0.1-0.1,0.2h-2.2v-1.1v-7c0-1.3-0.4-1.7-1.7-1.7
			c-0.7,0-1.5,0-2.1,0.8C7.9,13.6,7.9,16.7,7.9,19.8z"/>
		<path id="XMLID_45_" class="st2" d="M23.2,10h-2c-0.1,3.3,0,6.5,0,9.7h-2.3v-9.6c-0.6-0.1-1-0.1-1.5-0.2V8.3
			c0.4-0.1,0.9-0.1,1.4-0.2c0-0.5,0.1-1,0.1-1.6c0-1.2,0.5-2,1.6-2.5c1-0.5,2.9-0.6,4.1-0.3c-0.1,0.5-0.3,1-0.4,1.6
			c-0.6,0.1-1.1,0.1-1.5,0.2c-1.1,0.2-1.4,0.5-1.4,1.6c0,0.3,0,0.6,0,0.9c0.7,0,1.3,0.1,2,0.1C23.2,8.9,23.2,9.4,23.2,10L23.2,10z"
			/>
		<path id="XMLID_44_" class="st3" d="M70.5,9.9c-0.5-0.1-1-0.1-1.5-0.2V8.2c0.4-0.1,0.9-0.1,1.4-0.2c0-0.9,0.1-1.8,0.1-2.8h2.1
			c0,0.9,0.1,1.8,0.1,2.8C73.5,8,74,8.1,74.7,8.1c0,0.5,0.1,1,0.1,1.5c-0.7,0.1-1.3,0.1-2,0.2c0,0.4-0.1,0.8-0.1,1.1
			c0,1.7,0,3.4,0,5.1c0,1.4,0.2,1.6,1.6,1.9c0.1,0,0.2,0.1,0.3,0.1v1.7c-1.4,0.1-2.6-0.2-3.5-1.1c-0.5-0.5-0.7-1.2-0.7-1.9v-5.7
			C70.5,10.7,70.5,10.3,70.5,9.9L70.5,9.9z"/>
		<path id="XMLID_43_" class="st2" d="M0,3.9h2.1v15.8H0.1C-0.1,19.1-0.2,5.3,0,3.9z"/>
		<path id="XMLID_29_" class="st3" d="M63.1,19.7H61c0-0.3-0.1-0.6-0.1-0.9c0-2.6,0-5.1,0-7.7c0-1.5,0.7-2.4,2.1-2.8
			C64.1,8,65.2,8,66.5,8.1c-0.2,0.6-0.3,1.2-0.5,1.8H65c-1.4,0.1-1.8,0.4-1.8,1.8v7.1C63.2,19.1,63.1,19.4,63.1,19.7L63.1,19.7z"/>
	</g>
</g>
</svg>
