<?xml version="1.0" encoding="utf-8"?>
<!-- Generator: Adobe Illustrator 19.0.0, SVG Export Plug-In . SVG Version: 6.00 Build 0)  -->
<svg version="1.1" id="Layer_1" xmlns="http://www.w3.org/2000/svg" xmlns:xlink="http://www.w3.org/1999/xlink" x="0px" y="0px"
	 viewBox="-320 273.3 200 50" style="enable-background:new -320 273.3 200 50;" xml:space="preserve">
<style type="text/css">
	.st0{fill:#2864AE;}
	.st1{fill:#343434;}
</style>
<g id="Forma">
</g>
<g id="rientro_x5F_forma">
</g>
<g id="Spid">
</g>
<g id="ID">
</g>
<g id="ContornoBianco">
</g>
<g>
	<path class="st0" d="M-215.3,323.2v-8.8h2.7c0.5,0,1,0.1,1.3,0.2c0.4,0.1,0.7,0.3,1,0.5c0.6,0.5,1,1.3,1,2c0,0.4-0.1,0.8-0.2,1.2
		c-0.2,0.4-0.4,0.7-0.7,1c-0.4,0.3-0.8,0.5-1.4,0.7l2.4,3.2h-2l-2.3-3.3v3.3H-215.3L-215.3,323.2z M-213.7,318.6h1
		c0.5,0,0.9-0.1,1.2-0.4c0.2-0.2,0.4-0.5,0.4-1s-0.1-0.7-0.4-1s-0.7-0.4-1.1-0.4h-1.1L-213.7,318.6L-213.7,318.6z"/>
	<path class="st0" d="M-205.1,323.2v-8.8h4.7v1.5h-3.1v2.1h3v1.5h-3v2.1h3.1v1.5L-205.1,323.2L-205.1,323.2z"/>
	<path class="st0" d="M-192.6,320.2v-1.5h5.7c0,0.1,0,0.2,0,0.2c0,0.8-0.2,1.5-0.7,2.2s-1,1.3-1.7,1.6c-0.7,0.4-1.5,0.6-2.3,0.6
		c-0.8,0-1.6-0.2-2.3-0.6s-1.3-1-1.7-1.7c-0.4-0.7-0.7-1.5-0.7-2.3c0-1,0.3-1.8,0.8-2.6c0.5-0.7,1.2-1.2,2-1.5
		c0.6-0.2,1.2-0.4,1.8-0.4s1.1,0.1,1.7,0.3c0.5,0.2,1,0.5,1.4,0.9c0.5,0.5,0.9,1,1.1,1.5h-1.9c-0.2-0.4-0.6-0.7-1-0.9
		c-0.4-0.2-0.8-0.3-1.3-0.3c-0.9,0-1.6,0.3-2.1,0.9c-0.2,0.3-0.5,0.6-0.6,1s-0.2,0.8-0.2,1.1c0,0.6,0.2,1.2,0.5,1.7
		c0.3,0.5,0.8,0.8,1.3,1.1c0.4,0.2,0.8,0.2,1.3,0.2c0.5,0,1.1-0.1,1.5-0.4c0.5-0.3,0.8-0.7,1.1-1.2L-192.6,320.2L-192.6,320.2z"/>
	<path class="st0" d="M-182.6,323.2v-8.8h1.6v8.8C-181,323.2-182.6,323.2-182.6,323.2z"/>
	<path class="st0" d="M-176.7,320.7h1.7c0,0.4,0.1,0.7,0.4,0.8c0.2,0.2,0.5,0.3,0.8,0.3c0.4,0,0.7-0.1,0.8-0.3
		c0.2-0.2,0.4-0.5,0.4-0.8c0-0.3-0.1-0.5-0.2-0.8c-0.2-0.2-0.5-0.4-0.9-0.5c-0.7-0.2-1.1-0.4-1.3-0.5c-0.2-0.1-0.4-0.2-0.6-0.4
		c-0.5-0.5-0.7-1.1-0.7-1.8c0-0.7,0.2-1.2,0.7-1.7c0.5-0.5,1.1-0.8,1.8-0.8c0.4,0,0.8,0.1,1.1,0.2c0.4,0.2,0.7,0.4,0.9,0.7
		c0.4,0.4,0.5,1,0.5,1.5h-1.7c0-0.3-0.1-0.5-0.3-0.7c-0.2-0.2-0.4-0.2-0.7-0.2c-0.3,0-0.5,0.1-0.7,0.2c-0.2,0.2-0.2,0.4-0.2,0.7
		c0,0.3,0.1,0.5,0.4,0.7c0.2,0.1,0.5,0.3,1.1,0.5c0.7,0.2,1.2,0.5,1.5,0.8c0.5,0.5,0.8,1.1,0.8,1.8c0,0.8-0.2,1.4-0.8,2
		c-0.6,0.6-1.3,0.8-2,0.8c-0.4,0-0.8-0.1-1.3-0.3s-0.7-0.5-1-0.8C-176.5,321.8-176.7,321.3-176.7,320.7z"/>
	<path class="st0" d="M-165.8,323.2v-7.3h-1.6v-1.5h4.8v1.5h-1.6v7.2L-165.8,323.2L-165.8,323.2z"/>
	<path class="st0" d="M-158.4,323.2v-8.8h4.7v1.5h-3.1v2.1h3v1.5h-3v2.1h3.1v1.5L-158.4,323.2L-158.4,323.2L-158.4,323.2z"/>
	<path class="st0" d="M-149.2,323.2v-8.8h2.7c0.5,0,1,0.1,1.3,0.2c0.4,0.1,0.7,0.3,1,0.5c0.6,0.5,1,1.3,1,2c0,0.4-0.1,0.8-0.2,1.2
		c-0.2,0.4-0.4,0.7-0.7,1c-0.4,0.3-0.8,0.5-1.4,0.7l2.4,3.2h-2l-2.3-3.3v3.3H-149.2L-149.2,323.2z M-147.5,318.6h1
		c0.5,0,0.9-0.1,1.2-0.4c0.2-0.2,0.4-0.5,0.4-1s-0.1-0.7-0.4-1s-0.7-0.4-1.1-0.4h-1.1L-147.5,318.6L-147.5,318.6z"/>
	<path class="st0" d="M-139,323.2v-1.5h1.5v1.5H-139z"/>
	<path class="st0" d="M-132.7,323.2v-8.8h1.6v8.8H-132.7z"/>
	<path class="st0" d="M-125.3,323.2v-7.3h-1.6v-1.5h4.8v1.5h-1.6v7.2L-125.3,323.2C-125.3,323.1-125.3,323.2-125.3,323.2z"/>
</g>
<path class="st1" d="M-320,296.9h3.4c0.2,1.8,0.7,3.2,1.5,4.2c0.5,0.7,1.3,1.3,2.2,1.7c0.9,0.4,1.8,0.7,2.8,0.7
	c0.8,0,1.7-0.2,2.6-0.5c0.9-0.4,1.6-0.9,2.2-1.5c1.1-1.2,1.7-2.6,1.7-4.3c0-1.8-0.7-3.4-2.2-4.6c-1-0.8-2.7-1.5-4.9-2.1
	c-1.7-0.4-2.9-0.8-3.8-1.2c-0.8-0.4-1.6-0.9-2.3-1.6c-1.5-1.5-2.3-3.4-2.3-5.7c0-2.4,0.8-4.3,2.4-6c1.7-1.7,3.9-2.6,6.5-2.6
	c2.5,0,4.6,0.8,6.3,2.5c1.7,1.7,2.6,3.7,2.6,6.1h-3.3c-0.1-1.7-0.7-3.1-1.8-4.2c-1.1-1.1-2.4-1.6-4-1.6c-1.5,0-2.7,0.5-3.8,1.5
	c-1.2,1.1-1.7,2.5-1.7,4.1c0,1.6,0.5,2.8,1.5,3.7c0.8,0.7,2.4,1.4,4.7,2c1.9,0.5,3.2,1,3.9,1.3c0.7,0.3,1.4,0.7,2.1,1.3
	c1,0.8,1.8,1.8,2.3,3.1c0.5,1.3,0.8,2.5,0.8,3.8c0,2.4-0.9,4.6-2.7,6.4c-1.9,2-4.2,3-7,3c-1.7,0-3.2-0.4-4.6-1
	c-1.4-0.7-2.6-1.7-3.5-2.9C-319.3,300.9-319.9,299.1-320,296.9z"/>
<path class="st1" d="M-294.5,282.2h3v4c0.9-1.3,2-2.3,3.3-3c1.9-1.1,3.9-1.6,6.2-1.6c1.5,0,3.1,0.3,4.6,0.9c1.5,0.6,2.9,1.4,4,2.6
	c2.6,2.4,3.8,5.4,3.8,8.9c0,3.5-1.3,6.5-4,8.9c-2.4,2.3-5.4,3.3-8.6,3.3c-1.9,0-3.6-0.4-5.2-1.2c-1.5-0.8-2.9-2-3.9-3.5V314h-3.2
	L-294.5,282.2L-294.5,282.2z M-282.1,284.4c-2.6,0-4.8,1-6.7,2.8c-1.8,1.8-2.7,4-2.7,6.7c0,3,1,5.4,2.9,7.2c1.8,1.7,4,2.6,6.5,2.6
	c2.4,0,4.6-0.8,6.4-2.6c2-1.9,3-4.2,3-7c0-3-1-5.4-3.1-7.3C-277.5,285.2-279.6,284.4-282.1,284.4z"/>
<path class="st0" d="M-215.6,305.8V274h3.2v31.7H-215.6z"/>
<path class="st0" d="M-204.8,305.8V285h-4.9v-2.7h4.9V274h3v8.2h5.6v2.7h-5.6v20.8L-204.8,305.8L-204.8,305.8z"/>
<path class="st0" d="M-170.8,282.2v23.5h-3v-4.1c-2.3,3.2-5.4,4.7-9.2,4.7c-2.3,0-4.5-0.6-6.6-1.8c-2-1.1-3.5-2.7-4.6-4.8
	c-1-1.8-1.5-3.8-1.5-5.7c0-1.5,0.3-3,0.9-4.5c0.6-1.5,1.4-2.8,2.4-3.9c1.2-1.3,2.6-2.2,4.3-2.9c1.6-0.7,3.3-1,5-1
	c1.9,0,3.7,0.4,5.2,1.2c1.5,0.8,2.9,2,4,3.5v-4.2C-173.9,282.2-170.8,282.2-170.8,282.2z M-183.1,284.4c-2.6,0-4.8,1-6.8,2.9
	c-1.9,1.9-2.8,4.1-2.8,6.6c0,2.7,0.9,4.9,2.7,6.8c0.9,0.9,1.9,1.6,3.2,2.1c1.3,0.5,2.5,0.8,3.8,0.8c2.5,0,4.7-1,6.6-2.9
	c1.8-1.8,2.7-4.1,2.7-6.7c0-2.7-0.9-4.9-2.7-6.8C-178.3,285.4-180.5,284.4-183.1,284.4z"/>
<path class="st0" d="M-164.9,305.8V274h3v31.7H-164.9z"/>
<path class="st0" d="M-155.9,277.1v-3h3v3H-155.9z M-155.9,305.8v-23.5h3v23.5H-155.9z"/>
<path class="st0" d="M-122,282.2v23.5h-3v-4.1c-2.3,3.2-5.4,4.7-9.2,4.7c-2.3,0-4.5-0.6-6.6-1.8c-2-1.1-3.5-2.7-4.6-4.8
	c-1-1.8-1.5-3.8-1.5-5.7c0-1.5,0.3-3,0.9-4.5c0.6-1.5,1.4-2.8,2.4-3.9c1.2-1.3,2.6-2.2,4.3-2.9c1.6-0.7,3.3-1,5-1
	c1.9,0,3.7,0.4,5.2,1.2c1.5,0.8,2.9,2,4,3.5v-4.2C-125.1,282.2-122,282.2-122,282.2z M-134.3,284.4c-2.6,0-4.8,1-6.8,2.9
	c-1.9,1.9-2.8,4.1-2.8,6.6c0,2.7,0.9,4.9,2.7,6.8c0.9,0.9,1.9,1.6,3.2,2.1c1.3,0.5,2.5,0.8,3.8,0.8c2.5,0,4.7-1,6.6-2.9
	c1.8-1.8,2.7-4.1,2.7-6.7c0-2.7-0.9-4.9-2.7-6.8C-129.5,285.4-131.7,284.4-134.3,284.4z"/>
<path class="st0" d="M-263.6,314.5h41.6v8.7h-41.6V314.5z"/>
<path class="st1" d="M-227.6,274v9.8c-2-1.4-4.3-2.1-6.9-2.1c-6.8,0-12.3,5.5-12.3,12.3c0,6.8,5.5,12.3,12.3,12.3
	c2.6,0,4.9-0.8,6.9-2.1v1.5h5.4V274L-227.6,274L-227.6,274z M-234.5,300.9c-3.8,0-6.8-3.1-6.8-6.8c0-3.8,3.1-6.8,6.8-6.8
	c3.8,0,6.8,3.1,6.8,6.8C-227.7,297.8-230.8,300.9-234.5,300.9z"/>
<g>
	<circle class="st1" cx="-258.2" cy="278.8" r="5.4"/>
	<path class="st1" d="M-258.2,287.2c-3,0-5.4,2.4-5.4,5.4v13.2h10.8v-13.2C-252.8,289.6-255.3,287.2-258.2,287.2z"/>
</g>
</svg>
