<?xml version="1.0" encoding="utf-8"?>
<!-- Generator: Adobe Illustrator 19.0.0, SVG Export Plug-In . SVG Version: 6.00 Build 0)  -->
<svg version="1.1" id="Livello_1" xmlns="http://www.w3.org/2000/svg" xmlns:xlink="http://www.w3.org/1999/xlink" x="0px" y="0px"
	 viewBox="0 0 73.4 20.1" style="enable-background:new 0 0 73.4 20.1;" xml:space="preserve">
<style type="text/css">
	.st0{fill:#007CBA;}
	.st1{fill:#004A97;}
</style>
<g id="XMLID_21_">
	<path id="XMLID_32_" class="st0" d="M54,2.1C54,1,54.9,0,56.1,0c1.2,0,2.2,1,2.2,2.1s-0.9,2.1-2.2,2.1C54.9,4.2,54,3.3,54,2.1z
		 M54.4,19.6V6.7c0-0.3,0.1-0.4,1.7-0.4h0.1c1.5,0,1.7,0.1,1.7,0.4v12.9c0,0.3-0.2,0.4-1.7,0.4h-0.1C54.5,20,54.4,19.9,54.4,19.6z"
		/>
	<path id="XMLID_26_" class="st0" d="M60,13.2c0-4.6,2.3-7.3,5.7-7.3c1.2,0,2.2,0.4,3.1,1.2V0.5c0-0.3,0.1-0.4,1.7-0.4h0.1
		c1.5,0,1.7,0.1,1.7,0.4v15.8c0,0.6,0.2,0.7,0.7,0.7c0.3,0,0.3,0.1,0.3,1.1v0.3c0,0.9-0.1,1.1-0.2,1.2c-0.5,0.2-1.2,0.3-1.9,0.3
		c-1.1,0-1.9-0.5-2.3-1.3c-0.9,0.9-2.2,1.5-3.6,1.5C62,20.1,60,17.4,60,13.2z M68.4,16.4c0.3-0.3,0.4-0.7,0.4-1.4v-4.8
		c-0.7-0.8-1.4-1.2-2.3-1.2c-1.9,0-2.8,1.5-2.8,4.2c0,1.5,0.4,2.5,0.9,3.1c0.5,0.5,1.2,0.7,1.9,0.7C67.2,17,68,16.8,68.4,16.4z"/>
	<path id="XMLID_22_" class="st1" d="M14.1,0c0.4,0,0.5,0.1,0.5,1.5v1.3c0,1.4-0.1,1.5-0.5,1.5H9.6v15.2c0,0.3-0.4,0.4-1.9,0.4H6.8
		c-1.5,0-1.8-0.1-1.8-0.4V4.3H0.5C0.1,4.3,0,4.2,0,2.8V1.5C0,0,0.1,0,0.5,0H14.1z M22.3,0.4c0-0.3-0.4-0.4-1.9-0.4h-0.9
		c-1.5,0-1.8,0.1-1.8,0.4v19c0,0.3,0.3,0.4,1.8,0.4h0.9c1.5,0,1.9-0.1,1.9-0.4V0.4z M44.4,0h-1.3c-1.7,0-1.8,0.2-1.9,0.5l-2.7,6.3
		c-0.9,2.1-1.8,4.4-2.1,5.5c-0.3-1.2-0.9-2.7-2.1-5.6l-2.7-6.2C31.4,0.1,30.8,0,29.3,0h-1.5c-1.5,0-1.8,0.1-1.8,0.4v19
		c0,0.3,0.3,0.4,1.8,0.4h0.8c1.5,0,1.9-0.1,1.9-0.4V8.2h0.1c0,0,0.1,0.5,0.3,1l3,7.1c0.1,0.3,0.3,0.5,1.7,0.5h0.9
		c1.4,0,1.5-0.1,1.7-0.5l2.8-6.8c0.3-0.6,0.5-1.3,0.5-1.3h0.1v11.3c0,0.3,0.3,0.4,1.9,0.4h0.8c1.5,0,1.9-0.1,1.9-0.4v-19
		C46.3,0.1,45.9,0,44.4,0z"/>
</g>
</svg>
