<?xml version="1.0" encoding="utf-8"?>
<!-- Generator: Adobe Illustrator 19.0.0, SVG Export Plug-In . SVG Version: 6.00 Build 0)  -->
<svg version="1.1" id="Layer_1" xmlns="http://www.w3.org/2000/svg" xmlns:xlink="http://www.w3.org/1999/xlink" x="0px" y="0px"
	 viewBox="-320 282.3 200 30.6" style="enable-background:new -320 282.3 200 30.6;" xml:space="preserve">
<style type="text/css">
	.st0{fill:#632D4F;}
</style>
<g id="Forma">
</g>
<g id="rientro_x5F_forma">
</g>
<g id="Spid">
</g>
<g id="ID">
</g>
<g id="ContornoBianco">
</g>
<path class="st0" d="M-301.3,297.6c0,2-1.6,3.6-3.6,3.6c-2,0-3.6-1.6-3.6-3.6c0-2,1.6-3.6,3.6-3.6
	C-302.9,294-301.3,295.6-301.3,297.6"/>
<path d="M-304.4,303.1v1.7c3.6-0.2,6.5-3.1,6.7-6.7h-1.7C-299.6,300.7-301.7,302.9-304.4,303.1"/>
<path d="M-310.4,297.6c0-3,2.5-5.5,5.5-5.5c2.9,0,5.3,2.2,5.5,5h1.7c-0.3-3.7-3.4-6.7-7.1-6.7c-3.9,0-7.2,3.2-7.2,7.2
	c0,3.8,2.9,6.9,6.7,7.1v-1.7C-308.2,302.9-310.4,300.5-310.4,297.6"/>
<path d="M-318.3,297.6c0-7.4,6-13.4,13.4-13.4c7.3,0,13.2,5.8,13.4,13h1.7c-0.2-8.3-6.9-14.8-15-14.8c-8.4,0-15.2,6.9-15.2,15.3
	c0,8.3,6.5,15,14.7,15.3V311C-312.6,310.8-318.3,304.8-318.3,297.6"/>
<path d="M-304.4,311v1.9c8-0.3,14.4-6.8,14.6-14.8h-1.7C-291.7,305.1-297.3,310.8-304.4,311"/>
<path d="M-304.4,308.4v1.7c6.5-0.3,11.7-5.5,11.9-12h-1.7C-294.3,303.7-298.8,308.2-304.4,308.4"/>
<path d="M-315.7,297.6c0-6,4.9-10.8,10.8-10.8c5.8,0,10.6,4.6,10.8,10.3h1.7c-0.3-6.6-5.8-11.9-12.5-11.9c-6.9,0-12.5,5.6-12.5,12.5
	c0,6.7,5.3,12.2,12,12.4v-1.6C-311.1,308.2-315.7,303.4-315.7,297.6"/>
<path d="M-313.1,297.6c0-4.5,3.7-8.2,8.2-8.2c4.3,0,7.9,3.4,8.2,7.7h1.7c-0.3-5.2-4.5-9.3-9.8-9.3c-5.4,0-9.8,4.4-9.8,9.8
	c0,5.3,4.2,9.5,9.3,9.8v-1.7C-309.7,305.5-313.1,302-313.1,297.6"/>
<path d="M-304.4,305.8v1.7c5.1-0.3,9.1-4.3,9.3-9.3h-1.7C-297,302.2-300.3,305.5-304.4,305.8"/>
<g>
	<path class="st0" d="M-142.3,285.6h11.8c7.8,0,10.5,5.8,10.5,11.6c0,7.1-3.8,11.7-11.9,11.7h-10.4L-142.3,285.6L-142.3,285.6z
		 M-135.1,302.9h2.8c4.5,0,5.1-3.6,5.1-5.8c0-1.5-0.5-5.5-5.7-5.5h-2.3V302.9z"/>
</g>
<polygon points="-286.5,285.7 -280.3,285.7 -272.2,300 -272.1,300 -272.1,285.7 -266.4,285.7 -266.4,308.9 -272.7,308.9 
	-280.7,294.4 -280.8,294.4 -280.8,308.9 -286.5,308.9 "/>
<path d="M-263.9,297.2c0.1-2.2,1.1-3.6,2.6-4.5c1.5-0.9,3.5-1.2,5.3-1.2c4,0,7.8,0.9,7.8,5.7v7.4c0,1.4,0,3,0.6,4.3h-5.5
	c-0.2-0.5-0.3-1-0.3-1.6c-1.4,1.5-3.5,2.1-5.5,2.1c-3.2,0-5.8-1.6-5.8-5.1c0-5.5,6-5.1,9.8-5.9c1-0.2,1.4-0.5,1.4-1.5
	c0-1.3-1.5-1.8-2.7-1.8c-1.5,0-2.5,0.7-2.8,2.1L-263.9,297.2L-263.9,297.2z M-256.7,306c2.6,0,3.5-1.5,3.4-5
	c-0.8,0.5-2.2,0.6-3.4,0.9c-1.2,0.3-2.3,0.8-2.3,2.1C-259,305.4-258,306-256.7,306"/>
<path d="M-245.5,292h5.3v2.3h0.1c1-1.7,2.8-2.8,4.9-2.8c2.1,0,4,0.7,4.9,2.7c1.3-1.8,3-2.7,5.3-2.7c5.3,0,5.9,4.1,5.9,7.3v10.1h-5.5
	V299c0-1.8-0.9-2.9-2.3-2.9c-2.3,0-2.6,1.8-2.6,4.5v8.3h-5.5v-9.6c0-2-0.6-3.2-2.1-3.2c-2,0-2.8,1.1-2.8,4.6v8.2h-5.5L-245.5,292
	L-245.5,292z"/>
<path d="M-210.7,289.9h-5.5v-4.2h5.5V289.9z M-216.2,292h5.5v16.9h-5.5V292z"/>
<path d="M-207.7,292h5.3v2.9h0.1c0.8-2.1,2.7-3.3,5.1-3.3c0.4,0,0.9,0.1,1.3,0.1v5c-0.7-0.2-1.4-0.3-2.1-0.3c-2.7,0-4.2,1.9-4.2,4
	v8.3h-5.5V292H-207.7z"/>
<path d="M-189.4,289.9h-5.5v-4.2h5.5V289.9z M-195,292h5.5v16.9h-5.5V292z"/>
<path d="M-186.8,297.2c0.1-2.2,1.1-3.6,2.6-4.5c1.5-0.9,3.5-1.2,5.3-1.2c4,0,7.8,0.9,7.8,5.7v7.4c0,1.4,0,3,0.6,4.3h-5.5
	c-0.2-0.5-0.3-1-0.3-1.6c-1.4,1.5-3.5,2.1-5.5,2.1c-3.2,0-5.8-1.6-5.8-5.1c0-5.5,6-5.1,9.8-5.9c1-0.2,1.4-0.5,1.4-1.5
	c0-1.3-1.5-1.8-2.7-1.8c-1.5,0-2.5,0.7-2.8,2.1L-186.8,297.2L-186.8,297.2z M-179.6,306c2.6,0,3.5-1.5,3.4-5
	c-0.8,0.5-2.2,0.6-3.4,0.9c-1.2,0.3-2.3,0.8-2.3,2.1C-182,305.4-180.9,306-179.6,306"/>
<rect x="-168.2" y="285.7" width="5.5" height="23.2"/>
<path class="st0" d="M-152.5,298.3c-1.9,0-3.4-0.6-4.6-1.9c-1.2-1.3-1.8-2.8-1.8-4.7c0-1.9,0.6-3.5,1.8-4.7s2.8-1.9,4.6-1.9
	c1.9,0,3.4,0.6,4.6,1.9c1.2,1.3,1.8,2.8,1.8,4.7c0,1.9-0.6,3.4-1.8,4.7C-149.1,297.7-150.6,298.3-152.5,298.3"/>
<path class="st0" d="M-159.9,308.9c0-2.2,0.7-4,2.1-5.4c1.4-1.4,3.2-2.1,5.3-2.1c2.1,0,3.9,0.7,5.3,2.2c1.4,1.4,2,3.3,2,5.4"/>
</svg>
