<svg xmlns="http://www.w3.org/2000/svg" viewBox="248 834.418 75.365 98.32">
  <defs>
    <style>
      .cls-1 {
        fill: #efd9ca;
      }

      .cls-2 {
        fill: #3598db;
      }

      .cls-3 {
        fill: #06c;
      }

      .cls-4 {
        fill: #020202;
      }

      .cls-5 {
        fill: #fcfc03;
      }

      .cls-6 {
        fill: #ae6c04;
      }

      .cls-7 {
        fill: #fff;
        stroke: #fff;
        stroke-width: 1px;
      }
    </style>
  </defs>
  <g id="group-7" transform="translate(115 -1487)">
    <g id="group-21" transform="translate(-82.2 257)">
      <path id="XMLID_144_" class="cls-1" d="M991.159,2080.462c-.924-.513-2.67.719-4.107,2.875l2.978-24.437-39.427,3.8,2.259,23.2a8.5,8.5,0,0,0-.719-1.335c-1.643-2.875-3.8-4.723-4.826-4.107-1.129.616-.719,3.388.924,6.263s3.8,4.723,4.826,4.107a.221.221,0,0,0,.205-.205c.411,1.232,6.058,18.071,16.12,18.071,9.651,0,15.709-15.3,16.633-17.763,1.129-.205,2.875-1.848,4.21-4.21C991.775,2083.85,992.185,2081.078,991.159,2080.462Z" transform="translate(-716.203 22.913)"/>
      <path id="XMLID_143_" class="cls-2" d="M992.526,2055.578c-2.875-8.727-11.705-10.678-11.705-10.678s-1.848,6.879-15.4,6.263c0,0-14.785-.924-15.709,7.8-.924,8.83,0,22.28,0,22.28a13.777,13.777,0,0,0,.821,3.388c.513.822,2.054,1.129,1.848-1.027s-.411-15.3-.411-15.3-.308-2.156,2.567-2.464c2.978-.308,2.567-1.232,2.567-1.232s2.978-1.437,5.442,1.746,18.482,8.625,23.307,6.982a1.458,1.458,0,0,1,.616-.205h0v9.857c0,2.67.308,2.464,1.335.616s1.54-12.526,1.54-12.526h0C992.629,2067.9,994.58,2062.047,992.526,2055.578Z" transform="translate(-716.132 22.539)"/>
      <path id="XMLID_142_" class="cls-3" d="M995.766,2114.957h-1.951c-4.928-.616-16.839-2.875-14.99-9.857,0,0-8.522,10.576-18.071,0a6.1,6.1,0,0,1-4.62,6.982,151.673,151.673,0,0,1-14.99,3.08h0a11.469,11.469,0,0,0-9.343,11.294v10.473h75.363v-10.473A11.329,11.329,0,0,0,995.766,2114.957Z" transform="translate(-716.6 24.149)"/>
    </g>
    <g id="group-6" transform="translate(127.119 -102.582)">
      <ellipse id="ellipse-1" class="cls-4" cx="23.445" cy="11.106" rx="23.445" ry="11.106" transform="translate(20.442 2437.82)"/>
      <path id="ellipse-2" class="cls-3" d="M27.64,0c15.265,0,27.64,5.967,27.64,13.327,0,4.629-4.9,8.708-12.461,11.139-4.251,1.367-28.751.9-33.759-1.272C3.542,20.8,0,17.264,0,13.327,0,5.967,12.375,0,27.64,0Z" transform="translate(16 2424)"/>
      <rect id="rectangle-4" class="cls-5" width="47.877" height="3.949" transform="translate(19.455 2445.224)"/>
      <circle id="ellipse-3" class="cls-5" cx="3.949" cy="3.949" r="3.949" transform="translate(40.185 2431.404)"/>
    </g>
    <path id="path-1" class="cls-6" d="M267.089,907.853,259.4,909.41l16.066,21.6h8.513Z" transform="translate(-115 1487)"/>
    <path id="path-2" class="cls-7" d="M286.013,931.263s15.573-23.537,11.962-25.42A6.263,6.263,0,0,1,294.712,900s-7.345,8.108-16.909.592c-.4-.311-.741-.592-.741-.592s.329,4.476-3.236,5.847S286.013,931.263,286.013,931.263Z" transform="translate(-115 1487)"/>
    <rect id="rectangle-5" class="cls-4" width="8" height="8" transform="translate(171 2392.343) rotate(45)"/>
    <path id="path-4" class="cls-4" d="M288.014,914.169l2.686,10.272-4.783,7.3-4.411-7.3,2.372-10.272Z" transform="translate(-115 1488)"/>
  </g>
</svg>
