<?xml version="1.0" encoding="utf-8"?>
<!-- Generator: Adobe Illustrator 19.0.0, SVG Export Plug-In . SVG Version: 6.00 Build 0)  -->
<svg version="1.1" id="Livello_1" xmlns="http://www.w3.org/2000/svg" xmlns:xlink="http://www.w3.org/1999/xlink" x="0px" y="0px"
	 viewBox="0 0 98.9 60" style="enable-background:new 0 0 98.9 60;" xml:space="preserve">
<style type="text/css">
	.st0{fill-rule:evenodd;clip-rule:evenodd;fill:#C5D0D9;}
	.st1{fill-rule:evenodd;clip-rule:evenodd;fill:#FFFFFF;}
	.st2{fill:none;stroke:#C5D0D9;stroke-width:0.6031;stroke-miterlimit:10;}
	.st3{fill:#C8CACE;}
	.st4{fill:#FFFFFF;}
	.st5{clip-path:url(#XMLID_89_);}
	.st6{fill:#0066CC;}
	.st7{fill-rule:evenodd;clip-rule:evenodd;fill:#FEC44F;}
	.st8{fill-rule:evenodd;clip-rule:evenodd;fill:#DFE5EA;}
	.st9{fill-rule:evenodd;clip-rule:evenodd;fill:#0066CC;}
</style>
<g id="XMLID_55_">
	<g id="XMLID_56_">
		<g id="XMLID_57_">
			<g id="XMLID_62_">
				<rect id="XMLID_63_" x="35.6" y="0.1" class="st0" width="55.4" height="36.7"/>
			</g>
			<rect id="XMLID_61_" x="37.4" y="1.6" class="st1" width="51.8" height="33.6"/>
			<g id="XMLID_58_">
				<rect id="XMLID_60_" x="47.1" y="44" class="st0" width="32.4" height="1.5"/>
				<rect id="XMLID_59_" x="53.3" y="36.7" class="st0" width="20" height="7.3"/>
			</g>
		</g>
	</g>
</g>
<path id="XMLID_54_" class="st2" d="M20.1,21.9c1-0.7,5.5-14.2,15.4-11.6"/>
<g id="XMLID_52_">
	<path id="XMLID_53_" class="st3" d="M0.2,30.8l0.9,2.8L10,44.3c0,0,1.4,1.6,3.4,0.3c2.8-1.8,15.3-10.3,15.3-10.3l1.4-2.8"/>
</g>
<g id="XMLID_47_">
	<path id="XMLID_51_" class="st4" d="M17.3,19.7L1.7,29.1c0,0-1.9,0.7-0.8,2.2c1.1,1.4,9.2,11.2,9.2,11.2s0.9,1.3,2.3,0.6
		c1.4-0.7,16.5-10.8,16.5-10.8s1.4-0.4,0.7-1.8L19.5,20C19.5,20,18.7,18.8,17.3,19.7z"/>
	<path id="XMLID_48_" class="st3" d="M9.7,42.7c-0.5-0.6-8.1-9.7-9.2-11.2c-0.5-0.6-0.5-1.2-0.4-1.5c0.2-0.8,1.1-1.2,1.3-1.3
		l15.6-9.4c1.6-1,2.6,0.2,2.8,0.5l10,10.4l0,0.1c0.3,0.6,0.3,1.1,0.1,1.5c-0.3,0.6-0.8,0.8-1,0.9c-1.1,0.7-15,10-16.4,10.8
		c-0.4,0.2-0.7,0.3-1.1,0.3C10.7,43.6,10,43.1,9.7,42.7z M19.2,20.3L19.2,20.3L19.2,20.3c-0.2-0.2-0.7-0.9-1.7-0.3L2,29.4l0,0l0,0
		c-0.2,0.1-0.7,0.4-0.8,0.8c-0.1,0.2,0,0.5,0.2,0.7c1,1.4,9.1,11,9.1,11.1l0,0c0.1,0.1,0.7,1,1.7,0.4c1.4-0.7,16.3-10.7,16.4-10.8
		l0.1,0l0.1,0c0,0,0.4-0.1,0.5-0.4c0.1-0.2,0.1-0.4-0.1-0.7L19.2,20.3z"/>
</g>
<g id="XMLID_45_">
	<polygon id="XMLID_46_" class="st4" points="26.8,34.2 15.4,41.9 15.2,42.8 26.6,35.2 	"/>
</g>
<g id="XMLID_9_">
	<polygon id="XMLID_44_" class="st4" points="25.1,35.4 17.1,40.7 27.5,51.3 27.9,51.8 28.5,52 29,52.1 29.4,52 36.3,47.8 26,36.5 	
		"/>
	<g id="XMLID_10_">
		<defs>
			<polygon id="XMLID_11_" points="41,49.1 28.6,56.1 15.8,41.9 26.8,34.2 			"/>
		</defs>
		<clipPath id="XMLID_89_">
			<use xlink:href="#XMLID_11_"  style="overflow:visible;"/>
		</clipPath>
		<g id="XMLID_12_" class="st5">
			<g id="XMLID_40_">
				<path id="XMLID_41_" class="st6" d="M27.3,51.5L14.6,38.1c-0.6-0.7-0.6-1.5,0-1.8l6.4-3.6c0.6-0.3,1.6-0.1,2.2,0.6L36,46.7
					c0.6,0.7,0.6,1.5,0,1.8l-6.4,3.6C29,52.4,28,52.2,27.3,51.5z M14.9,36.7c-0.4,0.2-0.4,0.8,0,1.3l12.7,13.4
					c0.4,0.5,1.1,0.6,1.6,0.4l6.4-3.6c0.4-0.2,0.4-0.8,0-1.3L22.9,33.4c-0.4-0.5-1.1-0.6-1.6-0.4L14.9,36.7z"/>
			</g>
			<g id="XMLID_35_">
				<polygon id="XMLID_39_" class="st4" points="20.8,39.5 23,38.2 20.3,35.4 18.1,36.6 				"/>
				<path id="XMLID_36_" class="st6" d="M18,36.6l2.3-1.3l2.8,2.9l-2.3,1.3L18,36.6z M20.3,35.4l-2.2,1.2l2.6,2.7l2.2-1.2L20.3,35.4
					z"/>
			</g>
			<g id="XMLID_30_">
				<polygon id="XMLID_34_" class="st4" points="20.1,37.7 20.7,38 21.2,37.7 21,37.2 20.4,36.9 19.9,37.1 				"/>
				<path id="XMLID_31_" class="st6" d="M20.1,37.7l-0.2-0.6l0.5-0.3l0.6,0.3l0.2,0.6L20.7,38L20.1,37.7z M21,37.2l-0.6-0.3L20,37.2
					l0.2,0.5l0.6,0.3l0.4-0.2L21,37.2z"/>
			</g>
			<g id="XMLID_27_">
				<polyline id="XMLID_29_" class="st4" points="19.9,37.1 19.4,37 18.8,37.4 				"/>
				<polygon id="XMLID_28_" class="st6" points="19.9,37.2 19.9,37.1 19.4,37 18.8,37.3 18.9,37.4 19.4,37.1 				"/>
			</g>
			<g id="XMLID_24_">
				<polyline id="XMLID_26_" class="st4" points="20.7,38 20.7,38.4 20.1,38.7 				"/>
				<polygon id="XMLID_25_" class="st6" points="20.1,38.7 20.7,38.4 20.8,38 20.7,37.9 20.6,38.4 20.1,38.7 				"/>
			</g>
			<g id="XMLID_21_">
				<polyline id="XMLID_23_" class="st4" points="20.4,36.9 20.4,36.5 21,36.1 				"/>
				<polygon id="XMLID_22_" class="st6" points="20.4,36.9 20.5,36.5 21,36.2 21,36.1 20.4,36.4 20.4,36.9 				"/>
			</g>
			<g id="XMLID_18_">
				<polyline id="XMLID_20_" class="st4" points="21.2,37.7 21.7,37.8 22.3,37.5 				"/>
				<polygon id="XMLID_19_" class="st6" points="21.7,37.8 22.3,37.5 22.2,37.5 21.7,37.8 21.2,37.7 21.2,37.7 				"/>
			</g>
			<g id="XMLID_15_">
				<line id="XMLID_17_" class="st6" x1="15.8" y1="37.9" x2="27.7" y2="50.4"/>
				<polygon id="XMLID_16_" class="st6" points="27.6,50.5 27.8,50.4 15.9,37.9 15.7,38 				"/>
			</g>
			<path id="XMLID_14_" class="st6" d="M35.8,48.4c0.5-0.3,0.5-1,0-1.5L23.1,33.5c-0.5-0.6-1.4-0.8-1.9-0.5L35.8,48.4z"/>
			<path id="XMLID_13_" class="st6" d="M30.8,48.9C30.8,48.9,30.8,48.9,30.8,48.9c-0.8,0.4-2.1,0.1-2.9-0.7
				c-0.8-0.8-0.7-1.8,0.1-2.3c0,0,0,0,0,0c-0.2-0.2,0-0.5,0.3-0.6c0.3-0.1,0.7,0,0.9,0.2c0,0,0,0,0,0.1c0.5,0,1,0.1,1.4,0.2l0.1-0.1
				l0.1,0l0.5-0.3l1.1,1.1l-0.5,0.3L31.6,47c0.1,0.4,0,0.8-0.1,1.1c0,0,0,0,0.1,0c0.2,0.2,0.2,0.5,0,0.7
				C31.4,49.1,31,49.1,30.8,48.9z"/>
		</g>
	</g>
</g>
<g id="XMLID_3_">
	<path id="XMLID_2_" class="st7" d="M55.2,60c1.2-7.6,2.3-15.5,3.3-19.1c0,0,0-0.1,0-0.1c0,0,0,0,0-0.1c0-0.1,0.1-0.2,0.2-0.3
		c0.4-0.8,1-1.3,1.8-1.4c2.3-1,6.2-1.4,9.1-2l1.5-1.2c0.3,0.2,0.6,0.3,0.9,0.5c0.3-0.1,9.8,0.1,9.8,0.1c0.3-0.2,0.5-0.3,0.8-0.5
		c0.5,0.3,1,0.7,1.5,1c3.9,0.7,9.6,1.3,11.2,3.4c0.1,0.1,0.1,0.1,0.2,0.2c0,0,0.1,0.1,0.1,0.1c0,0,0,0,0,0c0.1,0.1,0.1,0.2,0.1,0.3
		c0.9,3.4,2.1,11.2,3.3,19.1L55.2,60z"/>
	<g id="XMLID_4_">
		<path id="XMLID_7_" class="st8" d="M72.3,31.2h9.5v4.9c-3.1,1.4-8,0.8-9.5,0.1V31.2z"/>
		<path id="XMLID_6_" class="st9" d="M77,35.9c9.2,0,14.6-16.7,8.2-24.6c-3.1-3.8-10.7-4.7-13.1-1.8C61.3,13,66.6,35.9,77,35.9z"/>
		<path id="XMLID_5_" class="st1" d="M72.1,35.1c1.5,2.4,8.5,2.3,9.7,0.2c0.1,0.1,0.5,0.4,0.9,0.8c-4.4,4-9.3,1.8-11.6-0.1
			L72.1,35.1z"/>
	</g>
</g>
</svg>
