<?xml version="1.0" encoding="utf-8"?>
<!-- Generator: Adobe Illustrator 19.0.0, SVG Export Plug-In . SVG Version: 6.00 Build 0)  -->
<svg version="1.1" id="Livello_1" xmlns="http://www.w3.org/2000/svg" xmlns:xlink="http://www.w3.org/1999/xlink" x="0px" y="0px"
	 viewBox="0 0 100 60" style="enable-background:new 0 0 100 60;" xml:space="preserve">
<style type="text/css">
	.st0{fill-rule:evenodd;clip-rule:evenodd;fill:#C5D0D9;}
	.st1{fill-rule:evenodd;clip-rule:evenodd;fill:#FFFFFF;}
	.st2{fill-rule:evenodd;clip-rule:evenodd;fill:#27557D;}
	.st3{fill-rule:evenodd;clip-rule:evenodd;fill:#D1A886;}
	.st4{fill-rule:evenodd;clip-rule:evenodd;fill:#DFE5EA;}
	.st5{fill-rule:evenodd;clip-rule:evenodd;fill:#0066CC;}
	.st6{fill-rule:evenodd;clip-rule:evenodd;fill:#13B8AD;}
	.st7{fill-rule:evenodd;clip-rule:evenodd;fill:#4A8EC6;}
	.st8{fill-rule:evenodd;clip-rule:evenodd;fill:#93B9DB;}
	.st9{fill:#93B9DB;}
</style>
<g id="XMLID_2_">
	<rect id="XMLID_25_" x="19.2" y="0.1" class="st0" width="62.3" height="41.3"/>
	<rect id="XMLID_24_" x="21.2" y="1.8" class="st1" width="58.3" height="37.8"/>
	<rect id="XMLID_23_" x="32.1" y="48.2" class="st0" width="36.4" height="1.7"/>
	<path id="XMLID_22_" class="st2" d="M58.9,36.4l-0.1,0.2c3,0.4,6.8,0.4,9.9,0c0-0.1-0.1-0.1-0.1-0.2H58.9z"/>
	<rect id="XMLID_21_" x="62.2" y="19.2" class="st3" width="3.2" height="3.3"/>
	<rect id="XMLID_20_" x="61.8" y="19.2" class="st4" width="4.1" height="3.3"/>
	<path id="XMLID_19_" class="st4" d="M63.8,21.1c1.6,0,3.1-1.8,3.9-4.1c0,0,0.1,0.1,0.2,0.1c0.3,0.1,0.7-0.5,0.8-1.3
		c0.1-0.8,0-1.5-0.3-1.5c0,0,0,0-0.1,0c0.2-2.8-1-5.3-4.4-5.3c-3.4,0-4.6,2.6-4.4,5.3c0,0-0.1,0-0.1,0c-0.3,0.1-0.5,0.7-0.3,1.5
		c0.1,0.8,0.5,1.4,0.8,1.3c0.1,0,0.1-0.1,0.2-0.1C60.7,19.3,62.2,21.1,63.8,21.1z"/>
	<path id="XMLID_18_" class="st5" d="M68.2,14.3c0.2-2.8-1-5.3-4.4-5.3c-3.4,0-4.6,2.6-4.4,5.3c0.3,0.1,0.6,0.6,0.7,1.2
		c0.2,0.2,0.4,0.1,0.4-0.5c0-1.7,0.2-3.1,1.3-3.5c1-0.3,1.3,0.4,2,0.4c0.8,0,1-0.7,2-0.4c1,0.3,1.3,1.8,1.3,3.5
		c0,0.5,0.1,0.6,0.4,0.5C67.6,14.9,67.9,14.3,68.2,14.3z"/>
	<path id="XMLID_17_" class="st6" d="M71.8,23.8c0-0.1,0-0.1-0.1-0.2c0,0,0,0,0,0c0,0,0,0,0-0.1c0,0,0,0,0,0c-0.9-1.6-5-2.2-5.9-2.9
		c-0.6,0.5-1.4,0.6-2.1,0.6c-0.6,0-1.4-0.1-2-0.6c-1,0.8-3.9,1.2-5.2,2.3c-0.2,0.1-0.4,0.3-0.5,0.6c0,0.1-0.1,0.1-0.1,0.2
		c0,0,0,0,0,0c0,0,0,0,0,0c-0.5,2-0.9,6.5-1.5,10.7c-0.1,1.1,1,1.5,1.3,1.6c0.6,0.2,1.2,0.3,1.9,0.4c0,0,0,0,0,0
		c0.5,0.1,1.1,0.2,1.7,0.2c0.1,0,0.2,0,0.2,0l0,0c2.5,0.2,5.8,0.2,8.4,0l0,0c1.5-0.2,2.6-0.3,4-0.7c0.3-0.1,1.5-0.6,1.4-1.5
		C72.8,30.1,72.2,25.6,71.8,23.8z"/>
	<rect id="XMLID_16_" x="39.1" y="40.1" class="st0" width="22.5" height="8.2"/>
	<path id="XMLID_78_" class="st7" d="M46.7,60l-2.3-19.8c0,0,0,0,0,0c4.4-0.8,10.5-2.9,11.3,0c1,3.4,2.1,11.9,3.4,19.8"/>
	<path id="XMLID_79_" class="st7" d="M28.7,60L31,40.2c0,0,0,0,0,0c-5.6-1.1-10-3.6-11,0c-1,3.7-2.1,12.3-3.3,19.8"/>
	<rect id="XMLID_12_" x="34" y="31.2" class="st3" width="7.2" height="7.5"/>
	<path id="XMLID_15_" class="st7" d="M24.3,60c-0.1-6.1-2.7-17.5-4.2-20c1.1-3.1,11-2.8,13.7-4.6c0.6,0.4,6.8,0.4,7.3,0
		c2,1.3,12.7,1.3,14.5,4.5C54,42.7,51.2,54.1,51.1,60"/>
	<path id="XMLID_10_" class="st4" d="M33.1,31.1h9.1v4.7c-3,1.3-7.7,0.8-9.1,0.1V31.1z"/>
	<g id="XMLID_7_">
		<path id="XMLID_9_" class="st8" d="M46.3,15.1c1.8,0,3.4,0.8,4.4,2.1v7.5c-1.1,1.3-2.7,2.1-4.4,2.1c-3.2,0-5.8-2.6-5.8-5.8
			C40.5,17.7,43.1,15.1,46.3,15.1z"/>
		<path id="XMLID_8_" class="st8" d="M29.1,15.1c3.2,0,5.8,2.6,5.8,5.8c0,3.2-2.6,5.8-5.8,5.8c-1.8,0-3.4-0.8-4.4-2.1v-7.5
			C25.8,15.9,27.4,15.1,29.1,15.1z"/>
	</g>
	<path id="XMLID_6_" class="st9" d="M27.3,17.5c0,0.5-0.4,0.9-0.9,0.9c-0.5,0-0.9-0.4-0.9-0.9c0-3.3,1.4-6.4,3.6-8.6
		c2.2-2.2,5.2-3.6,8.6-3.6c3.3,0,6.4,1.4,8.6,3.6c2.2,2.2,3.6,5.2,3.6,8.6c0,0.5-0.4,0.9-0.9,0.9c-0.5,0-0.9-0.4-0.9-0.9
		c0-2.9-1.2-5.4-3-7.3c-1.9-1.9-4.5-3-7.3-3c-2.9,0-5.4,1.2-7.3,3C28.4,12,27.3,14.6,27.3,17.5z"/>
	<path id="XMLID_5_" class="st5" d="M37.7,35.5c8.8,0,14-16,7.9-23.6c-2.9-3.7-10.2-4.5-12.6-1.8C22.7,13.5,27.7,35.5,37.7,35.5z"/>
	<path id="XMLID_4_" class="st7" d="M43.2,35.4c0.9,0.6,2.1,1.4,2.1,1.4C41.7,40.6,32.6,39.4,30,37l2.2-1.6
		C34.3,36.7,39,38.3,43.2,35.4z"/>
	<path id="XMLID_3_" class="st1" d="M33.1,34.7c1.4,1.7,8.2,1.7,9.3,0.2c0.1,0.1,0.4,0.3,0.9,0.6c-4.2,2.9-8.9,1.3-11.1-0.1
		L33.1,34.7z"/>
</g>
</svg>
