<svg xmlns="http://www.w3.org/2000/svg" viewBox="146.807 4085.904 286.93 116">
  <defs>
    <style>
      .cls-1 {
        fill: #c5d0d9;
      }

      .cls-13, .cls-2 {
        fill: #fff;
      }

      .cls-3 {
        fill: #27557d;
      }

      .cls-10, .cls-12, .cls-13, .cls-3, .cls-6, .cls-7, .cls-8 {
        fill-rule: evenodd;
      }

      .cls-4 {
        fill: #d1a886;
      }

      .cls-5, .cls-6 {
        fill: #dfe5ea;
      }

      .cls-14, .cls-7 {
        fill: #06c;
      }

      .cls-8 {
        fill: #13b8ad;
      }

      .cls-12, .cls-9 {
        fill: #4a8ec6;
      }

      .cls-10, .cls-11 {
        fill: #93b9db;
      }

      .cls-15 {
        fill: #fec44f;
      }
    </style>
  </defs>
  <g id="group-34" transform="translate(-655 3243)">
    <g id="XMLID_227_" transform="translate(973.13 842.904)">
      <rect id="XMLID_250_" class="cls-1" width="111.455" height="74.566" transform="translate(4.153)"/>
      <rect id="XMLID_249_" class="cls-2" width="104.318" height="68.251" transform="translate(7.681 3.077)"/>
      <rect id="XMLID_248_" class="cls-1" width="65.109" height="3.077" transform="translate(27.325 86.872)"/>
      <path id="XMLID_247_" class="cls-3" d="M688.079,273.881l-.08.243a71.435,71.435,0,0,0,17.64,0c-.08-.081-.08-.243-.161-.324h-17.4Z" transform="translate(-612.885 -208.302)"/>
      <rect id="XMLID_246_" class="cls-4" width="5.773" height="5.991" transform="translate(81.048 34.49)"/>
      <rect id="XMLID_245_" class="cls-5" width="7.297" height="5.991" transform="translate(80.327 34.409)"/>
      <path id="XMLID_244_" class="cls-6" d="M696.888,234.622c2.886,0,5.532-3.319,6.9-7.367.08.081.16.162.241.162.561.081,1.2-.972,1.443-2.429s0-2.672-.641-2.753h-.161c.241-5.02-1.764-9.635-7.937-9.635s-8.179,4.615-7.939,9.635h-.16c-.561.081-.8,1.3-.642,2.753.241,1.457.883,2.51,1.444,2.429.16,0,.24-.081.321-.243C691.355,231.3,694,234.622,696.888,234.622Z" transform="translate(-612.872 -196.651)"/>
      <path id="XMLID_243_" class="cls-7" d="M704.971,222.235c.24-5.02-1.764-9.634-7.937-9.634s-8.179,4.615-7.939,9.634a2.841,2.841,0,0,1,1.2,2.267c.4.243.722.081.722-.891,0-3,.4-5.667,2.325-6.234,1.844-.567,2.245.729,3.688.729s1.844-1.214,3.688-.729c1.844.567,2.326,3.239,2.326,6.234,0,.972.24,1.133.641.891C703.929,223.287,704.49,222.316,704.971,222.235Z" transform="translate(-613.099 -196.651)"/>
      <path id="XMLID_242_" class="cls-8" d="M709.206,244.248c0-.081-.08-.243-.08-.324h0l-.081-.081a.079.079,0,0,0-.08-.081c-1.684-3-8.981-3.967-10.5-5.262a5.69,5.69,0,0,1-3.689,1.133,5.615,5.615,0,0,1-3.608-1.133c-1.764,1.457-7.057,2.186-9.382,4.129a1.638,1.638,0,0,0-.882,1.133c-.08.081-.08.243-.16.324v.162c-.8,3.643-1.684,11.739-2.646,19.269-.241,1.943,1.764,2.753,2.406,2.914,1.122.324,2.245.486,3.287.729h0c.882.162,1.924.324,3.047.486.16,0,.321.081.482.081h0a83.453,83.453,0,0,0,14.913,0h0a37.654,37.654,0,0,0,7.056-1.3c.562-.162,2.646-1.052,2.486-2.753C710.889,255.745,710.008,247.649,709.206,244.248Z" transform="translate(-610.918 -201.581)"/>
      <rect id="XMLID_241_" class="cls-1" width="40.332" height="14.735" transform="translate(39.674 72.218)"/>
      <path id="path-11" class="cls-9" d="M0,51.006C2.164,37.324,3.912,15.222,5.756,8.582c.015-.056.03-.112.046-.167L5.756,8.34a3.3,3.3,0,0,1,.3-.649A3.708,3.708,0,0,1,9.1,5.366C14.98,2.739,26.555,2.534,30.292.082,31.334.81,42.4.81,43.443,0c3.608,2.348,22.691,2.43,25.9,8.016l-.049.089a3.437,3.437,0,0,1,.208.56c1.684,6.152,3.394,28.093,5.639,42.262.2,1.257-4.754,1.294-9.9,1-1.245,0-4.961.061-9.914.118-9.877.114-24.673.227-34.588-.076l-.034.317S.186,50.907,0,51.006Z" transform="translate(0 63.716)"/>
      <rect id="XMLID_237_" class="cls-4" width="12.909" height="13.521" transform="translate(30.693 56.106)"/>
      <path id="XMLID_235_" class="cls-6" d="M630.6,262.1h16.357v8.5c-5.372,2.429-13.711,1.457-16.277.081V262.1Z" transform="translate(-601.51 -206.075)"/>
      <g id="XMLID_232_" transform="translate(14.015 27.122)">
        <path id="XMLID_234_" class="cls-10" d="M657.443,226.4a10.352,10.352,0,0,1,7.938,3.724v13.521a10.416,10.416,0,1,1-7.938-17.245Z" transform="translate(-618.795 -226.4)"/>
        <path id="XMLID_233_" class="cls-10" d="M619.738,226.4a10.444,10.444,0,1,1-7.938,17.164V230.043A10.4,10.4,0,0,1,619.738,226.4Z" transform="translate(-611.8 -226.4)"/>
      </g>
      <path id="XMLID_231_" class="cls-11" d="M616.708,226.46a1.6,1.6,0,1,1-3.208,0A21.96,21.96,0,0,1,619.834,211a21.535,21.535,0,0,1,30.631,0A21.961,21.961,0,0,1,656.8,226.46a1.6,1.6,0,1,1-3.207,0,18.626,18.626,0,0,0-5.452-13.2,18.267,18.267,0,0,0-26.14,0A19.335,19.335,0,0,0,616.708,226.46Z" transform="translate(-598.122 -195.128)"/>
      <path id="XMLID_230_" class="cls-7" d="M636.3,260.359c15.716,0,25.017-28.984,14.112-42.586-5.292-6.558-18.282-8.1-22.451-3.157C609.362,220.607,618.423,260.359,636.3,260.359Z" transform="translate(-598.955 -196.48)"/>
      <path id="XMLID_229_" class="cls-12" d="M647.254,271.581c1.6,1.053,3.769,2.51,3.769,2.51-6.495,6.8-22.772,4.615-27.423.324l3.849-2.915C631.3,273.929,639.717,276.843,647.254,271.581Z" transform="translate(-600.123 -207.864)"/>
      <path id="XMLID_228_" class="cls-13" d="M630.1,269.9c2.566,3.076,14.593,3.076,16.677.324.16.162.8.567,1.524,1.052-7.537,5.262-15.956,2.348-19.805-.081Z" transform="translate(-601.094 -207.56)"/>
    </g>
    <path id="XMLID_226_" class="cls-2" d="M424.2,298.792c-.241-3.157-1.2-4.453-1.123-7.043.16-4.615.962-7.772,3.127-7.206,12.428,3.4,18.763,1.457,19.084-1.214s.561-18.135.561-18.135,5.693,2.267,7.056-.486c.642-1.3-2.485-8.744-4.25-17.488-1.122-5.505,1.043-12.954-1.523-19.269-2.566-.243-6.174-.972-8.9-1.053-7.537-.162-17.159,2.348-18.121,9.311-1.684,12.549-8.66,13.925-11.867,16.354,0,0-3.047-5.505-7.377-3.643-5.051,2.186.722,15.95.722,15.95l-6.9,12.387h0c.16,1.052-4.49,23.479-3.528,24.774C397.5,310.775,424.443,302.193,424.2,298.792Z" transform="translate(419.094 643.533)"/>
    <path id="XMLID_225_" class="cls-14" d="M399.534,260.881s-5.773-13.763-.721-15.949c4.33-1.943,7.377,3.643,7.377,3.643,3.208-2.51,8.58,1.053,30.149-23.641,1.844-2.105,6.174-1.215,8.74-1.053,4.41.4,6.014-.81-3.448-9.634-15.075-14.087-41.294-8.744-52.039-.567s-9.782,27.041-7.376,37.485c2.405,10.282,10.263,21.86,10.424,22.1h0Z" transform="translate(421.15 647.601)"/>
    <path id="XMLID_224_" class="cls-2" d="M525.365,293.585c10.183-9.473,12.589-33.356,12.589-33.356s5.452,1.053,4.811-7.934c-.641-9.068-7.858-2.915-7.858-2.915a1.692,1.692,0,0,0-.562-.243c-9.622.648-20.607-16.273-24.215-22.345-4.169-.243-9.542.729-11.707,6.315a24.513,24.513,0,0,0-.962,8.5,50.513,50.513,0,0,1,.8,7.286c-.08,9.553-3.608,13.844-2.886,15.059.721,1.134,5.372,1.943,5.372,1.943s1.684,14.168,2,16.759c.321,2.51,4.651,2.348,15.716-1.133,9.542-3.076.962,27.284.962,27.284h23.253a64.278,64.278,0,0,1-3.047-20.16,58.5,58.5,0,0,0-13.23,4.291C525.926,292.938,525.605,293.423,525.365,293.585Z" transform="translate(398.436 643.558)"/>
    <path id="XMLID_223_" class="cls-15" d="M550.4,212.5a24.283,24.283,0,0,0-17.64-6.72C515.845,198.335,497.4,211.451,495,221c-2.806,11.092,2.486,17.812,2.486,17.812-.08-.567-.16-1.052-.241-1.619a24.513,24.513,0,0,1,.962-8.5c2.165-5.667,7.537-6.558,11.707-6.315,3.608,5.991,14.593,22.993,24.216,22.346a1.192,1.192,0,0,1,.561.243s7.216-6.153,7.858,2.915-4.811,7.934-4.811,7.934-2.405,23.883-12.589,33.356c.32-.162.561-.243.882-.4a57.9,57.9,0,0,1,13.23-3.886c6.415-1.215,12.829-1.943,19.805-4.615.16-3.563,1.844-12.225,2.326-14.816C563.153,254.847,568.605,230.477,550.4,212.5Z" transform="translate(398.654 647.969)"/>
    <ellipse id="XMLID_222_" class="cls-14" cx="1.764" cy="1.781" rx="1.764" ry="1.781" transform="translate(903.033 885.085)"/>
    <ellipse id="XMLID_221_" class="cls-14" cx="1.764" cy="1.781" rx="1.764" ry="1.781" transform="translate(859.734 887.028)"/>
  </g>
</svg>
