<svg xmlns="http://www.w3.org/2000/svg" viewBox="451.415 4086.101 266.045 115.813">
  <defs>
    <style>
      .cls-1 {
        fill: #4e92db;
      }

      .cls-2, .cls-4 {
        fill: #fff;
      }

      .cls-3 {
        fill: #13b8ad;
      }

      .cls-4 {
        fill-rule: evenodd;
      }

      .cls-5 {
        fill: #ff7300;
      }

      .cls-6 {
        fill: #ff9700;
      }

      .cls-7 {
        fill: #22557f;
      }

      .cls-8 {
        fill: #f9b936;
      }

      .cls-9 {
        fill: #e8f5f9;
      }

      .cls-10 {
        fill: #77cafc;
      }
    </style>
  </defs>
  <g id="group-64" transform="translate(17 2920)">
    <g id="XMLID_1_" transform="translate(24.137 1141.445)">
      <g id="XMLID_150_" transform="translate(410.278 89.88)">
        <g id="XMLID_189_" transform="translate(71.186)">
          <g id="XMLID_199_">
            <circle id="XMLID_200_" class="cls-1" cx="25.295" cy="25.295" r="25.295"/>
          </g>
          <g id="XMLID_190_" transform="translate(13.017 10.931)">
            <g id="XMLID_197_" transform="translate(0 21.591)">
              <path id="XMLID_198_" class="cls-2" d="M528.373,140.637h-20.6c-.181,0-3.342-.271-3.884-3.072a3.316,3.316,0,0,1,.633-2.891A2.927,2.927,0,0,1,506.6,133.5h19.061a.452.452,0,1,1,0,.9H506.692a2.221,2.221,0,0,0-1.355.813,2.354,2.354,0,0,0-.452,2.078c.452,2.078,2.891,2.258,2.981,2.258h19.6v-2.891a.452.452,0,1,1,.9,0Z" transform="translate(-503.81 -133.5)"/>
            </g>
            <g id="XMLID_195_" transform="translate(2.702)">
              <g id="XMLID_196_">
                <path id="XMLID_213_" class="cls-2" d="M526.313,110.5a.81.81,0,0,1,.813.813v19.152a.81.81,0,0,1-.813.813h-17.8a.81.81,0,0,1-.813-.813V111.316a.81.81,0,0,1,.813-.813h17.8m0-.9h-17.8a1.715,1.715,0,0,0-1.717,1.716v19.152a1.715,1.715,0,0,0,1.717,1.716h17.8a1.715,1.715,0,0,0,1.717-1.716V111.316a1.777,1.777,0,0,0-1.717-1.716Z" transform="translate(-506.8 -109.6)"/>
              </g>
            </g>
            <g id="XMLID_193_" transform="translate(0.082)">
              <path id="XMLID_194_" class="cls-2" d="M508.6,109.6s-4.155.361-4.336,2.71-.361,22.042-.361,22.042.452-3.614,4.517-2.891Z" transform="translate(-503.9 -109.6)"/>
            </g>
            <g id="XMLID_191_" transform="translate(6.767 5.149)">
              <rect id="XMLID_192_" class="cls-2" width="15.357" height="3.071"/>
            </g>
          </g>
        </g>
        <g id="XMLID_166_" transform="translate(213.739)">
          <g id="XMLID_174_">
            <g id="XMLID_187_">
              <circle id="XMLID_188_" class="cls-3" cx="25.295" cy="25.295" r="25.295"/>
            </g>
            <path id="XMLID_175_" class="cls-2" d="M689.118,131.015h-3.884v-7.769a.388.388,0,0,0-.361-.361h-4.427a.389.389,0,0,0-.361.361v7.769H678.73V119.361a.389.389,0,0,0-.362-.361h-7.95a.389.389,0,0,0-.361.361v11.654h-1.265v-4.246a.389.389,0,0,0-.362-.361H660.3a.389.389,0,0,0-.361.361v4.246h-2.077a.361.361,0,1,0,0,.723h31.257a.388.388,0,0,0,.361-.361C689.389,131.2,689.3,131.015,689.118,131.015Zm-25.837-1.355h-1.716v-1.716h1.716Zm3.7,0h-1.807v-1.716H666.9v1.716Zm6.5-.813h-1.716v-1.716h1.716Zm0-3.071h-1.716v-1.716h1.716Zm0-2.891h-1.716v-1.716h1.716Zm3.7,5.962h-1.716v-1.716h1.716Zm0-3.071h-1.716v-1.716h1.716Zm0-2.891h-1.716v-1.716h1.716Zm6.414,6.595h-1.717v-1.716h1.717Zm0-3.071h-1.717v-1.716h1.717Z" transform="translate(-648.195 -99.578)"/>
          </g>
          <g id="XMLID_167_" transform="translate(9.955 11.766)">
            <path id="XMLID_168_" class="cls-4" d="M665.7,117.91a1.229,1.229,0,1,0,1.535.813,1.3,1.3,0,0,0-1.535-.813Zm5.059-5.872a8.2,8.2,0,0,0-7.047-1.174,8.5,8.5,0,0,0-5.42,4.7.621.621,0,0,0,.271.813.4.4,0,0,0,.452,0,.705.705,0,0,0,.361-.361,7.129,7.129,0,0,1,4.7-3.975,7.543,7.543,0,0,1,6.053.994,1.145,1.145,0,0,0,.542.09.484.484,0,0,0,.362-.271.818.818,0,0,0-.271-.813Zm-6.414,1.174a5.978,5.978,0,0,0-3.884,3.342.621.621,0,0,0,.271.813.4.4,0,0,0,.451,0,.707.707,0,0,0,.362-.361,4.733,4.733,0,0,1,7.136-1.987,1.146,1.146,0,0,0,.542.09.485.485,0,0,0,.361-.271.589.589,0,0,0-.181-.813,6.229,6.229,0,0,0-5.059-.813Zm.633,2.349a3.667,3.667,0,0,0-2.349,1.987.621.621,0,0,0,.271.813.4.4,0,0,0,.452,0,.707.707,0,0,0,.361-.361,2.528,2.528,0,0,1,1.536-1.355,2.2,2.2,0,0,1,1.987.361,1.146,1.146,0,0,0,.542.09.483.483,0,0,0,.361-.271.589.589,0,0,0-.181-.813,3.743,3.743,0,0,0-2.981-.452Zm0,0" transform="translate(-658.219 -110.525)"/>
          </g>
        </g>
        <g id="XMLID_162_" transform="translate(142.463)">
          <circle id="XMLID_165_" class="cls-5" cx="25.295" cy="25.295" r="25.295"/>
          <rect id="XMLID_164_" class="cls-2" width="4.517" height="20.687" transform="translate(23.036 14.906)"/>
          <rect id="XMLID_163_" class="cls-2" width="20.687" height="4.517" transform="translate(14.996 23.036)"/>
        </g>
        <g id="XMLID_151_">
          <g id="XMLID_160_">
            <circle id="XMLID_161_" class="cls-6" cx="25.295" cy="25.295" r="25.295"/>
          </g>
          <g id="XMLID_154_" transform="translate(15.339 18.881)">
            <path id="XMLID_159_" class="cls-4" d="M447.292,138.2c-.542-3.614-1.084-7.408-1.536-8.943,0-.09,0-.09-.09-.181h0a.088.088,0,0,0-.09-.09c-.723-.9-3.252-1.174-4.968-1.536a2.744,2.744,0,0,1-.632-.452.686.686,0,0,1-.361.181s-4.246-.09-4.427,0c-.181-.09-.271-.181-.361-.181l-.723.542a26.873,26.873,0,0,0-4.065.9,1.15,1.15,0,0,0-.813.632c0,.09-.09.09-.09.181h0c-.452,1.716-.994,5.42-1.536,8.943-.181.9.994,1.265,1.355,1.355a14,14,0,0,0,1.9.361h0a10.007,10.007,0,0,0,1.717.181h.271a69.443,69.443,0,0,0,8.673,0h0a30.659,30.659,0,0,0,4.156-.632C446.208,139.376,447.473,139.015,447.292,138.2Z" transform="translate(-427.579 -119.231)"/>
            <g id="XMLID_155_" transform="translate(5.054)">
              <path id="XMLID_158_" class="cls-4" d="M436.2,124.7h4.246v2.168a6.162,6.162,0,0,1-4.246,0Z" transform="translate(-433.466 -119.009)"/>
              <path id="XMLID_157_" class="cls-4" d="M433.2,118.4c-.271,3.433,1.807,7.769,4.788,7.769,3.072,0,5.149-4.156,4.878-7.769" transform="translate(-433.174 -118.4)"/>
              <path id="XMLID_156_" class="cls-4" d="M436.052,126.6c.632,1.084,3.794,1.084,4.336.09l.362.361a3.812,3.812,0,0,1-5.149,0Z" transform="translate(-433.408 -119.192)"/>
            </g>
          </g>
          <path id="XMLID_153_" class="cls-2" d="M439.689,110.487l-.9,3.252.181-4.065a2.8,2.8,0,0,0-2.259,0l.181,4.065-.9-3.252a5.1,5.1,0,0,0-3.884,5.24h11.383A5.029,5.029,0,0,0,439.689,110.487Z" transform="translate(-412.678 -98.653)"/>
          <rect id="XMLID_152_" class="cls-2" width="13.912" height="1.445" transform="translate(18.248 17.797)"/>
        </g>
      </g>
      <g id="XMLID_6_" transform="translate(410.737 24.656)">
        <g id="XMLID_136_" transform="translate(214.996)">
          <g id="XMLID_148_">
            <circle id="XMLID_149_" class="cls-7" cx="25.295" cy="25.295" r="25.295"/>
          </g>
          <g id="XMLID_137_" transform="translate(14.725 10.75)">
            <path id="XMLID_144_" class="cls-2" d="M681.118,37.2H668.832a3.431,3.431,0,0,0-3.433,3.433V62.856a3.431,3.431,0,0,0,3.433,3.433h14.273a3.431,3.431,0,0,0,3.432-3.433V43.072C686.449,43.072,687.532,37.2,681.118,37.2Zm-5.149,28.185a1.355,1.355,0,1,1,1.355-1.355A1.33,1.33,0,0,1,675.969,65.385Zm8.763-3.7H667.026V39.368h17.706Z" transform="translate(-665.4 -37.2)"/>
            <g id="XMLID_142_" transform="translate(9.124 12.884)">
              <path id="XMLID_143_" class="cls-2" d="M682.546,51.767l-.362,1.626a2.208,2.208,0,0,0-1.626-.542,2.311,2.311,0,0,0-1.716.723,2.152,2.152,0,0,0-.542.994h3.523l-.181.9h-3.432v.813h3.251l-.18.9h-2.891a2.537,2.537,0,0,0,.452.994,2.26,2.26,0,0,0,1.626.723,2.975,2.975,0,0,0,1.987-.723v1.807a4.188,4.188,0,0,1-1.9.361,4.084,4.084,0,0,1-3.071-1.174,3.905,3.905,0,0,1-1.084-1.987h-.9l.181-.9h.632v-.723H675.5l.181-.9h.723a3.9,3.9,0,0,1,1.084-1.987,4.293,4.293,0,0,1,3.162-1.174,3.258,3.258,0,0,1,1.9.271" transform="translate(-675.5 -51.463)"/>
            </g>
            <g id="XMLID_140_" transform="translate(4.788 7.408)">
              <rect id="XMLID_141_" class="cls-2" width="11.292" height="0.632"/>
            </g>
            <g id="XMLID_138_" transform="translate(4.788 10.118)">
              <rect id="XMLID_139_" class="cls-2" width="11.292" height="0.632"/>
            </g>
          </g>
        </g>
        <g id="XMLID_124_" transform="translate(143.005 0.918)">
          <circle id="XMLID_135_" class="cls-8" cx="25.018" cy="25.018" r="25.018"/>
          <path id="XMLID_134_" class="cls-2" d="M606.048,39.2H595.757V37.108a2.036,2.036,0,0,0-2.008-2.008H579.608a2.036,2.036,0,0,0-2.008,2.008V58.361a4.107,4.107,0,0,0,4.1,4.1h24.432a4.107,4.107,0,0,0,4.1-4.1V43.3A4.354,4.354,0,0,0,606.048,39.2Z" transform="translate(-568.731 -23.721)"/>
          <g id="XMLID_131_" transform="translate(13.137 17.404)">
            <path id="XMLID_133_" class="cls-8" d="M588.418,44.559a2.259,2.259,0,1,1-2.26-2.259A2.3,2.3,0,0,1,588.418,44.559Z" transform="translate(-582.896 -42.3)"/>
            <path id="XMLID_132_" class="cls-8" d="M588.222,47.7h-4.435a1.169,1.169,0,0,0-1.088,1.088v4.435a1.169,1.169,0,0,0,1.088,1.088V61h4.435V54.31a1.169,1.169,0,0,0,1.088-1.088V48.788A1.169,1.169,0,0,0,588.222,47.7Z" transform="translate(-582.7 -43.182)"/>
          </g>
          <g id="XMLID_128_" transform="translate(22.173 17.404)">
            <path id="XMLID_130_" class="cls-8" d="M599.219,44.559a2.259,2.259,0,1,1-2.259-2.259A2.3,2.3,0,0,1,599.219,44.559Z" transform="translate(-593.696 -42.3)"/>
            <path id="XMLID_129_" class="cls-8" d="M599.022,47.7h-4.435a1.169,1.169,0,0,0-1.087,1.088v4.435a1.169,1.169,0,0,0,1.087,1.088V61h4.435V54.31a1.169,1.169,0,0,0,1.088-1.088V48.788A1.169,1.169,0,0,0,599.022,47.7Z" transform="translate(-593.5 -43.182)"/>
          </g>
          <g id="XMLID_125_" transform="translate(31.126 17.404)">
            <path id="XMLID_127_" class="cls-8" d="M609.919,44.559A2.259,2.259,0,1,1,607.66,42.3,2.3,2.3,0,0,1,609.919,44.559Z" transform="translate(-604.397 -42.3)"/>
            <path id="XMLID_126_" class="cls-8" d="M609.723,47.7h-4.435a1.169,1.169,0,0,0-1.088,1.088v4.435a1.169,1.169,0,0,0,1.088,1.088V61h4.435V54.31a1.169,1.169,0,0,0,1.088-1.088V48.788A1.107,1.107,0,0,0,609.723,47.7Z" transform="translate(-604.2 -43.182)"/>
          </g>
        </g>
        <g id="XMLID_68_" transform="translate(70.185)">
          <circle id="XMLID_123_" class="cls-3" cx="25.295" cy="25.295" r="25.295"/>
          <path id="XMLID_121_" class="cls-2" d="M529.162,49.769V46.517H526V45.162h3.162V42h1.355v3.162h3.162v1.355h-3.162v3.252Z" transform="translate(-492.394 -26.914)"/>
          <path id="XMLID_115_" class="cls-2" d="M525.5,55.868a2.681,2.681,0,0,1,.452-1.626,1.965,1.965,0,0,1,2.71,0,2.2,2.2,0,0,1,.451,1.626,2.687,2.687,0,0,1-.451,1.626,1.965,1.965,0,0,1-2.71,0A2.681,2.681,0,0,1,525.5,55.868Zm1.265-.09a2.591,2.591,0,0,0,.181,1.084c.09.181.181.181.361.181a.468.468,0,0,0,.361-.181,3.34,3.34,0,0,0,0-2.168.36.36,0,0,0-.361-.181.469.469,0,0,0-.361.181C526.764,54.874,526.764,55.236,526.764,55.778Zm1.807,6.685H527.4l4.426-8.763H533ZM531.1,60.2a2.684,2.684,0,0,1,.452-1.626,1.965,1.965,0,0,1,2.71,0,2.192,2.192,0,0,1,.452,1.626,2.681,2.681,0,0,1-.452,1.626,1.965,1.965,0,0,1-2.71,0A2.327,2.327,0,0,1,531.1,60.2Zm1.265,0a2.585,2.585,0,0,0,.181,1.084c.09.181.181.181.361.181a.47.47,0,0,0,.362-.181,3.344,3.344,0,0,0,0-2.168.361.361,0,0,0-.362-.181.469.469,0,0,0-.361.181A2.588,2.588,0,0,0,532.365,60.2Z" transform="translate(-492.346 -28.044)"/>
          <path id="XMLID_112_" class="cls-2" d="M516.69,42.5,497.9,46.927l2.62,11.112,18.79-4.427Zm0,0" transform="translate(-489.679 -26.962)"/>
          <path id="XMLID_105_" class="cls-3" d="M516.064,43.5,498.9,47.565l2.349,9.756,17.164-4.065Zm0,0" transform="translate(-489.776 -27.059)"/>
          <g id="XMLID_99_" transform="translate(14.906 19.558)">
            <path id="XMLID_100_" class="cls-2" d="M509.275,47.808a3.116,3.116,0,0,0-1.446.723,3.155,3.155,0,0,0-.542.813,1.788,1.788,0,0,0-.181.9l3.7-.9v.632l-3.614.9v.181a1.21,1.21,0,0,1,.09.452l3.524-.813v.632l-3.253.723A2.466,2.466,0,0,0,509,53.319a3.883,3.883,0,0,0,1.446,0,2.775,2.775,0,0,0,1.445-.813l.181.9a6.99,6.99,0,0,1-1.445.632c-1.627.361-2.891.09-3.7-.9a3.162,3.162,0,0,1-.542-.813l-.813.181v-.632l.542-.09a3.907,3.907,0,0,1-.091-.452v-.181l-.723.181V50.7l.632-.181a2.829,2.829,0,0,1,1.265-2.529,4.862,4.862,0,0,1,1.807-.9,3.077,3.077,0,0,1,1.807,0v.9A2.092,2.092,0,0,0,509.275,47.808Z" transform="translate(-505.3 -46.95)"/>
          </g>
          <path id="XMLID_96_" class="cls-2" d="M518.858,49.2H500.7v8.672h18.158Zm0,0" transform="translate(-489.95 -27.609)"/>
          <path id="XMLID_91_" class="cls-2" d="M521.032,50.2H501.7V61.583h19.332Zm0,0" transform="translate(-490.046 -27.706)"/>
          <path id="XMLID_72_" class="cls-3" d="M520.316,50.9H502.7V60.928h17.616Zm0,0" transform="translate(-490.143 -27.774)"/>
          <g id="XMLID_69_" transform="translate(17.435 24.572)">
            <path id="XMLID_70_" class="cls-2" d="M512.707,53.313a2.584,2.584,0,0,0-1.535.361,4.5,4.5,0,0,0-.723.632,1.622,1.622,0,0,0-.361.813h3.794l-.181.632H510v.632h3.613l-.18.632h-3.343a2.216,2.216,0,0,0,1.084,1.536,3.783,3.783,0,0,0,1.355.361,2.683,2.683,0,0,0,1.626-.452v.994a4.221,4.221,0,0,1-1.536.271,3.521,3.521,0,0,1-3.433-1.807c-.09-.271-.18-.542-.271-.9H508.1l.181-.632h.542v-.632H508.1l.181-.632h.633a2.945,2.945,0,0,1,1.806-2.168,4.925,4.925,0,0,1,1.987-.452,3.229,3.229,0,0,1,1.716.361l-.18.9A3.048,3.048,0,0,0,512.707,53.313Z" transform="translate(-508.1 -52.5)"/>
          </g>
        </g>
        <g id="XMLID_7_" transform="translate(0)">
          <circle id="XMLID_67_" class="cls-1" cx="25.295" cy="25.295" r="25.295"/>
          <g id="XMLID_24_" transform="translate(10.569 16.803)">
            <g id="XMLID_25_">
              <path id="XMLID_65_" class="cls-9" d="M420.4,43.9h13.189l-6.956,19.874h-3.252L429.7,46.158h-9.3Z" transform="translate(-420.4 -43.9)"/>
            </g>
          </g>
          <g id="XMLID_16_" transform="translate(28.366 17.074)">
            <path id="XMLID_18_" class="cls-9" d="M449.947,54.228c0,3.433-.361,5.872-1.174,7.408a4.4,4.4,0,0,1-7.588,0q-1.084-2.168-1.084-7.588t1.084-7.588a3.951,3.951,0,0,1,3.794-2.258,4.027,4.027,0,0,1,3.7,1.987C449.5,47.633,449.947,50.343,449.947,54.228Zm-2.981,0a27.917,27.917,0,0,0-.452-5.962c-.271-1.084-.813-1.626-1.536-1.626s-1.265.542-1.536,1.626a27.513,27.513,0,0,0-.452,5.872,27.512,27.512,0,0,0,.452,5.872c.271,1.084.813,1.626,1.536,1.626s1.265-.542,1.536-1.626A25.914,25.914,0,0,0,446.966,54.228Z" transform="translate(-440.1 -44.2)"/>
          </g>
          <g id="XMLID_10_" transform="translate(18.61 13.641)">
            <path id="XMLID_13_" class="cls-10" d="M433,46.814h-3.342v-.632a11.121,11.121,0,0,1,.271-2.62,4.845,4.845,0,0,1,.9-1.807,3.78,3.78,0,0,1,1.626-.994,8.555,8.555,0,0,1,2.349-.361c1.9,0,3.342.452,4.155,1.445.9.9,1.355,2.439,1.355,4.517a7.157,7.157,0,0,1-.632,3.614,3.8,3.8,0,0,1-2.258,1.716,4.117,4.117,0,0,1,2.529,1.716,7.231,7.231,0,0,1,.723,3.613c0,2.258-.452,3.975-1.445,5.059a5.958,5.958,0,0,1-4.607,1.626c-3.614,0-5.33-1.807-5.33-5.42v-.542h3.252v.723a3.142,3.142,0,0,0,.542,1.9,1.984,1.984,0,0,0,1.626.723,1.927,1.927,0,0,0,1.084-.271,1.849,1.849,0,0,0,.723-.723,4.762,4.762,0,0,0,.452-1.355,12.747,12.747,0,0,0,.09-1.987,5.158,5.158,0,0,0-.723-2.981,2.709,2.709,0,0,0-2.349-.9h-.361a1.342,1.342,0,0,0-.542.09v-2.62h.452a4.348,4.348,0,0,0,2.8-.723,4.468,4.468,0,0,0,.723-2.891c0-2.349-.723-3.523-2.078-3.523S433,44.194,433,46.182Z" transform="translate(-429.3 -40.4)"/>
          </g>
        </g>
      </g>
    </g>
  </g>
</svg>
