<?xml version="1.0" encoding="utf-8"?>
<!-- Generator: Adobe Illustrator 20.1.0, SVG Export Plug-In . SVG Version: 6.00 Build 0)  -->
<svg version="1.1" id="Livello_1" xmlns="http://www.w3.org/2000/svg" xmlns:xlink="http://www.w3.org/1999/xlink" x="0px" y="0px"
	 viewBox="0 0 370 175" style="enable-background:new 0 0 370 175;" xml:space="preserve">
<style type="text/css">
	.st0{fill:#FFFFFF;}
	.st1{opacity:0.15;fill:#22557F;}
	.st2{fill-rule:evenodd;clip-rule:evenodd;fill:#C5D0D9;}
	.st3{fill-rule:evenodd;clip-rule:evenodd;fill:#FFFFFF;}
	.st4{fill-rule:evenodd;clip-rule:evenodd;fill:#27557D;}
	.st5{fill-rule:evenodd;clip-rule:evenodd;fill:#D1A886;}
	.st6{fill-rule:evenodd;clip-rule:evenodd;fill:#DFE5EA;}
	.st7{fill-rule:evenodd;clip-rule:evenodd;fill:#0066CC;}
	.st8{fill-rule:evenodd;clip-rule:evenodd;fill:#13B8AD;}
	.st9{fill-rule:evenodd;clip-rule:evenodd;fill:#4A8EC6;}
	.st10{fill-rule:evenodd;clip-rule:evenodd;fill:#93B9DB;}
	.st11{fill:#93B9DB;}
	.st12{fill:#0066CC;}
	.st13{fill:#FEC44F;}
</style>
<rect y="-0.1" class="st0" width="370" height="175"/>
<polygon class="st1" points="130.7,174.2 0.1,174.2 0.1,0.1 232.5,0.1 "/>
<g>
	<rect x="224.8" y="14.7" class="st2" width="139" height="92.1"/>
	<rect x="229.3" y="18.6" class="st3" width="130.1" height="84.3"/>
	<rect x="253.7" y="122.1" class="st2" width="81.2" height="3.8"/>
	<path class="st4" d="M313.4,95.8l-0.1,0.3c6.8,0.9,15.2,0.9,22,0c-0.1-0.1-0.1-0.3-0.2-0.4H313.4z"/>
	<rect x="320.7" y="57.4" class="st5" width="7.2" height="7.4"/>
	<rect x="319.8" y="57.3" class="st6" width="9.1" height="7.4"/>
	<path class="st6" d="M324.4,61.7c3.6,0,6.9-4.1,8.6-9.1c0.1,0.1,0.2,0.2,0.3,0.2c0.7,0.1,1.5-1.2,1.8-3c0.3-1.8,0-3.3-0.8-3.4
		c-0.1,0-0.1,0-0.2,0c0.3-6.2-2.2-11.9-9.9-11.9c-7.7,0-10.2,5.7-9.9,11.9c-0.1,0-0.2,0-0.2,0c-0.7,0.1-1,1.6-0.8,3.4
		c0.3,1.8,1.1,3.1,1.8,3c0.2,0,0.3-0.1,0.4-0.3C317.5,57.6,320.8,61.7,324.4,61.7z"/>
	<path class="st7" d="M334.3,46.4c0.3-6.2-2.2-11.9-9.9-11.9c-7.7,0-10.2,5.7-9.9,11.9c0.6,0.2,1.3,1.3,1.5,2.8
		c0.5,0.3,0.9,0.1,0.9-1.1c0-3.7,0.5-7,2.9-7.7c2.3-0.7,2.8,0.9,4.6,0.9s2.3-1.5,4.6-0.9c2.3,0.7,2.9,4,2.9,7.7
		c0,1.2,0.3,1.4,0.8,1.1C332.9,47.7,333.6,46.5,334.3,46.4z"/>
	<path class="st8" d="M342.2,67.5c0-0.1-0.1-0.3-0.1-0.4c0,0,0,0,0,0c0,0-0.1-0.1-0.1-0.1c0,0,0-0.1-0.1-0.1
		c-2.1-3.7-11.2-4.9-13.1-6.5c-1.3,1.1-3.1,1.4-4.6,1.4c-1.4,0-3.2-0.3-4.5-1.4c-2.2,1.8-8.8,2.7-11.7,5.1c-0.5,0.2-0.9,0.7-1.1,1.4
		c-0.1,0.1-0.1,0.3-0.2,0.4c0,0,0,0.1,0,0.1c0,0,0,0.1,0,0.1c-1,4.5-2.1,14.5-3.3,23.8c-0.3,2.4,2.2,3.4,3,3.6
		c1.4,0.4,2.8,0.6,4.1,0.9c0,0,0,0,0,0c1.1,0.2,2.4,0.4,3.8,0.6c0.2,0,0.4,0.1,0.6,0.1l0,0c5.7,0.6,13,0.5,18.6,0l0,0
		c3.3-0.4,5.9-0.7,8.8-1.6c0.7-0.2,3.3-1.3,3.1-3.4C344.3,81.7,343.2,71.7,342.2,67.5z"/>
	<rect x="269.2" y="104" class="st2" width="50.3" height="18.2"/>
	<path class="st9" d="M281.1,104.2c9.8-1.9,23.5-6.4,25.3,0c2.1,7.6,4.7,25.7,7.5,43.2c0.6,3.8-5.4,5.7-6.9,6.1
		c-6.7,1.6-12.4,2.1-19.8,2.9L281.1,104.2C281,104.2,281.1,104.2,281.1,104.2z"/>
	<path class="st9" d="M251.2,104.2c-12.4-2.4-22.3-8-24.4-0.1c-2.3,8.2-4.7,26.2-7.4,43.1c-0.7,4.3,4.9,6.2,6.7,6.5
		c6.4,1.3,12,2,19.1,2.8L251.2,104.2C251.3,104.2,251.2,104.2,251.2,104.2z"/>
	<path class="st4" d="M241.6,155.5l-0.3,0.6c15.3,1.6,34.1,1.6,49.4,0.1c-0.1-0.2-0.3-0.5-0.4-0.7H241.6z"/>
	<rect x="257.9" y="84.1" class="st5" width="16.1" height="16.7"/>
	<path class="st9" d="M235.4,155.4c3.4-7.9-4.3-44.8-8.6-51.6c2.4-7,24.6-6.3,30.6-10.2c1.3,0.9,15.1,0.9,16.4-0.1
		c4.5,2.9,28.3,3,32.3,9.9c-4.5,7.8-12.9,44.8-9.3,51.9C281.6,157.7,251.1,157.9,235.4,155.4z"/>
	<path class="st6" d="M256,83.9h20.3v10.5c-6.7,3-17.1,1.8-20.3,0.1V83.9z"/>
	<g>
		<path class="st10" d="M285.3,48.3c4,0,7.5,1.8,9.9,4.6v16.7c-2.4,2.8-5.9,4.6-9.9,4.6c-7.1,0-12.9-5.8-12.9-12.9
			C272.4,54,278.2,48.3,285.3,48.3z"/>
		<path class="st10" d="M247,48.3c7.1,0,12.9,5.8,12.9,12.9c0,7.1-5.8,12.9-12.9,12.9c-4,0-7.5-1.8-9.9-4.6V52.8
			C239.5,50,243.1,48.3,247,48.3z"/>
	</g>
	<path class="st11" d="M242.9,53.5c0,1.1-0.9,2-2,2c-1.1,0-2-0.9-2-2c0-7.4,3-14.2,7.9-19.1c4.9-4.9,11.7-7.9,19.1-7.9
		c7.4,0,14.2,3,19.1,7.9c4.9,4.9,7.9,11.7,7.9,19.1c0,1.1-0.9,2-2,2c-1.1,0-2-0.9-2-2c0-6.4-2.6-12.1-6.8-16.3
		c-4.2-4.2-10-6.8-16.3-6.8c-6.4,0-12.1,2.6-16.3,6.8C245.5,41.4,242.9,47.2,242.9,53.5z"/>
	<path class="st7" d="M266.2,93.7c19.6,0,31.2-35.8,17.6-52.6c-6.6-8.1-22.8-10-28-3.9C232.6,44.6,243.9,93.7,266.2,93.7z"/>
	<path class="st9" d="M278.5,93.5c2,1.3,4.7,3.1,4.7,3.1c-8.1,8.4-28.4,5.7-34.2,0.4l4.8-3.6C258.5,96.4,269.1,100,278.5,93.5z"/>
	<path class="st3" d="M255.8,91.8c3.2,3.8,18.2,3.8,20.8,0.4c0.2,0.2,1,0.7,1.9,1.3c-9.4,6.5-19.9,2.9-24.7-0.1L255.8,91.8z"/>
</g>
<path class="st0" d="M57.4,137.7c-0.3-3.9-1.5-5.5-1.4-8.7c0.2-5.7,1.2-9.6,3.9-8.9c15.5,4.2,23.4,1.8,23.8-1.5
	c0.4-3.3,0.7-22.4,0.7-22.4s7.1,2.8,8.8-0.6C94,94,90.1,84.9,87.9,74c-1.4-6.8,1.3-16-1.9-23.8c-3.2-0.3-7.7-1.2-11.1-1.3
	c-9.4-0.2-21.4,2.9-22.6,11.5c-2.1,15.5-10.8,17.2-14.8,20.2c0,0-3.8-6.8-9.2-4.5c-6.3,2.7,0.9,19.7,0.9,19.7l-8.6,15.3c0,0,0,0,0,0
	c0.2,1.3-5.6,29-4.4,30.6C24.1,152.5,57.7,141.9,57.4,137.7z"/>
<path class="st12" d="M29.2,95.9c0,0-7.2-17-0.9-19.7c5.4-2.4,9.2,4.5,9.2,4.5c4-3.1,10.7,1.3,37.6-29.2c2.3-2.6,7.7-1.5,10.9-1.3
	c5.5,0.5,7.5-1-4.3-11.9c-18.8-17.4-51.5-10.8-64.9-0.7S4.5,71,7.6,83.9c3,12.7,12.8,27,13,27.3c0,0,0,0,0,0L29.2,95.9z"/>
<path class="st0" d="M157.8,131.3c12.7-11.7,15.7-41.2,15.7-41.2s6.8,1.3,6-9.8c-0.8-11.2-9.8-3.6-9.8-3.6c-0.2-0.1-0.5-0.3-0.7-0.3
	c-12,0.8-25.7-20.1-30.2-27.6c-5.2-0.3-11.9,0.9-14.6,7.8c0,0-1.7,5.3-1.2,10.5c0.5,3.2,1,6.3,1,9c-0.1,11.8-4.5,17.1-3.6,18.6
	c0.9,1.4,6.7,2.4,6.7,2.4s2.1,17.5,2.5,20.7c0.4,3.1,5.8,2.9,19.6-1.4c11.9-3.8,1.2,33.7,1.2,33.7h29c0,0-4.2-12.1-3.8-24.9
	c-5.4,1-10.9,2.8-16.5,5.3C158.5,130.5,158.1,131.1,157.8,131.3z"/>
<path class="st13" d="M189.3,36.6c-5.9-5.8-13.9-8.4-22-8.3c-21.1-9.2-44.1,7-47.1,18.8c-3.5,13.7,3.1,22,3.1,22
	c-0.1-0.7-0.2-1.3-0.3-2c-0.5-5.2,1.2-10.5,1.2-10.5c2.7-7,9.4-8.1,14.6-7.8c4.5,7.4,18.2,28.4,30.2,27.6c0.3,0,0.5,0.2,0.7,0.3
	c0,0,9-7.6,9.8,3.6c0.8,11.2-6,9.8-6,9.8s-3,29.5-15.7,41.2c0.4-0.2,0.7-0.3,1.1-0.5c5.7-2.5,11.1-3.8,16.5-4.8
	c8-1.5,16-2.4,24.7-5.7c0.2-4.4,2.3-15.1,2.9-18.3C205.2,88.9,212,58.8,189.3,36.6z"/>
<circle class="st12" cx="134.5" cy="69.1" r="2.2"/>
<circle class="st12" cx="80.5" cy="71.5" r="2.2"/>
<rect y="145.7" class="st12" width="369.4" height="29.4"/>
</svg>
