<?xml version="1.0" encoding="utf-8"?>
<!-- Generator: Adobe Illustrator 20.1.0, SVG Export Plug-In . SVG Version: 6.00 Build 0)  -->
<svg version="1.1" id="Livello_1" xmlns="http://www.w3.org/2000/svg" xmlns:xlink="http://www.w3.org/1999/xlink" x="0px" y="0px"
	 viewBox="0 0 370 175" style="enable-background:new 0 0 370 175;" xml:space="preserve">
<style type="text/css">
	.st0{fill:#FFFFFF;}
	.st1{font-family:'MyriadPro-Regular';}
	.st2{font-size:3.7488px;}
	.st3{fill:none;}
	.st4{fill:#2E63A7;}
	.st5{fill:#D1A886;}
	.st6{fill:#EFD9CA;}
	.st7{fill:#0066CC;}
	.st8{fill:#27557D;}
	.st9{fill:#FAD6B7;}
	.st10{fill:#5185A1;}
</style>
<rect class="st0" width="370" height="175"/>
<text transform="matrix(0.998 -6.252000e-02 6.252000e-02 0.998 81.725 119.8904)" class="st0 st1 st2">entra con SPID</text>
<g>
	<path class="st3" d="M129,175h8c-0.1-2.8-0.3-5.6-0.5-8.4L129,175z"/>
	<path class="st3" d="M61.4,167.1l-0.6-8.9l-7.1-9c-0.2-0.2-0.4-0.4-0.6-0.6l-3.9-5l-0.1-0.1c0,0,0,0,0,0l-4-5.1
		c-2.4-3-1.8-7.5,1.2-9.8c3-2.4,7.5-1.8,9.8,1.2l3.1,4l-0.2-2.5l-7.2-9.3l-5.1-6.6c-2.4-3-1.8-7.4,1.2-9.8c2.9-2.3,7-1.9,9.5,0.8
		l-0.3-3.9l-6.9-9.1c-2.3-3.1-1.8-7.4,1.2-9.8c1.3-1,2.9-1.5,4.4-1.5l-0.4-6.3c-0.4-6.7,4.7-12.5,11.4-12.9l34.5-2.2
		c6.7-0.4,12.5,4.7,12.9,11.4l3.3,51.5c1.6-7.2,7.5-8.6,13.1-9l-0.3,11c3.3-2.9,7.5-6.1,12.1-8.2c2.4-1.5,5.3-2.3,8.5-2.6
		c3.6-0.3,8.3-0.9,12.8-1.9l-0.2-0.3l9.5-2.6c0.4-0.2,0.8-0.4,1.1-0.5V99c-5.1-5.8-9.4-13.7-12.3-22.3c-0.4,0.5-0.9,0.8-1.4,0.9
		c-2.5,0.4-5.4-4.3-6.4-10.6c-1-6.3,0.2-11.7,2.7-12.1c0.3,0,0.5,0,0.8,0c-1.2-20.6,6.8-39.8,30.1-42.1c1.6-0.2,3.2-0.2,4.9-0.2
		c1.7,0,3.3,0.1,4.9,0.2c23.3,2.3,31.3,21.4,30.1,42c0,0,0,0,0,0c0.2,0,0.4,0,0.5,0c2.5,0.4,3.7,5.8,2.7,12.1
		c-1,6.3-3.9,11-6.4,10.6c-0.5-0.1-0.9-0.3-1.2-0.7c-3.2,9.3-8,17.6-13.6,23.5v7.9c0.4,0.1,0.9,0.2,1.3,0.3l0.7-0.6l6,1.7
		c5.7,0.8,9.7,0.9,19,3.1c7,1.6,19.1,4.3,24.5,27.7l0,0c1.6,3.4,3.3,7.5,5,12.3c2.4,6.7,5,14.3,7.6,22.4H370V0H0v175h65.1
		C63,173,61.6,170.2,61.4,167.1z"/>
	<path class="st4" d="M174.4,109.1c-0.3,0.2-0.7,0.4-1.1,0.5l1.1-0.3V109.1z"/>
	<path class="st4" d="M210.9,108.5c-0.4-0.1-0.9-0.2-1.3-0.3v1.4L210.9,108.5z"/>
	<path class="st4" d="M136.5,166.6c0.2,2.8,0.3,5.6,0.5,8.4h6l3.4-19.3L136.5,166.6z"/>
	<polygon class="st4" points="244.1,175 245.3,175 241.1,157.4 	"/>
	<path class="st4" d="M241,156.8C241,156.8,241,156.7,241,156.8l12.5-30.1c1.4,2.2,4.3,6.5,7.7,13.7l0,0
		c-5.4-23.4-17.4-26-24.5-27.7c-9.3-2.2-13.3-2.3-19-3.1l3.4,0.9l-18.4,28l-8.9-11.9h-3.1l-8.3,11.9l-18.4-26
		c-4.5,1-9.2,1.6-12.8,1.9c-3.2,0.2-6.1,1.1-8.5,2.6c7.2-3.3,15.2-3.7,21.8,4.7l-8,22.6c0,0,0,0.1,0,0.1l-9.5,10.6l1.1,20H239
		l1.3-22.4L241,156.8z"/>
	<path class="st5" d="M192.1,124.5l17.5-14.9v-1.4v-7.9c-5.1,5.4-10.9,8.7-17,8.7c-6.6,0-12.9-3.9-18.3-10.1v10.2v0.2L192.1,124.5z"
		/>
	<polygon class="st5" points="190.6,126.7 193.8,126.7 192.1,124.5 	"/>
	<polygon class="st0" points="190.6,126.7 192.1,124.5 174.4,109.4 173.2,109.7 163.7,112.3 163.9,112.6 182.3,138.5 	"/>
	<polygon class="st0" points="192.1,124.5 193.8,126.7 202.7,138.5 221.1,110.6 217.7,109.6 211.6,107.9 210.9,108.5 209.6,109.6 	
		"/>
	<path class="st6" d="M210.1,33.9c1.2,0.8,2.3,1.7,3.5,2.7C212.6,35.4,211.4,34.5,210.1,33.9z"/>
	<path class="st6" d="M192.6,109.1c6,0,11.9-3.3,17-8.7c5.6-5.9,10.3-14.2,13.6-23.5c0.4,0.4,0.8,0.6,1.2,0.7
		c2.5,0.4,5.4-4.3,6.4-10.6c1-6.3-0.2-11.7-2.7-12.1c-0.2,0-0.4,0-0.5,0c-2.3,0.3-4.8,4.5-5.8,10c-1.7,1-2.8,0.2-2.8-4.1
		c0-5.6-0.4-10.9-1.4-15.4c-4.2,1.9-13,3.6-29.3-2.2c-9.9-3.5-15.5-4.3-18.6-3.9c-2.8,5.2-3.5,13.1-3.5,21.6c0,4.4-1.3,5.1-3.1,3.9
		c-1-5.2-3.3-9.2-5.5-9.8c0,0,0,0,0,0c-0.3-0.1-0.5-0.1-0.8,0c-2.5,0.4-3.7,5.8-2.7,12.1c1,6.3,3.9,11,6.4,10.6
		c0.5-0.1,1-0.4,1.4-0.9c3,8.6,7.3,16.5,12.3,22.3C179.8,105.2,186.1,109.1,192.6,109.1z M205.1,63.1c1.2,0,2.2,1,2.2,2.2
		c0,1.2-1,2.2-2.2,2.2s-2.2-1-2.2-2.2C202.9,64,203.9,63.1,205.1,63.1z M181.4,63.1c1.2,0,2.2,1,2.2,2.2c0,1.2-1,2.2-2.2,2.2
		s-2.2-1-2.2-2.2C179.2,64,180.2,63.1,181.4,63.1z"/>
	<path class="st7" d="M163.1,64.7c1.8,1.2,3.1,0.5,3.1-3.9c0-8.5,0.7-16.3,3.5-21.6c-0.7,0.1-1.2,0.2-1.7,0.4
		c-1.5,2.1-2.3,3.6-2.3,3.6s-0.8-2.5,2.3-3.6c5.2-7.2,19.4-21.5,42-5.7c1.4,0.6,2.5,1.5,3.5,2.7c2.3,1.9,4.7,4.1,7.2,6.6
		c0,0-0.9,1.1-3.2,2.2c1,4.5,1.4,9.9,1.4,15.4c0,4.3,1.2,5.1,2.8,4.1c1-5.5,3.5-9.7,5.8-10c0,0,0,0,0,0c1.2-20.6-6.8-39.7-30.1-42
		c-1.6-0.2-3.2-0.2-4.9-0.2c-1.7,0-3.3,0.1-4.9,0.2c-23.4,2.3-31.3,21.5-30.1,42.1c0,0,0,0,0,0C159.8,55.5,162.1,59.5,163.1,64.7z"
		/>
	<path class="st7" d="M165.8,43.2c0,0,0.8-1.5,2.3-3.6C165,40.6,165.8,43.2,165.8,43.2z"/>
	<path class="st7" d="M220.8,43.2c-2.5-2.6-4.9-4.8-7.2-6.6c-1.2-1-2.4-1.9-3.5-2.7c-22.6-15.8-36.8-1.5-42,5.7
		c0.5-0.2,1-0.3,1.7-0.4c3.2-0.4,8.8,0.4,18.6,3.9c16.3,5.8,25.1,4.1,29.3,2.2C219.9,44.3,220.8,43.2,220.8,43.2z"/>
	<path class="st8" d="M240.9,156.8C240.9,156.8,240.9,156.8,240.9,156.8l-0.7-4.2L239,175h5.2l-3.1-17.6L240.9,156.8z"/>
	<circle class="st7" cx="205.1" cy="65.3" r="2.2"/>
	<circle class="st7" cx="181.4" cy="65.3" r="2.2"/>
	<path class="st4" d="M146.3,155.7l0.5-3.1l0.1,2.3l9.5-10.6c0,0,0-0.1,0-0.1l8-22.6c-6.6-8.3-14.6-7.9-21.8-4.7
		c-4.6,2.1-8.8,5.3-12.1,8.2l-0.9,35.1c-0.1,4.9-4,9.1-8.5,9.4l-1.6,0.3l0.2-1.3l-0.3,0.1c-1.1,2.7-3.2,4.9-5.8,6.2H129l7.5-8.4
		L146.3,155.7z"/>
	<path class="st4" d="M261.2,140.4c-3.4-7.2-6.3-11.5-7.7-13.7L241,156.7c0,0,0,0,0,0c0,0,0,0,0,0.1l0.1,0.6l4.2,17.6h28.6
		c-2.7-8.1-5.3-15.7-7.6-22.4C264.5,147.8,262.8,143.8,261.2,140.4z"/>
	<polygon class="st8" points="146.8,152.6 146.3,155.7 142.9,175 148.1,175 146.9,155 	"/>
	<path class="st9" d="M53.6,123.9l-1.7-2.2l7.2,9.3l-0.3-4.5C56.8,126.5,54.9,125.6,53.6,123.9z"/>
	<path class="st9" d="M119.3,168.8l0.3-0.1l0.2-1.2C119.6,168,119.5,168.4,119.3,168.8z"/>
	<path class="st9" d="M53.7,149.2l7.1,9l-0.5-7.2C58,151.6,55.5,150.9,53.7,149.2z"/>
	<path class="st9" d="M49.1,143.4l0.1,0.1L49.1,143.4C49.1,143.4,49.1,143.4,49.1,143.4z"/>
	<path class="st9" d="M51.5,83.2c-3,2.4-3.5,6.8-1.2,9.8l6.9,9.1l-1.3-20.4C54.4,81.8,52.8,82.2,51.5,83.2z"/>
	<path class="st4" d="M119.3,168.8c0.2-0.4,0.3-0.8,0.5-1.3l0.5-3.6l-3-37.2c0-1.3,0.2-2.5,0.4-3.5l-3.3-51.5
		c-0.4-6.7-6.3-11.8-12.9-11.4l-34.5,2.2c-6.7,0.4-11.8,6.3-11.4,12.9l0.4,6.3l1.3,20.4l0.3,3.9c0.1,0.1,0.2,0.3,0.3,0.4l5.9,7.7
		l-2.7-42c0-0.1,0.1-0.2,0.2-0.2l48.1-3.1c0.1,0,0.2,0.1,0.2,0.2l6.1,95.2c0,0.1-0.1,0.2-0.2,0.2l-48.1,3.1c-0.1,0-0.2-0.1-0.2-0.2
		l-2.8-43.2c-0.3,0.3-0.6,0.7-1,0.9c-1.4,1.1-3,1.5-4.6,1.5l0.3,4.5l0.2,2.5l4.9,6.3c2.4,3,1.8,7.5-1.2,9.8c-0.8,0.6-1.7,1-2.6,1.3
		l0.5,7.2l0.6,8.9c0.2,3.1,1.6,5.9,3.6,7.9h48.4C116.1,173.7,118.2,171.5,119.3,168.8z M88.3,172c-0.1-1.6,1.1-3.1,2.8-3.2
		c1.6-0.1,3.1,1.1,3.2,2.8c0.1,1.6-1.1,3.1-2.8,3.2C89.8,174.9,88.4,173.7,88.3,172z"/>
	<path class="st0" d="M64.4,124.2l2.8,43.2c0,0.1,0.1,0.2,0.2,0.2l48.1-3.1c0.1,0,0.2-0.1,0.2-0.2L109.5,69c0-0.1-0.1-0.2-0.2-0.2
		L61.2,72c-0.1,0-0.2,0.1-0.2,0.2l2.7,42l0.9,1.1C66.7,118,66.6,121.7,64.4,124.2z M90.8,160.7c-8.7,0.5-16.2-6.1-16.8-14.8
		c-0.5-8.7,6.1-16.2,14.8-16.8c8.7-0.5,16.2,6.1,16.8,14.8S99.5,160.2,90.8,160.7z M97.8,87.3c0.7-1,1.9-1.5,3.5-1.6
		c0.5,0,1.2,0,2.1,0.2l0.5,0.1l-0.2-4.7l3.1-0.1l0.7,16.1l-3.1,0.1l0-0.5c-1.1,0.6-2,0.8-2.8,0.9c-1.7,0.1-2.9-0.4-3.6-1.3
		c-0.7-0.9-1.1-2.4-1.2-4.5S97,88.3,97.8,87.3z M88.8,87.5c0.6-0.7,1.3-1,2.3-1c1,0,1.8,0.3,2.4,0.9c0.6,0.6,1,1.4,1,2.4
		s-0.2,1.8-0.8,2.4c-0.6,0.6-1.3,1-2.3,1c-1,0-1.8-0.3-2.4-0.9c-0.6-0.6-1-1.4-1-2.4C88,88.9,88.2,88.1,88.8,87.5z M94.9,97.7
		l-6.5,0.2c0-1,0.2-1.8,0.8-2.4c0.6-0.7,1.3-1,2.3-1s1.8,0.3,2.4,0.9C94.5,95.9,94.8,96.7,94.9,97.7z M78.6,87l0,0.6
		c1-0.6,1.8-1,2.6-1c1.6-0.1,2.7,0.4,3.5,1.2c0.8,0.9,1.2,2.5,1.3,4.7c0.1,2.2-0.3,3.8-1,4.7c-0.8,0.9-2.1,1.4-4,1.5
		c-0.5,0-1.1,0-1.7-0.1l-0.3,0l0.2,4.7l-3.1,0.1l0,0l0,0l0,0l-0.7-16.3L78.6,87z M65.3,88.2c0.8-0.7,1.8-1,3.2-1.1
		c0.9,0,2.1,0.1,3.7,0.3l0.8,0.1l0.1,2.6c-1.9-0.2-3.3-0.2-4-0.2c-0.8,0-1.3,0.1-1.5,0.3c-0.2,0.2-0.3,0.4-0.3,0.7
		c0,0.3,0.2,0.5,0.5,0.6c0.3,0.1,1.1,0.2,2.3,0.4c1.2,0.2,2.2,0.5,2.7,1c0.5,0.5,0.8,1.3,0.9,2.4c0.1,2.5-1.4,3.8-4.5,3.9
		c-1,0-2.3-0.1-3.7-0.3l-0.8-0.1l0-2.6c1.9,0.2,3.3,0.2,4,0.2c0.8,0,1.3-0.1,1.5-0.3s0.4-0.4,0.4-0.7s-0.2-0.5-0.4-0.6
		c-0.3-0.1-1-0.3-2.2-0.4s-2.1-0.4-2.7-0.9c-0.6-0.5-0.9-1.3-1-2.5C64.1,89.8,64.5,88.9,65.3,88.2z M67,114.5l40.5-2.5l0.6,9.9
		l-40.5,2.5L67,114.5z"/>
	<path class="st0" d="M80.7,96c0.9,0,1.5-0.3,1.8-0.9c0.3-0.5,0.4-1.4,0.4-2.7c-0.1-2.2-0.8-3.2-2.2-3.1c-0.6,0-1.1,0.2-1.7,0.4
		l-0.3,0.1l0.3,6C79.7,96,80.3,96.1,80.7,96z"/>
	<path class="st0" d="M100.5,94.3c0.3,0.5,0.8,0.7,1.4,0.7s1.3-0.1,2-0.4l0.3-0.1l-0.3-6.1c-0.8-0.1-1.6-0.2-2.3-0.1
		c-1.2,0.1-1.8,1.2-1.7,3.4C100,92.9,100.2,93.8,100.5,94.3z"/>
	
		<ellipse transform="matrix(0.9979 -6.407467e-02 6.407467e-02 0.9979 -10.824 6.1998)" class="st10" cx="91.2" cy="171.9" rx="3" ry="3"/>
	<path class="st9" d="M60.4,151c0.9-0.2,1.8-0.6,2.6-1.3c3-2.4,3.6-6.8,1.2-9.8l-4.9-6.3l-3.1-4c-2.4-3-6.8-3.6-9.8-1.2
		c-3,2.4-3.6,6.8-1.2,9.8l4,5.1l0.1,0.2l3.9,5c0.2,0.2,0.4,0.4,0.6,0.6C55.5,150.9,58,151.6,60.4,151z"/>
	<path class="st9" d="M58.8,126.6c1.6,0.1,3.3-0.4,4.6-1.5c0.4-0.3,0.7-0.6,1-0.9c2.1-2.5,2.3-6.2,0.2-8.9l-0.9-1.1l-5.9-7.7
		c-0.1-0.1-0.2-0.3-0.3-0.4c-2.4-2.7-6.6-3.1-9.5-0.8c-3,2.4-3.6,6.8-1.2,9.8l5.1,6.6l1.7,2.2C54.9,125.6,56.8,126.5,58.8,126.6z"/>
	<path class="st9" d="M120.2,163.9l-0.5,3.6l-0.2,1.2l-0.2,1.3l1.6-0.3c4.6-0.3,8.4-4.5,8.5-9.4l0.9-35.1l0.3-11
		c-5.6,0.4-11.6,1.8-13.1,9c-0.2,1-0.4,2.2-0.4,3.5L120.2,163.9z"/>
	<path class="st7" d="M67.6,124.4l40.5-2.5l-0.6-9.9L67,114.5L67.6,124.4z M73.3,115.3c2.1-0.1,3.9,1.5,4,3.5s-1.5,3.9-3.5,4
		c-2.1,0.1-3.9-1.5-4-3.5S71.3,115.4,73.3,115.3z"/>
	<path class="st0" d="M73.8,122.8c2.1-0.1,3.7-1.9,3.5-4s-1.9-3.7-4-3.5c-2.1,0.1-3.7,1.9-3.5,4S71.7,123,73.8,122.8z M72.3,121.6
		c0-0.4,0.1-0.8,0.3-1.1c0.2-0.3,0.6-0.4,1-0.5c0.4,0,0.8,0.1,1,0.4c0.3,0.3,0.4,0.6,0.5,1L72.3,121.6z M72.4,117.1
		c0.2-0.3,0.6-0.4,1-0.5c0.4,0,0.8,0.1,1,0.4c0.3,0.3,0.4,0.6,0.5,1c0,0.4-0.1,0.8-0.3,1.1c-0.2,0.3-0.6,0.4-1,0.5
		c-0.4,0-0.8-0.1-1-0.4s-0.4-0.6-0.5-1C72.1,117.7,72.2,117.4,72.4,117.1z"/>
	<path class="st7" d="M73.6,119.5c0.4,0,0.7-0.2,1-0.5c0.2-0.3,0.4-0.6,0.3-1.1c0-0.4-0.2-0.7-0.5-1c-0.3-0.3-0.6-0.4-1-0.4
		c-0.4,0-0.7,0.2-1,0.5c-0.3,0.3-0.4,0.6-0.3,1.1c0,0.4,0.2,0.8,0.5,1S73.2,119.5,73.6,119.5z"/>
	<path class="st7" d="M73.7,120.1c-0.4,0-0.7,0.2-1,0.5c-0.3,0.3-0.4,0.6-0.3,1.1l2.8-0.2c0-0.4-0.2-0.7-0.5-1
		C74.4,120.2,74.1,120,73.7,120.1z"/>
	<path class="st7" d="M91.4,93.1c1,0,1.7-0.4,2.3-1c0.6-0.7,0.8-1.4,0.8-2.4s-0.4-1.7-1-2.4c-0.6-0.6-1.4-0.9-2.4-0.9
		c-1,0-1.7,0.4-2.3,1c-0.6,0.7-0.9,1.5-0.8,2.4c0,1,0.4,1.8,1,2.4C89.7,92.9,90.5,93.1,91.4,93.1z"/>
	<path class="st7" d="M91.5,94.5c-1,0-1.7,0.4-2.3,1c-0.6,0.7-0.9,1.5-0.8,2.4l6.5-0.2c0-1-0.4-1.7-1-2.4
		C93.2,94.7,92.5,94.4,91.5,94.5z"/>
	<path class="st7" d="M65.2,93.5c0.6,0.5,1.5,0.7,2.7,0.9s2,0.3,2.2,0.4c0.3,0.1,0.4,0.3,0.4,0.6s-0.1,0.5-0.4,0.7s-0.8,0.2-1.5,0.3
		c-0.7,0-2.1,0-4-0.2l0,2.6l0.8,0.1c1.5,0.2,2.7,0.3,3.7,0.3c3.1-0.1,4.6-1.4,4.5-3.9c0-1.1-0.4-1.9-0.9-2.4c-0.5-0.5-1.4-0.8-2.7-1
		c-1.2-0.2-2-0.3-2.3-0.4c-0.3-0.1-0.5-0.3-0.5-0.6c0-0.3,0.1-0.5,0.3-0.7c0.2-0.2,0.7-0.2,1.5-0.3c0.8,0,2.1,0,4,0.2L73,87.5
		l-0.8-0.1c-1.6-0.2-2.8-0.3-3.7-0.3c-1.3,0.1-2.4,0.4-3.2,1.1c-0.8,0.7-1.2,1.6-1.1,2.8C64.3,92.2,64.6,93.1,65.2,93.5z"/>
	<path class="st7" d="M79.3,103.3l-0.2-4.7l0.3,0c0.6,0.1,1.1,0.1,1.7,0.1c1.9-0.1,3.2-0.6,4-1.5c0.8-0.9,1.1-2.5,1-4.7
		c-0.1-2.2-0.5-3.8-1.3-4.7c-0.8-0.9-1.9-1.3-3.5-1.2c-0.8,0-1.6,0.4-2.6,1l0-0.6l-3.1,0.1l0.7,16.3L79.3,103.3z M79,89.8
		c0.6-0.3,1.2-0.4,1.7-0.4c1.3-0.1,2.1,1,2.2,3.1c0.1,1.3-0.1,2.2-0.4,2.7c-0.3,0.5-0.9,0.8-1.8,0.9c-0.4,0-1,0-1.7-0.1l-0.3-6
		L79,89.8z"/>
	<polygon class="st7" points="76.3,103.4 76.3,103.4 76.3,103.4 	"/>
	<path class="st7" d="M101.6,97.8c0.8,0,1.7-0.3,2.8-0.9l0,0.5l3.1-0.1l-0.7-16.1l-3.1,0.1l0.2,4.7l-0.5-0.1
		c-0.9-0.1-1.6-0.2-2.1-0.2c-1.6,0.1-2.8,0.6-3.5,1.6c-0.8,1-1.1,2.5-1,4.6s0.5,3.6,1.2,4.5C98.7,97.4,99.9,97.8,101.6,97.8z
		 M101.7,88.3c0.7,0,1.4,0,2.3,0.1l0.3,6.1l-0.3,0.1c-0.7,0.2-1.3,0.3-2,0.4s-1.1-0.2-1.4-0.7s-0.5-1.3-0.5-2.5
		C99.8,89.5,100.4,88.4,101.7,88.3z"/>
	<path class="st7" d="M88.8,129.1c-8.7,0.5-15.3,8.1-14.8,16.8c0.5,8.7,8.1,15.3,16.8,14.8c8.7-0.5,15.3-8.1,14.8-16.8
		S97.5,128.6,88.8,129.1z M83.6,140.9c-0.1-1.7,0.3-3.2,1.4-4.4c1-1.2,2.4-1.8,4.1-2c1.7-0.1,3.2,0.4,4.3,1.5
		c1.2,1.1,1.8,2.5,1.9,4.3s-0.3,3.2-1.4,4.4c-1,1.2-2.3,1.8-4.1,2c-1.7,0.1-3.2-0.4-4.4-1.5C84.4,144.1,83.8,142.7,83.6,140.9z
		 M84.6,155.5c-0.1-1.7,0.3-3.2,1.4-4.4c1-1.2,2.4-1.8,4.1-2s3.2,0.4,4.3,1.5c1.2,1.1,1.8,2.5,1.9,4.3L84.6,155.5z"/>
	<path class="st0" d="M90,146.7c1.7-0.1,3.1-0.8,4.1-2c1-1.2,1.5-2.7,1.4-4.4s-0.7-3.1-1.9-4.3c-1.1-1.1-2.6-1.6-4.3-1.5
		c-1.7,0.1-3.1,0.7-4.1,2c-1.1,1.2-1.5,2.7-1.4,4.4s0.8,3.2,2,4.3C86.8,146.3,88.2,146.8,90,146.7z"/>
	<path class="st0" d="M94.4,150.6c-1.1-1.1-2.6-1.6-4.3-1.5s-3.1,0.7-4.1,2c-1.1,1.2-1.5,2.7-1.4,4.4l11.8-0.6
		C96.2,153.1,95.6,151.8,94.4,150.6z"/>
</g>
</svg>
