<?xml version="1.0" encoding="utf-8"?>
<!-- Generator: Adobe Illustrator 20.1.0, SVG Export Plug-In . SVG Version: 6.00 Build 0)  -->
<svg version="1.1" id="Livello_1" xmlns="http://www.w3.org/2000/svg" xmlns:xlink="http://www.w3.org/1999/xlink" x="0px" y="0px"
	 viewBox="0 0 370 175" style="enable-background:new 0 0 370 175;" xml:space="preserve">
<style type="text/css">
	.st0{fill:#13B8AD;}
	.st1{fill:#0066CC;}
	.st2{fill:#FFFFFF;}
	.st3{font-family:'MyriadPro-Bold';}
	.st4{font-size:33.9174px;}
	.st5{fill:none;stroke:#27557D;stroke-miterlimit:10;}
	.st6{fill:none;}
	.st7{fill:#FAD6B7;}
	.st8{fill:#EACCB5;}
	.st9{font-family:'MyriadPro-Semibold';}
	.st10{font-size:19.9715px;}
</style>
<rect class="st0" width="370" height="175"/>
<g>
	
		<rect x="36.2" y="10.8" transform="matrix(0.9845 0.1755 -0.1755 0.9845 16.6206 -12.8561)" class="st1" width="89.7" height="153.4"/>
	<ellipse transform="matrix(0.1755 -0.9845 0.9845 0.1755 5.5753 137.5893)" class="st2" cx="84.9" cy="65.5" rx="22.6" ry="22.6"/>
	<path id="XMLID_96_" class="st1" d="M84.6,68c-2.5-0.4-4.3-1.6-5.6-3.5c-1.2-1.9-1.7-4.1-1.3-6.6s1.6-4.3,3.5-5.6
		c1.8-1.3,4-1.8,6.4-1.3s4.3,1.6,5.5,3.5c1.2,2,1.6,4.1,1.2,6.6c-0.4,2.5-1.6,4.3-3.4,5.7C89.1,67.9,87,68.4,84.6,68"/>
	<path id="XMLID_95_" class="st1" d="M74.1,78.4c0.4-2.5,1.6-4.3,3.5-5.6c1.8-1.3,4-1.8,6.4-1.3c2.5,0.4,4.3,1.6,5.5,3.5
		c1.2,2,1.6,4.1,1.2,6.6"/>
	<text transform="matrix(0.9845 0.1755 -0.1755 0.9845 55.9012 137.3699)" class="st2 st3 st4">ID</text>
	<polyline class="st5" points="23.4,155.2 111.7,170.9 138.6,19.9 	"/>
</g>
<g>
	<path class="st6" d="M0,0v175h198.3l0-1.7c-2.6-4.1-4.9-7-5.9-10c-2.8-3.9-5.5-10-5.9-12.3l-5.2-27.5c2.8-0.6,7.4-1.3,10.8,2.9
		l0.1-17.3h-63.4V56.3H356v52.8H204.1l0,7.4c3.2-4.5,11-1.8,11.6,4c2.6-5,10.1-3.2,11.7,2c3.2-4.2,10.9-1.3,10.8,4.7l-0.2,27.5
		c-0.1,6.8-3.3,15.2-6.4,19.8l0,0.5H370V0H0z"/>
	<path class="st1" d="M204.3,84l-0.2,25.2H356V56.3H128.6v52.8H192l0.1-25.1C192.1,74.4,204.5,76,204.3,84z M162.3,102.8
		c-11.1,0-20.1-9-20.1-20.1c0-11.1,9-20.1,20.1-20.1c11.1,0,20.1,9,20.1,20.1C182.4,93.8,173.4,102.8,162.3,102.8z"/>
	<path class="st2" d="M162.3,62.6c-11.1,0-20.1,9-20.1,20.1c0,11.1,9,20.1,20.1,20.1c11.1,0,20.1-9,20.1-20.1
		C182.4,71.6,173.4,62.6,162.3,62.6z M154.7,95.7c0-2.2,0.7-4,2.2-5.5c1.4-1.5,3.2-2.2,5.4-2.2s4,0.8,5.4,2.2
		c1.4,1.5,2.1,3.3,2.1,5.6L154.7,95.7z M167.7,82.8c-1.4,1.4-3.1,2.2-5.4,2.2s-4-0.8-5.4-2.2s-2.2-3.3-2.2-5.6s0.7-4,2.2-5.5
		c1.4-1.5,3.2-2.2,5.4-2.2s4,0.8,5.4,2.2c1.4,1.5,2.1,3.3,2.1,5.6S169.1,81.3,167.7,82.8z"/>
	<path class="st1" d="M162.3,69.5c-2.2,0-4,0.7-5.4,2.2c-1.5,1.5-2.2,3.3-2.2,5.5s0.8,4.1,2.2,5.6s3.2,2.2,5.4,2.2s4-0.8,5.4-2.2
		c1.4-1.5,2.1-3.3,2.1-5.5s-0.7-4-2.1-5.6C166.4,70.3,164.5,69.5,162.3,69.5z"/>
	<path class="st1" d="M162.3,88.1c-2.2,0-4,0.7-5.4,2.2c-1.5,1.5-2.2,3.3-2.2,5.5l15,0.1c0-2.2-0.7-4-2.1-5.6
		C166.4,88.8,164.5,88.1,162.3,88.1z"/>
	<path class="st7" d="M231.2,175h0.3l0-0.5C231.5,174.7,231.4,174.8,231.2,175z"/>
	<path class="st7" d="M198.3,173.3l0,1.7h1.3C199.1,174.5,198.6,173.9,198.3,173.3C198.3,173.4,198.3,173.4,198.3,173.3z"/>
	<path class="st8" d="M192,126.4c-3.3-4.2-8-3.5-10.8-2.9l5.2,27.5c0.4,2.3,3.1,8.4,5.9,12.3c-0.3-0.9-0.5-1.9-0.5-2.9L192,126.4z"
		/>
	<path class="st7" d="M238,154.7l0.2-27.5c0.1-6-7.6-8.9-10.8-4.7c-1.6-5.2-9.1-7.1-11.7-2c-0.6-5.8-8.4-8.5-11.6-4l0-7.4l0.2-25.2
		c0.2-7.9-12.2-9.6-12.2,0.1l-0.1,25.1l-0.1,17.3l-0.1,34c0,1,0.2,1.9,0.5,2.9c1,3,3.3,6,5.9,10c0,0,0,0,0,0.1
		c0.3,0.5,0.8,1.1,1.3,1.6h31.7c0.1-0.2,0.2-0.3,0.3-0.5C234.6,169.9,237.9,161.5,238,154.7z"/>
</g>
<text transform="matrix(1 0 0 1 206.9992 88.0856)" class="st2 st9 st10">Entra con SPID</text>
</svg>
