<?xml version="1.0" encoding="utf-8"?>
<!-- Generator: Adobe Illustrator 20.1.0, SVG Export Plug-In . SVG Version: 6.00 Build 0)  -->
<svg version="1.1" id="Livello_1" xmlns="http://www.w3.org/2000/svg" xmlns:xlink="http://www.w3.org/1999/xlink" x="0px" y="0px"
	 viewBox="0 0 370 175" style="enable-background:new 0 0 370 175;" xml:space="preserve">
<style type="text/css">
	.st0{fill:#FFFFFF;}
	.st1{fill:#4E92DB;}
	.st2{fill:#13B8AD;}
	.st3{fill-rule:evenodd;clip-rule:evenodd;fill:#FFFFFF;}
	.st4{fill:#FF7300;}
	.st5{fill:#FF9700;}
	.st6{fill:#22557F;}
	.st7{fill:#F9B936;}
	.st8{fill:#E8F5F9;}
	.st9{fill:#77CAFC;}
</style>
<rect class="st0" width="370" height="175"/>
<g>
	<g>
		<g>
			<g>
				<circle class="st1" cx="145.6" cy="125.5" r="28"/>
			</g>
			<g>
				<g>
					<path class="st0" d="M159.1,141.4h-22.8c-0.2,0-3.7-0.3-4.3-3.4c-0.3-1.6,0.2-2.6,0.7-3.2c0.7-0.9,1.7-1.3,2.3-1.3h21.1
						c0.3,0,0.5,0.2,0.5,0.5s-0.2,0.5-0.5,0.5h-21.1c-0.3,0-1,0.3-1.5,0.9c-0.5,0.6-0.7,1.4-0.5,2.3c0.5,2.3,3.2,2.5,3.3,2.5l21.7,0
						v-3.2c0-0.3,0.2-0.5,0.5-0.5c0.3,0,0.5,0.2,0.5,0.5V141.4z"/>
				</g>
				<g>
					<g>
						<path class="st0" d="M156.5,110.6c0.5,0,0.9,0.4,0.9,0.9v21.2c0,0.5-0.4,0.9-0.9,0.9h-19.7c-0.5,0-0.9-0.4-0.9-0.9v-21.2
							c0-0.5,0.4-0.9,0.9-0.9H156.5 M156.5,109.6h-19.7c-1,0-1.9,0.8-1.9,1.9v21.2c0,1,0.8,1.9,1.9,1.9h19.7c1,0,1.9-0.8,1.9-1.9
							v-21.2C158.4,110.5,157.5,109.6,156.5,109.6L156.5,109.6z"/>
					</g>
				</g>
				<g>
					<path class="st0" d="M137.2,109.6c0,0-4.6,0.4-4.8,3c-0.2,2.6-0.4,24.4-0.4,24.4s0.5-4,5-3.2L137.2,109.6z"/>
				</g>
				<g>
					<rect x="139.4" y="115.3" class="st0" width="17" height="3.4"/>
				</g>
			</g>
		</g>
		<g>
			<g>
				<g>
					<circle class="st2" cx="303.3" cy="125.5" r="28"/>
				</g>
				<path class="st0" d="M320.6,132.3h-4.3v-8.6c0-0.2-0.2-0.4-0.4-0.4H311c-0.2,0-0.4,0.2-0.4,0.4v8.6h-1.5v-12.9
					c0-0.2-0.2-0.4-0.4-0.4h-8.8c-0.2,0-0.4,0.2-0.4,0.4v12.9h-1.5v-4.7c0-0.2-0.2-0.4-0.4-0.4h-9c-0.2,0-0.4,0.2-0.4,0.4v4.7H286
					c-0.2,0-0.4,0.2-0.4,0.4c0,0.2,0.2,0.4,0.4,0.4h34.6c0.2,0,0.4-0.2,0.4-0.4C320.9,132.5,320.8,132.3,320.6,132.3z M292,130.8
					H290v-1.9h1.9V130.8z M296.1,130.8h-1.9v-1.9h1.9V130.8z M303.3,129.9h-1.9v-1.9h1.9V129.9z M303.3,126.5h-1.9v-1.9h1.9V126.5z
					 M303.3,123.3h-1.9v-1.9h1.9V123.3z M307.4,129.9h-1.9v-1.9h1.9V129.9z M307.4,126.5h-1.9v-1.9h1.9V126.5z M307.4,123.3h-1.9
					v-1.9h1.9V123.3z M314.6,130.6h-1.9v-1.9h1.9V130.6z M314.6,127.2h-1.9v-1.9h1.9V127.2z"/>
			</g>
			<g>
				<path class="st3" d="M294.6,118.7c-0.7,0.2-1.1,0.9-0.9,1.7c0.2,0.7,0.9,1.1,1.7,0.9c0.7-0.2,1.1-0.9,0.9-1.7
					C296,118.9,295.3,118.5,294.6,118.7L294.6,118.7z M300.2,112.2c-2.3-1.6-5.2-2.1-7.8-1.3c-2.7,0.7-4.9,2.6-6,5.2
					c-0.2,0.3,0,0.7,0.3,0.9c0.1,0.1,0.3,0.1,0.5,0c0.2-0.1,0.3-0.2,0.4-0.4c1-2.2,2.9-3.8,5.2-4.4c2.3-0.6,4.7-0.2,6.7,1.1
					c0.2,0.1,0.4,0.1,0.6,0.1c0.1,0,0.3-0.1,0.4-0.3C300.6,112.9,300.5,112.5,300.2,112.2L300.2,112.2z M293.1,113.5
					c-1.9,0.5-3.5,1.9-4.3,3.7c-0.2,0.3,0,0.7,0.3,0.9c0.1,0.1,0.3,0.1,0.5,0c0.2-0.1,0.3-0.2,0.4-0.4c0.7-1.5,1.9-2.5,3.4-3
					s3.2-0.1,4.5,0.8c0.2,0.1,0.4,0.1,0.6,0.1c0.1,0,0.3-0.1,0.4-0.3c0.2-0.3,0.1-0.7-0.2-0.9C297.1,113.3,295,113,293.1,113.5
					L293.1,113.5z M293.8,116.1c-1.1,0.3-2.1,1.1-2.6,2.2c-0.2,0.3,0,0.7,0.3,0.9c0.1,0.1,0.3,0.1,0.5,0c0.2-0.1,0.3-0.2,0.4-0.4
					c0.3-0.7,1-1.3,1.7-1.5c0.8-0.2,1.6-0.1,2.2,0.4c0.2,0.1,0.4,0.1,0.6,0.1c0.1,0,0.3-0.1,0.4-0.3c0.2-0.3,0.1-0.7-0.2-0.9
					C296.2,116,295,115.8,293.8,116.1L293.8,116.1z M293.8,116.1"/>
			</g>
		</g>
		<g>
			<circle class="st4" cx="224.4" cy="125.5" r="28"/>
			<rect x="221.9" y="114" class="st0" width="5" height="22.9"/>
			
				<rect x="221.9" y="114" transform="matrix(4.400462e-11 1 -1 4.400462e-11 349.9241 -98.9303)" class="st0" width="5" height="22.9"/>
		</g>
		<g>
			<g>
				<circle class="st5" cx="66.7" cy="125.5" r="28"/>
			</g>
			<g>
				<path class="st3" d="M77.5,139.4c-0.6-4-1.2-8.2-1.7-9.9c0-0.1,0-0.1-0.1-0.2c0,0,0,0,0,0c0,0,0,0,0,0c0,0,0-0.1-0.1-0.1
					c-0.8-1-3.6-1.3-5.5-1.7c-0.2-0.1-0.5-0.3-0.7-0.5c-0.1,0.1-0.3,0.2-0.4,0.2c0,0-4.7-0.1-4.9,0c-0.2-0.1-0.3-0.2-0.4-0.2
					l-0.8,0.6c-1.4,0.3-3.3,0.5-4.5,1c-0.4,0.1-0.7,0.3-0.9,0.7c0,0.1-0.1,0.1-0.1,0.2c0,0,0,0,0,0c0,0,0,0,0,0
					c-0.5,1.9-1.1,6-1.7,9.9c-0.2,1,1.1,1.4,1.5,1.5c0.7,0.2,1.4,0.3,2.1,0.4c0,0,0,0,0,0c0.6,0.1,1.2,0.2,1.9,0.2
					c0.1,0,0.2,0,0.3,0l0,0c2.9,0.2,6.7,0.2,9.6,0l0,0c1.7-0.2,3-0.3,4.6-0.7C76.3,140.7,77.7,140.3,77.5,139.4z"/>
				<g>
					<path class="st3" d="M64.3,124.7H69v2.4c-1.5,0.7-3.9,0.4-4.7,0V124.7z"/>
					<path class="st3" d="M61.3,118.4c-0.3,3.8,2,8.6,5.3,8.6c3.4,0,5.7-4.6,5.4-8.6"/>
					<path class="st3" d="M64.2,126.6c0.7,1.2,4.2,1.2,4.8,0.1c0,0,0.2,0.2,0.4,0.4c-2.2,2-4.6,0.9-5.7,0L64.2,126.6z"/>
				</g>
			</g>
			<path class="st0" d="M68.6,110.6l-1,3.6l0.2-4.5c-1.3-0.6-2.5,0-2.5,0l0.2,4.5l-1-3.6c-2.7,0.7-4.3,2.9-4.3,5.8h12.6
				C72.9,113.5,71.2,111.3,68.6,110.6z"/>
			<rect x="58.9" y="117.2" class="st0" width="15.4" height="1.6"/>
		</g>
	</g>
	<g>
		<g>
			<g>
				<circle class="st6" cx="305.2" cy="53.3" r="28"/>
			</g>
			<g>
				<path class="st0" d="M310.9,37.2h-13.6c-2.1,0-3.8,1.7-3.8,3.8v24.6c0,2.1,1.7,3.8,3.8,3.8H313c2.1,0,3.8-1.7,3.8-3.8l0-21.9
					C316.8,43.7,318,37.2,310.9,37.2z M305.2,68.4c-0.8,0-1.5-0.7-1.5-1.5c0-0.8,0.7-1.5,1.5-1.5c0.8,0,1.5,0.7,1.5,1.5
					C306.7,67.8,306,68.4,305.2,68.4z M314.9,64.3h-19.6V39.6h19.6V64.3z"/>
				<g>
					<path class="st0" d="M311.4,51.8l-0.4,1.8c-0.4-0.4-1-0.6-1.8-0.6c-0.8,0-1.4,0.3-1.9,0.8c-0.3,0.3-0.5,0.7-0.6,1.1h3.9l-0.2,1
						h-3.8c0,0.1,0,0.2,0,0.4c0,0.2,0,0.3,0,0.5h3.6l-0.2,1h-3.2c0.1,0.5,0.3,0.8,0.5,1.1c0.5,0.5,1.1,0.8,1.8,0.8
						c0.9,0,1.6-0.3,2.2-0.8v2c-0.6,0.3-1.3,0.4-2.1,0.4c-1.4,0-2.5-0.4-3.4-1.3c-0.6-0.6-1-1.3-1.2-2.2h-1l0.2-1h0.7
						c0-0.1,0-0.2,0-0.3c0-0.2,0-0.4,0-0.5h-0.9l0.2-1h0.8c0.2-0.9,0.6-1.6,1.2-2.2c0.9-0.9,2.1-1.3,3.5-1.3
						C310.1,51.4,310.8,51.5,311.4,51.8"/>
				</g>
				<g>
					<rect x="298.8" y="45.4" class="st0" width="12.5" height="0.7"/>
				</g>
				<g>
					<rect x="298.8" y="48.4" class="st0" width="12.5" height="0.7"/>
				</g>
			</g>
		</g>
		<g>
			<circle class="st7" cx="225.1" cy="51.4" r="29.9"/>
			<path class="st0" d="M239.7,40h-12.3v-2.5c0-1.3-1.1-2.4-2.4-2.4H208c-1.3,0-2.4,1.1-2.4,2.4v7.4v3.6v14.4c0,2.7,2.2,4.9,4.9,4.9
				h29.2c2.7,0,4.9-2.2,4.9-4.9v-18C244.5,42.2,242.3,40,239.7,40z"/>
			<g>
				<path class="st7" d="M217.4,45c0,1.5-1.2,2.7-2.7,2.7s-2.7-1.2-2.7-2.7s1.2-2.7,2.7-2.7S217.4,43.5,217.4,45z"/>
				<path class="st7" d="M217.4,47.7h-5.3c-0.7,0-1.3,0.7-1.3,1.3v5.3c0,0.7,0.7,1.3,1.3,1.3v8h5.3v-8c0.7,0,1.3-0.7,1.3-1.3V49
					C218.7,48.3,218.1,47.7,217.4,47.7z"/>
			</g>
			<g>
				<path class="st7" d="M228.2,45c0,1.5-1.2,2.7-2.7,2.7s-2.7-1.2-2.7-2.7s1.2-2.7,2.7-2.7S228.2,43.5,228.2,45z"/>
				<path class="st7" d="M228.2,47.7h-5.3c-0.7,0-1.3,0.7-1.3,1.3v5.3c0,0.7,0.7,1.3,1.3,1.3v8h5.3v-8c0.7,0,1.3-0.7,1.3-1.3V49
					C229.5,48.3,228.8,47.7,228.2,47.7z"/>
			</g>
			<g>
				<path class="st7" d="M238.9,45c0,1.5-1.2,2.7-2.7,2.7s-2.7-1.2-2.7-2.7s1.2-2.7,2.7-2.7S238.9,43.5,238.9,45z"/>
				<path class="st7" d="M238.9,47.7h-5.3c-0.7,0-1.3,0.7-1.3,1.3v5.3c0,0.7,0.7,1.3,1.3,1.3v8h5.3v-8c0.7,0,1.3-0.7,1.3-1.3V49
					C240.3,48.3,239.6,47.7,238.9,47.7z"/>
			</g>
		</g>
		<g>
			<circle class="st2" cx="144.9" cy="53.3" r="28"/>
			<path class="st0" d="M157.6,50.6V47h-3.5v-1.5h3.5v-3.5h1.5v3.5h3.5V47h-3.5v3.6H157.6z"/>
			<path class="st0" d="M153.6,56.1c0-0.8,0.2-1.4,0.5-1.8c0.4-0.4,0.9-0.6,1.5-0.6c0.6,0,1.1,0.2,1.5,0.6c0.4,0.4,0.5,1,0.5,1.8
				c0,0.8-0.2,1.4-0.5,1.8c-0.4,0.4-0.9,0.6-1.5,0.6c-0.6,0-1.1-0.2-1.5-0.6C153.8,57.5,153.6,56.9,153.6,56.1z M155,56
				c0,0.6,0.1,1,0.2,1.2c0.1,0.2,0.2,0.2,0.4,0.2c0.2,0,0.3-0.1,0.4-0.2c0.1-0.2,0.2-0.6,0.2-1.2c0-0.6-0.1-1-0.2-1.2
				c-0.1-0.2-0.3-0.2-0.4-0.2c-0.2,0-0.3,0.1-0.4,0.2C155,55,155,55.4,155,56z M157,63.4h-1.3l4.9-9.7h1.3L157,63.4z M159.8,60.9
				c0-0.8,0.2-1.4,0.5-1.8c0.4-0.4,0.9-0.6,1.5-0.6c0.6,0,1.1,0.2,1.5,0.6c0.4,0.4,0.5,1,0.5,1.8c0,0.8-0.2,1.4-0.5,1.8
				c-0.4,0.4-0.9,0.6-1.5,0.6c-0.6,0-1.1-0.2-1.5-0.6C160,62.4,159.8,61.8,159.8,60.9z M161.2,60.9c0,0.6,0.1,1,0.2,1.2
				c0.1,0.2,0.2,0.2,0.4,0.2c0.2,0,0.3-0.1,0.4-0.2c0.1-0.2,0.2-0.6,0.2-1.2c0-0.6-0.1-1-0.2-1.2c-0.1-0.2-0.3-0.2-0.4-0.2
				s-0.3,0.1-0.4,0.2C161.3,59.9,161.2,60.3,161.2,60.9z"/>
			<path class="st0" d="M146.8,42.5L126,47.4l2.9,12.3l20.8-4.9L146.8,42.5z M146.8,42.5"/>
			<path class="st2" d="M146,43.5L127,48l2.6,10.8l19-4.5L146,43.5z M146,43.5"/>
			<g>
				<path class="st0" d="M137.8,47.9c-0.7,0.2-1.2,0.4-1.6,0.8c-0.2,0.2-0.4,0.5-0.6,0.9c-0.2,0.4-0.2,0.7-0.2,1l4.1-1l0,0.7l-4,1
					c0,0.1,0,0.1,0,0.2c0.1,0.3,0.1,0.4,0.1,0.5l3.9-0.9l0,0.7l-3.6,0.8c0.4,0.7,0.9,1.2,1.6,1.4c0.5,0.1,1,0.1,1.6,0
					c0.7-0.2,1.3-0.5,1.6-0.9l0.2,1c-0.5,0.3-1,0.5-1.6,0.7c-1.8,0.4-3.2,0.1-4.1-1c-0.2-0.2-0.4-0.5-0.6-0.9l-0.9,0.2l0-0.7
					l0.6-0.1c0-0.1-0.1-0.3-0.1-0.5c0-0.1,0-0.1,0-0.2l-0.8,0.2l0-0.7l0.7-0.2c0-1.2,0.4-2.1,1.4-2.8c0.6-0.5,1.3-0.8,2-1
					c0.7-0.2,1.4-0.2,2,0l0,1C139.1,47.8,138.5,47.8,137.8,47.9z"/>
			</g>
			<path class="st0" d="M148.9,49.2h-20.1v9.6h20.1V49.2z M148.9,49.2"/>
			<path class="st0" d="M151.2,50.2h-21.4v12.6h21.4V50.2z M151.2,50.2"/>
			<path class="st2" d="M150.3,50.9h-19.5V62h19.5V50.9z M150.3,50.9"/>
			<g>
				<path class="st0" d="M141.3,53.4c-0.7,0-1.3,0.1-1.7,0.4c-0.3,0.2-0.5,0.4-0.8,0.7c-0.2,0.3-0.4,0.6-0.4,0.9h4.2l-0.2,0.7h-4.1
					c0,0.1,0,0.1,0,0.2c0,0.3,0,0.4,0,0.5h4l-0.2,0.7h-3.7c0.2,0.8,0.6,1.4,1.2,1.7c0.5,0.2,1,0.4,1.5,0.4c0.8,0,1.4-0.2,1.8-0.5
					v1.1c-0.5,0.2-1.1,0.3-1.7,0.3c-1.9,0-3.1-0.7-3.8-2c-0.1-0.3-0.2-0.6-0.3-1h-0.9l0.2-0.7h0.6c0-0.1,0-0.3,0-0.5
					c0-0.1,0-0.1,0-0.2h-0.8l0.2-0.7h0.7c0.3-1.1,0.9-2,2-2.4c0.7-0.3,1.4-0.5,2.2-0.5c0.8,0,1.4,0.1,1.9,0.4l-0.2,1
					C142.5,53.6,141.9,53.4,141.3,53.4z"/>
			</g>
		</g>
		<g>
			<circle class="st1" cx="64.8" cy="53.3" r="28"/>
			<g>
				<g>
					<path class="st8" d="M48.5,43.9H63l-7.7,22h-3.6l7-19.5H48.5V43.9z"/>
				</g>
			</g>
			<g>
				<path class="st8" d="M79.1,55.3c0,3.8-0.4,6.5-1.3,8.2C77,65.1,75.6,66,73.6,66c-2,0-3.4-0.8-4.2-2.4c-0.8-1.6-1.2-4.4-1.2-8.4
					c0-4,0.4-6.8,1.2-8.4c0.8-1.6,2.2-2.5,4.2-2.5c1.8,0,3.2,0.7,4.1,2.2C78.6,48,79.1,51,79.1,55.3z M75.8,55.3
					c0-3.2-0.2-5.4-0.5-6.6c-0.3-1.2-0.9-1.8-1.7-1.8c-0.8,0-1.4,0.6-1.7,1.8c-0.3,1.2-0.5,3.4-0.5,6.5c0,3.1,0.2,5.3,0.5,6.5
					c0.3,1.2,0.9,1.8,1.7,1.8c0.8,0,1.4-0.6,1.7-1.8C75.6,60.6,75.8,58.4,75.8,55.3z"/>
			</g>
			<g>
				<path class="st9" d="M61.5,47.5h-3.7v-0.7c0-1.1,0.1-2.1,0.3-2.9c0.2-0.8,0.6-1.5,1-2c0.5-0.5,1.1-0.9,1.8-1.1
					c0.7-0.2,1.6-0.4,2.6-0.4c2.1,0,3.7,0.5,4.6,1.6s1.5,2.7,1.5,5c0,1.9-0.2,3.2-0.7,4c-0.4,0.8-1.3,1.5-2.5,1.9
					c1.3,0.4,2.3,1,2.8,1.9c0.5,0.8,0.8,2.2,0.8,4c0,2.5-0.5,4.4-1.6,5.6c-1.1,1.2-2.8,1.8-5.1,1.8c-4,0-5.9-2-5.9-6V60v-0.2
					c0-0.1,0-0.2,0-0.2H61c0,0.2,0,0.3,0,0.5c0,0.1,0,0.2,0,0.3c0,0.9,0.2,1.5,0.6,2.1c0.4,0.5,1,0.8,1.8,0.8c0.5,0,0.9-0.1,1.2-0.3
					c0.3-0.2,0.6-0.4,0.8-0.8c0.2-0.4,0.4-0.9,0.5-1.5c0.1-0.6,0.1-1.3,0.1-2.2c0-1.5-0.3-2.6-0.8-3.3c-0.5-0.7-1.4-1-2.6-1
					c-0.1,0-0.3,0-0.4,0c-0.2,0-0.3,0-0.6,0.1v-2.9h0.5c1.5,0,2.5-0.3,3.1-0.8c0.5-0.6,0.8-1.6,0.8-3.2c0-2.6-0.8-3.9-2.3-3.9
					c-1.5,0-2.2,1.1-2.2,3.3L61.5,47.5z"/>
			</g>
		</g>
	</g>
</g>
</svg>
