<?xml version="1.0" encoding="utf-8"?>
<!-- Generator: Adobe Illustrator 20.1.0, SVG Export Plug-In . SVG Version: 6.00 Build 0)  -->
<svg version="1.1" id="Livello_1" xmlns="http://www.w3.org/2000/svg" xmlns:xlink="http://www.w3.org/1999/xlink" x="0px" y="0px"
	 viewBox="0 0 370 175" style="enable-background:new 0 0 370 175;" xml:space="preserve">
<style type="text/css">
	.st0{opacity:0.62;fill:#0BB0E3;}
	.st1{opacity:0.55;}
	.st2{fill:none;stroke:#0066CC;stroke-width:0.8349;stroke-miterlimit:10;}
	.st3{fill:none;stroke:#0066CC;stroke-width:0.8349;stroke-miterlimit:10;stroke-dasharray:2.5206,2.5206;}
	.st4{fill:#FFFFFF;stroke:#0066CC;stroke-miterlimit:10;}
	.st5{fill:#0066CC;}
	.st6{fill:#FFFFFF;}
	.st7{font-family:'TitilliumWeb-Black';}
	.st8{font-size:27.75px;}
</style>
<g>
	<rect class="st0" width="370" height="175"/>
	<g class="st1">
		
			<image style="overflow:visible;" width="921" height="515" xlink:href="AAFA5764EE1D3CCD.png"  transform="matrix(0.48 0 0 0.48 -36 -35.8428)">
		</image>
	</g>
	<g>
		<g>
			<line class="st2" x1="272.7" y1="135" x2="271.5" y2="135"/>
			<line class="st3" x1="269" y1="135" x2="88.7" y2="135"/>
			<line class="st2" x1="87.5" y1="135" x2="86.2" y2="135"/>
		</g>
	</g>
	<g>
		<rect x="142.8" y="29.5" class="st4" width="86.2" height="86.2"/>
		<g>
			<path class="st4" d="M170.8,87.3c-0.1-1.4-0.5-1.9-0.5-3c0.1-2,0.4-3.4,1.4-3.1c5.4,1.5,8.2,0.6,8.3-0.5c0.2-1.2,0.2-7.8,0.2-7.8
				s2.5,1,3.1-0.2c0.3-0.6-1.1-3.8-1.9-7.6c-0.5-2.4,0.5-5.6-0.7-8.3c-1.1-0.1-2.7-0.4-3.9-0.5c-3.3-0.1-7.5,1-7.9,4
				c-0.7,5.4-3.8,6-5.2,7.1c0,0-1.3-2.4-3.2-1.6c-2.2,1,0.3,6.9,0.3,6.9l-3,5.4c0,0,0,0,0,0c0.1,0.4-2,10.1-1.6,10.7
				C159.1,92.4,170.9,88.7,170.8,87.3z"/>
			<path class="st5" d="M160.9,72.6c0,0-2.5-5.9-0.3-6.9c1.9-0.8,3.2,1.6,3.2,1.6c1.4-1.1,3.8,0.5,13.1-10.2
				c0.8-0.9,2.7-0.5,3.8-0.4c1.9,0.2,2.6-0.3-1.5-4.2c-6.6-6.1-18-3.8-22.7-0.2c-4.7,3.5-4.3,11.7-3.2,16.2c1.1,4.4,4.5,9.4,4.5,9.6
				c0,0,0,0,0,0L160.9,72.6z"/>
			<path class="st4" d="M205.8,85c4.4-4.1,5.5-14.4,5.5-14.4s2.4,0.5,2.1-3.4c-0.3-3.9-3.4-1.3-3.4-1.3c-0.1,0-0.2-0.1-0.2-0.1
				c-4.2,0.3-9-7-10.6-9.6c-1.8-0.1-4.1,0.3-5.1,2.7c0,0-0.6,1.8-0.4,3.7c0.2,1.1,0.4,2.2,0.4,3.2c0,4.1-1.6,6-1.3,6.5
				c0.3,0.5,2.4,0.8,2.4,0.8s0.7,6.1,0.9,7.2c0.1,1.1,2,1.5,6.8,0c4.2-1.3,0.4,12.2,0.4,12.2h10.1c0,0-1.5-4.7-1.3-9.2
				c-1.9,0.4-3.8,0.7-5.8,1.6C206.1,85,206,85,205.8,85z"/>
			<path class="st5" d="M216.9,51.9c-2.1-2-4.9-2.9-7.7-2.9c-7.4-3.2-15.4,2.4-16.5,6.6c-1.2,4.8,1.1,7.7,1.1,7.7
				c-0.1-0.2-0.1-0.5-0.1-0.7c-0.2-1.8,0.4-3.7,0.4-3.7c1-2.4,3.3-2.8,5.1-2.7c1.6,2.6,6.4,9.9,10.6,9.6c0.1,0,0.2,0.1,0.2,0.1
				c0,0,3.2-2.7,3.4,1.3c0.3,3.9-2.1,3.4-2.1,3.4s-1.1,10.3-5.5,14.4c0.1-0.1,0.2-0.1,0.4-0.2c2-0.9,3.9-1.3,5.8-1.7
				c2.8-0.5,5.6-0.8,8.6-2c0.1-1.5,0.8-5.3,1-6.4C222.4,70.2,224.8,59.7,216.9,51.9z"/>
			<circle class="st5" cx="197.6" cy="63.3" r="0.8"/>
			<circle class="st5" cx="178.7" cy="64.1" r="0.8"/>
		</g>
	</g>
	<g>
		
			<rect x="260.5" y="35.9" transform="matrix(0.9962 8.660823e-02 -8.660823e-02 0.9962 7.9841 -25.9961)" class="st4" width="86.2" height="86.2"/>
		<path class="st5" d="M322.6,65.1c-0.6-0.6-1.5-0.6-2.1,0l-22.4,22.3c-0.6,0.6-1.5,0.6-2.1,0l-9.8-10c-0.3-0.3-0.7-0.4-1.1-0.4
			c-0.4,0-0.8,0.1-1.1,0.4l-4.3,3.9c-0.3,0.3-0.4,0.7-0.4,1.1c0,0.4,0.2,0.8,0.4,1.1l9.9,10.4c0.6,0.6,1.5,1.6,2.1,2.1l4.3,4.3
			c0.6,0.6,1.5,0.6,2.1,0l28.8-28.8c0.6-0.6,0.6-1.6,0-2.1L322.6,65.1z"/>
	</g>
	<g>
		
			<rect x="31.3" y="41.9" transform="matrix(0.9855 -0.1695 0.1695 0.9855 -13.3328 13.848)" class="st4" width="86.2" height="86.2"/>
		<g>
			
				<rect x="45.8" y="87" transform="matrix(0.9782 -0.2076 0.2076 0.9782 -17.0553 13.7596)" class="st5" width="22.5" height="2.2"/>
			
				<rect x="47" y="92.9" transform="matrix(0.9782 -0.2076 0.2076 0.9782 -18.2484 14.1467)" class="st5" width="22.5" height="2.2"/>
			
				<rect x="48.3" y="98.8" transform="matrix(0.9782 -0.2076 0.2076 0.9782 -19.4415 14.5338)" class="st5" width="22.5" height="2.2"/>
		</g>
		<g>
			<path class="st5" d="M102.6,54.1l-5.2-3.3c-0.5-0.3-1.2-0.4-1.7-0.3s-1.1,0.5-1.5,1l-2.7,4.2l9.1,5.8l2.7-4.2
				C104,56.3,103.7,54.8,102.6,54.1z"/>
			<polygon class="st5" points="74.3,82.7 83.4,88.5 99.4,63.4 90.3,57.6 			"/>
			<polygon class="st5" points="73,84.7 73.4,94 82.1,90.4 			"/>
		</g>
	</g>
	<g>
		<g>
			<circle class="st5" cx="87.4" cy="131.3" r="24"/>
			<text transform="matrix(1 0 0 1 78.0996 140.306)" class="st6 st7 st8">1</text>
		</g>
		<g>
			<circle class="st5" cx="184.7" cy="131.3" r="24"/>
			<text transform="matrix(1 0 0 1 177.2643 141.3878)" class="st6 st7 st8">2</text>
		</g>
		<g>
			<circle class="st5" cx="282.1" cy="131.3" r="24"/>
			<text transform="matrix(1 0 0 1 275.5709 141.558)" class="st6 st7 st8">3</text>
		</g>
	</g>
</g>
</svg>
