<?xml version="1.0" encoding="utf-8"?>
<!-- Generator: Adobe Illustrator 19.0.0, SVG Export Plug-In . SVG Version: 6.00 Build 0)  -->
<svg version="1.1" id="Livello_1" xmlns="http://www.w3.org/2000/svg" xmlns:xlink="http://www.w3.org/1999/xlink" x="0px" y="0px"
	 viewBox="-314 192.7 213 210.6" style="enable-background:new -314 192.7 213 210.6;" xml:space="preserve">
<style type="text/css">
	.st0{fill:#FFFFFF;}
	.st1{fill:none;stroke:#0066CC;stroke-miterlimit:10;}
	.st2{fill:#0066CC;}
	.st3{enable-background:new    ;}
</style>
<path id="XMLID_106_" class="st0" d="M-165.5,280.4c-0.8,0-1.4,0.2-1.8,0.7c-0.4,0.5-0.6,1.2-0.6,2.2h4.6c0-1.1-0.2-1.8-0.5-2.3
	C-164.1,280.6-164.6,280.4-165.5,280.4z"/>
<path id="XMLID_105_" class="st0" d="M-199.7,286.4c0,1,0.4,1.5,1.3,1.5c0.7,0,1.5-0.1,2.3-0.4l0.4-0.1v-2.9l-2.5,0.2
	C-199.2,284.9-199.7,285.4-199.7,286.4z"/>
<path id="XMLID_104_" class="st1" d="M-140.4,269.1H-280c-1.8,0-3.3,1.4-3.3,3v24c0,1.7,1.5,3,3.3,3h139.6c1.8,0,3.3-1.4,3.3-3l0,0
	v-24C-137.1,270.5-138.6,269.1-140.4,269.1z"/>
<path id="XMLID_103_" class="st0" d="M-251.1,289.6h-2.4v-0.7c-1.1,0.6-2.1,0.9-3,0.9c-1.5,0-2.5-0.4-3-1.2
	c-0.5-0.8-0.8-2.2-0.8-4.3v-5.7h2.4v5.7c0,1.3,0.1,2.2,0.3,2.7c0.2,0.5,0.7,0.7,1.5,0.7c0.8,0,1.5-0.1,2.2-0.4l0.3-0.1v-8.5h2.4
	L-251.1,289.6L-251.1,289.6z"/>
<path id="XMLID_102_" class="st0" d="M-240.2,289.1c-0.7,0.5-1.8,0.8-3.2,0.8c-0.9,0-2-0.1-3.4-0.4l-0.7-0.1l0.1-2
	c1.8,0.2,3,0.4,3.8,0.4s1.3-0.1,1.7-0.3c0.3-0.2,0.5-0.5,0.5-0.9c0-0.4-0.2-0.7-0.5-0.9c-0.3-0.2-1.1-0.4-2.3-0.5
	c-1.2-0.2-2.1-0.5-2.6-0.9c-0.6-0.4-0.8-1.2-0.8-2.3s0.4-2,1.2-2.5c0.8-0.6,1.8-0.8,2.9-0.8c0.9,0,2.1,0.1,3.4,0.4l0.7,0.1v2
	c-1.7-0.2-3-0.4-3.8-0.4c-0.8,0-1.3,0.1-1.6,0.3s-0.4,0.5-0.4,0.9c0,0.4,0.2,0.7,0.5,0.8c0.3,0.2,1.1,0.3,2.3,0.6
	c1.2,0.2,2.1,0.5,2.6,1s0.8,1.3,0.8,2.4C-239.1,287.7-239.5,288.5-240.2,289.1z"/>
<path id="XMLID_101_" class="st0" d="M-227,285.2h-6.8c0,0.9,0.2,1.6,0.6,2c0.4,0.4,1.1,0.6,2.1,0.6s2.1,0,3.2-0.1l0.6-0.1v1.8
	c-1.7,0.3-3.1,0.5-4.4,0.5c-1.6,0-2.8-0.4-3.5-1.3c-0.7-0.9-1.1-2.3-1.1-4.3c0-3.9,1.6-5.8,4.8-5.8c3.1,0,4.6,1.7,4.6,5L-227,285.2z
	"/>
<path id="XMLID_100_" class="st0" d="M-217.4,280.8c-1.3,0.2-2.3,0.6-3.2,1l-0.5,0.2v7.7h-2.4v-11h2.4v1.3c1.2-0.8,2.5-1.3,3.7-1.6
	V280.8z"/>
<path id="XMLID_99_" class="st0" d="M-205.3,289.6h-2.4v-5.8c0-1.2-0.1-2-0.4-2.5s-0.8-0.7-1.6-0.7c-0.7,0-1.5,0.1-2.1,0.4l-0.3,0.1
	v8.5h-2.4v-11h2.4v0.7c1.1-0.6,2.1-0.9,3-0.9c1.5,0,2.5,0.4,3,1.2c0.5,0.8,0.8,2.2,0.8,4.1V289.6z"/>
<path id="XMLID_98_" class="st0" d="M-192.4,289.9c-1.3,0-2.2-0.3-2.9-0.8c-1.2,0.5-2.3,0.8-3.5,0.8c-2.2,0-3.3-1.2-3.3-3.5
	c0-1.1,0.3-1.9,0.9-2.4c0.6-0.5,1.5-0.8,2.7-0.9l2.8-0.2v-0.8c0-0.6-0.1-1-0.4-1.2c-0.3-0.2-0.6-0.4-1.1-0.4c-0.9,0-2.1,0.1-3.5,0.2
	h-0.7l-0.1-1.7c1.6-0.4,3.1-0.6,4.4-0.6c1.3,0,2.3,0.3,2.9,0.9s0.9,1.5,0.9,2.8v5c0,0.3,0.1,0.6,0.3,0.7c0.2,0.2,0.4,0.3,0.7,0.3
	L-192.4,289.9z"/>
<path id="XMLID_97_" class="st0" d="M-173.6,289.6h-2.4v-5.8c0-1.2-0.1-2-0.4-2.5c-0.2-0.5-0.7-0.7-1.5-0.7c-0.7,0-1.4,0.1-2.1,0.4
	l-0.4,0.2c0.1,0.3,0.2,1.2,0.2,2.8v5.7h-2.4v-5.6c0-1.3-0.1-2.2-0.4-2.7c-0.2-0.5-0.7-0.7-1.5-0.7c-0.7,0-1.4,0.1-2,0.4l-0.3,0.1
	v8.5h-2.4v-11h2.4v0.7c1-0.6,2-0.9,2.9-0.9c1.3,0,2.2,0.4,2.8,1.1c1.3-0.7,2.7-1.1,4-1.1s2.2,0.4,2.8,1.2c0.5,0.8,0.8,2.2,0.8,4.1
	v5.8C-173.5,289.6-173.6,289.6-173.6,289.6z"/>
<path id="XMLID_95_" class="st0" d="M-161,285.2h-6.8c0,0.9,0.2,1.6,0.6,2c0.4,0.4,1.1,0.6,2.1,0.6s2.1,0,3.2-0.1l0.6-0.1v1.8
	c-1.7,0.3-3.1,0.5-4.4,0.5c-1.6,0-2.8-0.4-3.5-1.3c-0.7-0.9-1.1-2.3-1.1-4.3c0-3.9,1.6-5.8,4.8-5.8c3.1,0,4.6,1.7,4.6,5L-161,285.2z
	"/>
<path id="XMLID_94_" class="st0" d="M-231.5,280.4c-0.8,0-1.4,0.2-1.8,0.7s-0.6,1.2-0.6,2.2h4.6c0-1.1-0.2-1.8-0.5-2.3
	C-230.1,280.6-230.7,280.4-231.5,280.4z"/>
<path id="XMLID_128_" class="st2" d="M-140.4,307.1H-280c-1.8,0-3.3,1.4-3.3,3v24c0,1.7,1.5,3,3.3,3h139.6c1.8,0,3.3-1.4,3.3-3l0,0
	v-24C-137.1,308.4-138.6,307.1-140.4,307.1z M-265.3,326.9c-2.6,0-4.8-2.2-4.8-4.8s2.1-4.8,4.8-4.8c2.7,0,4.8,2.2,4.8,4.8
	S-262.6,326.9-265.3,326.9z M-246.9,326.9c-2.7,0-4.8-2.2-4.8-4.8s2.1-4.8,4.8-4.8c2.6,0,4.8,2.2,4.8,4.8S-244.3,326.9-246.9,326.9z
	 M-228.6,326.9c-2.6,0-4.8-2.2-4.8-4.8s2.1-4.8,4.8-4.8c2.7,0,4.8,2.2,4.8,4.8C-223.8,324.7-225.9,326.9-228.6,326.9z M-210.2,326.9
	c-2.7,0-4.8-2.2-4.8-4.8s2.1-4.8,4.8-4.8s4.8,2.2,4.8,4.8S-207.6,326.9-210.2,326.9z M-191.9,326.9c-2.6,0-4.8-2.2-4.8-4.8
	s2.1-4.8,4.8-4.8c2.7,0,4.8,2.2,4.8,4.8S-189.2,326.9-191.9,326.9z M-173.5,326.9c-2.7,0-4.8-2.2-4.8-4.8s2.1-4.8,4.8-4.8
	c2.6,0,4.8,2.2,4.8,4.8S-170.9,326.9-173.5,326.9z M-155.2,326.9c-2.7,0-4.8-2.2-4.8-4.8s2.1-4.8,4.8-4.8s4.8,2.2,4.8,4.8
	S-152.5,326.9-155.2,326.9z"/>
<g id="XMLID_111_">
	<path id="XMLID_112_" class="st2" d="M-262.5,291.3v-12.6h3.6l3.8,10.8h0.3v-10.8h2v12.6h-3.5l-3.9-10.8h-0.3v10.8H-262.5z"/>
	<path id="XMLID_114_" class="st2" d="M-249.8,283.1c0.6-0.8,1.7-1.2,3.1-1.2c1.5,0,2.5,0.4,3.1,1.2c0.6,0.8,0.9,2,0.9,3.6
		s-0.3,2.8-0.9,3.6s-1.7,1.2-3.2,1.2s-2.6-0.4-3.2-1.2c-0.6-0.8-0.9-2-0.9-3.6C-250.7,285.1-250.4,283.9-249.8,283.1z M-248.3,289
		c0.3,0.5,0.8,0.7,1.6,0.7c0.8,0,1.4-0.2,1.6-0.7c0.3-0.5,0.4-1.3,0.4-2.4c0-1.1-0.1-1.9-0.4-2.4s-0.8-0.7-1.6-0.7
		c-0.8,0-1.3,0.2-1.6,0.7s-0.4,1.3-0.4,2.4C-248.7,287.7-248.5,288.6-248.3,289z"/>
	<path id="XMLID_118_" class="st2" d="M-238.6,291.3h-2v-9.2h2v0.6c0.9-0.5,1.7-0.8,2.4-0.8c1.1,0,1.8,0.3,2.3,0.9
		c1.1-0.6,2.2-0.9,3.3-0.9s1.9,0.3,2.3,1c0.5,0.7,0.7,1.8,0.7,3.4v4.9h-2v-4.9c0-1-0.1-1.7-0.3-2.1s-0.6-0.6-1.3-0.6
		c-0.5,0-1.1,0.1-1.8,0.4l-0.3,0.1c0.1,0.2,0.1,1,0.1,2.3v4.7h-2v-4.7c0-1.1-0.1-1.8-0.3-2.3c-0.2-0.4-0.6-0.6-1.3-0.6
		c-0.6,0-1.2,0.1-1.7,0.4l-0.3,0.1v7.3C-238.8,291.3-238.6,291.3-238.6,291.3z"/>
	<path id="XMLID_120_" class="st2" d="M-218.7,289.6l0.5-0.1v1.5c-1.4,0.3-2.6,0.4-3.7,0.4c-1.4,0-2.3-0.4-2.9-1.1
		c-0.6-0.7-0.9-1.9-0.9-3.6c0-3.2,1.3-4.9,4-4.9c2.6,0,3.8,1.4,3.8,4.2l-0.1,1.4h-5.7c0,0.8,0.2,1.3,0.5,1.7s0.9,0.5,1.8,0.5
		S-219.6,289.7-218.7,289.6z M-219.8,286c0-0.9-0.1-1.5-0.4-1.9c-0.3-0.4-0.8-0.5-1.5-0.5c-0.7,0-1.2,0.2-1.5,0.6
		c-0.3,0.4-0.5,1-0.5,1.9L-219.8,286L-219.8,286z"/>
	<path id="XMLID_123_" class="st2" d="M-206.3,282.1h2v9.2h-2v-0.6c-0.9,0.5-1.7,0.8-2.5,0.8c-1.3,0-2.1-0.3-2.5-1
		c-0.4-0.7-0.6-1.9-0.6-3.6v-4.8h2v4.8c0,1.1,0.1,1.8,0.3,2.2c0.2,0.4,0.6,0.6,1.3,0.6c0.7,0,1.3-0.1,1.8-0.4l0.3-0.1v-7.1H-206.3z"
		/>
	<path id="XMLID_125_" class="st2" d="M-197,283.8h-2.5v4c0,0.7,0.1,1.2,0.2,1.5c0.1,0.2,0.4,0.4,0.8,0.4l1.5-0.1l0.1,1.6
		c-0.8,0.2-1.4,0.2-1.9,0.2c-1,0-1.8-0.2-2.1-0.7c-0.3-0.5-0.6-1.4-0.6-2.7v-4.3h-1.2v-1.6h1.2v-2.7h2v2.7h2.5V283.8z"/>
	<path id="XMLID_127_" class="st2" d="M-188.8,289.6l0.5-0.1v1.5c-1.4,0.3-2.6,0.4-3.7,0.4c-1.4,0-2.3-0.4-2.9-1.1
		c-0.6-0.7-0.9-1.9-0.9-3.6c0-3.2,1.3-4.9,4-4.9c2.6,0,3.8,1.4,3.8,4.2l-0.1,1.4h-5.7c0,0.8,0.2,1.3,0.5,1.7
		c0.3,0.4,0.9,0.5,1.8,0.5C-190.6,289.6-189.7,289.7-188.8,289.6z M-189.9,286c0-0.9-0.1-1.5-0.4-1.9c-0.3-0.4-0.8-0.5-1.5-0.5
		s-1.2,0.2-1.5,0.6s-0.5,1-0.5,1.9L-189.9,286L-189.9,286z"/>
	<path id="XMLID_131_" class="st2" d="M-184,291.3h-2v-9.2h2v0.6c0.9-0.5,1.7-0.8,2.5-0.8c1.2,0,2.1,0.3,2.5,1
		c0.4,0.7,0.7,1.8,0.7,3.4v4.9h-2v-4.9c0-1-0.1-1.7-0.3-2.1s-0.7-0.6-1.3-0.6s-1.2,0.1-1.8,0.4l-0.3,0.1L-184,291.3L-184,291.3z"/>
	<path id="XMLID_133_" class="st2" d="M-171.1,283.8h-2.5v4c0,0.7,0.1,1.2,0.2,1.5c0.1,0.2,0.4,0.4,0.8,0.4l1.5-0.1l0.1,1.6
		c-0.8,0.2-1.4,0.2-1.9,0.2c-1,0-1.8-0.2-2.1-0.7s-0.6-1.4-0.6-2.7v-4.3h-1.2v-1.6h1.2v-2.7h2v2.7h2.5V283.8z"/>
	<path id="XMLID_135_" class="st2" d="M-162.9,289.6l0.5-0.1v1.5c-1.4,0.3-2.6,0.4-3.7,0.4c-1.4,0-2.3-0.4-2.9-1.1
		c-0.6-0.7-0.9-1.9-0.9-3.6c0-3.2,1.3-4.9,4-4.9c2.6,0,3.8,1.4,3.8,4.2l-0.1,1.4h-5.7c0,0.8,0.2,1.3,0.5,1.7
		c0.3,0.4,0.9,0.5,1.8,0.5S-163.9,289.7-162.9,289.6z M-164,286c0-0.9-0.1-1.5-0.4-1.9c-0.3-0.4-0.8-0.5-1.5-0.5s-1.2,0.2-1.5,0.6
		s-0.5,1-0.5,1.9L-164,286L-164,286z"/>
</g>
<path id="XMLID_117_" class="st2" d="M-131,214.8h-50.6c-2.2-12.6-13.2-22.1-26.3-22.1c-13.2,0-24.1,9.6-26.3,22.1H-284
	c-16.6,0-30,13.5-30,30v128.5c0,16.6,13.5,30,30,30h153.1c16.6,0,30-13.5,30-30V244.8C-100.9,228.3-114.4,214.8-131,214.8z
	 M-109.3,373.3c0,11.9-9.7,21.6-21.6,21.6H-284c-11.9,0-21.6-9.7-21.6-21.6V244.8c0-11.9,9.7-21.6,21.6-21.6h49.7
	c1.8,13,13,23.1,26.5,23.1s24.7-10.1,26.5-23.1h50.4c11.9,0,21.6,9.7,21.6,21.6L-109.3,373.3L-109.3,373.3z"/>
<g class="st3">
	<path class="st0" d="M-208.7,207.6h2.5v23.1h-2.7v-20.1l-6,3.9l-1.2-2L-208.7,207.6z"/>
</g>
</svg>
