<?xml version="1.0" encoding="utf-8"?>
<!-- Generator: Adobe Illustrator 19.0.0, SVG Export Plug-In . SVG Version: 6.00 Build 0)  -->
<svg version="1.1" id="Livello_1" xmlns="http://www.w3.org/2000/svg" xmlns:xlink="http://www.w3.org/1999/xlink" x="0px" y="0px"
	 viewBox="-313 192.7 213.1 210.6" style="enable-background:new -313 192.7 213.1 210.6;" xml:space="preserve">
<style type="text/css">
	.st0{fill:#0066CC;}
	.st1{fill:none;stroke:#0066CC;stroke-miterlimit:10;}
	.st2{enable-background:new    ;}
	.st3{fill:#FFFFFF;}
</style>
<path id="XMLID_117_" class="st0" d="M-130,214.8h-50.6c-2.2-12.6-13.2-22.1-26.3-22.1c-13.2,0-24.1,9.6-26.3,22.1H-283
	c-16.6,0-30,13.5-30,30v128.5c0,16.6,13.5,30,30,30h153.1c16.6,0,30-13.5,30-30V244.8C-99.9,228.3-113.4,214.8-130,214.8z
	 M-108.3,373.3c0,11.9-9.7,21.6-21.6,21.6H-283c-11.9,0-21.6-9.7-21.6-21.6V244.8c0-11.9,9.7-21.6,21.6-21.6h49.7
	c1.8,13,13,23.1,26.5,23.1s24.7-10.1,26.5-23.1h50.4c11.9,0,21.6,9.7,21.6,21.6L-108.3,373.3L-108.3,373.3z"/>
<path id="XMLID_68_" class="st1" d="M-133.8,259.8h-143.4c-1.9,0-3.4,1.4-3.4,3.1v24.6c0,1.7,1.5,3.1,3.4,3.1h143.4
	c1.9,0,3.4-1.4,3.4-3.1l0,0v-24.6C-130.4,261.2-131.9,259.8-133.8,259.8z"/>
<path id="XMLID_96_" class="st0" d="M-135.2,298.5h-143.4c-1.9,0-3.4,1.4-3.4,3.1v24.6c0,1.7,1.5,3.1,3.4,3.1h143.4
	c1.9,0,3.4-1.4,3.4-3.1l0,0v-24.6C-131.8,299.9-133.3,298.5-135.2,298.5z M-263.4,318.9c-2.7,0-4.9-2.2-4.9-4.9
	c0-2.7,2.2-4.9,4.9-4.9c2.7,0,4.9,2.2,4.9,4.9C-258.5,316.6-260.7,318.9-263.4,318.9z M-244.6,318.9c-2.7,0-4.9-2.2-4.9-4.9
	c0-2.7,2.2-4.9,4.9-4.9s4.9,2.2,4.9,4.9C-239.7,316.6-241.9,318.9-244.6,318.9z M-225.7,318.9c-2.7,0-4.9-2.2-4.9-4.9
	c0-2.7,2.2-4.9,4.9-4.9s4.9,2.2,4.9,4.9C-220.8,316.6-223,318.9-225.7,318.9z M-206.9,318.9c-2.7,0-4.9-2.2-4.9-4.9
	c0-2.7,2.2-4.9,4.9-4.9s4.9,2.2,4.9,4.9C-201.9,316.6-204.2,318.9-206.9,318.9z M-188,318.9c-2.7,0-4.9-2.2-4.9-4.9
	c0-2.7,2.2-4.9,4.9-4.9s4.9,2.2,4.9,4.9C-183.1,316.6-185.3,318.9-188,318.9z M-169.2,318.9c-2.7,0-4.9-2.2-4.9-4.9
	c0-2.7,2.2-4.9,4.9-4.9s4.9,2.2,4.9,4.9C-164.2,316.6-166.4,318.9-169.2,318.9z M-150.3,318.9c-2.7,0-4.9-2.2-4.9-4.9
	c0-2.7,2.2-4.9,4.9-4.9s4.9,2.2,4.9,4.9C-145.4,316.6-147.6,318.9-150.3,318.9z"/>
<path id="XMLID_89_" class="st1" d="M-133.8,337.5h-143.4c-1.9,0-3.4,1.4-3.4,3.1v24.6c0,1.7,1.5,3.1,3.4,3.1h143.4
	c1.9,0,3.4-1.4,3.4-3.1l0,0v-24.6C-130.4,338.9-131.9,337.5-133.8,337.5z"/>
<g id="XMLID_1_">
	<path id="XMLID_2_" class="st0" d="M-257.2,281.5v-12.9h3.7l3.9,11.1h0.3v-11.1h2.1v12.9h-3.6l-4-11.1h-0.3v11.1H-257.2z"/>
	<path id="XMLID_4_" class="st0" d="M-244,273.1c0.6-0.8,1.7-1.2,3.2-1.2s2.6,0.4,3.2,1.2c0.6,0.8,1,2,1,3.7c0,1.6-0.3,2.9-0.9,3.7
		c-0.6,0.8-1.7,1.2-3.3,1.2c-1.5,0-2.6-0.4-3.3-1.2c-0.6-0.8-0.9-2.1-0.9-3.7S-244.8,274-244,273.1z M-242.5,279.3
		c0.3,0.5,0.9,0.8,1.7,0.8s1.4-0.3,1.7-0.8s0.4-1.3,0.4-2.5c0-1.1-0.2-2-0.5-2.4s-1-0.7-1.7-0.7c-0.8,0-1.4,0.2-1.7,0.7
		s-0.5,1.3-0.5,2.4C-242.9,277.9-242.8,278.8-242.5,279.3z"/>
	<path id="XMLID_7_" class="st0" d="M-232.5,281.5h-2.1v-9.4h2v0.6c0.9-0.5,1.7-0.8,2.4-0.8c1.1,0,1.9,0.3,2.4,0.9
		c1.1-0.6,2.3-0.9,3.4-0.9s1.9,0.3,2.4,1s0.7,1.9,0.7,3.5v5h-2v-5c0-1-0.1-1.7-0.3-2.2c-0.2-0.4-0.6-0.6-1.3-0.6
		c-0.6,0-1.2,0.1-1.8,0.4l-0.3,0.1c0.1,0.3,0.2,1.1,0.2,2.4v4.9h-2v-4.8c0-1.1-0.1-1.9-0.3-2.3s-0.6-0.6-1.3-0.6
		c-0.6,0-1.2,0.1-1.8,0.4l-0.3,0.1L-232.5,281.5L-232.5,281.5z"/>
	<path id="XMLID_9_" class="st0" d="M-212.2,279.8l0.5-0.1v1.5c-1.4,0.3-2.7,0.4-3.8,0.4c-1.4,0-2.4-0.4-3-1.1
		c-0.6-0.8-0.9-2-0.9-3.7c0-3.3,1.4-5,4.1-5c2.6,0,4,1.4,4,4.3l-0.1,1.5h-5.8c0,0.8,0.2,1.3,0.5,1.7c0.3,0.4,0.9,0.5,1.8,0.5
		C-213.9,280-213,279.9-212.2,279.8z M-213.2,276.1c0-0.9-0.1-1.6-0.4-1.9c-0.3-0.3-0.8-0.6-1.5-0.6s-1.2,0.2-1.5,0.6
		s-0.5,1-0.5,1.9H-213.2z"/>
	<path id="XMLID_12_" class="st0" d="M-199.5,272.1h2v9.4h-2v-0.6c-0.9,0.5-1.8,0.8-2.5,0.8c-1.3,0-2.2-0.3-2.6-1
		c-0.4-0.7-0.7-1.9-0.7-3.7v-4.9h2.1v4.9c0,1.1,0.1,1.9,0.3,2.3s0.6,0.6,1.3,0.6s1.3-0.1,1.9-0.4l0.3-0.1v-7.3
		C-199.4,272.1-199.5,272.1-199.5,272.1z"/>
	<path id="XMLID_14_" class="st0" d="M-189.8,273.9h-2.6v4.1c0,0.8,0.1,1.3,0.2,1.5c0.1,0.3,0.4,0.4,0.9,0.4l1.5-0.1l0.1,1.6
		c-0.8,0.2-1.5,0.2-1.9,0.2c-1.1,0-1.8-0.2-2.2-0.7s-0.6-1.4-0.6-2.8v-4.4h-1.2v-1.8h1.2v-2.7h2v2.7h2.6V273.9z"/>
	<path id="XMLID_16_" class="st0" d="M-181.5,279.8l0.5-0.1v1.5c-1.4,0.3-2.7,0.4-3.8,0.4c-1.4,0-2.4-0.4-3-1.1
		c-0.6-0.8-0.9-2-0.9-3.7c0-3.3,1.4-5,4.1-5c2.6,0,4,1.4,4,4.3l-0.1,1.5h-5.8c0,0.8,0.2,1.3,0.5,1.7s0.9,0.5,1.8,0.5
		C-183.4,280-182.5,279.9-181.5,279.8z M-182.5,276.1c0-0.9-0.1-1.6-0.4-1.9c-0.3-0.3-0.8-0.6-1.5-0.6s-1.2,0.2-1.5,0.6
		s-0.5,1-0.5,1.9H-182.5z"/>
	<path id="XMLID_19_" class="st0" d="M-176.5,281.5h-2.1v-9.4h2v0.6c0.9-0.5,1.8-0.8,2.6-0.8c1.3,0,2.1,0.4,2.6,1.1s0.7,1.9,0.7,3.5
		v5h-2v-5c0-1-0.1-1.7-0.3-2.2c-0.2-0.4-0.7-0.6-1.3-0.6s-1.3,0.1-1.8,0.4l-0.3,0.1L-176.5,281.5L-176.5,281.5z"/>
	<path id="XMLID_21_" class="st0" d="M-163.2,273.9h-2.6v4.1c0,0.8,0.1,1.3,0.2,1.5c0.1,0.3,0.4,0.4,0.9,0.4l1.5-0.1l0.1,1.6
		c-0.8,0.2-1.5,0.2-1.9,0.2c-1.1,0-1.8-0.2-2.2-0.7s-0.6-1.4-0.6-2.8v-4.4h-1.2v-1.8h1.2v-2.7h2v2.7h2.6V273.9z"/>
	<path id="XMLID_23_" class="st0" d="M-154.9,279.8l0.5-0.1v1.5c-1.4,0.3-2.7,0.4-3.8,0.4c-1.4,0-2.4-0.4-3-1.1
		c-0.6-0.8-0.9-2-0.9-3.7c0-3.3,1.4-5,4.1-5c2.6,0,4,1.4,4,4.3l-0.1,1.5h-5.8c0,0.8,0.2,1.3,0.5,1.7s0.9,0.5,1.8,0.5
		C-156.8,280-155.9,279.9-154.9,279.8z M-156,276.1c0-0.9-0.1-1.6-0.4-1.9c-0.3-0.3-0.8-0.6-1.5-0.6s-1.2,0.2-1.5,0.6
		s-0.5,1-0.5,1.9H-156z"/>
</g>
<g class="st2">
	<path class="st0" d="M-218.5,353.1c0-3.6,0.9-5.7,4.3-5.7s4.3,2,4.3,5.7c0,3.8-0.9,5.6-4.3,5.6S-218.5,356.8-218.5,353.1z
		 M-211.2,353.1c0-3-0.6-4.6-3.1-4.6c-2.5,0-3.1,1.6-3.1,4.6c0,3,0.5,4.5,3.1,4.5C-211.7,357.6-211.2,356.2-211.2,353.1z"/>
	<path class="st0" d="M-209.1,347.6h7.9v1.1h-3.3v9.8h-1.2v-9.8h-3.4V347.6z"/>
	<path class="st0" d="M-198.5,354.8v3.7h-1.2v-10.9h4c2.4,0,3.5,1.2,3.5,3.5c0,2.4-1.1,3.7-3.5,3.7H-198.5z M-195.7,353.8
		c1.6,0,2.3-1,2.3-2.7c0-1.7-0.7-2.4-2.3-2.4h-2.8v5.1H-195.7z"/>
</g>
<g class="st2">
	<path class="st3" d="M-214.7,231.1v-2.3l6.8-7.1c2.9-3,4.7-4.9,4.7-7.6c0-3.1-1.7-4.1-5-4.1c-2.6,0-6,0.8-6,0.8l-0.2-2.2
		c0,0,3.3-0.9,6.7-0.9c4.9,0,7.3,1.9,7.3,6.2c0,3.5-1.6,5.5-4.8,8.6l-6.2,6.3h11.6v2.3H-214.7z"/>
</g>
</svg>
