<?xml version="1.0" encoding="utf-8"?>
<!-- Generator: Adobe Illustrator 21.0.0, SVG Export Plug-In . SVG Version: 6.00 Build 0)  -->
<svg version="1.1" id="Livello_1" xmlns="http://www.w3.org/2000/svg" xmlns:xlink="http://www.w3.org/1999/xlink" x="0px" y="0px"
	 viewBox="0 0 493.7 284.2" style="enable-background:new 0 0 493.7 284.2;" xml:space="preserve">
<style type="text/css">
	.st0{fill:#FFFFFA;}
	.st1{fill:#00468C;}
	.st2{fill:#EBECED;}
	.st3{fill:none;}
	.st4{fill:#92C9F7;}
	.st5{fill:#0066CC;}
	.st6{fill:#FFFFFF;}
	.st7{enable-background:new    ;}
	.st8{fill:#01263F;}
	.st9{fill:#2792C1;}
	.st10{fill:#2C9EC6;}
	.st11{fill:#EEEEEE;}
	.st12{fill:#E3E3E3;}
	.st13{opacity:0.5;enable-background:new    ;}
</style>
<g id="Group_42" transform="translate(-13 123)">
	<g id="Group_29" transform="translate(863 1456.521)">
		<g id="Group_24">
			<g id="Path_101">
				<path class="st0" d="M-597.7-1506c0,1.3-1.1,2.4-2.4,2.4l0,0c-1.3,0-2.4-1.1-2.4-2.4v-15c0-1.3,1.1-2.4,2.4-2.4l0,0
					c1.3,0,2.4,1.1,2.4,2.4V-1506z"/>
			</g>
			<g id="Path_102">
				<path class="st0" d="M-597.7-1479c0,1.3-1.1,2.4-2.4,2.4l0,0c-1.3,0-2.4-1.1-2.4-2.4v-15c0-1.3,1.1-2.4,2.4-2.4l0,0
					c1.3,0,2.4,1.1,2.4,2.4V-1479z"/>
			</g>
			<g id="Group_23">
				<g id="Rectangle_16">
					<rect x="-691.6" y="-1347.3" class="st1" width="48.1" height="21.2"/>
				</g>
				<g id="Group_22">
					<g id="Ellipse_7">
						<ellipse class="st2" cx="-662.7" cy="-1540" rx="40.4" ry="7.7"/>
					</g>
					<g id="Group_21">
						<g id="Rectangle_17">
							<rect x="-722.4" y="-1528.2" class="st3" width="57.7" height="177.3"/>
						</g>
						<g id="Path_103">
							<path class="st3" d="M-697.4-1540.6c0,2.1,1.7,3.8,3.8,3.8h29.1v-7.5h-29.3C-695.9-1544.3-697.4-1542.6-697.4-1540.6z"/>
						</g>
						<g id="Path_104">
							<path class="st3" d="M-638.6-1537c2.1,0,3.8-1.7,3.8-3.8c0-2-1.7-3.6-3.7-3.6c0,0-0.1,0-0.1,0h-26.1v7.3H-638.6z"/>
						</g>
						<g id="Path_105">
							<path class="st3" d="M-657-1336.8c0-4.4-3.2-8.2-7.5-9v18C-660.2-1328.6-657.1-1332.4-657-1336.8z"/>
						</g>
						<g id="Rectangle_18">
							<rect x="-664.7" y="-1528.2" class="st3" width="54.7" height="177.3"/>
						</g>
						<g id="Path_106">
							<path class="st3" d="M-675.4-1336.8c0,5.1,4.1,9.2,9.2,9.2c0.5,0,1,0,1.5-0.2v-18c-0.6,0-0.9-0.2-1.5-0.2
								C-671.3-1345.8-675.3-1341.8-675.4-1336.8z"/>
						</g>
						<g id="Ellipse_8">
							<circle class="st3" cx="-682.2" cy="-1336.8" r="3.6"/>
						</g>
						<g id="Ellipse_9">
							<circle class="st3" cx="-650.3" cy="-1336.8" r="3.6"/>
						</g>
						<g id="Path_107">
							<path class="st1" d="M-666.2-1327.6c-5.1,0-9.2-4.1-9.2-9.2c0-5.1,4.1-9.2,9.2-9.2c0.5,0,1,0,1.5,0.2v-5.3l-27.4-23.9
								l-20.9-147.3l48.3-6v-8.8h-29.1c-2.1,0-3.8-1.7-3.8-3.8c0-2,1.7-3.6,3.7-3.6c0,0,0.1,0,0.1,0h29.1v-8.6h-53
								c-8.6,0-15.6,6.9-15.6,15.5c0,0,0,0.1,0,0.1v199.7c0,8.6,6.9,15.6,15.5,15.6c0,0,0.1,0,0.1,0h53v-5.6
								C-665.2-1327.6-665.7-1327.5-666.2-1327.6z M-682.2-1333c-2,0-3.6-1.6-3.6-3.6s1.6-3.6,3.6-3.6c2,0,3.6,1.6,3.6,3.6
								c0.1,1.9-1.4,3.5-3.3,3.6C-682-1333-682.1-1333-682.2-1333z"/>
						</g>
						<g id="Path_108">
							<path class="st1" d="M-614.8-1553h-50v8.6h26.1c2,0,3.7,1.6,3.8,3.6c0,2.1-1.7,3.8-3.8,3.8h-26.1v8.6l49,6.2l-5.6,165.3
								l-43.4,5.8v5.3c4.4,0.8,7.5,4.6,7.5,9c0,4.4-3.2,8.2-7.5,9v5.6h50c8.6,0,15.6-6.9,15.6-15.5c0,0,0-0.1,0-0.1v-199.7
								C-599.1-1546-606.1-1553-614.8-1553C-614.7-1553-614.7-1553-614.8-1553z M-650.3-1333c-2,0-3.6-1.6-3.6-3.6s1.6-3.6,3.6-3.6
								s3.6,1.6,3.6,3.6C-646.8-1334.6-648.3-1333.1-650.3-1333z"/>
						</g>
					</g>
				</g>
				<g id="Rectangle_19">
					<rect x="-655.1" y="-1343.2" class="st1" width="11.6" height="11.6"/>
				</g>
				<g id="Rectangle_20">
					<rect x="-689" y="-1342.6" class="st1" width="11.6" height="11.6"/>
				</g>
			</g>
		</g>
		<g id="Path_109">
			<path class="st4" d="M-610.1-1522.4c0-3.6-1.5-6.6-3.4-6.6h-105.4c-1.9,0-3.4,3-3.4,6.6v171.3h112.2V-1522.4z"/>
		</g>
		<g id="Group_26" transform="translate(16.873 141.411)">
			<g id="Rectangle_21">
				<rect x="-733.3" y="-1553" class="st5" width="101.8" height="23.9"/>
			</g>
			<g id="Ellipse_11">
				<circle class="st6" cx="-719.8" cy="-1540.9" r="9.5"/>
			</g>
			<g id="Group_25" transform="translate(9.938 6.161)">
				<g id="XMLID_6_">
					<path class="st5" d="M-729.9-1546.2c-1.9,0-3.4-1.5-3.4-3.4s1.5-3.4,3.4-3.4c1.9,0,3.4,1.5,3.4,3.4c0,0.9-0.4,1.8-1,2.4
						C-728.2-1546.6-729-1546.3-729.9-1546.2"/>
				</g>
				<g id="XMLID_5_">
					<path class="st5" d="M-733.3-1541.7c0-1.9,1.5-3.4,3.4-3.4c1.9,0,3.4,1.5,3.4,3.4"/>
				</g>
			</g>
			<g id="Line_4">
				<rect x="-706.1" y="-1553" class="st6" width="0.1" height="23.9"/>
			</g>
			<g class="st7">
				<path class="st6" d="M-699.9-1539v-6.1h4v1.1h-2.7v1.4h2.2v1.1h-2.2v1.5h2.7v1.1H-699.9z"/>
				<path class="st6" d="M-693.8-1539h-1.2v-4.5h1.2v0.3c0.4-0.2,0.8-0.4,1.1-0.4c0.6,0,1,0.2,1.2,0.5c0.2,0.4,0.3,0.9,0.3,1.6v2.4
					h-1.2v-2.4c0-0.4,0-0.7-0.1-0.9c-0.1-0.2-0.3-0.3-0.5-0.3c-0.2,0-0.5,0-0.7,0.1l-0.1,0V-1539z"/>
				<path class="st6" d="M-687.6-1542.5h-1.1v1.8c0,0.2,0,0.3,0,0.4c0,0.1,0,0.1,0.1,0.2c0.1,0.1,0.1,0.1,0.3,0.1l0.7,0l0.1,1
					c-0.4,0.1-0.7,0.1-0.9,0.1c-0.5,0-0.9-0.1-1.1-0.4c-0.2-0.2-0.3-0.7-0.3-1.3v-1.9h-0.5v-1h0.5v-1.3h1.2v1.3h1.1V-1542.5z"/>
				<path class="st6" d="M-686.8-1539v-4.5h1.2v0.5c0.5-0.3,1-0.5,1.4-0.6v1.2c-0.5,0.1-0.9,0.2-1.3,0.3l-0.2,0.1v3H-686.8z"/>
				<path class="st6" d="M-680-1542.1v1.9c0,0.1,0,0.2,0.1,0.3c0,0.1,0.1,0.1,0.2,0.1l0,0.9c-0.3,0-0.6,0-0.7-0.1
					c-0.2,0-0.4-0.1-0.6-0.3c-0.4,0.2-0.9,0.3-1.3,0.3c-0.9,0-1.4-0.5-1.4-1.5c0-0.5,0.1-0.8,0.4-1s0.7-0.3,1.2-0.4l1-0.1v-0.3
					c0-0.2,0-0.3-0.1-0.4s-0.2-0.1-0.4-0.1l-1.7,0.1l0-0.8c0.6-0.2,1.3-0.3,1.8-0.3s1,0.1,1.3,0.4
					C-680.1-1543-680-1542.6-680-1542.1z M-682-1540.9c-0.3,0-0.5,0.2-0.5,0.5s0.1,0.5,0.4,0.5c0.2,0,0.5,0,0.7-0.1l0.1,0v-1
					L-682-1540.9z"/>
				<path class="st6" d="M-675.2-1543.6c0.3,0,0.7,0,1.2,0.1l0.2,0.1l0,1c-0.5,0-0.8-0.1-1.1-0.1c-0.4,0-0.7,0.1-0.8,0.3
					c-0.1,0.2-0.2,0.5-0.2,1s0.1,0.8,0.2,1c0.1,0.2,0.4,0.3,0.8,0.3l1-0.1l0,1c-0.6,0.1-1.1,0.2-1.5,0.2c-0.7,0-1.1-0.2-1.4-0.6
					s-0.4-1-0.4-1.8s0.1-1.4,0.5-1.8C-676.3-1543.4-675.8-1543.6-675.2-1543.6z"/>
				<path class="st6" d="M-672.6-1543c0.3-0.4,0.8-0.6,1.6-0.6c0.7,0,1.3,0.2,1.6,0.6c0.3,0.4,0.5,1,0.5,1.7c0,1.6-0.7,2.4-2.1,2.4
					c-1.4,0-2.1-0.8-2.1-2.4C-673.1-1542-672.9-1542.6-672.6-1543z M-671.7-1540.3c0.1,0.2,0.3,0.3,0.7,0.3c0.3,0,0.5-0.1,0.7-0.3
					c0.1-0.2,0.2-0.6,0.2-1s-0.1-0.8-0.2-1c-0.1-0.2-0.3-0.3-0.7-0.3c-0.3,0-0.5,0.1-0.7,0.3s-0.2,0.5-0.2,1
					S-671.8-1540.5-671.7-1540.3z"/>
				<path class="st6" d="M-666.9-1539h-1.2v-4.5h1.2v0.3c0.4-0.2,0.8-0.4,1.1-0.4c0.6,0,1,0.2,1.2,0.5c0.2,0.4,0.3,0.9,0.3,1.6v2.4
					h-1.2v-2.4c0-0.4,0-0.7-0.1-0.9c-0.1-0.2-0.3-0.3-0.5-0.3c-0.2,0-0.5,0-0.7,0.1l-0.1,0V-1539z"/>
				<path class="st6" d="M-659.1-1544.2c-0.7,0-1,0.2-1,0.6c0,0.2,0.1,0.3,0.2,0.4c0.2,0.1,0.5,0.2,1.1,0.4c0.6,0.2,1,0.4,1.3,0.7
					c0.2,0.2,0.4,0.6,0.4,1.1c0,0.6-0.2,1.1-0.6,1.5s-0.9,0.5-1.5,0.5c-0.5,0-1-0.1-1.7-0.2l-0.3-0.1l0.1-1c0.8,0.1,1.4,0.2,1.8,0.2
					c0.6,0,1-0.3,1-0.8c0-0.2-0.1-0.3-0.2-0.5c-0.1-0.1-0.4-0.2-0.9-0.4c-0.7-0.2-1.2-0.4-1.5-0.7c-0.3-0.3-0.4-0.7-0.4-1.1
					c0-0.6,0.2-1.1,0.6-1.4c0.4-0.3,0.9-0.4,1.5-0.4c0.4,0,1,0.1,1.7,0.2l0.3,0.1l-0.1,1C-658.2-1544.1-658.8-1544.2-659.1-1544.2z"
					/>
				<path class="st6" d="M-653.9-1540.8h-1v1.8h-1.2v-6.1h2.2c1.5,0,2.2,0.7,2.2,2.1c0,0.7-0.2,1.3-0.6,1.6
					S-653.2-1540.8-653.9-1540.8z M-654.9-1541.9h1c0.6,0,0.9-0.4,0.9-1.2c0-0.4-0.1-0.6-0.2-0.8s-0.4-0.2-0.7-0.2h-1V-1541.9z"/>
				<path class="st6" d="M-650.8-1539v-6.1h1.2v6.1H-650.8z"/>
				<path class="st6" d="M-646.2-1539h-2.1v-6.1h2.1c0.5,0,1,0.1,1.3,0.2c0.3,0.1,0.6,0.3,0.8,0.5s0.3,0.6,0.4,0.9
					c0.1,0.3,0.1,0.8,0.1,1.3c0,0.6,0,1-0.1,1.4c-0.1,0.4-0.2,0.7-0.4,1s-0.4,0.5-0.8,0.6C-645.2-1539.1-645.6-1539-646.2-1539z
					 M-644.9-1541.4c0-0.2,0-0.5,0-0.8s0-0.6,0-0.8c0-0.2-0.1-0.4-0.2-0.6c-0.1-0.2-0.2-0.3-0.4-0.3c-0.2-0.1-0.4-0.1-0.7-0.1h-0.8
					v4h0.8c0.4,0,0.8-0.1,1-0.3C-645-1540.6-644.9-1541-644.9-1541.4z"/>
			</g>
		</g>
		<g id="Rectangle_22">
			<rect x="-716.4" y="-1479.2" class="st6" width="102.6" height="27.1"/>
		</g>
		<g id="Rectangle_23">
			<rect x="-716.4" y="-1447.2" class="st6" width="102.6" height="22.1"/>
		</g>
		<g class="st7">
			<path class="st8" d="M-700.7-1433.3v-4.8h4.2v4.8H-700.7z"/>
			<path class="st8" d="M-693.3-1433.3v-4.8h4.2v4.8H-693.3z"/>
			<path class="st8" d="M-685.8-1433.3v-4.8h4.2v4.8H-685.8z"/>
			<path class="st8" d="M-678.4-1433.3v-4.8h4.2v4.8H-678.4z"/>
			<path class="st8" d="M-671-1433.3v-4.8h4.2v4.8H-671z"/>
			<path class="st8" d="M-663.6-1433.3v-4.8h4.2v4.8H-663.6z"/>
			<path class="st8" d="M-656.1-1433.3v-4.8h4.2v4.8H-656.1z"/>
			<path class="st8" d="M-648.7-1433.3v-4.8h4.2v4.8H-648.7z"/>
			<path class="st8" d="M-641.3-1433.3v-4.8h4.2v4.8H-641.3z"/>
			<path class="st8" d="M-633.9-1433.3v-4.8h4.2v4.8H-633.9z"/>
		</g>
	</g>
	<g id="Group_30" transform="translate(746.297 1545.974)">
		<g id="Path_110">
			<path class="st6" d="M-591.6-1496.7l-32.2-54.9c-1.4-2.3-4.7-1.6-5.9,1.4l-4.4,10.4l-1.1,2.6c-9.5-3.8-82.6-30.1-98.1,55.2
				c0,0,44.5-46.2,80.6-12.9l-2.1,5.1l-4.4,10.4c-1.2,3,0.5,5.9,3.2,5.2l61.7-15.9c2.5-0.9,3.8-3.6,2.9-6.1
				C-591.5-1496.4-591.5-1496.5-591.6-1496.7z"/>
		</g>
		<g id="Path_111">
			<path class="st9" d="M-595.7-1497.8l-27.8-47.3c-1.2-2-4-1.3-5.1,1.2l-3.8,9l-0.9,2.2c-8.2-3.3-75-31.7-95.3,42.7
				c0,0,42.2-39.1,80.2-6.2l-1.8,4.4l-3.8,9c-1.1,2.6,0.5,5,2.8,4.4l53.2-13.7c2.1-0.7,3.3-3,2.6-5.2
				C-595.5-1497.5-595.6-1497.6-595.7-1497.8z"/>
		</g>
		<g id="Path_112">
			<path class="st10" d="M-599.1-1498.4c0.8,1.7,0.1,3.7-1.5,4.5c-0.2,0.1-0.3,0.1-0.5,0.2l-46.2,11.8c-1.9,0.5-3.2-1.6-2.3-3.7
				l3.2-7.4l1.6-3.6c-37.1-33.7-79.5-0.5-79.5-0.5c0.5-1.9,27.8-32.7,58-30.6C-636.2-1525.7-599.1-1498.4-599.1-1498.4z"/>
		</g>
	</g>
	<g id="Group_32" transform="translate(-2 -53)">
		<g id="Ellipse_13" transform="translate(989 1483)">
			<g>
				<circle class="st11" cx="-606.8" cy="-1426.5" r="126.5"/>
			</g>
			<g>
				<path class="st12" d="M-606.8-1300c-69.8,0-126.5-56.7-126.5-126.5c0-69.8,56.7-126.5,126.5-126.5s126.5,56.7,126.5,126.5
					C-480.3-1356.7-537-1300-606.8-1300z M-606.8-1543c-64.2,0-116.5,52.3-116.5,116.5S-671-1310-606.8-1310s116.5-52.3,116.5-116.5
					S-542.6-1543-606.8-1543z"/>
			</g>
		</g>
		<g id="Intersection_1">
			<path class="st5" d="M282.3,87.2v-61h212.6c2.5,9.9,3.8,20,3.8,30.2c0,10.4-1.3,20.7-3.9,30.7H282.3z"/>
		</g>
		<g id="XMLID_8_" transform="translate(1032.477 1589.191)">
			<g id="XMLID_3_">
				<circle class="st6" cx="-712.8" cy="-1532.5" r="20.5"/>
			</g>
			<g id="XMLID_6_2" transform="translate(15.44 11.816)">
				<g id="XMLID_5_2">
					<circle class="st5" cx="-728.3" cy="-1548" r="5"/>
				</g>
				<g id="XMLID_7_">
					<path class="st5" d="M-733.3-1535.5c0-2.8,2.2-5.1,5-5.1c2.8,0,5.1,2.2,5.1,5c0,0,0,0.1,0,0.1"/>
				</g>
			</g>
		</g>
		<g id="XMLID_9_" class="st13">
			<rect x="353.1" y="26.3" class="st6" width="0.5" height="61"/>
		</g>
		<g class="st7">
			<path class="st6" d="M360.8,64.2V49.9h9.1v2h-6.7V56h5.5v2h-5.5v4.2h6.7v2.1H360.8z"/>
			<path class="st6" d="M374.4,64.2h-2.3V53.7h2.3v0.7c1-0.6,2-0.9,2.9-0.9c1.4,0,2.4,0.4,2.9,1.2c0.5,0.8,0.8,2.1,0.8,3.9v5.6h-2.3
				v-5.6c0-1.1-0.1-1.9-0.4-2.4c-0.2-0.5-0.7-0.7-1.5-0.7c-0.7,0-1.4,0.1-2.1,0.4l-0.3,0.1V64.2z"/>
			<path class="st6" d="M389.2,55.7h-2.9v4.6c0,0.9,0.1,1.4,0.2,1.7s0.4,0.4,1,0.4l1.7-0.1l0.1,1.8c-0.9,0.2-1.7,0.3-2.1,0.3
				c-1.2,0-2-0.3-2.4-0.8c-0.4-0.5-0.7-1.6-0.7-3.1v-4.9h-1.3v-2h1.3v-3h2.3v3h2.9V55.7z"/>
			<path class="st6" d="M391.1,64.2V53.7h2.3V55c1.2-0.8,2.4-1.3,3.6-1.5v2.3c-1.2,0.2-2.2,0.5-3.1,0.9l-0.5,0.2v7.3H391.1z"/>
			<path class="st6" d="M406.4,57v4.8c0,0.3,0.1,0.5,0.2,0.7c0.1,0.1,0.4,0.2,0.7,0.3l-0.1,1.7c-1.2,0-2.1-0.3-2.8-0.8
				c-1.1,0.5-2.2,0.8-3.4,0.8c-2.1,0-3.1-1.1-3.1-3.3c0-1.1,0.3-1.8,0.9-2.3c0.6-0.5,1.4-0.8,2.6-0.9l2.7-0.2V57
				c0-0.6-0.1-1-0.4-1.2c-0.2-0.2-0.6-0.3-1.1-0.3c-0.9,0-2,0.1-3.4,0.2l-0.7,0l-0.1-1.6c1.5-0.4,2.9-0.5,4.2-0.5
				c1.3,0,2.2,0.3,2.8,0.8S406.4,55.8,406.4,57z M401.7,59.6c-1,0.1-1.4,0.6-1.4,1.6s0.4,1.4,1.3,1.4c0.7,0,1.4-0.1,2.2-0.3l0.4-0.1
				v-2.8L401.7,59.6z"/>
			<path class="st6" d="M417.9,53.5c0.7,0,1.6,0.1,2.6,0.3l0.5,0.1l-0.1,1.8c-1.1-0.1-1.9-0.2-2.5-0.2c-1.1,0-1.8,0.2-2.1,0.7
				c-0.4,0.5-0.5,1.4-0.5,2.7c0,1.3,0.2,2.2,0.5,2.7c0.4,0.5,1.1,0.8,2.2,0.8l2.5-0.2l0.1,1.8c-1.4,0.3-2.5,0.4-3.2,0.4
				c-1.6,0-2.7-0.4-3.4-1.3c-0.7-0.9-1-2.3-1-4.2s0.3-3.4,1-4.2S416.3,53.5,417.9,53.5z"/>
			<path class="st6" d="M423.7,54.9c0.7-0.9,1.9-1.4,3.6-1.4c1.7,0,2.9,0.5,3.6,1.4c0.7,0.9,1.1,2.3,1.1,4.1c0,1.8-0.3,3.2-1,4.1
				s-1.9,1.4-3.6,1.4c-1.7,0-2.9-0.5-3.6-1.4c-0.7-0.9-1.1-2.3-1.1-4.1C422.6,57.2,423,55.8,423.7,54.9z M425.4,61.7
				c0.3,0.6,1,0.8,1.9,0.8c0.9,0,1.6-0.3,1.9-0.8c0.3-0.6,0.5-1.5,0.5-2.8c0-1.3-0.2-2.2-0.5-2.7c-0.3-0.5-1-0.8-1.9-0.8
				c-0.9,0-1.5,0.3-1.9,0.8c-0.3,0.5-0.5,1.4-0.5,2.7C424.9,60.2,425.1,61.1,425.4,61.7z"/>
			<path class="st6" d="M436.5,64.2h-2.3V53.7h2.3v0.7c1-0.6,2-0.9,2.9-0.9c1.4,0,2.4,0.4,2.9,1.2c0.5,0.8,0.8,2.1,0.8,3.9v5.6h-2.3
				v-5.6c0-1.1-0.1-1.9-0.4-2.4c-0.2-0.5-0.7-0.7-1.5-0.7c-0.7,0-1.4,0.1-2.1,0.4l-0.3,0.1V64.2z"/>
			<path class="st6" d="M454.8,51.7c-1.8,0-2.7,0.6-2.7,1.9c0,0.6,0.2,1.1,0.6,1.4c0.4,0.3,1.3,0.6,2.8,1c1.4,0.4,2.4,0.9,3,1.4
				c0.6,0.6,0.9,1.4,0.9,2.6c0,1.5-0.4,2.6-1.3,3.4c-0.9,0.7-2,1.1-3.5,1.1c-1.2,0-2.5-0.1-3.9-0.4l-0.8-0.1l0.2-1.9
				c1.9,0.3,3.3,0.4,4.3,0.4c1.7,0,2.6-0.8,2.6-2.3c0-0.6-0.2-1-0.6-1.3c-0.4-0.3-1.3-0.6-2.6-0.9c-1.4-0.3-2.4-0.8-3.1-1.4
				c-0.7-0.6-1-1.6-1-2.9c0-1.3,0.4-2.3,1.3-3c0.8-0.7,2-1,3.5-1c1.1,0,2.4,0.1,3.8,0.4l0.7,0.1L459,52
				C457,51.8,455.6,51.7,454.8,51.7z"/>
			<path class="st6" d="M467.3,59.8h-2.9v4.5H462V49.9h5.3c3.3,0,4.9,1.6,4.9,4.8c0,1.7-0.4,2.9-1.2,3.8
				C470.1,59.3,468.9,59.8,467.3,59.8z M464.3,57.8h2.9c1.7,0,2.5-1,2.5-3.1c0-1-0.2-1.7-0.6-2.1c-0.4-0.4-1-0.7-1.9-0.7h-2.9V57.8z
				"/>
			<path class="st6" d="M474.4,64.2V49.9h2.3v14.4H474.4z"/>
			<path class="st6" d="M485,64.2h-5V49.9h5c2.2,0,3.7,0.6,4.5,1.7c0.8,1.1,1.2,2.9,1.2,5.3c0,1.2-0.1,2.2-0.2,3.1
				c-0.2,0.8-0.4,1.6-0.9,2.3C488.9,63.6,487.4,64.2,485,64.2z M488.4,56.8c0-1.7-0.2-3-0.7-3.8c-0.4-0.8-1.3-1.2-2.7-1.2h-2.6v10.3
				h2.6c1.4,0,2.3-0.5,2.8-1.5c0.2-0.5,0.4-1.1,0.5-1.7S488.4,57.7,488.4,56.8z"/>
		</g>
	</g>
	<g class="st7">
		<path class="st8" d="M174.9-2v-1.6h0c-0.4,0.6-0.8,1.1-1.4,1.4c-0.6,0.3-1.2,0.5-2,0.5c-0.7,0-1.2-0.1-1.7-0.3
			c-0.5-0.2-0.8-0.4-1.1-0.8c-0.3-0.3-0.5-0.7-0.6-1.2C168-4.5,168-5,168-5.5v-6.8h1.7v7c0,0.6,0.2,1.1,0.6,1.5
			c0.4,0.4,0.9,0.6,1.5,0.6c0.5,0,1-0.1,1.4-0.2c0.4-0.2,0.7-0.4,0.9-0.7s0.4-0.6,0.6-1c0.1-0.4,0.2-0.8,0.2-1.3v-5.8h1.7V-2H174.9z
			"/>
		<path class="st8" d="M183.5-12.3v1.5h-2.1v6.4c0,0.2,0,0.4,0,0.5c0,0.1,0.1,0.2,0.2,0.3c0.1,0.1,0.2,0.1,0.4,0.1
			c0.2,0,0.4,0,0.6,0h0.8V-2h-1.3c-0.4,0-0.8,0-1.1-0.1c-0.3-0.1-0.6-0.2-0.8-0.3s-0.3-0.4-0.4-0.7c-0.1-0.3-0.1-0.7-0.1-1.2v-6.6
			H178v-1.5h1.8v-3.1h1.7v3.1H183.5z"/>
		<path class="st8" d="M192.7-2.7c-0.8,0.6-1.7,0.9-2.9,0.9c-0.8,0-1.5-0.1-2.2-0.4c-0.6-0.3-1.1-0.6-1.5-1.1
			c-0.4-0.5-0.7-1.1-0.9-1.7c-0.2-0.7-0.3-1.4-0.3-2.2c0-0.8,0.1-1.5,0.4-2.2c0.2-0.7,0.6-1.2,1-1.7c0.4-0.5,0.9-0.9,1.5-1.1
			s1.2-0.4,2-0.4c0.9,0,1.7,0.2,2.3,0.6c0.6,0.4,1.1,0.9,1.5,1.5c0.4,0.6,0.6,1.2,0.8,1.9c0.1,0.7,0.2,1.4,0.2,2h-7.7
			c0,0.5,0,0.9,0.2,1.3c0.1,0.4,0.3,0.8,0.6,1.1s0.6,0.6,1,0.8c0.4,0.2,0.9,0.3,1.5,0.3c0.7,0,1.3-0.2,1.8-0.5
			c0.5-0.3,0.8-0.8,0.9-1.5h1.7C194-4.1,193.5-3.2,192.7-2.7z M192.3-9.3c-0.2-0.4-0.4-0.7-0.6-0.9c-0.3-0.3-0.6-0.5-0.9-0.6
			c-0.4-0.2-0.7-0.2-1.2-0.2c-0.4,0-0.8,0.1-1.2,0.2c-0.4,0.2-0.7,0.4-0.9,0.6s-0.5,0.6-0.6,0.9c-0.1,0.4-0.2,0.7-0.3,1.1h5.9
			C192.6-8.6,192.5-8.9,192.3-9.3z"/>
		<path class="st8" d="M197.7-12.3v1.6h0c0.7-1.3,1.8-1.9,3.4-1.9c0.7,0,1.2,0.1,1.7,0.3c0.5,0.2,0.8,0.4,1.1,0.8
			c0.3,0.3,0.5,0.7,0.6,1.2s0.2,1,0.2,1.5V-2H203v-7c0-0.6-0.2-1.1-0.6-1.5c-0.4-0.4-0.9-0.6-1.5-0.6c-0.5,0-1,0.1-1.4,0.2
			s-0.7,0.4-0.9,0.7c-0.3,0.3-0.4,0.6-0.6,1c-0.1,0.4-0.2,0.8-0.2,1.3V-2h-1.7v-10.3H197.7z"/>
		<path class="st8" d="M211.7-12.3v1.5h-2.1v6.4c0,0.2,0,0.4,0,0.5c0,0.1,0.1,0.2,0.2,0.3c0.1,0.1,0.2,0.1,0.4,0.1
			c0.2,0,0.4,0,0.6,0h0.8V-2h-1.3c-0.4,0-0.8,0-1.1-0.1c-0.3-0.1-0.6-0.2-0.8-0.3s-0.3-0.4-0.4-0.7c-0.1-0.3-0.1-0.7-0.1-1.2v-6.6
			h-1.8v-1.5h1.8v-3.1h1.7v3.1H211.7z"/>
		<path class="st8" d="M220.9-2.7c-0.8,0.6-1.7,0.9-2.9,0.9c-0.8,0-1.5-0.1-2.2-0.4c-0.6-0.3-1.1-0.6-1.5-1.1
			c-0.4-0.5-0.7-1.1-0.9-1.7c-0.2-0.7-0.3-1.4-0.3-2.2c0-0.8,0.1-1.5,0.4-2.2c0.2-0.7,0.6-1.2,1-1.7c0.4-0.5,0.9-0.9,1.5-1.1
			s1.2-0.4,2-0.4c0.9,0,1.7,0.2,2.3,0.6c0.6,0.4,1.1,0.9,1.5,1.5c0.4,0.6,0.6,1.2,0.8,1.9c0.1,0.7,0.2,1.4,0.2,2h-7.7
			c0,0.5,0,0.9,0.2,1.3c0.1,0.4,0.3,0.8,0.6,1.1s0.6,0.6,1,0.8c0.4,0.2,0.9,0.3,1.5,0.3c0.7,0,1.3-0.2,1.8-0.5
			c0.5-0.3,0.8-0.8,0.9-1.5h1.7C222.2-4.1,221.7-3.2,220.9-2.7z M220.5-9.3c-0.2-0.4-0.4-0.7-0.6-0.9c-0.3-0.3-0.6-0.5-0.9-0.6
			c-0.4-0.2-0.7-0.2-1.2-0.2c-0.4,0-0.8,0.1-1.2,0.2c-0.4,0.2-0.7,0.4-0.9,0.6s-0.5,0.6-0.6,0.9c-0.1,0.4-0.2,0.7-0.3,1.1h5.9
			C220.7-8.6,220.6-8.9,220.5-9.3z"/>
	</g>
	<g id="Path_127">
		<path class="st6" d="M373.6-106.4l3.4,15.3c0,0-58.5-9.4-89,46.9C288-44.3,298.2-89.2,373.6-106.4z"/>
	</g>
	<g id="Path_128">
		<path class="st12" d="M467.9,91.5c-0.4-0.3-34,25.4-34,25.4l38.9,44.3l32.3-25.9C505.1,135.3,468.3,91.8,467.9,91.5z"/>
	</g>
</g>
</svg>
