<?xml version="1.0" encoding="utf-8"?>
<!-- Generator: Adobe Illustrator 19.0.0, SVG Export Plug-In . SVG Version: 6.00 Build 0)  -->
<svg version="1.1" id="Livello_1" xmlns="http://www.w3.org/2000/svg" xmlns:xlink="http://www.w3.org/1999/xlink" x="0px" y="0px"
	 viewBox="30 -40 100 100" style="enable-background:new 30 -40 100 100;" xml:space="preserve">
<style type="text/css">
	.st0{fill:none;}
	.st1{fill:#BFCAD6;}
</style>
<g id="XMLID_16_">
	<g id="XMLID_17_">
		<path id="XMLID_27_" class="st0" d="M56.8-16.3c0-7.9,6.4-14.4,14.3-14.4c7.9,0,14.3,6.5,14.3,14.4c0,5.1-2.7,9.6-6.7,12.2v3.2
			C84.2-3.7,88-9.5,88-16.3c0-9.5-7.6-17.2-16.9-17.2s-16.9,7.7-16.9,17.2c0,6.9,4.1,12.9,9.9,15.6v-3.1C59.8-6.3,56.8-11,56.8-16.3
			z"/>
		<path id="XMLID_26_" class="st0" d="M71.1-6c-1.1,0-2.2-0.2-3.2-0.6v3.8c1,0.3,2.1,0.4,3.2,0.4c1.3,0,2.6-0.2,3.8-0.6v-3.9
			C73.7-6.3,72.5-6,71.1-6z"/>
		<path id="XMLID_25_" class="st1" d="M52.9-17.5c0-10.2,8.2-18.6,18.2-18.6c10.1,0,18.2,8.3,18.2,18.6c0,7.2-4.1,13.5-10.1,16.6
			v4.3C87.4,0.1,93.3-8,93.3-17.5c0.1-12.4-9.9-22.5-22.2-22.5c-12.2,0-22.2,10.1-22.2,22.5c0,9.7,6.1,17.9,14.7,21.1v-4.2
			C57.3-3.6,52.9-10.1,52.9-17.5z"/>
		<path id="XMLID_24_" class="st0" d="M74.1-20.2c-0.7-0.7-1.8-1.2-2.9-1.2c-1,0-3.2,0.3-3.3,3.5L67.8-6.7c1,0.4,2.1,0.6,3.2,0.6
			c1.3,0,2.6-0.3,3.8-0.8v-11.2C74.9-18.9,74.7-19.6,74.1-20.2z"/>
		<path id="XMLID_23_" class="st0" d="M71.1-27.9c-5.7,0-10.4,4.9-10.4,11c0,3.3,1.4,6.2,3.5,8.2v-9c0-4.9,3.6-7.2,6.9-7.2
			c2.1,0,4.1,0.8,5.5,2.3c1.3,1.3,1.9,3,1.8,4.8v8.6c1.8-2,3-4.7,3-7.6C81.5-23,76.9-27.9,71.1-27.9z"/>
		<path id="XMLID_22_" class="st0" d="M74.9,0v-2.9c-1.2,0.4-2.5,0.6-3.8,0.6c-1.1,0-2.2-0.1-3.2-0.4v2.9C69,0.4,70,0.5,71.2,0.5
			C72.4,0.5,73.7,0.3,74.9,0z"/>
		<path id="XMLID_21_" class="st0" d="M67.8,3.8l-0.1,17.6V22c0,0.1,0,0.2,0,0.4l-3.6,0.2v-0.3c-0.4-4-6.3-10.4-9.7-10.4
			c-0.3,0-0.5,0.1-0.7,0.2c-1.4,0.9,1.6,7,3.6,11c0.6,1.2,1.2,2.5,1.8,3.8c1.7,3.5,2.7,7.5,3.7,11.5c1.3,5,2.5,9.8,4.7,11.7
			c4.6,3.9,11,6.4,16.6,6.5h0.4c9.3,0,17.6-4.2,21.6-10.9l1.3-23.3l-0.1-3.5c0-1-0.3-1.7-0.8-2.3c-1.3-1.3-4-1.5-5.2-0.3
			c-0.6,0.6-0.9,1.5-0.9,2.7v0.3l-0.1,0.7l-3.6-0.5l0.1-1.3l-0.1-5.9c0-0.9-0.2-1.7-0.8-2.3c-0.7-0.7-1.8-1.1-2.9-1.1
			c-1,0-3.2,0.3-3.3,3.5l-0.2,8.1l-3.6-0.1v-1.3v-8.5c0-0.9-0.2-1.7-0.8-2.2c-0.7-0.7-1.8-1.1-2.9-1.1c-1,0-3.2,0.3-3.3,3.5
			l-0.3,10.9H75V3.8c-1.2,0.2-2.5,0.4-3.8,0.4C70,4.1,68.9,4,67.8,3.8z"/>
		<path id="XMLID_20_" class="st1" d="M59.7-17.5c0-6.4,5.1-11.7,11.4-11.7c6.3,0,11.4,5.2,11.4,11.7c0,3.2-1.3,6-3.3,8.1v5
			c4.4-2.8,7.3-7.6,7.3-13.2c0-8.6-6.9-15.5-15.4-15.5s-15.4,7-15.4,15.5c0,5.8,3.2,10.9,7.9,13.5v-4.8C61.2-11,59.7-14.1,59.7-17.5
			z"/>
		<path id="XMLID_18_" class="st1" d="M111,18.7c0-1.8-0.6-3.5-1.9-4.8c-2.1-2.3-6.1-2.9-8.8-1.5v-0.1c0.1-1.9-0.6-3.5-1.8-4.8
			C96.1,5,91.4,4.3,88.4,6.9c-0.2-0.3-0.5-0.7-0.8-1c-2.2-2.3-6.1-3-9.1-1.3V2.7v-4v-3.2v-4.7v-8.6c0.1-1.9-0.6-3.5-1.8-4.8
			c-1.4-1.4-3.4-2.3-5.5-2.3c-3.3,0-6.9,2.2-6.9,7.2v9v4.5v3.1v4l-0.1,11.4c-2.8-3.4-6.6-6.1-9.7-6.1c-1,0-2,0.3-2.7,0.8
			c-4,2.7-1,8.7,2.4,15.6c0.6,1.2,1.2,2.4,1.8,3.7c1.5,3.2,2.5,7,3.4,10.8c1.4,5.6,2.8,10.9,5.8,13.6c5.3,4.5,12.4,7.3,18.9,7.4h0.4
			c10.8,0,20.4-5,25-13.1l0.2-0.4l1.4-24.3L111,18.7z"/>
	</g>
</g>
</svg>
