<?xml version="1.0" encoding="utf-8"?>
<!-- Generator: Adobe Illustrator 19.0.0, SVG Export Plug-In . SVG Version: 6.00 Build 0)  -->
<svg version="1.1" id="Livello_1" xmlns="http://www.w3.org/2000/svg" xmlns:xlink="http://www.w3.org/1999/xlink" x="0px" y="0px"
	 viewBox="30 -40 100 100" style="enable-background:new 30 -40 100 100;" xml:space="preserve">
<style type="text/css">
	.st0{fill:#BFCAD6;}
</style>
<path id="XMLID_9_" class="st0" d="M123.7-27c-0.2-1.3-1.1-2.4-2.4-2.7L81.2-40.9c-0.6-0.1-1.2-0.1-1.8,0L39.2-29.7
	c-1.3,0.3-2.2,1.4-2.4,2.7c-0.2,1.7-5.6,41.3,8.1,61c13.6,19.7,33.7,24.7,34.6,24.9C79.8,59,80,59,80.3,59c0.3,0,0.5,0,0.8-0.1
	c0.8-0.2,21-5.2,34.6-24.9S124-25.3,123.7-27z M109.8,29.9C97.9,47,80.2,51.2,80.2,51.2V9H43.7c-2.1-15.9,0.1-32.1,0.1-32.1
	l36.4-10.1V9h36.5C115.7,16.7,113.6,24.3,109.8,29.9z"/>
</svg>
