<?xml version="1.0" encoding="utf-8"?>
<!-- Generator: Adobe Illustrator 21.0.2, SVG Export Plug-In . SVG Version: 6.00 Build 0)  -->
<svg version="1.1" id="Livello_1" xmlns="http://www.w3.org/2000/svg" xmlns:xlink="http://www.w3.org/1999/xlink" x="0px" y="0px"
	 viewBox="0 0 1366 162" style="enable-background:new 0 0 1366 162;" xml:space="preserve">
<style type="text/css">
	.st0{fill:none;}
	.st1{fill:#35B5CD;}
	.st2{fill:#E2E2E2;}
	.st3{fill:#3ABECF;}
	.st4{fill:#36B6CD;}
	.st5{fill:#31AECC;}
	.st6{fill:#2DA6CA;}
	.st7{fill:#289EC8;}
	.st8{fill:#2496C7;}
	.st9{fill:#1F8EC5;}
	.st10{fill:#1B86C3;}
	.st11{fill:#167EC1;}
	.st12{fill:#1276C0;}
	.st13{fill:#0D6EBE;}
	.st14{fill:#0966BC;}
	.st15{fill:#045EBB;}
	.st16{fill:#0056B9;}
	.st17{fill:#FFFFFF;}
	.st18{fill:#EFEFEF;}
	.st19{fill:#010335;}
</style>
<g>
	<rect class="st0" width="1" height="161"/>
	<polygon class="st0" points="1326.9,158.1 1319.5,141.6 1315.8,133.2 1317.7,129.3 1326.9,109.6 1319.6,109.6 1312.6,124.5 
		1310.9,128 1314.3,135.6 1320.9,150.5 1297,150.5 1243.8,150.5 1198.6,150.5 1198.6,109.6 1191.3,109.6 1191.3,158.1 1241.4,158.1 
		1300.4,158.1 	"/>
	<path class="st0" d="M1322.9,30h10.1l-5.9,11.6l-4.9,9.7l8.7,18l1.8,3.7h7.6l-2.3-4.8l-9.6-20l5.4-10.7l6.5-12.9h-11.2h-101.6V25
		h-3v-0.4h-2.4l0,0.6c-0.8,0-1.4-0.1-1.8-0.2c-0.4-0.1-0.7-0.3-1.1-0.5h-0.7c-1,0.4-1.9,0.6-2.9,0.6c-1,0-1.7-0.2-2.3-0.6h-3.3V25
		h-3v-0.4h-0.3c-0.9,0.4-1.8,0.6-2.5,0.6c-1.1,0-1.9-0.2-2.6-0.6h-7.3V73h7V30H1322.9z"/>
	<path class="st1" d="M429.6,17.2l118.7,0.5L542.3,6l448.4,0.9l33,10.9L1043.1,0H404.3C414.3,3.4,423,9.4,429.6,17.2z"/>
	<path class="st1" d="M367.9,0h-13.4c1.4,1.3,2.8,2.6,4.3,4C361.7,2.4,364.7,1.1,367.9,0z"/>
	<path class="st1" d="M713.6,153.1c2,2.8,3.9,5.4,5.6,7.9h278.3l4.9-23.5L713.6,153.1z"/>
	<polygon class="st1" points="53.3,161 13.2,0 1,0 1,161 	"/>
	<polygon class="st2" points="1054.3,138.7 1033.9,161 1160.8,161 1160.5,158 	"/>
	<polygon class="st2" points="1028.6,134 1000.9,161 1031.2,161 1033.6,134.9 	"/>
	<path class="st3" d="M1241.4,158.1c-5.8,1-11.7,2-17.4,2.9h100.4l-24.1-2.9H1241.4z"/>
	<polygon class="st3" points="1028.6,134 1033.6,134.9 1034,130.4 1032.3,130.4 	"/>
	<polygon class="st3" points="1062,130.3 1054.3,138.7 1160.5,158 1158.7,140.8 1071.3,130.2 	"/>
	<polygon class="st4" points="1326.9,158.1 1300.4,158.1 1324.4,161 1364,161 1364,144.3 1319.5,141.6 	"/>
	<polygon class="st4" points="1071.3,130.2 1158.7,140.8 1157.7,131.9 1125.8,130 	"/>
	<polygon class="st5" points="1315.8,133.2 1319.5,141.6 1364,144.3 1364,129.1 1317.7,129.3 	"/>
	<polygon class="st5" points="1157.7,131.9 1157.5,129.9 1125.8,130 	"/>
	<polygon class="st6" points="1314.9,106.7 1320.9,106.7 1319.6,109.6 1326.9,109.6 1317.7,129.3 1364,129.1 1364,97.2 1316,100.5 	
		"/>
	<polygon class="st6" points="1034,130.4 1034.1,128.6 1032.3,130.4 	"/>
	<polygon class="st6" points="1062,130.3 1071.3,130.2 1125.8,130 1157.5,129.9 1155.6,111.7 1073.8,117.4 	"/>
	<polygon class="st7" points="1340.2,73 1332.7,73 1333,73.6 1320.6,73.6 1316,100.5 1364,97.2 1364,64.6 1337.9,68.2 	"/>
	<polygon class="st7" points="1073.8,117.4 1155.6,111.7 1153.7,93.4 1087.4,102.5 	"/>
	<polygon class="st8" points="1328.3,48.2 1337.9,68.2 1364,64.6 1364,31.2 1333.7,37.5 	"/>
	<polygon class="st8" points="1087.4,102.5 1153.7,93.4 1151.8,75.1 1103.3,85.1 	"/>
	<polygon class="st9" points="1329.1,24.6 1340.2,24.6 1333.7,37.5 1364,31.2 1364,0 1353.6,0 1332.3,5.9 	"/>
	<polygon class="st9" points="1103.3,85.1 1151.8,75.1 1149.9,56.8 1122.2,64.5 	"/>
	<polygon class="st10" points="1332.3,5.9 1353.6,0 1308.3,0 1332.8,2.8 	"/>
	<polygon class="st10" points="1132,53.7 1122.2,64.5 1149.9,56.8 1148,38.3 1117.8,49 	"/>
	<polygon class="st11" points="1117.8,49 1148,38.3 1146.1,19.9 1095.4,41.6 	"/>
	<polygon class="st12" points="1146.1,19.9 1144.1,1.4 1077,35.5 1095.4,41.6 	"/>
	<polygon class="st13" points="1077,35.5 1144.1,1.4 1144,0 1113.1,0 1061.6,30.4 	"/>
	<polygon class="st14" points="1061.6,30.4 1113.1,0 1087.2,0 1048.6,26.1 	"/>
	<polygon class="st15" points="1048.6,26.1 1087.2,0 1066.9,0 1037.5,22.4 	"/>
	<polygon class="st16" points="1037.5,22.4 1066.9,0 1043.1,0 1023.7,17.9 	"/>
	<polygon class="st2" points="316.2,161 291.1,96.1 84.3,160 36,35.5 187.7,0 13.2,0 53.3,161 	"/>
	<path class="st17" d="M1204.6,22.5c0.6,0,1.3-0.1,2-0.3l0.3-0.1v-6c-0.8-0.2-1.6-0.2-2.2-0.2c-1.2,0-1.8,1.1-1.8,3.3
		c0,1.2,0.1,2,0.4,2.5C1203.5,22.3,1204,22.5,1204.6,22.5z"/>
	<path class="st17" d="M1206.7,24.6h0.3v-0.1C1206.8,24.5,1206.8,24.6,1206.7,24.6z"/>
	<path class="st17" d="M1216.2,22.8c0.6,0,1.2-0.1,1.9-0.3l0.3-0.1V20l-2.1,0.2c-0.8,0.1-1.3,0.5-1.3,1.4
		C1215.1,22.4,1215.4,22.8,1216.2,22.8z"/>
	<path class="st17" d="M1204.8,99.6c0.6,0,1.2-0.1,1.9-0.3l0.3-0.1v-2.4l-2.1,0.2c-0.8,0.1-1.3,0.5-1.3,1.4S1204,99.6,1204.8,99.6z"
		/>
	<path class="st17" d="M1146.1,19.9l1.9,18.5l1.9,18.4l1.9,18.4l1.9,18.3l1.9,18.3l1.9,18.2l0.2,2l0.9,8.9l1.8,17.1l0.3,3h63.2
		c5.8-1,11.6-2,17.4-2.9h-50.1v-48.4h7.2v-2.9h111.1h5.2l1.1-6.2l4.6-26.9h-5.2h-114.1V73h-7V24.6h7.3c-0.3-0.2-0.7-0.5-0.9-0.8
		c-0.6-1-1-2.5-1-4.5c0-2.1,0.4-3.6,1.2-4.5c0.8-0.9,2-1.4,3.5-1.4c0.5,0,1.2,0.1,2,0.2l0.4,0.1V9.1h3v15.5h3.3
		c-0.8-0.6-1.2-1.6-1.2-3.1c0-1.2,0.3-2.1,1-2.6s1.6-0.8,3-0.9l2.4-0.2v-0.7c0-0.5-0.1-0.8-0.3-1c-0.2-0.2-0.6-0.3-1-0.3l-4.3,0.2
		l-0.1-2.1c1.6-0.4,3.1-0.7,4.6-0.7c1.5,0,2.5,0.3,3.1,0.9c0.6,0.6,1,1.6,1,2.9v4.7c0,0.4,0.1,0.6,0.2,0.8c0.1,0.1,0.3,0.2,0.6,0.3
		l-0.1,1.7h2.4V9.1h3v15.5h101.6l3.2-18.7l0.5-3.1L1308.3,0H1144l0.1,1.4L1146.1,19.9z M1213,85.9h3v15.8h-3V85.9z M1201.6,95.8
		c0.6-0.5,1.6-0.8,3-0.9l2.4-0.2V94c0-0.5-0.1-0.8-0.3-1c-0.2-0.2-0.6-0.3-1-0.3l-4.3,0.2l-0.1-2.1c1.6-0.4,3.1-0.7,4.6-0.7
		c1.5,0,2.5,0.3,3.1,0.9c0.6,0.6,1,1.6,1,2.9v4.7c0,0.4,0.1,0.6,0.2,0.8c0.1,0.1,0.3,0.2,0.6,0.3l-0.1,2.3c-0.8,0-1.4-0.1-1.8-0.2
		c-0.5-0.1-0.9-0.3-1.4-0.6c-1.1,0.5-2.2,0.8-3.3,0.8c-2.3,0-3.5-1.2-3.5-3.7C1200.6,97.1,1200.9,96.3,1201.6,95.8z"/>
	<path class="st17" d="M1218.5,24.6h0.7c-0.1-0.1-0.2-0.1-0.3-0.2C1218.7,24.5,1218.6,24.6,1218.5,24.6z"/>
	<path class="st18" d="M358.8,4c-1.5-1.4-2.9-2.7-4.3-4h-15.3l9.1,11.4C351.5,8.6,355,6.1,358.8,4z"/>
	<path class="st18" d="M386.1,121.3c15.5,0,29.5,6.2,39.8,16.2l-13.2-33.3c-7.9,4.2-17,6.6-26.6,6.6c-21.2,0-39.6-11.6-49.4-28.8
		l-45.6,14.1l25.1,64.9h15.7C339.2,138,360.7,121.3,386.1,121.3z"/>
	<path class="st2" d="M567.5,161h151.7c-1.8-2.5-3.6-5.1-5.6-7.9L567.5,161z"/>
	<polygon class="st16" points="1062,130.3 1073.8,117.4 1087.4,102.5 1103.3,85.1 1122.2,64.5 1132,53.7 1117.8,49 1095.4,41.6 
		1077,35.5 1061.6,30.4 1048.6,26.1 1037.5,22.4 1023.7,17.9 990.7,6.9 542.3,6 548.3,17.8 954.9,19.6 1101.3,62.9 1034.1,128.6 
		1034,130.4 1033.6,134.9 1031.2,161 1033.9,161 1054.3,138.7 	"/>
	<path class="st19" d="M666.1,94.2h-2v14.4h2c1.7,0,3-0.4,3.8-1.3c0.8-0.9,1.2-2.8,1.2-5.7c0-3-0.3-4.9-0.9-5.9
		C669.5,94.6,668.2,94.2,666.1,94.2z"/>
	<path class="st19" d="M653.8,52c-0.7-1.1-1.8-1.7-3.3-1.7c-0.8,0-1.7,0.1-2.7,0.4s-1.7,0.6-2.2,0.9l-0.8,0.4v12.7
		c1.7,0.3,3.1,0.5,4.3,0.5c2.1,0,3.6-0.6,4.5-1.8c0.9-1.2,1.3-3.1,1.3-5.8C654.9,55.1,654.5,53.2,653.8,52z"/>
	<path class="st19" d="M561.4,63.5c0.9-1.2,1.3-3.1,1.3-5.8c0-2.7-0.4-4.6-1.1-5.7c-0.7-1.1-1.8-1.7-3.3-1.7c-0.8,0-1.7,0.1-2.7,0.4
		s-1.7,0.6-2.2,0.9l-0.8,0.4v12.7c1.7,0.3,3.1,0.5,4.3,0.5C559,65.3,560.5,64.7,561.4,63.5z"/>
	<polygon class="st19" points="558.9,103.6 561.9,103.6 562,99.6 559,99.6 	"/>
	<path class="st19" d="M569.4,58.9c-0.5,0.6-0.8,1.5-0.8,2.7s0.3,2.1,0.8,2.7c0.5,0.6,1.3,1,2.3,1s2-0.1,3.1-0.3
		c1.1-0.2,1.9-0.5,2.5-0.7l0.9-0.3v-6.7l-6.1,0.6C570.8,58,569.9,58.3,569.4,58.9z"/>
	<path class="st19" d="M618.5,93.9h-1v8h1c1.4,0,2.4-0.3,3-0.9c0.6-0.6,0.9-1.7,0.9-3.2s-0.3-2.5-0.9-3.1
		C621,94.1,620,93.9,618.5,93.9z"/>
	<path class="st19" d="M661.6,58.9c-0.5,0.6-0.8,1.5-0.8,2.7s0.3,2.1,0.8,2.7c0.5,0.6,1.3,1,2.3,1s2-0.1,3.1-0.3
		c1.1-0.2,1.9-0.5,2.5-0.7l0.9-0.3v-6.7l-6.1,0.6C663,58,662.1,58.3,661.6,58.9z"/>
	<path class="st19" d="M1032.3,130.4l1.8-1.8l67.2-65.6L954.9,19.6l-406.6-1.8l-118.7-0.5C438,27.1,443,39.9,443,53.9
		c0,21.8-12.3,40.8-30.3,50.3l13.2,33.3c6.6,6.4,11.6,14.5,14.5,23.5h127.1l146.1-7.9l288.9-15.6l-4.9,23.5h3.4l27.6-27
		L1032.3,130.4z M669.5,51.4c-0.6-0.6-1.5-1-2.7-1c-1.2,0-3,0.1-5.2,0.4l-1,0.1l-0.1-1.1c2.5-0.4,4.6-0.6,6.3-0.6
		c3.2,0,4.8,1.7,4.8,5.1v9.5c0.1,0.8,0.9,1.2,2.5,1.4l-0.1,1c-1.6,0-2.7-0.5-3.4-1.4c-2.2,0.9-4.4,1.4-6.6,1.4
		c-1.4,0-2.4-0.4-3.2-1.2s-1.1-2-1.1-3.5c0-1.5,0.4-2.6,1.1-3.4s1.9-1.3,3.5-1.4l6.2-0.7v-1.7C670.4,53,670.1,52,669.5,51.4z
		 M637.3,43h1.2v1.8h-1.2V43z M637.3,49.6h1.2V66h-1.2V49.6z M624.1,51.1c1-1.2,2.8-1.8,5.2-1.8l3.9,0.3l-0.1,1.1
		c-1.8-0.2-3-0.3-3.9-0.3c-2.1,0-3.5,0.5-4.3,1.6c-0.8,1.1-1.2,3-1.2,5.8s0.4,4.8,1.1,5.9c0.7,1.1,2.2,1.7,4.4,1.7l3.9-0.3l0.1,1.1
		c-1.8,0.2-3.2,0.3-4,0.3c-2.7,0-4.5-0.6-5.4-1.9c-0.9-1.3-1.4-3.5-1.4-6.7C622.6,54.5,623.1,52.3,624.1,51.1z M584.7,49.6h1.2v2.6
		c0.7-0.5,1.6-1.1,2.9-1.7s2.5-1,3.6-1.2v1.2c-1,0.2-2,0.5-3.1,1s-1.9,0.9-2.5,1.2l-0.9,0.6V66h-1.2V49.6z M577.3,51.4
		c-0.6-0.6-1.5-1-2.7-1c-1.2,0-3,0.1-5.2,0.4l-1,0.1l-0.1-1.1c2.5-0.4,4.6-0.6,6.3-0.6c3.2,0,4.8,1.7,4.8,5.1v9.5
		c0.1,0.8,0.9,1.2,2.5,1.4l-0.1,1c-1.6,0-2.7-0.5-3.4-1.4c-2.2,0.9-4.4,1.4-6.6,1.4c-1.4,0-2.4-0.4-3.2-1.2s-1.1-2-1.1-3.5
		c0-1.5,0.4-2.6,1.1-3.4s1.9-1.3,3.5-1.4l6.2-0.7v-1.7C578.2,53,577.9,52,577.3,51.4z M551.4,49.6h1.2V51c0.6-0.4,1.5-0.8,2.7-1.2
		c1.1-0.4,2.1-0.5,3-0.5c2,0,3.4,0.7,4.3,2s1.3,3.5,1.3,6.4s-0.5,5.1-1.6,6.5c-1.1,1.4-2.9,2.1-5.4,2.1c-1.5,0-2.9-0.2-4.3-0.5v7.7
		h-1.2V49.6z M573.5,99.6h-2.7l-0.1,3.9h2.8l-0.2,8.7h-2.8l-0.1,5.6h-8.7l0.1-5.6h-3.1l-0.1,5.6h-8.7l0.1-5.6h-2.7l0.3-8.7h2.6
		l0.1-3.9h-2.7l0.3-8.7h2.6l0.2-6.1h8.7l-0.2,6.1h3.1l0.2-6.1h8.7l-0.2,6.1h2.9L573.5,99.6z M599.9,115.9c-2.2,1.7-5.4,2.6-9.8,2.6
		c-2.1,0-4.3-0.1-6.6-0.4c-2.3-0.3-4.1-0.6-5.3-0.9l-1.9-0.4l0.5-8.7c5,0.7,9.2,1.1,12.4,1.1c1.7,0,2.6-0.4,2.6-1.1
		c0-0.3-0.2-0.6-0.6-0.7c-0.4-0.1-1.5-0.4-3.2-0.6c-4.6-0.7-7.7-1.8-9.4-3.4c-1.7-1.5-2.5-4-2.5-7.5c0-4.4,1.1-7.5,3.2-9.1
		c2.1-1.6,5.4-2.5,9.9-2.5c3.1,0,6.8,0.3,11,0.9l2.1,0.3l-0.3,8.9c-4.6-0.5-8-0.7-10.1-0.7c-2.1,0-3.3,0.1-3.7,0.2
		c-0.3,0.1-0.5,0.4-0.5,0.7c0,0.4,0.2,0.6,0.6,0.8c0.4,0.2,1.6,0.5,3.7,1c2.1,0.5,3.8,0.9,5.1,1.4s2.5,1.1,3.6,1.9
		c1.1,0.8,1.8,1.8,2.1,3c0.3,1.2,0.5,2.7,0.5,4.7C603.1,111.3,602,114.2,599.9,115.9z M600.6,66.4c-1.6,0-2.6-0.4-3.3-1.2
		c-0.6-0.8-0.9-2.4-0.9-4.7v-9.9h-2.6v-1.1h2.6v-5.4h1.2v5.4h6v1.1h-6v8.6c0,2.5,0.2,4.2,0.5,4.9c0.4,0.8,1.2,1.1,2.5,1.1l3.2-0.3
		l0.1,1.1C602.5,66.3,601.4,66.4,600.6,66.4z M612.7,49.3c2.1,0,3.6,0.6,4.7,1.9c1,1.2,1.6,3.3,1.6,6v1.1h-11.7
		c0,2.4,0.4,4.1,1.1,5.3c0.7,1.2,2,1.7,3.7,1.7c1.7,0,3.5-0.1,5.2-0.2l1-0.1l0.1,1.1c-2.5,0.2-4.5,0.3-6.1,0.3
		c-2.3,0-3.9-0.7-4.8-2.1c-0.9-1.4-1.3-3.5-1.3-6.4C606,52.1,608.2,49.3,612.7,49.3z M630.4,108c-2.4,1.9-6.2,2.8-11.4,2.8h-1.5v7
		h-11.4v-33h13c5.2,0,9,0.9,11.4,2.7c2.4,1.8,3.6,5.2,3.6,10.2C634,102.7,632.8,106.1,630.4,108z M648.7,117.9h-11.4v-33h11.4V117.9
		z M644.8,65.9v7.7h-1.2v-24h1.2V51c0.6-0.4,1.5-0.8,2.7-1.2c1.1-0.4,2.1-0.5,3-0.5c2,0,3.4,0.7,4.3,2s1.3,3.5,1.3,6.4
		s-0.5,5.1-1.6,6.5c-1.1,1.4-2.9,2.1-5.4,2.1C647.7,66.3,646.2,66.2,644.8,65.9z M679,113.7c-2.4,2.8-6.4,4.2-11.9,4.2h-14.4v-33h14
		c5.7,0,9.8,1.3,12.3,3.8c2.5,2.6,3.7,6.7,3.7,12.3S681.4,110.8,679,113.7z M683.1,61.7c0-1.5,0.4-2.6,1.1-3.4
		c0.7-0.8,1.9-1.3,3.5-1.4l6.2-0.7v-1.7c0-1.4-0.3-2.4-0.9-3.1c-0.6-0.6-1.5-1-2.7-1c-1.2,0-3,0.1-5.2,0.4l-1,0.1l-0.1-1.1
		c2.5-0.4,4.6-0.6,6.3-0.6c3.2,0,4.8,1.7,4.8,5.1v9.5c0.1,0.8,0.9,1.2,2.5,1.4l-0.1,1c-1.6,0-2.7-0.5-3.4-1.4
		c-2.2,0.9-4.4,1.4-6.6,1.4c-1.4,0-2.4-0.4-3.2-1.2S683.1,63.2,683.1,61.7z M725,117.9h-16.7l-1.6-20.3l-0.5,0l-1.7,20.4h-16.3
		l-3.9-33h11.4l1.6,21.5h0.9l2.2-21h12.5l2.5,21h0.9l1-21.5h11.5L725,117.9z M756.3,94H743v2.8h10.4v9H743v3h13.3v9.1h-24.8v-33
		h24.8V94z M784.3,94H771v2.8h10.4v9H771v3h13.3v9.1h-24.8v-33h24.8V94z M805.1,117.9l-4-11h-2v11h-11.4v-33h11.4v11.7h2l3.7-11.7
		h11.3l-5.3,16l5.8,17.1H805.1z"/>
	<path class="st19" d="M616.5,51.9c-0.8-1.1-2.1-1.6-3.8-1.6c-3.6,0-5.4,2.3-5.4,6.9h10.5C617.7,54.8,617.3,53,616.5,51.9z"/>
	<path class="st19" d="M693,64.3l0.9-0.3v-6.7l-6.1,0.6c-1.2,0.1-2.1,0.5-2.7,1.1s-0.8,1.5-0.8,2.7s0.3,2.1,0.8,2.7
		c0.5,0.6,1.3,1,2.3,1s2-0.1,3.1-0.3C691.5,64.7,692.4,64.5,693,64.3z"/>
	<polygon class="st16" points="1274.4,49.9 1273.5,49.9 1271.6,56.5 1276.3,56.5 	"/>
	<path class="st16" d="M1287.2,52.5c0-0.9-0.2-1.5-0.6-1.9c-0.4-0.4-1.1-0.6-1.9-0.6h-3.2v5.2h3.2
		C1286.4,55.1,1287.2,54.2,1287.2,52.5z"/>
	<path class="st16" d="M1303.7,59.9c1.4,0,2.3-0.4,2.8-1.1c0.5-0.8,0.7-2,0.7-3.8s-0.2-3.1-0.7-3.9c-0.5-0.8-1.4-1.2-2.7-1.2
		c-1.4,0-2.3,0.4-2.8,1.3c-0.3,0.5-0.4,1-0.5,1.6c-0.1,0.6-0.1,1.3-0.1,2.2c0,1.8,0.2,3.1,0.7,3.8S1302.3,59.9,1303.7,59.9z"/>
	<path class="st16" d="M1332.7,73l-1.8-3.7l-8.7-18l4.9-9.7L1333,30h-10.1h-121.6v43v0.7h114.1h5.2h12.4L1332.7,73z M1300.1,50.3
		c0.7-1,1.8-1.5,3.6-1.5s2.9,0.5,3.6,1.5c0.7,1,1,2.5,1,4.6c0,2.1-0.3,3.6-1,4.5c-0.7,0.9-1.8,1.4-3.6,1.4c-1.7,0-2.9-0.5-3.6-1.4
		c-0.7-0.9-1-2.4-1-4.5C1299.1,52.8,1299.5,51.3,1300.1,50.3z M1290,59.3l6.4-9v-0.4h-6.4V49h7.5v1.4l-6.4,9v0.4h6.4v0.9h-7.5V59.3z
		 M1280.4,49h4.3c1.2,0,2.1,0.3,2.7,0.8c0.6,0.6,0.9,1.4,0.9,2.6c0,1.9-0.7,3-2.2,3.4l2.4,4.8h-1.2L1285,56h-3.6v4.6h-1V49z
		 M1272.8,49h2.4l3.3,11.6h-1l-0.9-3.2h-5.2l-0.9,3.2h-1L1272.8,49z M1256.5,49h1.9l3.6,10.2l3.6-10.2h1.9v11.6h-1V50.1h-0.2
		l-3.7,10.2h-1.2l-3.7-10.2h-0.2v10.6h-1V49z M1229.7,39.3h17.6v8.6l-6.9,17.6l-8.7-1.8l6.5-15.2v-1h-8.5V39.3z M1208,58.3l3.4-3.3
		c0.7-0.7,1.4-1.4,2.1-2l1.6-1.6c0.4-0.4,0.8-0.9,1.2-1.5c0.4-0.5,0.6-1,0.6-1.2c0.1-0.3,0.1-0.6,0.1-0.8c0-0.7-0.2-1.1-0.6-1.3
		c-0.4-0.2-1.1-0.3-2.1-0.3c-1.9,0-3.6,0.1-5.1,0.4l-0.8,0.2l-0.4-6.7c2.7-1,5.5-1.4,8.5-1.4c2.9,0,5.3,0.7,6.9,2
		c1.7,1.3,2.5,3.2,2.5,5.6s-0.4,4.2-1.2,5.6c-0.8,1.4-2.2,2.8-4.4,4.2l-2.6,1.8h8v7H1208V58.3z"/>
	<path class="st16" d="M1243.8,150.5h53.2h23.9l-6.6-14.9l-3.4-7.5l1.7-3.6l7-14.8l1.4-2.9h-6h-5.2h-111.1v2.9v40.8H1243.8z
		 M1229.1,135v6.9h-17.4v-6.5l3.3-3.2c0.7-0.7,1.4-1.3,2.1-2l1.6-1.6c0.4-0.4,0.8-0.9,1.2-1.4c0.4-0.5,0.6-0.9,0.6-1.2
		c0.1-0.3,0.1-0.5,0.1-0.8c0-0.7-0.2-1.1-0.6-1.3c-0.4-0.2-1.1-0.3-2-0.3c-1.8,0-3.5,0.1-5,0.4l-0.8,0.2l-0.4-6.5
		c2.6-0.9,5.4-1.4,8.3-1.4c2.9,0,5.1,0.7,6.8,2c1.6,1.3,2.5,3.1,2.5,5.4c0,2.3-0.4,4.1-1.1,5.5c-0.8,1.3-2.2,2.7-4.3,4.2l-2.6,1.8
		H1229.1z M1251.2,137.1l-0.9-3.2h-5.2l-0.9,3.2h-1l3.4-11.6h2.4l3.3,11.6H1251.2z M1258.4,133h-3.2v4.1h-1v-11.6h4.3
		c1.2,0,2.2,0.3,2.7,0.9c0.6,0.6,0.9,1.5,0.9,2.8C1262,131.7,1260.8,133,1258.4,133z M1270.9,137.1l-2.3-4.6h-3.6v4.6h-1v-11.6h4.3
		c1.2,0,2.1,0.3,2.7,0.8c0.6,0.6,0.9,1.4,0.9,2.6c0,1.9-0.7,3-2.2,3.4l2.4,4.8H1270.9z M1275.4,137.1h-1v-11.6h1V137.1z
		 M1284.7,137.1h-6.4v-11.6h1v10.7h5.3V137.1z M1293.3,126.4h-5.9v4.3h4.9v0.9h-4.9v4.5h5.9v0.9h-7v-11.6h7V126.4z"/>
	<path class="st16" d="M1258.4,126.3h-3.2v5.7h3.2c1.7,0,2.5-1,2.5-3c0-0.9-0.2-1.6-0.6-2.1C1259.9,126.6,1259.3,126.3,1258.4,126.3
		z"/>
	<polygon class="st16" points="1247.2,126.3 1245.3,132.9 1250,132.9 1248.1,126.3 	"/>
	<path class="st16" d="M1270.9,128.9c0-0.9-0.2-1.5-0.6-1.9c-0.4-0.4-1.1-0.6-1.9-0.6h-3.2v5.2h3.2
		C1270,131.5,1270.9,130.7,1270.9,128.9z"/>
	<path class="st16" d="M348.3,11.4L391,65.2L336.7,82c9.8,17.2,28.3,28.8,49.4,28.8c9.6,0,18.6-2.4,26.6-6.6
		c18-9.5,30.3-28.5,30.3-50.3c0-14-5-26.8-13.4-36.7C423,9.4,414.3,3.4,404.3,0h-36.5c-3.2,1.1-6.2,2.4-9.1,4
		C355,6.1,351.5,8.6,348.3,11.4z"/>
	<path class="st16" d="M386.1,121.3c-25.4,0-47,16.7-54.2,39.7h108.5c-2.8-9-7.9-17-14.5-23.5C415.6,127.5,401.6,121.3,386.1,121.3z
		"/>
	<path class="st16" d="M244.1,42.3c1.4,1.3,3.3,1.5,5.8,0.8c2.5-0.8,4-2,4.4-3.8c0.4-1.8,0.1-4.5-1-8c-1.1-3.6-2.3-6-3.7-7.4
		c-1.4-1.4-3.3-1.7-5.8-0.9c-2.5,0.7-3.9,2.1-4.3,4c-0.4,1.9-0.1,4.6,0.9,8.2C241.6,38.6,242.8,41,244.1,42.3z"/>
	<path class="st16" d="M222.4,73.8c-1-3.3-2.1-5.5-3.3-6.7c-1.2-1.2-3.1-1.4-5.7-0.7l-5,1.5l5.8,19.3l5-1.5c2.6-0.8,4-2.3,4.3-4.4
		c0.1-1.1,0.1-2.2-0.1-3.4C223.2,76.8,222.9,75.4,222.4,73.8z"/>
	<path class="st16" d="M126,102.6c-1-3.3-2.1-5.5-3.3-6.7c-1.2-1.2-3.1-1.4-5.7-0.7l-5,1.5l5.8,19.3l5-1.5c2.6-0.8,4-2.3,4.3-4.4
		c0.1-1.1,0.1-2.2-0.1-3.4C126.8,105.6,126.4,104.2,126,102.6z"/>
	<path class="st16" d="M185.5,76.1c-1-0.6-2.3-0.7-4-0.2l-5.5,1.6l3.3,11l5.5-1.6c3.1-0.9,4.1-3.3,3-7.2
		C187.3,78,186.5,76.7,185.5,76.1z"/>
	<path class="st16" d="M84.3,160l206.8-63.9L336.7,82L391,65.2l-42.7-53.8L339.2,0H187.7L36,35.5L84.3,160z M131.5,112
		c-0.7,3-3.3,5.1-7.6,6.4l-9.3,2.8l-8.1-26.9l9.3-2.8c4.1-1.2,7.3-1,9.4,0.6c2.1,1.6,3.9,4.7,5.2,9.2c0.7,2.3,1.1,4.3,1.3,5.9
		C131.9,108.9,131.8,110.5,131.5,112z M139.1,113.9L131,86.9l4.4-1.3l8.1,26.9L139.1,113.9z M192.1,86.2c-1,2.1-3.1,3.6-6.1,4.5
		l-5.5,1.6l2.5,8.4l-4.4,1.3l-8.1-26.9l9.9-3c6.1-1.8,10.1,0.3,11.9,6.3C193.3,81.5,193.2,84.1,192.1,86.2z M201.3,95.3l-8.1-26.9
		l4.4-1.3l8.1,26.9L201.3,95.3z M227.9,83.2c-0.7,3-3.3,5.1-7.6,6.4l-9.3,2.8l-8.1-26.9l9.3-2.8c4.1-1.2,7.3-1,9.4,0.6
		c2.1,1.6,3.9,4.7,5.2,9.2c0.7,2.3,1.1,4.3,1.3,5.9C228.4,80,228.3,81.6,227.9,83.2z M235.3,25.1c0.9-2.8,3.4-4.8,7.5-6
		c4-1.2,7.2-0.9,9.5,0.9c2.3,1.8,4.2,5.1,5.6,9.9c1.4,4.8,1.7,8.5,0.7,11.2c-1,2.7-3.5,4.6-7.5,5.9s-7.2,1-9.5-0.8
		c-2.3-1.7-4.1-5-5.6-9.7C234.6,31.6,234.3,27.9,235.3,25.1z M214.4,28l15.1,20.6l0.6-0.2l-6.9-23.1l4.4-1.3l8.1,26.9l-7.5,2.2
		l-15.3-20.6l-0.6,0.2l6.9,23.1l-4.4,1.3l-8.1-26.9L214.4,28z M188.2,35.8l15.1,20.6l0.6-0.2L197,33.2l4.4-1.3l8.1,26.9l-7.5,2.2
		l-15.3-20.6l-0.5,0.2l6.9,23.1l-4.4,1.3l-8.1-26.9L188.2,35.8z M170.5,41.1l14.7,24.9l-4.4,1.3l-3.2-5.3l-10.3,3.1l0.3,6.2
		l-4.4,1.3l-1.4-28.9L170.5,41.1z M157.5,78.5c2-0.6,4.5-1.1,7.4-1.4l1.4-0.2l0.7,3.6c-3.8,0.7-6.5,1.2-8,1.7c-3.3,1-4.6,2.7-3.9,5
		c0.4,1.2,1,1.9,2,2.2c0.9,0.3,2.9,0.4,5.8,0.3c2.9-0.1,5.1,0.3,6.5,1c1.4,0.7,2.5,2.2,3.1,4.4c0.8,2.8,0.7,5.2-0.5,7.1
		c-1.2,1.9-3.2,3.2-6,4.1c-2.2,0.7-4.8,1.1-7.6,1.4l-1.5,0.1l-0.6-3.6c3.7-0.6,6.5-1.2,8.3-1.7c3.3-1,4.4-2.9,3.6-5.8
		c-0.3-1.1-1-1.8-1.8-2.2c-0.9-0.3-2.7-0.4-5.5-0.3c-2.8,0.1-4.9-0.2-6.5-0.9c-1.6-0.8-2.8-2.3-3.5-4.8c-0.7-2.4-0.5-4.5,0.7-6.2
		C152.7,80.6,154.7,79.3,157.5,78.5z M129.6,53.4L144.7,74l0.6-0.2l-6.9-23.1l4.4-1.3l8.1,26.9l-7.5,2.2L128,58l-0.6,0.2l6.9,23.1
		l-4.4,1.3L122,55.6L129.6,53.4z M101.3,61.8l5.5,18.3c1,3.5,3.4,4.7,7.1,3.6c3.7-1.1,5-3.4,3.9-6.9l-5.5-18.3l4.4-1.3l5.5,18.3
		c0.9,3.2,0.8,5.7-0.4,7.7c-1.2,2-3.5,3.4-6.8,4.4c-3.3,1-6,1-8.1,0c-2.1-1-3.6-3-4.6-6.2l-5.5-18.3L101.3,61.8z"/>
	<polygon class="st16" points="175.6,58.5 168.2,45.8 166.2,46.4 167,61 	"/>
	<polygon class="st17" points="1257.5,50.1 1257.7,50.1 1261.4,60.2 1262.6,60.2 1266.3,50.1 1266.5,50.1 1266.5,60.6 1267.5,60.6 
		1267.5,49 1265.6,49 1262,59.2 1258.4,49 1256.5,49 1256.5,60.6 1257.5,60.6 	"/>
	<path class="st17" d="M1271.4,57.4h5.2l0.9,3.2h1l-3.3-11.6h-2.4l-3.4,11.6h1L1271.4,57.4z M1273.5,49.9h0.9l1.9,6.6h-4.7
		L1273.5,49.9z"/>
	<path class="st17" d="M1281.4,56h3.6l2.3,4.6h1.2l-2.4-4.8c1.5-0.4,2.2-1.5,2.2-3.4c0-1.2-0.3-2.1-0.9-2.6
		c-0.6-0.6-1.5-0.8-2.7-0.8h-4.3v11.6h1V56z M1281.4,49.9h3.2c0.9,0,1.5,0.2,1.9,0.6c0.4,0.4,0.6,1.1,0.6,1.9c0,1.8-0.8,2.7-2.5,2.7
		h-3.2V49.9z"/>
	<polygon class="st17" points="1297.5,59.7 1291.1,59.7 1291.1,59.4 1297.5,50.4 1297.5,49 1290,49 1290,49.9 1296.3,49.9 
		1296.3,50.3 1290,59.3 1290,60.6 1297.5,60.6 	"/>
	<path class="st17" d="M1303.7,60.8c1.7,0,2.9-0.5,3.6-1.4c0.7-0.9,1-2.4,1-4.5c0-2.1-0.3-3.6-1-4.6c-0.7-1-1.9-1.5-3.6-1.5
		s-2.9,0.5-3.6,1.5c-0.7,1-1,2.5-1,4.6c0,2,0.3,3.5,1,4.5C1300.8,60.3,1301.9,60.8,1303.7,60.8z M1300.3,52.7
		c0.1-0.6,0.3-1.1,0.5-1.6c0.5-0.9,1.4-1.3,2.8-1.3c1.3,0,2.3,0.4,2.7,1.2c0.5,0.8,0.7,2.1,0.7,3.9s-0.2,3.1-0.7,3.8
		c-0.5,0.8-1.4,1.1-2.8,1.1c-1.4,0-2.3-0.4-2.8-1.2s-0.7-2.1-0.7-3.8C1300.2,54,1300.2,53.3,1300.3,52.7z"/>
	<path class="st17" d="M1246.5,125.4l-3.4,11.6h1l0.9-3.2h5.2l0.9,3.2h1l-3.3-11.6H1246.5z M1245.3,132.9l1.9-6.6h0.9l1.9,6.6
		H1245.3z"/>
	<path class="st17" d="M1258.4,125.4h-4.3v11.6h1V133h3.2c2.4,0,3.6-1.3,3.6-3.9c0-1.2-0.3-2.2-0.9-2.8
		C1260.5,125.7,1259.6,125.4,1258.4,125.4z M1258.4,132.1h-3.2v-5.7h3.2c0.9,0,1.5,0.2,1.9,0.7c0.4,0.4,0.6,1.1,0.6,2.1
		C1260.9,131.1,1260.1,132.1,1258.4,132.1z"/>
	<path class="st17" d="M1271.9,128.9c0-1.2-0.3-2.1-0.9-2.6c-0.6-0.6-1.5-0.8-2.7-0.8h-4.3v11.6h1v-4.6h3.6l2.3,4.6h1.2l-2.4-4.8
		C1271.2,131.9,1271.9,130.7,1271.9,128.9z M1268.3,131.5h-3.2v-5.2h3.2c0.9,0,1.5,0.2,1.9,0.6c0.4,0.4,0.6,1.1,0.6,1.9
		C1270.9,130.7,1270,131.5,1268.3,131.5z"/>
	<rect x="1274.4" y="125.4" class="st17" width="1" height="11.6"/>
	<polygon class="st17" points="1279.3,125.4 1278.3,125.4 1278.3,137.1 1284.7,137.1 1284.7,136.1 1279.3,136.1 	"/>
	<polygon class="st17" points="1286.3,137.1 1293.3,137.1 1293.3,136.1 1287.4,136.1 1287.4,131.6 1292.3,131.6 1292.3,130.7 
		1287.4,130.7 1287.4,126.4 1293.3,126.4 1293.3,125.4 1286.3,125.4 	"/>
	<path class="st17" d="M1228.1,129c0.8-1.3,1.1-3.1,1.1-5.5c0-2.3-0.8-4.1-2.5-5.4c-1.6-1.3-3.9-2-6.8-2c-2.9,0-5.6,0.5-8.3,1.4
		l0.4,6.5l0.8-0.2c1.5-0.3,3.2-0.4,5-0.4c1,0,1.6,0.1,2,0.3c0.4,0.2,0.6,0.6,0.6,1.3c0,0.3,0,0.6-0.1,0.8c-0.1,0.3-0.3,0.7-0.6,1.2
		c-0.4,0.5-0.7,1-1.2,1.4l-1.6,1.6c-0.7,0.7-1.3,1.3-2.1,2l-3.3,3.2v6.5h17.4V135h-7.8l2.6-1.8
		C1225.9,131.7,1227.4,130.3,1228.1,129z"/>
	<path class="st17" d="M552.6,65.9c1.4,0.3,2.8,0.5,4.3,0.5c2.5,0,4.3-0.7,5.4-2.1c1.1-1.4,1.6-3.6,1.6-6.5s-0.4-5.1-1.3-6.4
		s-2.3-2-4.3-2c-0.9,0-1.9,0.2-3,0.5c-1.1,0.4-2,0.7-2.7,1.2v-1.4h-1.2v24h1.2V65.9z M552.6,52.1l0.8-0.4c0.5-0.3,1.3-0.6,2.2-0.9
		s1.8-0.4,2.7-0.4c1.5,0,2.6,0.6,3.3,1.7c0.7,1.1,1.1,3,1.1,5.7c0,2.7-0.4,4.6-1.3,5.8c-0.9,1.2-2.4,1.8-4.5,1.8
		c-1.2,0-2.7-0.2-4.3-0.5V52.1z"/>
	<path class="st17" d="M571.9,56.8c-1.6,0.2-2.7,0.6-3.5,1.4s-1.1,1.9-1.1,3.4c0,1.5,0.4,2.7,1.1,3.5s1.8,1.2,3.2,1.2
		c2.2,0,4.4-0.5,6.6-1.4c0.7,0.9,1.8,1.4,3.4,1.4l0.1-1c-1.6-0.1-2.4-0.6-2.5-1.4v-9.5c0-3.4-1.6-5.1-4.8-5.1
		c-1.8,0-3.9,0.2-6.3,0.6l0.1,1.1l1-0.1c2.2-0.3,3.9-0.4,5.2-0.4c1.2,0,2.1,0.3,2.7,1c0.6,0.6,0.9,1.7,0.9,3.1v1.7L571.9,56.8z
		 M578.2,63.9l-0.9,0.3c-0.6,0.2-1.5,0.4-2.5,0.7c-1.1,0.2-2.1,0.3-3.1,0.3s-1.7-0.3-2.3-1c-0.5-0.6-0.8-1.6-0.8-2.7
		s0.3-2.1,0.8-2.7c0.5-0.6,1.4-1,2.7-1.1l6.1-0.6V63.9z"/>
	<path class="st17" d="M585.8,53.3l0.9-0.6c0.6-0.4,1.4-0.8,2.5-1.2s2.1-0.8,3.1-1v-1.2c-1.1,0.2-2.3,0.6-3.6,1.2s-2.3,1.2-2.9,1.7
		v-2.6h-1.2V66h1.2V53.3z"/>
	<path class="st17" d="M600.6,65.3c-1.3,0-2.1-0.4-2.5-1.1c-0.4-0.8-0.5-2.4-0.5-4.9v-8.6h6v-1.1h-6v-5.4h-1.2v5.4h-2.6v1.1h2.6v9.9
		c0,2.3,0.3,3.9,0.9,4.7c0.6,0.8,1.7,1.2,3.3,1.2c0.8,0,1.9-0.1,3.3-0.3l-0.1-1.1L600.6,65.3z"/>
	<path class="st17" d="M612.2,66.3c1.6,0,3.6-0.1,6.1-0.3l-0.1-1.1l-1,0.1c-1.7,0.2-3.4,0.2-5.2,0.2c-1.7,0-3-0.6-3.7-1.7
		c-0.7-1.2-1.1-2.9-1.1-5.3h11.7v-1.1c0-2.8-0.5-4.8-1.6-6c-1-1.2-2.6-1.9-4.7-1.9c-4.4,0-6.6,2.8-6.6,8.5c0,2.9,0.4,5,1.3,6.4
		C608.3,65.6,609.9,66.3,612.2,66.3z M612.7,50.4c1.8,0,3,0.5,3.8,1.6c0.8,1.1,1.2,2.8,1.2,5.3h-10.5
		C607.2,52.7,609,50.4,612.7,50.4z"/>
	<path class="st17" d="M629.3,66.3c0.8,0,2.2-0.1,4-0.3l-0.1-1.1l-3.9,0.3c-2.2,0-3.7-0.6-4.4-1.7c-0.7-1.1-1.1-3.1-1.1-5.9
		s0.4-4.7,1.2-5.8c0.8-1.1,2.2-1.6,4.3-1.6c0.8,0,2.1,0.1,3.9,0.3l0.1-1.1l-3.9-0.3c-2.5,0-4.2,0.6-5.2,1.8s-1.5,3.4-1.5,6.6
		c0,3.2,0.5,5.4,1.4,6.7C624.9,65.7,626.6,66.3,629.3,66.3z"/>
	<rect x="637.3" y="49.6" class="st17" width="1.2" height="16.4"/>
	<rect x="637.3" y="43" class="st17" width="1.2" height="1.8"/>
	<path class="st17" d="M654.5,64.3c1.1-1.4,1.6-3.6,1.6-6.5s-0.4-5.1-1.3-6.4s-2.3-2-4.3-2c-0.9,0-1.9,0.2-3,0.5
		c-1.1,0.4-2,0.7-2.7,1.2v-1.4h-1.2v24h1.2v-7.7c1.4,0.3,2.8,0.5,4.3,0.5C651.7,66.3,653.5,65.6,654.5,64.3z M649.1,65.3
		c-1.2,0-2.7-0.2-4.3-0.5V52.1l0.8-0.4c0.5-0.3,1.3-0.6,2.2-0.9s1.8-0.4,2.7-0.4c1.5,0,2.6,0.6,3.3,1.7c0.7,1.1,1.1,3,1.1,5.7
		c0,2.7-0.4,4.6-1.3,5.8C652.7,64.7,651.3,65.3,649.1,65.3z"/>
	<path class="st17" d="M664.1,56.8c-1.6,0.2-2.7,0.6-3.5,1.4s-1.1,1.9-1.1,3.4c0,1.5,0.4,2.7,1.1,3.5s1.8,1.2,3.2,1.2
		c2.2,0,4.4-0.5,6.6-1.4c0.7,0.9,1.8,1.4,3.4,1.4l0.1-1c-1.6-0.1-2.4-0.6-2.5-1.4v-9.5c0-3.4-1.6-5.1-4.8-5.1
		c-1.8,0-3.9,0.2-6.3,0.6l0.1,1.1l1-0.1c2.2-0.3,3.9-0.4,5.2-0.4c1.2,0,2.1,0.3,2.7,1c0.6,0.6,0.9,1.7,0.9,3.1v1.7L664.1,56.8z
		 M670.4,63.9l-0.9,0.3c-0.6,0.2-1.5,0.4-2.5,0.7c-1.1,0.2-2.1,0.3-3.1,0.3s-1.7-0.3-2.3-1c-0.5-0.6-0.8-1.6-0.8-2.7
		s0.3-2.1,0.8-2.7c0.5-0.6,1.4-1,2.7-1.1l6.1-0.6V63.9z"/>
	<path class="st17" d="M694.1,64.9c0.7,0.9,1.8,1.4,3.4,1.4l0.1-1c-1.6-0.1-2.4-0.6-2.5-1.4v-9.5c0-3.4-1.6-5.1-4.8-5.1
		c-1.8,0-3.9,0.2-6.3,0.6L684,51l1-0.1c2.2-0.3,3.9-0.4,5.2-0.4c1.2,0,2.1,0.3,2.7,1c0.6,0.6,0.9,1.7,0.9,3.1v1.7l-6.2,0.7
		c-1.6,0.2-2.7,0.6-3.5,1.4c-0.7,0.8-1.1,1.9-1.1,3.4c0,1.5,0.4,2.7,1.1,3.5s1.8,1.2,3.2,1.2C689.6,66.3,691.8,65.9,694.1,64.9z
		 M685.1,64.3c-0.5-0.6-0.8-1.6-0.8-2.7s0.3-2.1,0.8-2.7s1.4-1,2.7-1.1l6.1-0.6v6.7l-0.9,0.3c-0.6,0.2-1.5,0.4-2.5,0.7
		c-1.1,0.2-2.1,0.3-3.1,0.3S685.7,65,685.1,64.3z"/>
	<path class="st17" d="M571.2,84.8h-8.7l-0.2,6.1h-3.1l0.2-6.1h-8.7l-0.2,6.1h-2.6l-0.3,8.7h2.7l-0.1,3.9h-2.6l-0.3,8.7h2.7
		l-0.1,5.6h8.7l0.1-5.6h3.1l-0.1,5.6h8.7l0.1-5.6h2.8l0.2-8.7h-2.8l0.1-3.9h2.7l0.3-8.7H571L571.2,84.8z M561.9,103.6h-3.1l0.1-3.9
		h3.1L561.9,103.6z"/>
	<path class="st17" d="M600.5,99.6c-1.1-0.8-2.3-1.4-3.6-1.9s-3-0.9-5.1-1.4c-2.1-0.5-3.3-0.8-3.7-1c-0.4-0.2-0.6-0.5-0.6-0.8
		c0-0.4,0.2-0.6,0.5-0.7c0.3-0.1,1.6-0.2,3.7-0.2c2.1,0,5.5,0.2,10.1,0.7l0.3-8.9l-2.1-0.3c-4.2-0.6-7.9-0.9-11-0.9
		c-4.4,0-7.7,0.8-9.9,2.5c-2.1,1.6-3.2,4.7-3.2,9.1c0,3.5,0.8,6,2.5,7.5c1.7,1.5,4.8,2.7,9.4,3.4c1.7,0.3,2.8,0.5,3.2,0.6
		c0.4,0.1,0.6,0.4,0.6,0.7c0,0.8-0.9,1.1-2.6,1.1c-3.2,0-7.3-0.4-12.4-1.1l-0.5,8.7l1.9,0.4c1.2,0.3,3,0.6,5.3,0.9
		c2.3,0.3,4.5,0.4,6.6,0.4c4.4,0,7.6-0.9,9.8-2.6s3.3-4.7,3.3-8.7c0-2-0.2-3.5-0.5-4.7C602.2,101.3,601.5,100.4,600.5,99.6z"/>
	<path class="st17" d="M630.4,87.5c-2.4-1.8-6.2-2.7-11.4-2.7h-13v33h11.4v-7h1.5c5.2,0,9-0.9,11.4-2.8c2.4-1.9,3.6-5.3,3.6-10.3
		C634,92.8,632.8,89.4,630.4,87.5z M621.6,100.9c-0.6,0.6-1.6,0.9-3,0.9h-1v-8h1c1.5,0,2.5,0.3,3.1,0.8c0.6,0.5,0.9,1.5,0.9,3.1
		S622.2,100.3,621.6,100.9z"/>
	<rect x="637.2" y="84.8" class="st17" width="11.4" height="33"/>
	<path class="st17" d="M666.6,84.8h-14v33h14.4c5.6,0,9.5-1.4,11.9-4.2c2.4-2.8,3.6-7,3.6-12.7s-1.2-9.7-3.7-12.3
		C676.3,86.1,672.2,84.8,666.6,84.8z M669.9,107.3c-0.8,0.9-2.1,1.3-3.8,1.3h-2V94.2h2c2.1,0,3.5,0.5,4.1,1.5c0.6,1,0.9,3,0.9,5.9
		C671,104.5,670.7,106.4,669.9,107.3z"/>
	<polygon class="st17" points="716.2,106.3 715.3,106.3 712.8,85.3 700.3,85.3 698.1,106.3 697.2,106.3 695.6,84.8 684.3,84.8 
		688.2,117.9 704.5,117.9 706.1,97.5 706.6,97.6 708.3,117.9 725,117.9 728.6,84.8 717.1,84.8 	"/>
	<polygon class="st17" points="731.5,117.9 756.3,117.9 756.3,108.7 743,108.7 743,105.8 753.3,105.8 753.3,96.8 743,96.8 743,94 
		756.3,94 756.3,84.8 731.5,84.8 	"/>
	<polygon class="st17" points="759.6,117.9 784.3,117.9 784.3,108.7 771,108.7 771,105.8 781.4,105.8 781.4,96.8 771,96.8 771,94 
		784.3,94 784.3,84.8 759.6,84.8 	"/>
	<polygon class="st17" points="816.1,84.8 804.8,84.8 801.1,96.5 799.1,96.5 799.1,84.8 787.6,84.8 787.6,117.9 799.1,117.9 
		799.1,106.9 801.1,106.9 805.1,117.9 816.6,117.9 810.8,100.8 	"/>
	<path class="st17" d="M106.9,87.6c2.1,1,4.8,1,8.1,0c3.3-1,5.6-2.5,6.8-4.4c1.2-2,1.4-4.5,0.4-7.7l-5.5-18.3l-4.4,1.3l5.5,18.3
		c1,3.5-0.3,5.8-3.9,6.9c-3.7,1.1-6-0.1-7.1-3.6l-5.5-18.3l-4.4,1.3l5.5,18.3C103.3,84.6,104.8,86.6,106.9,87.6z"/>
	<polygon class="st17" points="134.4,81.3 127.5,58.2 128,58 143.3,78.6 150.8,76.4 142.7,49.4 138.4,50.7 145.3,73.8 144.7,74 
		129.6,53.4 122,55.6 130,82.6 	"/>
	<path class="st17" d="M167.5,71.4l-0.3-6.2l10.3-3.1l3.2,5.3l4.4-1.3l-14.7-24.9l-8.7,2.6l1.4,28.9L167.5,71.4z M168.2,45.8
		l7.4,12.7L167,61l-0.7-14.7L168.2,45.8z"/>
	<polygon class="st17" points="193,63.8 186.1,40.6 186.6,40.5 201.9,61.1 209.4,58.8 201.4,31.9 197,33.2 203.9,56.3 203.3,56.5 
		188.2,35.8 180.6,38.1 188.6,65.1 	"/>
	<polygon class="st17" points="219.2,55.9 212.2,32.8 212.8,32.6 228.1,53.3 235.6,51 227.5,24.1 223.1,25.4 230,48.5 229.5,48.7 
		214.4,28 206.7,30.3 214.8,57.2 	"/>
	<path class="st17" d="M241.5,46.1c2.3,1.7,5.5,2,9.5,0.8s6.6-3.2,7.5-5.9c1-2.7,0.7-6.4-0.7-11.2c-1.4-4.8-3.3-8.1-5.6-9.9
		c-2.3-1.8-5.5-2.1-9.5-0.9c-4,1.2-6.5,3.2-7.5,6c-0.9,2.8-0.7,6.6,0.7,11.3C237.4,41.1,239.3,44.4,241.5,46.1z M239.6,26.8
		c0.4-1.9,1.9-3.2,4.3-4c2.5-0.7,4.4-0.4,5.8,0.9c1.4,1.4,2.6,3.8,3.7,7.4c1.1,3.6,1.4,6.3,1,8c-0.4,1.8-1.9,3.1-4.4,3.8
		c-2.5,0.8-4.5,0.5-5.8-0.8c-1.4-1.3-2.6-3.7-3.6-7.3C239.4,31.4,239.1,28.7,239.6,26.8z"/>
	<path class="st17" d="M130.5,101.3c-1.3-4.5-3.1-7.5-5.2-9.2c-2.1-1.6-5.3-1.8-9.4-0.6l-9.3,2.8l8.1,26.9l9.3-2.8
		c4.3-1.3,6.9-3.4,7.6-6.4c0.4-1.5,0.5-3.1,0.3-4.8C131.6,105.5,131.2,103.6,130.5,101.3z M127.1,110.1c-0.3,2.2-1.7,3.6-4.3,4.4
		l-5,1.5L112,96.8l5-1.5c2.5-0.8,4.4-0.5,5.7,0.7c1.2,1.2,2.4,3.4,3.3,6.7c0.5,1.6,0.8,3,1,4.2C127.2,107.9,127.2,109,127.1,110.1z"
		/>
	
		<rect x="135" y="85.7" transform="matrix(0.9581 -0.2865 0.2865 0.9581 -22.8263 43.5019)" class="st17" width="4.6" height="28.1"/>
	<path class="st17" d="M150.7,88.6c0.7,2.4,1.9,4,3.5,4.8c1.6,0.8,3.8,1.1,6.5,0.9c2.8-0.1,4.6,0,5.5,0.3c0.9,0.3,1.5,1,1.8,2.2
		c0.9,2.9-0.3,4.8-3.6,5.8c-1.9,0.6-4.6,1.1-8.3,1.7l0.6,3.6l1.5-0.1c2.9-0.3,5.4-0.8,7.6-1.4c2.8-0.8,4.8-2.2,6-4.1
		c1.2-1.9,1.4-4.2,0.5-7.1c-0.7-2.2-1.7-3.7-3.1-4.4c-1.4-0.7-3.6-1-6.5-1c-2.9,0.1-4.8-0.1-5.8-0.3c-0.9-0.3-1.6-1-2-2.2
		c-0.7-2.3,0.6-4,3.9-5c1.5-0.5,4.2-1,8-1.7l-0.7-3.6l-1.4,0.2c-2.9,0.4-5.4,0.8-7.4,1.4c-2.8,0.8-4.8,2.1-6,3.8
		C150.2,84.1,150,86.1,150.7,88.6z"/>
	<path class="st17" d="M180.5,72.1l-9.9,3l8.1,26.9l4.4-1.3l-2.5-8.4l5.5-1.6c3-0.9,5.1-2.4,6.1-4.5c1-2.1,1.1-4.7,0.2-7.8
		C190.5,72.4,186.6,70.3,180.5,72.1z M184.8,86.9l-5.5,1.6l-3.3-11l5.5-1.6c1.6-0.5,2.9-0.4,4,0.2c1,0.6,1.8,1.8,2.3,3.7
		C189,83.6,188,86,184.8,86.9z"/>
	
		<rect x="197.1" y="67.1" transform="matrix(0.9581 -0.2865 0.2865 0.9581 -14.8911 60.5385)" class="st17" width="4.6" height="28.1"/>
	<path class="st17" d="M226.9,72.4c-1.3-4.5-3.1-7.5-5.2-9.2c-2.1-1.6-5.3-1.8-9.4-0.6l-9.3,2.8l8.1,26.9l9.3-2.8
		c4.3-1.3,6.9-3.4,7.6-6.4c0.4-1.5,0.5-3.1,0.3-4.8C228,76.7,227.6,74.7,226.9,72.4z M223.5,81.3c-0.3,2.2-1.7,3.6-4.3,4.4l-5,1.5
		l-5.8-19.3l5-1.5c2.5-0.8,4.4-0.5,5.7,0.7c1.2,1.2,2.4,3.4,3.3,6.7c0.5,1.6,0.8,3,1,4.2C223.6,79.1,223.6,80.2,223.5,81.3z"/>
	<path class="st16" d="M1206.7,24.6c0.1,0,0.2-0.1,0.3-0.1v0.1V25h3v-0.4V9.1h-3v4.6l-0.4-0.1c-0.9-0.2-1.5-0.2-2-0.2
		c-1.6,0-2.7,0.5-3.5,1.4c-0.8,0.9-1.2,2.4-1.2,4.5c0,2.1,0.3,3.6,1,4.5c0.2,0.3,0.5,0.6,0.9,0.8c0.6,0.4,1.5,0.6,2.6,0.6
		C1204.9,25.2,1205.7,25,1206.7,24.6z M1204.7,16c0.6,0,1.4,0.1,2.2,0.2v6l-0.3,0.1c-0.7,0.2-1.4,0.3-2,0.3c-0.6,0-1.1-0.2-1.3-0.7
		c-0.3-0.5-0.4-1.3-0.4-2.5C1202.9,17.1,1203.5,16,1204.7,16z"/>
	<path class="st16" d="M1218.5,24.6c0.1-0.1,0.3-0.1,0.4-0.2c0.1,0.1,0.2,0.1,0.3,0.2c0.4,0.2,0.7,0.4,1.1,0.5
		c0.5,0.1,1.1,0.2,1.8,0.2l0-0.6l0.1-1.7c-0.3-0.1-0.5-0.2-0.6-0.3c-0.1-0.1-0.2-0.4-0.2-0.8v-4.7c0-1.3-0.3-2.3-1-2.9
		c-0.6-0.6-1.7-0.9-3.1-0.9c-1.5,0-3,0.2-4.6,0.7l0.1,2.1l4.3-0.2c0.5,0,0.8,0.1,1,0.3c0.2,0.2,0.3,0.5,0.3,1v0.7l-2.4,0.2
		c-1.3,0.1-2.3,0.4-3,0.9s-1,1.4-1,2.6c0,1.5,0.4,2.5,1.2,3.1c0.6,0.4,1.3,0.6,2.3,0.6C1216.5,25.2,1217.5,25,1218.5,24.6z
		 M1216.3,20.2l2.1-0.2v2.4l-0.3,0.1c-0.7,0.2-1.3,0.3-1.9,0.3c-0.7,0-1.1-0.4-1.1-1.2C1215.1,20.7,1215.5,20.3,1216.3,20.2z"/>
	<polygon class="st16" points="1227.5,25 1227.5,24.6 1227.5,9.1 1224.5,9.1 1224.5,24.6 1224.5,25 	"/>
	<path class="st16" d="M1204.1,102.1c1.1,0,2.2-0.3,3.3-0.8c0.5,0.3,0.9,0.5,1.4,0.6c0.5,0.1,1.1,0.2,1.8,0.2l0.1-2.3
		c-0.3-0.1-0.5-0.2-0.6-0.3c-0.1-0.1-0.2-0.4-0.2-0.8V94c0-1.3-0.3-2.3-1-2.9c-0.6-0.6-1.7-0.9-3.1-0.9c-1.5,0-3,0.2-4.6,0.7
		l0.1,2.1l4.3-0.2c0.5,0,0.8,0.1,1,0.3c0.2,0.2,0.3,0.5,0.3,1v0.7l-2.4,0.2c-1.3,0.1-2.3,0.4-3,0.9c-0.6,0.5-1,1.4-1,2.6
		C1200.6,100.8,1201.8,102.1,1204.1,102.1z M1204.9,97l2.1-0.2v2.4l-0.3,0.1c-0.7,0.2-1.3,0.3-1.9,0.3c-0.7,0-1.1-0.4-1.1-1.2
		S1204.1,97.1,1204.9,97z"/>
	<rect x="1213" y="85.9" class="st16" width="3" height="15.8"/>
	<path class="st17" d="M1225.8,58h-8l2.6-1.8c2.1-1.5,3.6-2.9,4.4-4.2c0.8-1.4,1.2-3.2,1.2-5.6s-0.8-4.2-2.5-5.6c-1.7-1.3-4-2-6.9-2
		c-2.9,0-5.8,0.5-8.5,1.4l0.4,6.7l0.8-0.2c1.6-0.3,3.3-0.4,5.1-0.4c1,0,1.7,0.1,2.1,0.3c0.4,0.2,0.6,0.6,0.6,1.3
		c0,0.3,0,0.6-0.1,0.8c-0.1,0.3-0.3,0.7-0.6,1.2c-0.4,0.5-0.8,1-1.2,1.5l-1.6,1.6c-0.7,0.7-1.4,1.4-2.1,2l-3.4,3.3V65h17.8V58z"/>
	<polygon class="st17" points="1238.2,48.5 1231.7,63.7 1240.4,65.5 1247.3,47.9 1247.3,39.3 1229.7,39.3 1229.7,47.5 1238.2,47.5 	
		"/>
</g>
</svg>
