<svg xmlns="http://www.w3.org/2000/svg" viewBox="1598.65 476 184.798 184.798">
  <defs>
    <style>
      .cls-1 {
        fill: #35acd6;
      }

      .cls-2 {
        fill: #e0ae89;
      }

      .cls-3 {
        fill: #e8b48e;
      }

      .cls-4 {
        fill: #f5c092;
      }

      .cls-5 {
        fill: #f9c293;
      }

      .cls-6 {
        fill: #fff;
      }

      .cls-7 {
        font-size: 10px;
        font-family: TitilliumWeb-Regular, Titillium Web;
      }

      .cls-8 {
        fill: none;
        opacity: 0.7;
      }

      .cls-9 {
        fill: #efc761;
      }

      .cls-10 {
        fill: #06c;
      }
    </style>
  </defs>
  <g id="group-2" transform="translate(1 -129)">
    <ellipse id="XMLID_826_" class="cls-1" cx="92.399" cy="92.399" rx="92.399" ry="92.399" transform="translate(1597.65 605)"/>
    <path id="XMLID_15_" class="cls-2" d="M8.8,3.953S6.077-2.446,1.9,1.039A4.9,4.9,0,0,0,.185,6.3a19.666,19.666,0,0,0,1.837,4.942L23.753,45.2Z" transform="matrix(0.974, -0.225, 0.225, 0.974, 1678.287, 639.268)"/>
    <path id="XMLID_16_" class="cls-3" d="M9.384,2.55S6.216-2.328,1.655,1.41c0,0-3.358,3.928-.507,8.11s5.575,9.313,5.575,9.313l38.2,39.408Z" transform="matrix(0.974, -0.225, 0.225, 0.974, 1661.026, 635.473)"/>
    <path id="XMLID_17_" class="cls-4" d="M6.541.1S-.365-1.544.015,8.339l30.6,39.028,31.552,8.807L23.394,17.083Z" transform="matrix(0.978, -0.208, 0.208, 0.978, 1640.873, 635.744)"/>
    <path id="XMLID_18_" class="cls-5" d="M16.94,65,15.8,77.481,61.861,92.244,63.444,93.7,84.036,80.459S63.191,74.947,49,72.413Z" transform="translate(1627.517 594.955)"/>
    <g id="XMLID_93_" transform="matrix(0.946, 0.326, -0.326, 0.946, 1633.107, 642.747)">
      <g id="XMLID_95_">
        <rect id="XMLID_132_" class="cls-6" width="44.039" height="44.387"/>
        <g id="XMLID_96_" transform="translate(13.965 20.918)">
          <path id="XMLID_97_" d="M4.114,9.156h.811v.811h.811v.811H1.623V9.967h.811V8.286h1.68v.869Zm10.778,7.417H15.7v-.811h-.811ZM4.983,9.156h.811V8.344H4.983Zm11.531,7.417h.811v-.811h-.811Zm-9.909.811H8.228v-.811H6.606Zm7.475,0v-.811H13.27v.811Zm-3.361,0h.811V15.7H10.72ZM4.114,6.664v.811H6.606V6.664ZM3.3,7.475V6.664H1.623v1.68h.811V7.475ZM5.795,5.853H0V.058H5.795ZM4.983.869H.869V4.983H4.983ZM1.68,15.761H4.172V13.27H1.68Zm8.228-.869V15.7h.811v-.811ZM4.114,1.681H1.623V4.172H4.114ZM17.384.058V5.853H11.589V.058Zm-.869.811H12.4V4.983h4.114ZM0,11.589H5.795v5.795H0Zm.811,4.983H4.925V12.459H.811Zm0-9.909H0v4.114H.811Zm10.778,4.114v.811H12.4v-.811ZM9.1,14.081V13.27H8.286v.811H6.606v1.68H8.286v.811H9.1v-1.68h.811v-.811ZM6.606,3.361H8.228V2.55H6.606Zm6.606,6.606h1.681v.811H15.7V8.286h-.811V6.606h-.811V9.1H11.589v.811H12.4v.811h.811V9.967Zm.869,2.492H13.27v-.811h-.811v1.68H9.967v.811h1.68v1.68h.811v.811h.811V14.95h3.3v-.811H14.081v-1.68Zm0,0h.811v-1.68h-.811Zm-6.664,0v-.811h.811v-.811H9.04v-.811h.811V8.344h2.492V6.664h-.811v.811H10.72v-3.3H9.909V2.492h.811V0H9.909V1.68H9.1V0H6.606V1.68h.811V.869h.811V2.55H9.04V5.041h.811v.811H9.04v1.68H8.228V5.853H7.417V5.041H6.606v1.68h.811v.811H6.606v2.492h.811V8.344h.811v1.68H7.417v.811H6.606v2.492H8.228v-.811H7.417Zm9.1.811v-.811h-1.68v.811ZM15.7,1.681H13.212V4.172H15.7ZM9.1,12.459h1.681v-.811H9.967v-.811H9.156L9.1,12.459Zm1.623-1.68V9.967H9.909v.811Zm4.983-3.3h1.681V6.664H15.7Zm.811,6.606h.811V13.27h-.811Zm0-4.925h.811V8.344h-.811ZM9.1,4.983H8.286v.811H9.1Z"/>
        </g>
      </g>
      <text id="BONUS" class="cls-7" transform="translate(3.841 15.651)"><tspan x="0" y="0">BONUS</tspan></text>
    </g>
    <g id="XMLID_51_" transform="matrix(0.94, 0.342, -0.342, 0.94, 1624.674, 646.801)">
      <rect id="XMLID_1496_" class="cls-8" width="55.211" height="55.489"/>
      <g id="XMLID_1205_" transform="translate(1.143 1.15)">
        <g id="XMLID_1411_" transform="translate(0 0)">
          <g id="XMLID_1413_">
            <g id="XMLID_1453_">
              <rect id="XMLID_1454_" class="cls-9" width="44.039" height="44.387" transform="matrix(0.982, -0.191, 0.191, 0.982, 0, 8.403)"/>
            </g>
            <g id="XMLID_1414_" transform="translate(17.713 23.033)">
              <path id="XMLID_1415_" d="M5.795,11.473l.811-.174.174.811.811-.174.174.811-4.056.811-.174-.811.811-.174-.29-1.622,1.623-.29.116.811Zm11.937,5.215.811-.174-.174-.811-.811.174ZM6.606,11.3l.811-.174-.174-.811-.811.174Zm12.748,5.1.811-.174-.174-.811-.811.174ZM9.793,19.064l1.623-.29-.174-.811-1.623.29Zm7.3-1.391-.174-.811-.811.174.174.811Zm-3.245.637.811-.174-.29-1.622-.811.174ZM5.331,9.04l.174.811,2.434-.464-.174-.811Zm-.637.927L4.52,9.155,2.9,9.445l.29,1.622L4,10.894l-.174-.811A3.939,3.939,0,0,0,4.694,9.967ZM6.78,7.881,1.1,8.982,0,3.3,5.679,2.2ZM5.041,3.187.985,4,1.8,8.055l4.056-.811Zm-.406,15.24,2.434-.464L6.606,15.53l-2.434.464Zm7.939-2.376.174.811.811-.174-.174-.811ZM4.346,4.172l-2.434.464.464,2.434L4.81,6.606C4.868,6.606,4.346,4.172,4.346,4.172ZM17.036,0l1.1,5.679-5.679,1.1L11.357,1.1ZM16.4.985,12.343,1.8l.811,4.056,4.056-.811C17.152,5.041,16.4.985,16.4.985ZM2.2,14.66l5.679-1.1,1.1,5.679L3.3,20.339ZM3.94,19.412,8,18.6l-.811-4.056-4.056.811ZM2.086,9.677l-.811.174.811,4.056.811-.174Zm11.3,1.97.174.811.811-.174-.174-.811Zm-1.8,3.709-.174-.811-.811.174.174.811-1.623.29.29,1.623,1.623-.29.174.811.811-.174-.29-1.623.811-.174-.174-.811-.811.174ZM7.127,5.331l1.623-.29L8.576,4.23l-1.623.29Zm7.765,5.215,1.623-.29.174.811.811-.174L17.036,8.46l-.811.174-.29-1.623-.811.174.464,2.434-2.434.464.174.811.811-.174.174.811.811-.174-.232-.811Zm1.275,2.26-.811.174-.174-.811-.811.174.29,1.623-2.434.464.174.811,1.623-.29.29,1.622.811-.174.174.811.811-.174-.29-1.622,3.245-.637-.174-.811-2.434.464-.29-1.622Zm0,0,.811-.174-.29-1.622-.811.174Zm-6.49,1.275L9.5,13.27l.811-.174-.174-.811.811-.174-.174-.811.811-.174L11.3,9.5l2.434-.464-.29-1.622-.811.174.174.811-.811.174-.637-3.245-.811.174-.29-1.623.811-.174L10.6,1.275l-.811.174.29,1.622-.811.174-.29-1.622-2.434.464.29,1.622.811-.174-.174-.811.811-.174.29,1.622L9.387,4l.464,2.434.811-.174.174.811-.811.174.29,1.622L9.5,9.04l-.29-1.622L8.4,7.591,8.228,6.78l-.811.174.29,1.622L8.518,8.4l.174.811-.811.174.464,2.434.811-.174-.29-1.622.811-.174.29,1.623-.811.174.174.811-.811.174.464,2.434,1.623-.29-.174-.811Zm9.04-.927-.174-.811-1.623.29.174.811ZM15.7,1.97l-2.434.464.464,2.434L16.167,4.4ZM11.3,13.733l1.623-.29-.174-.811-.811.174-.174-.811-.811.174.348,1.565Zm1.275-1.912L12.4,11.01l-.811.174.174.811ZM16.8,7.649l1.623-.29-.174-.811-1.623.29Zm2.086,6.316.811-.174-.174-.811-.811.174ZM17.963,9.1l.811-.174L18.6,8.112l-.811.174ZM9.851,6.432l-.811.174.174.811.811-.174Z"/>
            </g>
          </g>
          <text id="BONUS-2" data-name="BONUS" class="cls-7" transform="matrix(0.982, -0.191, 0.191, 0.982, 6.703, 22.812)"><tspan x="0" y="0">BONUS</tspan></text>
        </g>
      </g>
    </g>
    <path id="XMLID_19_" class="cls-5" d="M91.976,141.153l-5.765-43.78S83.93,89.011,73.793,87.3L57.637,100.225s6.336,16.98-11.4,14L8.535,91.672S-.652,90.4-.018,99.274l28.194,23.442,14.255,16.029,13.558,12.671,3.675,6.716L92.8,143.624Z" transform="translate(1633.325 586.784)"/>
    <path id="XMLID_20_" class="cls-10" d="M159.455,236.988H109.247L91,200.875,135.92,178.7Z" transform="translate(1598.061 552.3)"/>
    <path id="XMLID_21_" class="cls-10" d="M129.141,171.4l6.779,4.625L91,198.2v-8.236Z" transform="translate(1598.061 554.066)"/>
  </g>
</svg>
