<svg xmlns="http://www.w3.org/2000/svg" viewBox="212.5 1151.029 112.232 70.858">
  <defs>
    <style>
      .cls-1, .cls-7 {
        fill: #fcfc03;
      }

      .cls-1 {
        stroke: #061f33;
      }

      .cls-1, .cls-5 {
        stroke-width: 1px;
      }

      .cls-2, .cls-3 {
        fill: #06c;
      }

      .cls-2 {
        font-size: 16px;
        font-family: TitilliumWeb-SemiBold, Titillium Web;
        font-weight: 600;
      }

      .cls-4 {
        fill: #c6f4f2;
      }

      .cls-5 {
        fill: none;
        stroke: #06c;
      }

      .cls-6 {
        fill: #fff;
      }

      .cls-8 {
        fill: #00cf86;
      }
    </style>
  </defs>
  <g id="group-6" transform="translate(62 -432)">
    <g id="XMLID_501_" transform="translate(151 1583.029)">
      <path id="XMLID_521_" class="cls-1" d="M955.654,1625.643h-20.1a15.952,15.952,0,1,0,.419,14.155h19.683Z" transform="translate(-905.4 -1588.79)"/>
      <g id="XMLID_518_" transform="translate(6.859 30.974)">
        <text id="PT" class="cls-2" transform="translate(0 18)"><tspan x="0" y="0">PT</tspan></text>
      </g>
      <path id="XMLID_515_" class="cls-3" d="M1002.174,1656.839H944.8v-53.6a3.449,3.449,0,0,1,3.434-3.434h50.589a3.449,3.449,0,0,1,3.434,3.434v53.6Z" transform="translate(-911.8 -1585.98)"/>
      <rect id="XMLID_514_" class="cls-4" width="32.665" height="25.211" transform="translate(45.396 45.648)"/>
      <line id="XMLID_513_" class="cls-5" y2="22.196" transform="translate(61.729 47.323)"/>
      <rect id="XMLID_512_" class="cls-6" width="9.297" height="9.297" transform="translate(38.863 20.018)"/>
      <rect id="XMLID_511_" class="cls-6" width="9.297" height="9.297" transform="translate(56.117 20.018)"/>
      <rect id="XMLID_510_" class="cls-6" width="9.297" height="9.297" transform="translate(73.455 20.018)"/>
      <path id="XMLID_509_" class="cls-3" d="M934.7,1599.046l37.188-15.746,35.346,15.746Z" transform="translate(-910.159 -1583.3)"/>
      <rect id="XMLID_508_" class="cls-7" width="57.206" height="14.239" transform="translate(33.168 36.853)"/>
      <ellipse id="XMLID_506_" class="cls-8" cx="7.957" cy="7.957" rx="7.957" ry="7.957" transform="translate(95.818 26.132)"/>
      <ellipse id="XMLID_504_" class="cls-8" cx="7.957" cy="7.957" rx="7.957" ry="7.957" transform="translate(93.305 15.663)"/>
      <ellipse id="XMLID_503_" class="cls-8" cx="10.47" cy="10.47" rx="10.47" ry="10.47" transform="translate(85.348 21.107)"/>
      <rect id="XMLID_502_" class="cls-8" width="2.094" height="29.399" transform="translate(98.079 40.287)"/>
    </g>
  </g>
</svg>
