<svg xmlns="http://www.w3.org/2000/svg" viewBox="229 1416 79.681 76.386">
  <defs>
    <style>
      .cls-1 {
        fill: #efd9ca;
      }

      .cls-2 {
        fill: #3598db;
      }

      .cls-3 {
        fill: #06c;
      }

      .cls-4 {
        fill: #8e989b;
      }

      .cls-5 {
        fill: #2c2f33;
      }

      .cls-6 {
        fill: #525a63;
      }
    </style>
  </defs>
  <g id="group-7" transform="translate(62 -432)">
    <g id="group-21" transform="translate(167 1848)">
      <path id="XMLID_144_" class="cls-1" d="M982.963,2076.489c-.754-.419-2.178.586-3.35,2.345l2.429-19.934-32.163,3.1,1.843,18.929a6.935,6.935,0,0,0-.586-1.089c-1.34-2.345-3.1-3.853-3.937-3.35-.921.5-.586,2.764.754,5.109s3.1,3.853,3.937,3.35a.18.18,0,0,0,.167-.167c.335,1.005,4.942,14.741,13.15,14.741,7.873,0,12.815-12.48,13.569-14.49.921-.167,2.345-1.508,3.434-3.434C983.466,2079.253,983.8,2076.991,982.963,2076.489Z" transform="translate(-934.217 -2047.174)"/>
      <path id="XMLID_143_" class="cls-2" d="M984.562,2053.611c-2.345-7.119-9.548-8.711-9.548-8.711s-1.508,5.611-12.564,5.109c0,0-12.061-.754-12.815,6.365-.754,7.2,0,18.175,0,18.175a11.234,11.234,0,0,0,.67,2.764c.419.67,1.675.921,1.508-.837s-.335-12.48-.335-12.48-.251-1.759,2.094-2.01c2.429-.251,2.094-1,2.094-1a3.651,3.651,0,0,1,4.439,1.424c2.01,2.6,15.076,7.035,19.013,5.7a1.188,1.188,0,0,1,.5-.167h0v8.041c0,2.178.251,2.01,1.089.5s1.256-10.219,1.256-10.219h0C984.645,2063.661,986.237,2058.887,984.562,2053.611Z" transform="translate(-934.643 -2044.9)"/>
      <path id="XMLID_142_" class="cls-3" d="M983.981,2113.14h-1.591c-4.02-.5-13.736-2.345-12.228-8.041,0,0-6.952,8.627-14.741,0a4.977,4.977,0,0,1-3.769,5.7,123.732,123.732,0,0,1-12.229,2.513h0a9.356,9.356,0,0,0-7.622,9.213v8.543h61.478v-8.543A9.242,9.242,0,0,0,983.981,2113.14Z" transform="translate(-931.8 -2054.678)"/>
      <g id="XMLID_134_" transform="translate(51.594 36.602)">
        <path id="XMLID_141_" class="cls-4" d="M1009.063,2128.3H998.509a5.076,5.076,0,0,1-5.109-5.109v-29.482a5.076,5.076,0,0,1,5.109-5.109h10.553a5.076,5.076,0,0,1,5.109,5.109v29.482A5.076,5.076,0,0,1,1009.063,2128.3Z" transform="translate(-993.4 -2088.6)"/>
        <path id="XMLID_140_" class="cls-1" d="M1018.242,2115.461l-10.721,2.094a1.635,1.635,0,0,1-1.926-1.34h0a1.635,1.635,0,0,1,1.34-1.927l10.721-2.094a1.634,1.634,0,0,1,1.926,1.34h0A1.635,1.635,0,0,1,1018.242,2115.461Z" transform="translate(-995.376 -2092.427)"/>
        <path id="XMLID_139_" class="cls-1" d="M1022.095,2118.861l-14.574,2.848a1.634,1.634,0,0,1-1.926-1.34h0a1.634,1.634,0,0,1,1.34-1.927l14.574-2.847a1.634,1.634,0,0,1,1.927,1.34h0A1.634,1.634,0,0,1,1022.095,2118.861Z" transform="translate(-995.376 -2092.98)"/>
        <path id="XMLID_138_" class="cls-1" d="M1020.422,2127.978l-6.784,1.34a1.065,1.065,0,0,1-1.256-.837l-.084-.586a1.065,1.065,0,0,1,.838-1.256l6.784-1.34a1.065,1.065,0,0,1,1.256.838l.084.586A1.11,1.11,0,0,1,1020.422,2127.978Z" transform="translate(-996.467 -2094.559)"/>
        <path id="XMLID_137_" class="cls-1" d="M1020.206,2123.76l-10.553,2.01a1.419,1.419,0,0,1-1.675-1.173l-.084-.419a1.418,1.418,0,0,1,1.173-1.675l10.553-2.01a1.418,1.418,0,0,1,1.675,1.173l.084.419A1.555,1.555,0,0,1,1020.206,2123.76Z" transform="translate(-995.749 -2093.775)"/>
        <path id="XMLID_136_" class="cls-5" d="M1007.642,2098.247h-3.937a1.018,1.018,0,0,1-1.005-1.005v-3.936a1.018,1.018,0,0,1,1.005-1.005h3.937a1.018,1.018,0,0,1,1.005,1.005v3.936A1.081,1.081,0,0,1,1007.642,2098.247Z" transform="translate(-994.911 -2089.201)"/>
        <ellipse id="XMLID_135_" class="cls-6" cx="1.256" cy="1.173" rx="1.256" ry="1.173" transform="translate(9.465 4.858)"/>
      </g>
    </g>
  </g>
</svg>
