<?xml version="1.0" encoding="utf-8"?>
<!-- Generator: Adobe Illustrator 19.0.0, SVG Export Plug-In . SVG Version: 6.00 Build 0)  -->
<svg version="1.1" xmlns="http://www.w3.org/2000/svg" xmlns:xlink="http://www.w3.org/1999/xlink" x="0px" y="0px"
	 viewBox="0 0 165 180.5" style="enable-background:new 0 0 165 180.5;" xml:space="preserve">
<style type="text/css">
	.st0{clip-path:url(#XMLID_82_);fill:#FFFFFF;}
</style>
<g id="Layer_2">
</g>
<g id="Layer_1">
	<g>
		<defs>
			<rect id="XMLID_1_" width="170" height="244.4"/>
		</defs>
		<clipPath id="XMLID_82_">
			<use xlink:href="#XMLID_1_"  style="overflow:visible;"/>
		</clipPath>
		<path id="XMLID_2_" class="st0" d="M58.2,5.9c31.3-12,65-5.1,89.2,14.7c28.7,23.4,8.1,41.6-11.3,45.4c-3.7,0.7-13.2,1.7-21.5-4.1
			c-8.3-5.8-24.3-10.6-34.9-17.5c-10.6-6.9-14.2-12.4-16-17c-1.8-4.6-8.2,0-8.5,7.3c-0.4,7.3,4.9,17.2,11.9,21.1
			c6.9,3.8,13,9.7,8.9,12.8c-4.1,3-10.7,7.1-15.2,9.2c-4.4,2.1-10.7,5.6-9.2,12.6c1.4,7,3.7,10.1,7.2,10.7c-2.8,3-1.6,13.4,6.2,15.5
			c-2.4,5.1,3.8,13.2,12,12.6c0.3,5.8,3.9,11.7,12.8,9.8c8.9-2,29-8.4,40-16.2c28.9-20.6,43.4,7.2,28,25.7
			c-9.1,10.9-21.3,19.3-35.4,24.7c-46.1,17.7-97.9-5.3-115.6-51.5C-11,75.4,12.1,23.6,58.2,5.9"/>
	</g>
</g>
</svg>
