<?xml version="1.0" encoding="utf-8"?>
<!-- Generator: Adobe Illustrator 19.0.0, SVG Export Plug-In . SVG Version: 6.00 Build 0)  -->
<svg version="1.1" id="Layer_1" xmlns="http://www.w3.org/2000/svg" xmlns:xlink="http://www.w3.org/1999/xlink" x="0px" y="0px"
	 viewBox="-332 266.3 175.7 63" style="enable-background:new -332 266.3 175.7 63;" xml:space="preserve">
<style type="text/css">
	.st0{fill:#0066CC;}
</style>
<path class="st0" d="M-326.3,329.2c0,0,7.4-0.1,9.9-0.1c2.4,0,2.3-0.7,2.3-0.7l-1-13.2c-0.4-2.8-1-2.6-1-2.6l-3.2-0.3
	c-3.7-0.5-5.1-4.1-5.1-4.1l0.9-19.8c0.2-6.3,7.6-5.6,7.6-5.6l1.4-1l2.8-13v-1.2l-1-1.2l-10.9-0.1l-1.8,1.9
	c-1.3,1.9-4.5,13.8-4.5,13.8S-336.5,306.6-326.3,329.2L-326.3,329.2z"/>
<path class="st0" d="M-306.5,329.3h142.4c6.5,0,7.9-3.6,7.9-6.7v-41c0-5.4-2.4-8.5-6.7-8.5h-69.8c-0.7,0-1.3,0.5-1.3,1.2
	s0.6,1.2,1.2,1.2h69.8c2.9,0,4.3,2.1,4.3,6.1v41c0,2.1-0.7,4.3-5.5,4.3h-142.3V329.3L-306.5,329.3z"/>
<g>
	<path class="st0" d="M-298.7,299.6c0,9.4-2.2,12.6-6.2,12.6s-6.2-3.3-6.2-12.6c0-9.3,2.2-12.9,6.2-12.9
		C-300.9,286.6-298.7,290.2-298.7,299.6z M-307.6,299.6c0,6.1,0.8,8.2,2.8,8.2s2.7-2.1,2.7-8.2c0-6.4-0.8-8.5-2.7-8.5
		C-306.7,291.1-307.6,293.1-307.6,299.6z"/>
	<path class="st0" d="M-286.1,291.7c0,0-2.5-0.6-4.5-0.6c-2.2,0-3.2,2.4-3.2,5.8c0,0,1.9-0.9,3-0.9c3.6,0,5.5,2.4,5.5,8
		c0,5.6-2.3,8.3-5.9,8.3c-4.3,0-6.1-4.8-6.1-12.7c0-9.4,2.6-12.9,6.7-12.9c2,0,4.8,1.1,4.8,1.1L-286.1,291.7z M-293.8,301.2
		c0,3.6,0.7,6.5,2.7,6.5c1.5,0,2.4-1.4,2.4-3.8c0-2.3-0.8-3.5-2.3-3.5C-292.3,300.4-293.8,301.2-293.8,301.2z"/>
	<path class="st0" d="M-283.2,305.6h3.5v6.2h-3.5V305.6z"/>
	<path class="st0" d="M-265.7,293.4c0,3-0.4,3.9-1.7,5.6c1.3,1.6,2,2.9,2,6c0,5.2-2.8,7.1-6.1,7.1c-3.4,0-6-1.5-6-6.7
		c0-3.4,0.7-4.8,2-6.4c-1.4-1.7-1.7-3.1-1.7-5.7c0-4.3,2.3-6.7,5.8-6.7C-268.2,286.6-265.7,289.1-265.7,293.4z M-269.1,304.3
		c0-1.2-0.5-2.2-1.4-2.8h-2.1c-1,0.6-1.5,1.6-1.5,2.8c0,2.3,0.8,3.3,2.5,3.3C-270,307.6-269.1,306.6-269.1,304.3z M-273.8,294.2
		c0,1.2,0.4,2.1,1.2,2.9h2.1c0.8-0.8,1.2-1.7,1.2-2.9c0-1.9-0.8-2.9-2.3-2.9C-273,291.3-273.8,292.3-273.8,294.2z"/>
	<path class="st0" d="M-263.2,311.8v-4.4l3.4-5.3c2.1-3.3,3.2-5.2,3.2-7.6c0-2.5-0.8-3.3-2.6-3.3c-1.6,0-3.8,0.6-3.8,0.6l-0.2-4
		c0,0,2.4-1.1,4.8-1.1c3.7,0,5.2,2.5,5.2,7.1c0,3.8-0.9,6-3.6,9.7l-2.7,3.8h6.6v4.5H-263.2z"/>
	<path class="st0" d="M-238.6,293.4c0,3-0.4,3.9-1.7,5.6c1.3,1.6,2,2.9,2,6c0,5.2-2.8,7.1-6.1,7.1s-6-1.5-6-6.7c0-3.4,0.7-4.8,2-6.4
		c-1.4-1.7-1.7-3.1-1.7-5.7c0-4.3,2.3-6.7,5.8-6.7C-241.1,286.6-238.6,289.1-238.6,293.4z M-242,304.3c0-1.2-0.5-2.2-1.4-2.8h-2.1
		c-1,0.6-1.5,1.6-1.5,2.8c0,2.3,0.8,3.3,2.5,3.3S-242,306.6-242,304.3z M-246.7,294.2c0,1.2,0.4,2.1,1.2,2.9h2.1
		c0.8-0.8,1.2-1.7,1.2-2.9c0-1.9-0.8-2.9-2.3-2.9C-245.9,291.3-246.7,292.3-246.7,294.2z"/>
	<path class="st0" d="M-225.1,293.4c0,3-0.4,3.9-1.7,5.6c1.3,1.6,2,2.9,2,6c0,5.2-2.8,7.1-6.1,7.1c-3.4,0-6-1.5-6-6.7
		c0-3.4,0.7-4.8,2-6.4c-1.4-1.7-1.7-3.1-1.7-5.7c0-4.3,2.3-6.7,5.8-6.7C-227.5,286.6-225.1,289.1-225.1,293.4z M-228.4,304.3
		c0-1.2-0.5-2.2-1.4-2.8h-2.2c-1,0.6-1.5,1.6-1.5,2.8c0,2.3,0.8,3.3,2.5,3.3S-228.4,306.6-228.4,304.3z M-233.1,294.2
		c0,1.2,0.4,2.1,1.2,2.9h2.1c0.8-0.8,1.2-1.7,1.2-2.9c0-1.9-0.8-2.9-2.2-2.9C-232.3,291.3-233.1,292.3-233.1,294.2z"/>
	<path class="st0" d="M-211.5,293.4c0,3-0.4,3.9-1.7,5.6c1.3,1.6,2,2.9,2,6c0,5.2-2.8,7.1-6.1,7.1c-3.4,0-6-1.5-6-6.7
		c0-3.4,0.7-4.8,2-6.4c-1.4-1.7-1.7-3.1-1.7-5.7c0-4.3,2.3-6.7,5.8-6.7C-214,286.6-211.5,289.1-211.5,293.4z M-214.8,304.3
		c0-1.2-0.5-2.2-1.4-2.8h-2.1c-1,0.6-1.5,1.6-1.5,2.8c0,2.3,0.8,3.3,2.5,3.3S-214.8,306.6-214.8,304.3z M-219.6,294.2
		c0,1.2,0.4,2.1,1.2,2.9h2.1c0.8-0.8,1.2-1.7,1.2-2.9c0-1.9-0.8-2.9-2.2-2.9C-218.8,291.3-219.6,292.3-219.6,294.2z"/>
	<path class="st0" d="M-209.2,305.6h3.5v6.2h-3.5V305.6z"/>
	<path class="st0" d="M-202.7,287.1h10.2v5.8l-5.7,19.3l-3.1-1.3l5.4-18v-1.2h-6.9v-4.6H-202.7z"/>
	<path class="st0" d="M-189.3,288c0,0,2.2-1.3,4.6-1.3c4.2,0,5.6,2.2,5.6,6.8c0,2.7-0.7,4.3-1.9,5.5c1.3,1.1,2.2,2,2.2,5.4
		c0,5.2-1.5,7.9-5.4,7.9c-2.4,0-5.2-1.3-5.2-1.3l0.2-3.9c0,0,2.7,0.7,4.5,0.7c1.6,0,2.5-1,2.5-3.3c0-1.8-0.9-3-2.3-3h-3.2v-4.3h3.2
		c1.1,0,2-1.7,2-3.4c0-1.8-0.8-2.7-2.4-2.7c-1.9,0-4.2,0.7-4.2,0.7L-189.3,288z"/>
	<path class="st0" d="M-165.3,291.7c0,0-2.5-0.6-4.5-0.6c-2.2,0-3.2,2.4-3.2,5.8c0,0,1.9-0.9,3-0.9c3.6,0,5.5,2.4,5.5,8
		c0,5.6-2.3,8.3-5.9,8.3c-4.3,0-6.1-4.8-6.1-12.7c0-9.4,2.6-12.9,6.7-12.9c2,0,4.8,1.1,4.8,1.1L-165.3,291.7z M-173,301.2
		c0,3.6,0.7,6.5,2.7,6.5c1.5,0,2.4-1.4,2.4-3.8c0-2.3-0.8-3.5-2.3-3.5C-171.5,300.4-173,301.2-173,301.2z"/>
</g>
<g>
	<path class="st0" d="M-302.2,269.6c0,0-1.6-0.2-2.2-0.2c-0.8,0-1.2,0.3-1.2,0.9c0,0.5,0.3,0.7,1.6,1.1c1.7,0.6,2.2,1.1,2.2,2.4
		c0,1.8-1.1,2.6-2.6,2.6c-1,0-2.6-0.4-2.6-0.4v-1.2c0,0,1.5,0.2,2.3,0.2c0.8,0,1.2-0.4,1.2-1.1c0-0.5-0.3-0.7-1.4-1.1
		c-1.7-0.5-2.4-1.2-2.4-2.5c0-1.7,1.1-2.4,2.6-2.4c1,0,2.5,0.3,2.5,0.3V269.6z"/>
	<path class="st0" d="M-296,270.3v6h-1.5V276c0,0-0.8,0.5-1.4,0.5c-1.6,0-2-1-2-3v-3.2h1.5v3.2c0,1.1,0,1.5,0.8,1.5
		c0.6,0,1.1-0.2,1.1-0.2v-4.5H-296z"/>
	<path class="st0" d="M-294.6,270.3h1.5v0.3c0,0,0.7-0.5,1.3-0.5c1.5,0,2.2,0.9,2.2,3.1c0,2.6-0.8,3.2-2.6,3.2
		c-0.4,0-0.9-0.1-0.9-0.1v2.5h-1.5V270.3z M-293.1,271.8v3.1c0,0,0.5,0.1,0.8,0.1c0.9,0,1.1-0.5,1.1-1.8c0-1.2-0.4-1.7-1-1.7
		C-292.5,271.6-293.1,271.8-293.1,271.8z"/>
	<path class="st0" d="M-288.4,270.3h1.4v0.3c0,0,0.7-0.5,1.3-0.5c1.5,0,2.2,0.9,2.2,3.1c0,2.6-0.8,3.2-2.6,3.2
		c-0.4,0-0.9-0.1-0.9-0.1v2.5h-1.5v-8.5H-288.4z M-286.9,271.8v3.1c0,0,0.5,0.1,0.8,0.1c0.9,0.1,1.1-0.5,1.1-1.7s-0.4-1.7-1-1.7
		C-286.4,271.6-286.9,271.8-286.9,271.8z"/>
	<path class="st0" d="M-277.4,273.3c0,1.8-0.6,3.2-2.6,3.2s-2.6-1.3-2.6-3.2c0-1.8,0.6-3.1,2.6-3.1
		C-278.1,270.2-277.4,271.5-277.4,273.3z M-279,273.3c0-1.2-0.2-1.8-1.1-1.8c-0.8,0-1.1,0.6-1.1,1.8s0.2,1.8,1.1,1.8
		S-279,274.5-279,273.3z"/>
	<path class="st0" d="M-276.3,270.3h1.5v0.6c0,0,0.9-0.6,1.8-0.8v1.6c-1,0.3-1.8,0.6-1.8,0.6v4h-1.5V270.3z"/>
	<path class="st0" d="M-270.4,271.7v2.5c0,0.6,0,0.9,0.5,0.9c0.3,0,0.9,0,0.9,0v1.2c0,0-0.8,0.2-1.1,0.2c-1.4,0-1.8-0.6-1.8-2.3
		v-2.5h-0.7v-1.4h0.7v-1.7h1.5v1.7h1.4v1.4H-270.4z"/>
	<path class="st0" d="M-263.2,273.3c0,1.8-0.6,3.2-2.6,3.2s-2.5-1.4-2.5-3.2s0.6-3.1,2.6-3.1S-263.2,271.5-263.2,273.3z
		 M-264.7,273.3c0-1.2-0.2-1.8-1.1-1.8c-0.8,0-1.1,0.6-1.1,1.8s0.2,1.8,1.1,1.8C-264.9,275.1-264.7,274.5-264.7,273.3z"/>
	<path class="st0" d="M-254.8,269.6c0,0-1.6-0.2-2.2-0.2c-0.8,0-1.2,0.3-1.2,0.9c0,0.5,0.3,0.7,1.6,1.1c1.7,0.6,2.2,1.1,2.2,2.4
		c0,1.8-1.1,2.6-2.6,2.6c-1,0-2.6-0.4-2.6-0.4l0.2-1.3c0,0,1.5,0.2,2.3,0.2c0.8,0,1.2-0.4,1.2-1.1c0-0.5-0.3-0.7-1.4-1.1
		c-1.7-0.5-2.4-1.2-2.4-2.5c0-1.7,1.1-2.4,2.6-2.4c1,0,2.5,0.3,2.5,0.3L-254.8,269.6z"/>
	<path class="st0" d="M-251.8,273.9v2.4h-1.6v-8.1h2.8c1.8,0,2.7,0.9,2.7,2.8c0,1.9-0.9,3-2.7,3h-1.2V273.9z M-250.5,272.5
		c0.8,0,1.2-0.5,1.2-1.5s-0.4-1.4-1.2-1.4h-1.2v3L-250.5,272.5L-250.5,272.5z"/>
	<path class="st0" d="M-246.7,268.2h1.6v8.1h-1.6V268.2z"/>
	<path class="st0" d="M-243.5,276.3v-8.1h2.6c2.7,0,3.3,1.2,3.3,3.9c0,2.8-0.5,4.2-3.3,4.2H-243.5z M-240.9,269.6h-1v5.3h1
		c1.5,0,1.7-1,1.7-2.8C-239.2,270.3-239.4,269.6-240.9,269.6z"/>
</g>
</svg>
